<?xml version="1.0" encoding="utf-8"?>
<!-- Generator: Adobe Illustrator 24.1.2, SVG Export Plug-In . SVG Version: 6.00 Build 0)  -->
<svg version="1.1" id="Layer_1" xmlns="http://www.w3.org/2000/svg" xmlns:xlink="http://www.w3.org/1999/xlink" x="0px" y="0px"
	 viewBox="0 0 1470.1 1739.6" style="enable-background:new 0 0 1470.1 1739.6;" xml:space="preserve">
<style type="text/css">
	.st0{fill:none;stroke:#000000;stroke-width:2;stroke-linecap:round;stroke-linejoin:round;stroke-miterlimit:10;}
</style>
<g id="lY57jg_5_">
	<g>
		<path class="st0" d="M323.9,412.1c-9.6-1.1-19.3-0.7-29-1.1c-11.6-0.5-22.9,1-33.5,5.7c-16.2,7.2-31.7,15.7-44,28.9
			c-14.9,16.1-29.1,33-44.7,48.3c-15.9,15.5-29,33.5-45.8,48.3c-3.3,2.9-6.1,6.7-8.5,10.5c-2.3,3.8-5.4,6.8-8.7,9.3
			c-6.5,4.9-12.1,10.5-17,17.1c-5.5,7.4-12.3,13.7-19,20c-5.1,4.9-9.6,10.1-13.4,16.1c-4,6.1-8.4,11.7-14.4,16.1
			c-4.2,3.1-8.1,6.9-10.4,11.5c-6.3,12.3-14.1,23.4-24.1,33c-6,5.8-6.6,14.1-8.9,21.5c-4,13.1-0.5,24.1,10.8,32.5
			c15.4,11.5,30.3,23.9,47.2,32.6c15.3,7.9,30.4,16.7,47.3,21.4c11.4,3.2,22.7,6.5,34,10c22.1,6.9,45,10,67.5,14.8
			c12.5,2.7,25.3,4.4,37.9,6.3c22.4,3.4,44.5,9.1,65.4,18c7.9,3.4,15.7,7.7,21.2,15.2c2.9,3.9,7.2,6.8,10.3,10.6
			c6.1,7.3,11.7,14.7,15.3,23.9c4.1,10.4,13.5,17.6,19.3,27.1c6.2,10.3,12.7,20.4,15.1,32.5c1.4,7.2,1.9,14.6,4.4,21.5
			c0.5,1.3,0.6,2.5,2.1,3"/>
		<path class="st0" d="M1424.9,511.1c4.6-10.4,12.5-17.9,20.9-25.1c5.2-4.4,9.8-9.5,14.5-14.4c5.1-5.3,7.3-12.1,7.9-19
			c1-12,1.2-24,0.2-36c-0.1-1.1-0.4-2-0.9-3c-4.1-8.6-9-16.5-14.8-24.2c-8-10.6-14.5-22.6-10.1-36.8c1.5-4.9,4.9-9.2,6.8-14.1
			c4.5-11.6,7.9-23.5,8.6-36c0.2-3.4-0.5-6.5-2.4-9.6c-5.7-9.4-8.5-20-12.9-30c-3.6-8.2-9.2-15.3-12.3-23.9
			c-2.1-5.8-3.3-11.5-3.9-17.6c-1-11.3,1.4-22.4,2.6-33.5c0.8-7.2,0.3-13.6-4.5-19.6c-4-5.1-5.8-11.9-10.2-16.8
			c-12.4-14.2-27.1-24.9-45.9-29.1c-7-1.5-12.2-5.8-17.6-10.3c-12.7-10.8-19.7-25-25.3-40.2c-2.7-7.4-6.8-13.7-12.5-19
			c-4.1-3.9-7.5-8.5-11.6-12.4c-14.2-13.6-31-23.1-49.5-29.5c-6.1-2.1-12.6-1.8-19-2c-13.6-0.5-26.8-2.5-40.1-5.9
			c-9.7-2.5-20.2-4.1-29.3,1.5c-6.9,4.2-14,8.7-18.2,16.3c-0.9,1.6-2.5,2.2-4.5,1.5c-3.3-1.1-6.4-0.5-9.5,1
			c-6.2,2.9-11.7,6.9-17.4,10.6c-2.6,1.7-4,4.8-4.5,7.9c-2,12.4-9.8,19.9-21.1,23.3c-11.1,3.3-17.7,10.6-21.9,20.7
			c-0.7,1.7-1.2,3.6-3,4.5"/>
		<path class="st0" d="M608.9,118.1c-5.1-4.4-7.1-10.8-10.9-16.1c-3.2-4.5-7.1-7.9-12.1-9.9c-9.6-3.8-19.1-8-29.5-9.7
			c-3.7-0.6-7.2-0.2-10.5,0.7c-9.9,2.8-20,2.6-30,2.3c-3-0.1-6-1.9-9-2.9c-8.3-2.7-16.5-2-25-0.6c-12.9,2.2-24.3,7.9-35.5,14.1
			c-7.2,4-14.6,7.6-22.5,9.9c-3.5,1-7.3,0.5-11,1.2c-7.3,1.3-12.2,7.2-18.5,10.5c-9.6,5-16.8,13.1-23.9,21.1c-7.1,8-16,12.9-25.1,18
			c-6.4,3.7-12.4,8.1-18,13c-5.7,5-8.3,12.1-8.9,19.4c-0.8,10.8-4.6,20.6-8.2,30.5c-2.4,6.6-5.2,13-8,19.5c-1.4,3.3-2.5,6.7-5.5,9
			c-8.4,6.7-9.5,16.3-10.5,26c-1,9.4,1.4,17.6,8,24.5c2.4,2.5,2.3,5.4,1.2,9c-3.4,10.7-8.4,20.6-13.6,30.5c-4.9,9.5-9,19.4-11.1,30
			c-1,5.4-0.7,5.6,4.5,7.5c3.7,1.4,7.1,1.6,10.5-0.5c5.1-3.2,10.3-3.1,15.5-0.5c6.5,3.3,13.7,5,18.7,11.4c5.6,7.1,6.6,14.9,5.7,23.1
			c-0.8,7.3,0.5,13.4,5.7,18.5c8,7.9,17,15,27.1,19.8c10.1,4.9,13.7,12.5,14.7,23.2c0.6,6.6,3.5,13.1,5.8,19.5
			c6.5,18.1,7.7,36.8,5.2,55.5c-1.9,14-7.2,27.5-11.6,41.1c-4.1,12.7-11.3,23.9-16.6,36c-6.1,14.1-11.9,28.2-17.5,42.5
			c-3.4,8.7-7.8,16.7-14.2,23.4c-5.4,5.6-7.8,12.8-7.4,19.6c0.3,4.9,0.2,10.6,3.3,15.6c4.8,7.9,9.5,15.8,16.7,21.9"/>
		<path class="st0" d="M758.9,409.1c-2.2,13.7-6.7,26.5-14.5,38c-6,8.9-12.7,17.4-18.3,26.6c-5,8.3-7,17.8-7.1,27.4
			c-0.2,16-0.2,32,0,48c0.2,19.8,4.8,38.6,15.5,55.5c6.2,9.7,15.4,14.7,26.9,15c18.5,0.6,34.1-6.3,48-18c4.5-3.8,9.1-7.2,14.5-9.5
			c10.8-4.5,20-12,31-16c14.1-5.2,25.7-14.5,37-24c6.7-5.7,14.6-9.5,21.6-14.8c3.6-2.7,7.1-5.5,9.3-9.2c5.6-9.2,13.6-16.3,22.3-21.6
			c12.2-7.5,18.5-18.5,23.2-30.8c5.8-15.3,14-28.8,26.6-39.5c0.7-0.6,1.3-1.3,2-2"/>
		<path class="st0" d="M613.4,1077.1c-6.2,11.4-8.5,23.6-8,36.5c0.1,3.3,0,6.7,0,10c0.3,17.3,2.6,34.4,5.3,51.5
			c2.1,13.4,5.4,26.7,5.2,40.5c-0.2,27.6,4.8,54.4,11.4,81c2.2,9,2.7,18.3,4.1,27.5c3,19.9,6.9,39.6,12.1,59
			c1.7,6.3,4.6,12.4,6.9,18.5c6.6,17.5,10.3,35.9,15.1,54c5.9,22.5,14.4,44.1,23.3,65.6c4.5,11,7.8,22.6,11.6,33.9
			c5.4,16,13.2,31.1,19.9,46.5c2.9,6.7,4.9,13.8,7.9,20.5c2.3,5.2,5.5,9.7,7.8,14.9c2.1,4.7,3.9,9.4,4.4,14.5"/>
		<path class="st0" d="M625.9,128.6c-0.7,8.2-3,16-6.4,23.5c-1.4,3.1-4.5,5.5-4.1,9.5c0.3,2.5-0.2,5,0.5,7.5
			c1.8,7.7-2.2,11.9-10.4,12.6c-9.1,0.7-16.8-3.7-25-6.1c-3.1-0.9-6-2.6-9-3.9c-9.2-4-17.6,0.7-26,3.1c-4.6,1.4-8.6,4.6-11,8.9
			c-4.1,7.1-10.6,10-18.1,10.9c-7.8,0.9-14.7,3.3-21.1,8c-4.7,3.4-9.7,6.5-14.8,9.3c-7.7,4.1-11.7,11.6-15.1,19.4
			c-4.3,9.8-5,20-3.1,30.5c0.8,4.2-0.9,8.5-2.4,12.5c-2.8,7.5-6.6,14.8-8.3,22.6c-2.7,12.3-2.5,24.8,1.3,36.9
			c2.1,6.7,2.3,13.5,0.2,19.9c-1.3,4-2.1,8.2-1.9,12.1c0.1,3,2.6,6.2,3.6,9.5c3.9,13,11.1,24.3,18.5,35.5
			c4.3,6.6,8.6,13.3,15.6,17.4c10.1,6,20.9,10.3,32.5,12.6c5.9,1.2,11.1-1.4,15.9-3.3c10.8-4.3,21.3-9.2,29.8-18
			c8.1-8.3,16.5-16.2,23.4-25.6c2.6-3.5,6.6-6,9.9-9.1c4.7-4.4,8.7-9.4,12.1-14.9c5.7-9.2,11.9-18.1,17.9-27.1
			c6.8-10.1,9.4-21.6,10.5-33.5c1.1-11-0.3-21.5-3.5-32c-3.4-11.2-2.7-22.2,2.3-33c5.7-12.3,4.8-24.8-0.9-37c-2-4.3-3.9-8.7-6-13
			c-3.9-8-10.7-13.6-16-20.5"/>
		<path class="st0" d="M627.9,1006.1c6.8,11.9,18.4,18,30.1,23.3c16.9,7.7,32,18.7,48.9,26.3c9,4,18.6,5.7,28,7.9
			c23.2,5.4,46.7,8.5,70.5,10.1c7.7,0.5,15.2,2.8,23,2.9c13.9,0.2,27.5,3.3,41.5,3.1c11.8-0.2,23.7,0.4,35.5,0.4
			c22.7-0.1,44.9-3.9,66.4-10.7c9.9-3.1,19-9,28.1-14.1c12.7-7.2,23.3-16.8,34-26.6"/>
		<path class="st0" d="M1155.4,1188.1c9.5,2.3,19.2,3.3,29,3.1c17-0.3,34.1,0.5,51-1.6c8.7-1.1,17.1-3.1,26-3.1
			c16.7-0.1,33,1.6,49.5,3.9c15.9,2.2,31.8,4.5,47.4,8.4c14.4,3.6,25.9,11.1,30.6,26.4c0.5,1.6,1.3,3.5,2.5,4.4
			c4.1,2.8,2.1,6.3,0.8,9c-3.2,7-7.2,13.6-12.2,19.7c-6.3,7.6-11.5,16-16.3,24.8c-5.5,10.1-14,18.2-19.9,28.1
			c-1.9,3.3-2.8,6.3-2.4,10.5c0.5,5.6-0.7,11.6-1.1,17.5c-0.7,10.7-1.3,21.3-2,32c-0.8,12.5-2.1,25-2.4,37.5
			c-0.3,10.8,0.2,21.7,0.9,32.5c1.4,21.2,5.1,42.2,5.6,63.5c0.6,25.2,1.2,50.5,4.9,75.5c1.8,12.2,5.1,24.1,8.3,36
			c4.1,15.4,7.3,30.9,7.6,47c0.2,11,4.1,21.4,6.3,32c2.2,10.6,5.8,20.8,7.7,31.5"/>
		<path class="st0" d="M608.9,1084.6c-12.3-6.3-24.6-12.7-37-19c-12.8-6.5-26-12.4-38.9-18.6c-18.6-8.9-35.9-20.2-53.6-30.8
			c-9.9-5.9-19.8-11.9-30.4-16.7c-11.8-5.3-20.1-14.3-25.5-26c-2.5-5.3-6.5-9.4-11-12.9c-2.6-2.1-5.9-2.7-7.9,1
			c-1.6,2.8-3.4,5.4-4.8,8.3c-2.5,5.2-7.8,8.6-12.8,11.5c-4.7,2.8-9.6,5.4-14.9,7.3c-6.7,2.4-9.3,9-12.6,14.8
			c-8.7,15.1-13.1,31.7-17,48.5c-2.8,12.2-7.2,24.2-8.7,36.5c-2.5,20.5-8.8,40.3-10.4,61c-0.6,8-2.2,15.9-2.6,24
			c-0.2,4.4,0.1,8.7,0.2,13c0.3,12.8-1.7,25.4-3.1,38c-1,9.2-0.3,18.3,0,27.5c0.7,16.3,5.9,31.6,10.6,47c5,16.5,10.4,33,18.1,48.4
			c5.4,10.8,11.8,21.1,16.8,32.1c8.6,18.9,17,37.8,26.1,56.4c4.9,9.9,11.5,18.9,16.8,28.6c3.6,6.7,7.5,13.1,10.4,20.3
			c6.7,16.4,13.2,32.9,20.1,49.2c6.2,14.7,11.5,29.7,17.7,44.4c5.1,12.3,9.4,24.8,11.5,38c1.4,9,3.2,18,4.4,27
			c1.3,9.5,4.2,18.7,6.3,27.9c4.5,19.8,8.2,39.7,9.3,60.1c0.1,2.3,0.3,4.7,0.5,7"/>
		<path class="st0" d="M685.2,735.1c-5.3-0.3-9.8-3.2-14.7-4.6c-9.5-2.7-19.3-2.9-29-3.3c-17.3-0.7-34.7-0.1-52-0.7
			c-12.8-0.5-25.7-0.5-38.5-0.3c-20.5,0.3-41,1.7-61,6.1c-18.7,4.2-37.4,8.9-55.5,15.3c-15,5.3-30,10.7-45,16
			c-3.5,1.2-6.5,3.3-9.5,5.5c-7.7,5.7-16.7,8.5-26,10c-7.5,1.2-11.5-1.5-14.5-9c-1.9-4.6-4.5-8.8-5.1-14c-0.8-6.8,2.5-10.6,7.7-13.5
			c8.8-4.9,18.5-7.4,27.9-10.6c12.5-4.2,25.4-7.3,37.5-12.4c11.2-4.7,23.4-5.8,35-9c5.3-1.5,10.5-2.7,16-3c0.5,0,1.1-0.6,1.5-0.4
			c10.7,2.6,19.8-3,28.9-6.8c8.3-3.5,16.1-8.3,23.1-14.2c3.3-2.8,7.1-5,11-7.1c9.2-4.9,18.4-9.9,26.4-16.6
			c9.7-8.1,20.9-9.2,32.6-8.3c5.7,0.4,11.4,0.6,17,1.8c9.6,2,17,7.9,25.1,13c12.4,7.9,26,12.4,40.9,12.6c1.6,0,3.1-0.2,4.5-1"/>
		<path class="st0" d="M151.2,691.1c8.4,6.8,15.4,15.1,23.1,22.7c8.5,8.4,18.6,13.3,29.2,17.8c7,2.9,13.8,5.9,20.6,9.3
			c10.6,5.3,21.7,9.6,32.4,14.6c4.3,2,8,4.8,11.9,7.2c3.7,2.2,7.4,4.3,11.5,5.4c7.1,1.8,13.3,5.7,19.9,8.7
			c10.6,4.7,20.7,10.4,32,13.4c12,3.2,21,11.3,28.3,20.6c6.6,8.4,13.4,16.7,19.7,25.4c2.2,3.1,3.8,6.6,5.5,10
			c4.6,9.2,9.4,18.3,16.4,26.1c3.8,4.2,6.4,9.4,8.1,14.9c2.9,9.2,8.8,16.6,14,24.5c6,9,6.6,18.4,1.4,28c-1.3,2.5-2.6,4.9-3.4,7.5"/>
		<path class="st0" d="M1032.9,775.6c-11.4,0.6-22.4-1.8-31.9-7.7c-9.8-6.1-20-10.7-30.6-14.8c-11.8-4.6-23.5-9.4-35.5-13.5
			c-15.3-5.2-31-7.5-47-9.1c-9.6-1-19-3.7-28.5-4.8c-31.6-3.4-63.2-5.2-95-4c-18,0.6-36.1,0.2-54,2.9c-6.8,1-13.5,2.4-20.5,2.1
			c-6.5-0.3-10.5-4-10.5-10.6c0-5.3,0.1-10.7,0-16c-0.2-6.9-2.1-13.2-7.5-18c-6.4-5.6-12.4-11.6-17.9-18.1c-5.1-5.9-8.1-12.9-8.1-21
			c0.1-11-0.4-22,3.6-32.5c4.4-11.6,9.9-22.7,16.9-33c4.6-6.8,10.6-12.5,15.1-19.4c7.8-12.1,13.2-25.1,16.4-39.1
			c3.6-15.8,10.6-30.1,18.6-44c9.3-16,16.5-32.8,23-50c1.8-4.8,4.3-9.4,6.4-14"/>
		<path class="st0" d="M315.9,708.6c-8-6.8-12.6-15.8-15.4-25.5c-5-17.1-11.8-33.1-21.5-48c-3.7-5.6-3.7-12.6-5.6-18.9
			c-1.6-5.3-0.6-10.7-1.4-16c-0.5-3.3,0.8-5.7,3.8-8.1c7.3-5.9,16.1-9.9,22.6-16.9c5.1-5.5,11.5-10.3,13.4-18
			c1.4-5.7,2.3-7.9-5.9-8.1c-7.8-0.2-13.5,2.5-16.9,9.2c-10.1,19.8-23.6,37-39.9,52.1c-10.4,9.6-19.5,20.7-29.9,30.1
			c-14.4,13-27.6,27.2-42.8,39.3c-6.1,4.8-13.8,6.3-20.9,9.2c-6.1,2.5-12,0.8-18,0.6c-4.2-0.1-8.6,1.1-13,1.4
			c-12.7,0.9-25.3,1.4-38-0.1c-1.3-0.1-2.3-0.9-3.4-1.2c-2.7-0.8-2.9-3.6-0.5-5.3c2.2-1.7,4.7-2.9,7.5-3c9.7-0.2,19.4-0.3,29,1.9
			c5.1,1.2,10.6,1.1,15,4.5c0.4,0.3,0.7,0.7,1,1"/>
		<path class="st0" d="M615.2,1220.1c-2.8,0.2-4.9,1.8-7.2,3c-5.9,3.2-13.1,0.8-15.4-4.6c-1.4-3.3-3.6-5.7-6.1-7.9
			c-8.7-8-13-17.8-15.2-29.5c-4.7-24.5-16.5-45.3-36.8-60.5c-5.9-4.4-13.3-6.6-19.4-10.7c-12-8.1-24.5-15.4-35.6-24.8
			c-9.2-7.8-20.4-11.2-32-13.5c-12.5-2.5-25-5.2-37.5-7.4c-12.9-2.3-25.8-1.9-37.4,4.6c-12,6.8-23,15.2-32.1,25.8
			c-1.6,1.9-3.1,4.6-6.5,3.5"/>
		<path class="st0" d="M1091.4,470.6c2.9,8.3,7.9,15.4,12.2,22.9c9.5,16.5,19.4,32.8,26.4,50.6c3,7.8,4.3,16,6.3,24.1
			c3,12.2,7.4,24,9.7,36.4c2.6,14.1,4.5,28.2,5.1,42.5c0.5,13.4-0.1,26.7,0,40c0.1,13.6-2.1,27-2.8,40.5c-0.4,8.3-0.8,16.7-1.2,25
			c-0.6,14.2-1.5,28.4,0.4,42.5c1.3,9.7,2.3,19.4,3.9,29c2.3,14.1,4.2,28.3,6.1,42.5c1.5,11.1,5.1,21.6,7.5,32.5
			c1.6,7.2,1.9,14.7,1.8,22c-0.2,8.5,0.3,17-0.1,25.5c-1.2,23.6-1.3,47.3-2.2,71c-0.6,14.7-0.3,29.4-2,44c-1.8,15.6-1.6,31.4-2.7,47
			c-1.8,24.8-3.2,49.7-5.1,74.5c-1.4,18.3-3.7,36.4-6.2,54.5c-0.9,6.1-3.1,11.9-4,18c-1.4,9-1.7,18-2.4,27c-0.3,3.2-0.4,6.3-0.5,9.5
			c-0.6,15.2,4.4,29.4,7.3,44c3.7,18.7,9.7,37,10,56.5c0.3,16.9,0.7,33.7-0.3,50.5c-0.4,6.1-3.6,11.3-5.4,17
			c-4.9,14.9-15.2,26.6-23.5,39.5c-1.6,2.4-3.4,4.6-4.9,7c-1.1,1.8-2,3.8-4.5,4"/>
		<path class="st0" d="M609.9,119.1c0.1,2.3,2.3,2.4,3.5,2.9c7.5,3.2,14.6,6.9,23.5,6.8c14.8-0.1,27.6,4.6,36.1,18.2
			c4.8,7.7,12.5,13,20.9,16.5c9.6,4,14.3,11.3,16.6,21c1.4,6.1,4.4,11.9,5.8,18.1c2,9-0.5,17.7-4,25.9c-3.9,9.2-4,17.9,1.1,26.6
			c1.5,2.5,1.5,5.6,2.2,8.4c1.4,5.8,5.6,10.2,8.9,15c4.2,6.1,8.4,12.2,13,18c4.2,5.2,5.4,10.9,3.9,17c-2.5,10.3-2.2,21.2-6.8,31.1
			c-1.6,3.5-0.8,7.6,1.8,10.9c3.2,4.1,6.1,8.2,6.1,14c0,8.9-1,17.3-6.1,25c-3.4,5.2-6.7,10.7-6.1,17.5"/>
		<path class="st0" d="M925.4,701.1c-2.7-3.8-7.3-3.7-11-4.3c-11.3-1.8-22.6-2.8-34-4.2c-7-0.9-14.2-1.5-20.9-0.2
			c-9.3,1.8-17-0.9-25.1-4.2c-0.8-0.3-2-0.1-2.5-1.1c-1.7-3.7-5.3-4.9-8.5-6.5C813,675.7,803,669.7,792,666c-13.8-4.6-28-4.8-42-2.2
			c-11.4,2.1-22.3,6.7-33.6,9.7c-10.4,2.7-18.5,9.2-27,15.1c-0.7,0.5-0.8,1.2-1.1,1.9c-0.3,0.7-0.3,1.4-0.4,2.3
			c5.5,2.2,10.5-0.5,15-2.5c10.3-4.6,21-6.6,32.1-6.8c12.3-0.2,24.7,0.3,37-0.1c18.3-0.7,36.4,2.3,54.5,4.2c1.9,0.2,3.4,0.2,5-0.6"
			/>
		<path class="st0" d="M1309.4,381.1c-2.1-6.6-7-11.2-12.1-15.4c-7.5-6.1-15.3-11.8-23.5-17c-9.3-5.9-20.1-5.5-30.4-4.9
			c-10.2,0.6-20.4,2.8-30.5,4.8c-14.7,3.1-29.8,3.7-44.5,6.8c-8.8,1.8-17.7,0.3-26.5-0.9c-8-1.1-16-1.1-24-1.3
			c-8.9-0.2-17.6-1.6-26.5-1.8c-8.9-0.2-17.7,0.7-26.5,0.7c-8.2,0-16.4,0.1-24.5-1c-4.1-0.6-8.2-1.3-12.5-0.7
			c-2.4,0.4-3.9,1.1-5.2,3.3c3.1,4,7.3,5.4,12.2,5.3c8-0.1,16-0.4,24-0.5c16.4-0.2,32.7,1.3,49,2.9c7.1,0.7,14.3,1.1,21.5,1
			c13.6-0.1,27,2.1,40.5,2.7c7.8,0.3,15.7,0,23.5,0.6c11.7,0.9,23.4,1.5,35,3.6c16.4,2.9,32.9,4.6,49.5,6.3c8.6,0.8,17,3.4,25.5,4.8
			c11.4,1.9,22.4,5.3,34,6.2c7.6,0.5,15,2.7,22,5.9c11.1,4.9,22.4,9.6,33.5,14.6c6.9,3.1,11.4,9.2,16.3,14.6c1.8,2,3.6,4.5,5.3,6.7
			c8.1,10.4,9.8,22.6,10.9,35.1c0.7,7.7,1.1,15.4-0.1,23c-1,6.2-2.9,12.2-3.4,18.5c0,0.3-0.1,0.7,0,1c2.7,8.9-2.5,16.9-2.7,25.5
			c-0.2,8.4-1.2,16.8-3,25c-2.8,12.7-4.6,25.8-11.9,37c-2.4,3.7-2.7,8.2-2.7,12c-0.1,10.6-4,19.7-8.1,29.1
			c-4.7,10.8-8.5,21.9-17.1,30.5c-5.6,5.6-9.6,12.5-14.1,18.9c-1.6,2.3-2.9,4.9-5.4,6.6c-5.2,3.6-15.1,4.1-21,0.4
			c-3.3-2-6.8-3.8-9.4-6.6c-5.6-5.8-12.7-8.9-19.6-12.4c-4.6-2.3-8.8-4.9-12.5-8.5c-6.1-5.9-13.6-9.9-20.9-14.1
			c-7.7-4.4-14.5-10-20.5-16.4c-9.5-10.1-17.5-21.3-25-33c-3.5-5.5-5.1-11.8-5.9-18c-1.5-12.2-4.9-24-7-36c-1.5-8.6-2-17.4,0.4-26"
			/>
		<path class="st0" d="M1294.9,287.3c0.3-6.2,2.5-11.9,5.5-17.3c2.4-4.3,2.9-9.1,2.5-14c-0.4-5.5-4.1-8.7-8.4-11.6
			c-10.2-6.8-21.5-11-33-15c-14.6-5-23.3-14.7-25.1-30.5c-1.4-11.5-1.6-23-2.3-34.5c-0.4-6.1-2.2-11-7-15
			c-11.1-9.1-22.8-17.3-35.5-24c-9.8-5.1-17.4-12.8-24.4-21.1c-2.3-2.7-2.7-6.3-3.2-9.9c-0.4-3.6-1.7-6.3-6.4-7.2
			c-5.9-1.1-11.3-1.6-16.5,1.7c-7.4,4.6-14.8,7.4-24,7.6c-6.1,0.1-12.4-0.2-18.5,0.4c-7.2,0.6-11.5,4.3-11.4,11.5
			c0.2,16.5,0.9,33,1.4,49.5c0.4,12.3,1.3,24.7,1.8,37c0.4,8.7,4.1,15.8,10.4,20.2c10.5,7.3,12.8,17.4,13.3,28.8
			c0.5,10.9,2.8,21,10.4,29.6c5.9,6.7,13.7,9.9,21.1,13.9c1.5,0.8,3.3,1.2,4.5,2.5"/>
		<path class="st0" d="M857.4,1397.1c-2.2,4.3-1,9-1.3,13.5c-1.3,18.5,0.1,37,1.3,55.5c0.5,8,0.7,16,1,24
			c0.4,10.4,2.9,20.4,4.9,30.5c2.1,10.6,3.4,21.3,5.1,32c3.2,20,6.3,40.1,9.7,60c2.7,15.8,5.3,31.7,4.8,48c-0.2,6.3,0.3,12.7,0.4,19
			"/>
		<path class="st0" d="M1041.9,817.3c-4.9,4.3-5.4,10.8-7.2,16.3c-2.5,7.6-4.7,15.3-7.3,22.9c-3.1,8.9-3.1,18.3-3.9,27.5
			c-0.9,10.3-1.4,20.7-1,31c0.7,16.5-0.6,33.3,3.1,49.5c3.4,14.6,4.6,29.6,8.6,44.1c1.3,4.8,0.3,10.3-0.4,15.4
			c-0.3,2.3-0.2,3.6,1.7,4.5c7.4,3.3,10.2,10,10.3,17c0.1,13.6,2.6,27,2.2,40.5c-0.2,5.5-1,11-1.4,16.5c-0.6,8.7,1.1,17.1,2.9,25.5
			c2.2,10.3,0.5,20.7-0.6,31c-1.7,15.2-0.2,30.1,1.3,45c0.7,7.1,0.8,14.5,3.7,20.9c4.6,10.2,7.1,21.2,12.6,31.2
			c5.5,9.9,7,21.5,9.6,32.4c3,12.7,7.6,24.9,10.9,37.5c4.5,17.2,12.4,33.2,16.8,50.4c2,8,3,16,3.7,24.1c1.3,14.4,4.2,28.6,5.2,43
			c0.8,10.7,1.2,21.4,2.8,32c1.7,11.7,4.1,23.5,3.7,35.2c-0.4,10.7-0.2,21.5-1,32.3c-1.4,18-4.7,35.9-5.2,54
			c-0.2,7.8-1.7,15.4-3.3,23c-2.5,11.4-4.4,23-6.6,34.5"/>
		<path class="st0" d="M1393.9,1232.1c6.2-1.9,8.3-7.3,10.5-12.5c4.9-11.6,5.3-24.2,7-36.5c1.9-13.9,2.7-28.1,1.3-42
			c-1.7-17.7-0.5-35.7-5.3-53c-2.4-8.8-6.2-17.2-10-25.5c-5.1-11.1-7.4-23.2-11.9-34.5c-3.6-9.1-7.5-17.7-14.4-25.1
			c-6.4-7-9.8-16.4-17.2-22.9c-1.6-1.4-2.8-3.1-5-3.5"/>
		<path class="st0" d="M1048.4,1147.6c-4.6,2.9-8.6,0.1-11.4-2.6c-11-10.6-24.5-13.7-39.1-14.4c-5.5-0.3-11.1-2.3-16.5-1.7
			c-16.1,1.6-32.4,1.5-48.1,6.6c-6.5,2.1-13.8,2.1-20.4,4.3c-7.9,2.5-15.8,5-23.5,8c-18.2,7.3-33.7,19.1-47.7,32.2
			c-12.2,11.4-20,26.2-20.8,43.7c-0.2,3.1-0.1,6.5-2.9,9.1c-1.2,1.2-0.5,3.3-0.6,4.9c-0.1,6.6-2.4,8.7-9,8
			c-9.3-0.9-16.5-4.9-22.7-12.3c-5.1-6.1-10.6-12-16.1-17.8c-7.3-7.7-13.9-16.2-20.1-24.9c-13.2-18.6-29.7-33.3-48.5-46.1
			c-14.3-9.7-29.4-18.1-43.6-27.9c-7-4.9-12.5-11.5-19.4-16.6c-9-6.7-16.9-14.8-23.9-23.5c-3.7-4.7-4.6-11-3.3-17.4
			c3-15,7.9-29.4,12.2-43.9c2.4-8.1,4.9-16.1,6.7-24.5c1.3-6.1,4.6-12,6.2-17.9c3.2-0.9,3.9,1.7,5.5,2.8"/>
		<path class="st0" d="M1009.4,440.1c-8.3,9-13.7,20-20.6,29.9c-7.8,11.1-16.4,21.7-24,33c-5,7.4-8,15.2-7.9,24.1
			c0.1,11.2-0.2,22.4,0.7,33.5c0.8,10.1,3.8,20,7.4,29.5c2.3,5.9,3.2,12.2,5.9,18.1c4.1,9.1,9.5,17.2,16.5,24.6
			c11,11.6,17.9,25.5,22.2,40.9c1.6,6,3.2,12.1,6.4,17.6c1.9,3.2,5.7,4.8,6.7,8.9c2.3,9.8,6.2,19.1,6.1,29.5
			c-0.1,5.2,1.6,10.3,2.3,15.5c1.3,9.5,0.9,19,2.4,28.5c2.3,13.9,3.6,28.1,8.6,41.5c1.6,4.2,3.7,8.2,6,12c3.7,6.2,5.3,13.2,6.8,20.1
			c0.7,3.1-1.5,6.3-1,10c1.3,10.2,2,20.4,6.1,30c1.6,3.8,2,7.9,2,12c0,15.2-0.2,30.3,0.1,45.5c0.1,8,0.1,16.2,1.7,23.9
			c1.1,5,2.3,9.9,2.8,15.1c0.3,3.6,0.1,7.1-0.3,10.5c-2,20.8-1.4,41.7-0.5,62.5c0.7,15.2,0.5,30.4,1.1,45.5
			c0.6,15.9,0.1,31.7-0.6,47.5c-0.4,9-1.7,18-2.4,27c-0.9,11-1.6,22-2.6,33c-0.5,5.5-1.3,11-2,16.5c-0.2,1.6-1.2,2.9-2.5,4"/>
		<path class="st0" d="M819.9,1231.6c1.6,1.1,2,2.5,2.1,4.5c0.4,14.5,2.9,28.8,5.4,43c1.9,10.7,2.9,21.5,6,32
			c7.3,24.6,14.6,49.3,21.5,74c3.2,11.7,9.2,22.1,13.2,33.5c4.2,12.1,8.7,24.1,13.5,36c3.7,9.3,7.5,18.5,12.9,27.1
			c4.5,7.2,5.2,15.8,7.1,23.9c3.2,13.8,2,28.2,4.8,41.9c2.7,13.3,5.2,26.7,10,39.6c5.7,15.2,10.2,30.8,16.2,45.9
			c2.3,5.8,5.7,11.2,9,16.5"/>
		<path class="st0" d="M1043.9,59.1c-5.1,5.3-5.5,12.4-6.4,19c-1.2,9.4-4.6,17.9-8.2,26.5c-1.9,4.6-5.6,6.7-10.4,5.4
			c-8.6-2.4-17.6-2.9-26.1-6.2c-6.6-2.6-14-2.3-20.9-2.5c-14.2-0.2-28.4-1.7-42.5,1.4c-9.2,2-18.2,5-27.5,6.4
			c-2.6,0.4-5.3,0.6-8,0.5c-8.8-0.5-17.1,2.1-25.5,4.2c-6.6,1.6-10.6,6.5-13.1,12.9c-4,9.9-7.8,20-15.9,27.5"/>
		<path class="st0" d="M1318.9,762.6c-0.7,6.3-4.2,11.6-6.1,17.5c-5.3,15.6-10.6,31.2-12.9,47.5c-2.2,16.1-2.7,32.3-1.5,48.5
			c0.1,0.8,0.1,1.7,0,2.5c-1.2,19,5.6,34.9,18,49c7.2,8.2,14.6,16.1,21.1,24.9c5.3,7.1,7.3,15.7,11,23.5
			c-0.7,16.2,3.1,32.4-0.1,48.5c-1,4.8-2.5,9.7-5.9,13.5c-5.1,5.6-9.5,11.7-13.5,18c-2.8,4.4-6.6,8.1-11,11
			c-7.5,5.1-13.8,11.7-21.4,16.6c-9.3,6.1-19.8,9.2-30.1,12.8c-5.8,2-11.6,3.9-17,7c-8.3,4.9-17.8,6-27,8c-9.4,2.1-19,0.8-28.5,1.3
			c-9.7,0.5-19.6,0.4-29-3.3c-1.4-0.5-3-0.4-4.5-0.5"/>
		<path class="st0" d="M1043.9,55.6c-8.2-13-21.9-17.6-35-22.9c-9.5-3.8-19.2-7-29-10c-9.7-3-19.7-2.1-29.5,0
			c-11.4,2.6-22.6,5.7-34,8c-7.7,1.6-15.1,5.4-21.8,9.2c-10.3,5.7-19.9,12.9-28.8,21c-9.3,8.5-13.5,19.7-19.5,30.1
			c-6.1,10.5-10.1,21.7-13.9,33.1"/>
		<path class="st0" d="M1340.4,1319.1c-5.6,3.3-8.9,8.8-11.8,14.1c-5.7,10.3-12.6,19.6-20.3,28.3c-7.7,8.6-13.5,18.3-19.8,27.6
			c-7,10.4-15.5,19.8-22,30.5c-9.5,15.6-22.3,28.8-31.5,44.5c-9.7,16.6-21.7,31.8-32,48c-5.9,9.2-9.5,19.6-15.9,28.6
			c-2.4,3.4-5.2,6.6-7.7,9.8c-5.9,7.4-11.2,15.2-15.3,23.6c-4.5,9.3-11.2,17-17.6,25c-7.9,9.7-13.2,21.1-20.1,31.5
			c-8.1,12.1-16.9,23.8-25.4,35.5c-2.7,3.7-4.9,7.6-6.6,12c-0.9,2.4-1.8,5.3-4.9,6"/>
		<path class="st0" d="M1394.9,406.6c1.6-5.9,0.4-11.6-1.6-17c-2-5.4-2.8-11.1-3.7-16.6c-1.6-9.9-5.2-19.2-7.4-28.9
			c-1.2-5.2-4.5-10.2-7.8-14.5c-10.6-13.4-23-24.8-37.3-34.3c-8.4-5.6-17.5-5.3-26.6-6.3c-17.5-1.9-35-0.4-52.5-0.1
			c-23.3,0.3-46.7,0.1-70-0.5c-9.5-0.3-18.5,3.2-28,2.7c-9-0.5-17.5,3.4-26.5,3.5c-8.8,0.2-17.7,0.5-26.5,1.5
			c-10.7,1.3-21.5,0.7-32,2.5c-12.3,2.1-24.7,2.7-37,3.8c-11.5,1-23,1.7-34.5,2c-8.1,0.2-16,1.9-24,2.9
			c-14.9,1.8-28.7,7.9-43.4,10.6c-8.8,1.6-15.1,8.6-16.6,18.6c-2,13.3-3.5,26.6-0.9,40c2,10.5,8.1,18.7,16,25.5
			c8.6,7.3,18.2,13,28,18.5c5.4,3,11.5,4.1,17.5,5.6c8.8,2.1,16.6,6.4,24.5,10.5c10.6,5.4,22.1,8.4,33,13
			c10.8,4.7,22.9,5.6,33.5,11.1c6.4,3.3,13.1,6.2,19.7,8.4c6.8,2.3,13.8,4.7,20.8,6.6c18.3,4.9,35.5,12.8,53.1,19.8
			c13.8,5.5,26.3,13.4,40,19.1c6,2.5,12.3,4.6,18.5,6.5c9.8,3.1,18.9,8,28.5,11.6c15.4,5.8,31,11.1,47,14.9
			c7.7,1.8,15.1,4.2,22.5,6.9c8.5,3,7.5,8.6,3.8,14.6c-3.1,5-7.5,5.2-15.9,2.1c-9.1-3.4-17.6-8.3-25.9-13.1
			c-5-2.9-10.5-4.4-15.6-6.9"/>
		<path class="st0" d="M1012.4,638.6c-2-5.2-1.1-10.7-2-16c-2.8-16.8-5-33.8-10.5-50c-1.3-3.9-3.3-7.4-6.5-10c-4-3.2-8.3-1.6-10,3.5
			c-2.2,6.4-1.3,12.9,0.2,19c4.7,18.9,10.4,37.8,19.7,54.9c8,14.7,10.8,30.8,16.1,46.2c1,2.8,2.3,5.8,1.1,9"/>
		<path class="st0" d="M685.4,727.1c1.2,10.9-0.8,21.7-0.9,32.5c0,11.1-1.4,21.8-3.9,32.5c-3,13.1-5.5,26.3-10.1,39
			c-5.4,14.9-12,29.4-18.4,43.8c-4.8,10.8-9.7,21.5-13.9,32.6c-2.8,7.3-2.8,14.2-0.9,21.6c2.4,9.2,1.8,18.7,3,28
			c0.3,2.3,0.5,4.7,1,7c1.2,4.9,0.8,9.5-0.2,14.6c-1,5.2,0.9,10.9,0.7,16.4c0,0.5,0.5,1,0.4,1.5c-2.3,11.6,4.3,19,12,26"/>
		<path class="st0" d="M383.9,476.1c2.2,8.1,8.3,13.6,13.1,19.9c9.4,12.4,21.2,21.7,35.8,27.7c5.7,2.3,10.4,6.8,15.1,10.8
			c7.7,6.6,17.6,9.4,26,14.9c8.5,5.6,17.3,10.7,25.9,16.1c3.1,2,6.1,4.2,8.5,7c6.3,7.1,13.6,13,22,17.5c6.3,3.3,11.7,8,17.4,12.1
			c6.4,4.7,13.4,7.6,21,9.4c4.3,1.1,8.2,3.2,13,3.2c5.6,0,10.4-1.5,15-4.2c13-7.5,21-19.8,29.4-31.5c3.1-4.4,6.1-8.9,9.2-13.4
			c7.3-10.5,11.2-21.9,12.5-34.6c0.9-8.7,2.5-17.2,2.5-26c0-8-3.4-13.9-9.6-18.5c-6.8-5-13.5-10.1-18.1-17.4
			c-1.1-1.7-1.4-3.5-2.4-5.1"/>
		<path class="st0" d="M441.4,420.1c7.5,8.5,15.1,16.6,25.4,22.2c6.3,3.4,11.7,8.6,18.6,11.4c5.6,2.3,11.1,4.6,17,6
			c7.3,1.7,11.7,7,14,13.9c1.3,4-0.5,6-4.9,6c-13.7-0.2-27.2-1.7-40.5-5.3c-20.8-5.7-40.7-14-61-21.1"/>
		<path class="st0" d="M831.4,291.1c-2.8,7.4-2.4,15.3-3.4,23c-1.7,13.8-2.1,27.7-3.8,41.5c-0.6,5-1,10.1-1.1,15c-0.2,7,1,14,1.8,21
			c2.2,19.1,3,38.3,1,57.5c-0.4,4.3-0.4,8.7-1.5,13c-0.5,2-1.6,3-3.1,4.4c-4.4-5.1-5.1-11.3-6.9-17c-5.2-15.9-4.3-31.9-0.2-48
			c1.3-5.2,1.3-10.7,2.1-16c0.7-4.4,1.3-8.9,4.5-12.5"/>
		<path class="st0" d="M416.4,1487.1c-3.8,8.3-5.7,17.3-7.9,26c-3.4,13.4-4.3,27.2-5.2,41c-1,14.8-1.9,29.7-3.6,44.5
			c-1.4,12.3-2.7,24.7-4.2,37c-1.2,9.5-5.5,18-8.3,26.9c-1.2,3.8-1.8,7.8-3.3,11.5"/>
		<path class="st0" d="M676.4,690.6c-0.7,0.2-1.3,0.4-2,0.5c-1,0.1-2,0-3,0c-43.5,0.2-87,0.3-130.5,0.5c-11.3,0.1-22.1,2.8-33,5.4
			c-4.2,1-8.4,3.5-13,1.1"/>
		<path class="st0" d="M1186.4,1543.1c2.7,5,1.8,10.7,2.4,16c1.9,14.9,1.3,30,2.7,45c1.5,15.5,6.1,30.2,14.4,43.5
			c6,9.7,12.6,19.1,17.5,29.5c5.6,11.8,9.5,24.4,15.4,36c0.7,1.4,0.8,2.8,2.6,2.9"/>
		<path class="st0" d="M1351.9,694.1c-0.1,4.9-3.7,8.3-5.6,12.4c-4.1,8.6-4.4,18.1-6.9,27.1c-2.3,8.3-6.3,15.1-12.7,21.3
			c-5.8,5.6-12.9,7.9-19.4,11.5c-5.6,3-12.6,1.8-18.9,1.1c-26.1-3-51.5-9.7-76.5-17.4c-20.8-6.4-41.5-13.1-63-16.9"/>
		<path class="st0" d="M466.7,708.6c-1.3,1.5-2.6,2.5-4.7,3.1c-15.6,4.4-31.3,8.4-46.4,14.1c-12.5,4.7-25.3,8.8-37.3,15.5
			c-9.9,5.5-21.1,8.9-32.8,8.8c-3,0-5.5-1.2-8-2.5"/>
		<path class="st0" d="M1065.9,972.6c3.4-3.2,2.5-7.6,2.9-11.5c1.4-13.6,1.5-27.3,1.8-41c0.3-16.4-1.4-32.4-6.6-48
			c-2-5.9-2.8-12.2-5.5-18c-0.9-1.9-1.7-3.5-3.1-4.9"/>
		<path class="st0" d="M1044.7,56.6c3,2.3,3.8,5.8,5.6,8.8c3.8,6.7,5,14.5,9.7,20.7c2.6,3.3,4,7,5,11c2.3,8.9,4.8,17.7,7.5,26.5
			c3.5,11.6,5.1,23.7,6,35.5c0.7,8.8-3.2,17.6-8.1,25.5c-5,8.1-11.1,15.4-15.9,23.8c-3.4,5.9-6.8,12-10.6,17.7
			c-0.9,1.3-1.1,2.7-1,4.2"/>
		<path class="st0" d="M1050.4,69.1c-1,1-1.9,1.9-2,3.5c-0.8,9.2-4.9,17.2-8.4,25.5c-2.4,5.6-4.9,11.2-6.9,17
			c-1.1,3.2-1.5,6.7,0.4,10c9.7,16.9,9.9,35.3,9.1,54c-0.5,10.9-1.7,21.6-5.2,32c-2.4,7.2-7,13.6-9.8,20.6
			c-4.8,12-14.5,20.5-20.8,31.4c-0.8,1.3-1.4,2.8-2.4,4c-8.9,10.5-14.4,23.5-23.9,33.6c-2,2.1-5.8,2.6-6.1,6.4"/>
		<path class="st0" d="M828.4,189.1c-1.5,0-2.7,0.7-4,1.4c-4.8,2.5-6.8,1.4-9-3.9c-4.9-11.6-4.7-23.3-0.9-35
			c2.5-7.6,2.7-15.9,6.7-23.1c1.4-2.6,1.4-6.1,5.2-6.3c3.6-0.2,9.3,3.9,9.9,7.4c0.9,5.6,3.1,11.1,1.6,17c-0.2,0.6-0.2,1.4,0,2
			c2.8,10-2.3,18.9-4.7,28c-3.8,14.3-9.6,28.1-13.3,42.5c-2.8,11-3.4,21.9-1,33c2.7,12.8,6.4,25.5,12.8,36.8
			c5.2,9.2,11.4,18.2,19.2,25.7c5.4,5.2,9.8,11.4,17,14.5c8,3.5,16.2,5.2,25,5.7c8.8,0.5,17.3-1.5,26-1.2"/>
		<path class="st0" d="M1054.4,210.1c2.3,4.6,1.2,9.7,1.9,14.5c1,6.6,3.1,12.5,7,18.1c4.3,6.1,8.9,11.8,13.3,17.8
			c5.9,8,4.8,16.1,2.3,24.6c-1.4,4.5-4.2,8.5-5,13.3"/>
		<path class="st0" d="M751.9,892.6c2.1,6,6.5,10.7,9.1,16.5c3.5,7.6,3,15.3,1.3,23c-0.5,2.1-1.6,4.7-4.4,4.4
			c-2.2-0.2-3.6-1.6-4.6-3.9c-1.9-4.2-3.2-8.5-3.4-13.1c-0.4-7.3-0.7-14.7-1-22"/>
		<path class="st0" d="M822.4,359.6c-6.7-1.3-7.8-0.5-11,6.5c-3.4,7.6-6.3,15.4-11.5,22c-8.3,10.7-20.3,15-32.6,18.4
			c-11.8,3.2-24.1,3.5-36,6.6c-15.1,4-31.1,4.1-45.1,12.4c-6.6,4-13.3,7.8-19,13.1c-7.8,7.2-10.1,16.6-10.9,26.5
			c-0.6,6.6-0.8,13.3-1,20c0,1.6-1.1,2.6-1.6,4"/>
		<path class="st0" d="M638.4,463.1c6.4,7.8,9.4,17.7,14.9,26.1c1.9,2.9,2.6,6.8,3.1,10.4c2.2,15.1,4,30.3,8.2,45
			c1.7,6,1.1,12,1.9,18c0.5,3.7,0.8,7.4,2,11"/>
		<path class="st0" d="M552.4,432.1c2,3.2,1,7.1,2.8,10.6c2.5,4.7,5,8.3,10.6,10.1c8.4,2.6,16.4,6.6,24.6,9.8
			c3.2,1.2,6.4,1.7,10,1.2c5.9-0.8,12,0.2,18-0.6c4.8-0.6,9.7-1,14.5-1c7.7,0.1,15.2-2.5,23-1.6"/>
		<path class="st0" d="M855.9,695.1c2.5,2.5,6,2,9,2.4c17.1,2.5,34.2,4.7,51.5,5.1c1.5,0,3.1,0.3,4.5,0c10.3-2.5,20,1.5,30,2.6
			c16.7,1.9,32.3,8.2,48.5,11.9c6.5,1.5,13-0.5,19.5-0.2c3.1,0.2,3.3-4.2,5.5-5.8"/>
		<path class="st0" d="M1025.9,236.6c5.3,0.5,9.1-3,13.5-5c3.1-1.4,5.9-1.1,8.5,1.4c1.6,1.6,1.7,3,1,5.1c-2,5.7-5.9,10-9.5,14.5
			c-7.5,9.3-16.4,17.5-22.6,28c-1.7,3-4.2,5.7-7.9,4.9c-2.8-0.7-6.6-1.1-7.5-4.9c-0.4-2,0.1-4.1-1.1-6"/>
		<path class="st0" d="M449.9,368.1c-3,5-2.2,10.7-1.9,16c0.4,6.4,3.1,12.4,2.9,19c-0.3,9.7-2.9,13.8-12.1,17.5
			c-9.1,3.7-17.6,8.4-25.4,14.2c-4.2,3.1-6.3,7.8-5.3,13.9c1.2,7.5-0.8,14.8-4.4,21.4c-3,5.6-8.8,6.2-15.5,5.9
			c-7.1-0.3-9.3-6.7-14.5-8.8"/>
		<path class="st0" d="M643.9,977.6c3.5,6.8,4.9,14.4,7.5,21.5c1.2,3.4,1.6,7.2,3.1,10.4c1.9,4.2,1.5,8-0.1,12"/>
		<path class="st0" d="M1145.9,22.1c1.3,1,2.7,2,4.2,3c-3.5,7.9-8.5,14.5-14.7,20.4c-0.8,0.7-2,0.7-2.5,2
			c-3.7,10.1-12.2,16.9-17.5,26c-3.7,6.4-4,16,0.1,20.5"/>
		<path class="st0" d="M1129.4,56.1c1.9,2.9,0.7,6,0.6,9c-0.2,4.7-0.6,9.3-1.4,14c-1.2,6.7-4.6,11.4-10.1,15"/>
		<path class="st0" d="M609.9,120.6c-3.4,3.9-3.2,7.6-0.6,12.1c3.2,5.6,5.6,11.7,5.1,18.4c-0.1,2,0.9,3.5,2,5"/>
		<path class="st0" d="M1003.9,718.6c6.5,6.7,14.4,10.7,23.5,12.5"/>
		<path class="st0" d="M1142.4,23.6c-3.4,5.2-6.4,10.6-8.5,16.5c-0.8,2.1-0.8,4,0,6"/>
		<path class="st0" d="M622.9,125.1c-0.3-4.7-3.5-8.9-7.5-9.5c-2.1-0.3-3.2,1.2-4.5,2.5"/>
	</g>
</g>
</svg>
