<?xml version="1.0" encoding="UTF-8"?>
<svg width="494px" height="111px" viewBox="0 0 494 111" version="1.1" xmlns="http://www.w3.org/2000/svg" xmlns:xlink="http://www.w3.org/1999/xlink">
    <title>Group 30</title>
    <defs>
        <polygon id="path-1" points="0 108.325256 492.540967 108.325256 492.540967 0.162300093 0 0.162300093"></polygon>
    </defs>
    <g id="Desktop" stroke="none" stroke-width="1" fill="none" fill-rule="evenodd">
        <g id="Landing-page-Copy-11" transform="translate(-468.000000, -1134.000000)">
            <g id="Group-30" transform="translate(468.294068, 1134.285484)">
                <g id="Group-7" transform="translate(197.552656, 27.606929)" stroke="#005245" stroke-width="2">
                    <polyline id="Stroke-1" points="44.1781443 81.1746166 56.56834 0.302696738 82.589669 0.302696738 94.9817827 81.1746166"></polyline>
                    <polyline id="Stroke-3" points="0.350032619 81.1746166 8.36721808 30.1964414 25.2013896 30.1964414 33.218575 81.1746166"></polyline>
                    <line x1="122.310795" y1="81.1746166" x2="122.310795" y2="33.4359213" id="Stroke-5"></line>
                </g>
                <line x1="319.863451" y1="61.0434255" x2="313.854398" y2="34.2376399" id="Stroke-8" stroke="#005245" stroke-width="2" stroke-linecap="round"></line>
                <line x1="319.863451" y1="61.0434255" x2="346.082333" y2="69.2428198" id="Stroke-9" stroke="#005245" stroke-width="2" stroke-linecap="round"></line>
                <line x1="319.863451" y1="61.0434255" x2="299.812816" y2="79.8243538" id="Stroke-10" stroke="#005245" stroke-width="2" stroke-linecap="round"></line>
                <g id="Group-29" transform="translate(0.000000, 0.755111)">
                    <path d="M215.572986,48.4320859 C215.597845,37.4190048 209.433434,33.9282686 202.850903,39.601674 C201.54859,34.8508203 193.941854,30.485482 188.159123,37.0584233 C182.447358,28.1819797 176.442141,31.8625966 171.791023,38.9629843" id="Stroke-11" stroke="#005245" stroke-width="2" stroke-linejoin="round"></path>
                    <path d="M266.589637,16.5660753 C266.683619,3.31470345 253.785157,-0.375503448 246.046079,10.0909514 C244.939401,-1.2788753 236.398605,0.990103262 232.93472,7.42686747" id="Stroke-13" stroke="#005245" stroke-width="2" stroke-linejoin="round"></path>
                    <mask id="mask-2" fill="white">
                        <use xlink:href="#path-1"></use>
                    </mask>
                    <g id="Clip-16"></g>
                    <polygon id="Stroke-15" stroke="#005245" stroke-width="2" mask="url(#mask-2)" points="1.91798695 97.1740801 80.8661659 97.1740801 80.8661659 71.2812563 1.91798695 71.2812563"></polygon>
                    <polygon id="Stroke-17" stroke="#005245" stroke-width="2" mask="url(#mask-2)" points="1.91798695 62.6081193 80.8661659 62.6081193 80.8661659 36.7152954 1.91798695 36.7152954"></polygon>
                    <line x1="50.1400149" y1="53.7027141" x2="50.1400149" y2="45.6203171" id="Stroke-18" stroke="#005245" stroke-width="2" mask="url(#mask-2)"></line>
                    <line x1="58.8889124" y1="53.7027141" x2="58.8889124" y2="45.6203171" id="Stroke-19" stroke="#005245" stroke-width="2" mask="url(#mask-2)"></line>
                    <line x1="67.6368509" y1="53.7027141" x2="67.6368509" y2="45.6203171" id="Stroke-20" stroke="#005245" stroke-width="2" mask="url(#mask-2)"></line>
                    <line x1="50.1400149" y1="88.5356587" x2="50.1400149" y2="80.4532617" id="Stroke-21" stroke="#005245" stroke-width="2" mask="url(#mask-2)"></line>
                    <line x1="58.8889124" y1="88.5356587" x2="58.8889124" y2="80.4532617" id="Stroke-22" stroke="#005245" stroke-width="2" mask="url(#mask-2)"></line>
                    <line x1="67.6368509" y1="88.5356587" x2="67.6368509" y2="80.4532617" id="Stroke-23" stroke="#005245" stroke-width="2" mask="url(#mask-2)"></line>
                    <path d="M483.74086,28.4449357 L460.074819,28.4449357 C456.275286,28.4449357 453.193081,31.5252227 453.193081,35.3266729 L453.193081,94.8590699 C453.193081,98.6586021 456.275286,101.740807 460.074819,101.740807 L483.74086,101.740807 C487.540392,101.740807 490.622597,98.6586021 490.622597,94.8590699 L490.622597,35.3266729 C490.622597,31.5252227 487.540392,28.4449357 483.74086,28.4449357 Z" id="Stroke-24" stroke="#005245" stroke-width="2" mask="url(#mask-2)"></path>
                    <path d="M481.072556,29.5855625 L462.742355,29.5855625 L462.742355,35.5524199 C462.742355,36.3196147 463.363783,36.9391245 464.127141,36.9391245 L479.68777,36.9391245 C480.453046,36.9391245 481.072556,36.3196147 481.072556,35.5524199 L481.072556,29.5855625 Z" id="Stroke-25" stroke="#005245" stroke-width="2" mask="url(#mask-2)"></path>
                    <path d="M319.3174,87.1869303 C333.953559,92.087387 351.597121,94.9490235 370.58711,94.9490235 C408.306241,94.9490235 439.111029,85.8059797 453.19289,69.6795454" id="Stroke-26" stroke="#005245" stroke-width="2" mask="url(#mask-2)"></path>
                    <path d="M201.437922,87.1869303 C186.801764,92.087387 169.158202,94.9490235 150.168213,94.9490235 C122.489743,94.9490235 97.6767461,88.8728408 80.8636725,79.2656442" id="Stroke-27" stroke="#005245" stroke-width="2" mask="url(#mask-2)"></path>
                    <polyline id="Stroke-28" stroke="#005245" stroke-width="2" mask="url(#mask-2)" points="271.958658 60.1348751 260.840088 75.6859133 271.507931 75.6859133 261.450008 90.6231957"></polyline>
                </g>
            </g>
        </g>
    </g>
</svg>