<?xml version="1.0" encoding="UTF-8"?>
<svg width="45px" height="53px" viewBox="0 0 45 53" version="1.1" xmlns="http://www.w3.org/2000/svg" xmlns:xlink="http://www.w3.org/1999/xlink">
    <title>Group 22 Copy</title>
    <g id="Mobile" stroke="none" stroke-width="1" fill="none" fill-rule="evenodd">
        <g id="iPhone-11-Pro-Copy-94" transform="translate(-167.000000, -3422.000000)" stroke="#FFFAEC" stroke-width="2">
            <g id="Group-22-Copy" transform="translate(168.192982, 3423.667279)">
                <polyline id="Stroke-1" points="17.7128906 14.9830469 0.000390625 14.9830469 0.000390625 49.4158594 41.6832031 49.4158594 41.6832031 14.9830469 23.9699219 14.9830469"></polyline>
                <polygon id="Stroke-3" points="4.84140625 34.0627344 36.8414063 34.0627344 36.8414063 27.3752344 4.84140625 27.3752344"></polygon>
                <polygon id="Stroke-4" points="17.7125 27.3752344 23.9695312 27.3752344 23.9695312 3.23851563 17.7125 3.23851563"></polygon>
                <g id="Group-21" transform="translate(4.687500, 0.197109)">
                    <path d="M5.58023437,3.04203125 C5.58023437,4.39984375 4.47945312,5.49984375 3.12242187,5.49984375 C1.76460938,5.49984375 0.664609375,4.39984375 0.664609375,3.04203125 C0.664609375,1.685 1.76460938,0.58421875 3.12242187,0.58421875 C4.47945312,0.58421875 5.58023437,1.685 5.58023437,3.04203125 Z" id="Stroke-5"></path>
                    <path d="M26.7277344,3.04203125 C26.7277344,4.39984375 27.8277344,5.49984375 29.1855469,5.49984375 C30.5433594,5.49984375 31.6433594,4.39984375 31.6433594,3.04203125 C31.6433594,1.685 30.5433594,0.58421875 29.1855469,0.58421875 C27.8277344,0.58421875 26.7277344,1.685 26.7277344,3.04203125 Z" id="Stroke-7"></path>
                    <line x1="26.7277344" y1="3.04203125" x2="5.58007813" y2="3.04203125" id="Stroke-9"></line>
                    <line x1="13.0253906" y1="5.64898438" x2="19.2824219" y2="7.65054687" id="Stroke-11"></line>
                    <line x1="13.0253906" y1="9.68492187" x2="19.2824219" y2="11.6864844" id="Stroke-13"></line>
                    <line x1="13.0253906" y1="17.6325" x2="19.2824219" y2="19.6348438" id="Stroke-15"></line>
                    <line x1="13.0253906" y1="13.6464844" x2="19.2824219" y2="15.6480469" id="Stroke-17"></line>
                    <line x1="13.0253906" y1="22.1383594" x2="19.2824219" y2="24.1399219" id="Stroke-19"></line>
                </g>
            </g>
        </g>
    </g>
</svg>