<svg version="1.1" id="Layer_1" xmlns="http://www.w3.org/2000/svg" xmlns:xlink="http://www.w3.org/1999/xlink" x="0px" y="0px"
	 viewBox="0 0 60 60" style="enable-background:new 0 0 60 60;" xml:space="preserve">
<style type="text/css">
	.st0{fill:#181818;}
</style>
<path d="M57.54,45.7H42.88c2.3-8.2,5.82-12.55,13.47-16.85c0.4-0.23,0.6-0.7,0.47-1.14c-0.12-0.44-0.49-0.76-1-0.73
	c-8.34,0.26-12.18,3.32-15.11,6.48c0.97-5.86,2.72-11.07,4.62-13.51c0.25-0.33,0.28-0.77,0.07-1.13c-0.21-0.35-0.62-0.54-1.03-0.47
	c-5.9,1.04-8.9,7.08-11.31,13.14c-0.79-6.6,0.27-13.59,1.98-17.71c0.16-0.38,0.07-0.83-0.24-1.11c-0.3-0.29-0.75-0.35-1.13-0.17
	c-6.19,3.04-8.82,12.42-9.87,18.14c-1.57-4.54-4.52-11.17-8.76-12.95c-0.36-0.15-0.78-0.08-1.07,0.19
	c-0.29,0.27-0.39,0.69-0.26,1.06c1.68,4.78,2.32,11.15,2.56,14.84c-2.48-2.74-7.04-6.77-12.19-6.51c-0.44,0.02-0.81,0.33-0.92,0.76
	c-0.11,0.43,0.08,0.87,0.45,1.1c3.2,1.92,8.68,11.61,11.26,16.58H2.46c-0.55,0-1,0.45-1,1s0.45,1,1,1h55.09c0.55,0,1-0.45,1-1
	S58.1,45.7,57.54,45.7z M17.09,45.62c-1.2-2.35-5.91-11.35-9.93-15.94c5.19,1.66,9.39,7.59,9.44,7.66c0.25,0.36,0.71,0.51,1.13,0.38
	c0.42-0.14,0.7-0.53,0.69-0.97c-0.01-0.39-0.16-8.62-1.96-15.65c3.49,3.58,5.98,11.27,6.74,14.44c0.12,0.48,0.57,0.8,1.05,0.76
	c0.49-0.04,0.88-0.43,0.92-0.92c0.01-0.15,1.17-13.66,7.01-19.38c-1.61,5.85-1.84,13.5-0.45,19.41c0.1,0.43,0.47,0.74,0.91,0.77
	c0.45,0.03,0.84-0.23,1-0.64l0.3-0.78c2.13-5.56,4.32-11.27,8.3-13.55c-2.11,4.26-3.42,10.54-3.95,15.25
	c-0.05,0.43,0.19,0.85,0.59,1.02c0.4,0.18,0.86,0.08,1.15-0.25c0.26-0.3,0.53-0.6,0.79-0.9c2.5-2.86,5.08-5.8,10.81-6.92
	c-5.79,4.03-8.75,8.58-10.8,16.19H17.09z"/>
</svg>
