<svg version="1.1" id="Layer_1" xmlns="http://www.w3.org/2000/svg" xmlns:xlink="http://www.w3.org/1999/xlink" x="0px" y="0px"
	 viewBox="0 0 60 60" style="enable-background:new 0 0 60 60;" xml:space="preserve">
<style type="text/css">
	.st0{fill:#181818;}
</style>
<g>
	<path class="st0" d="M34.66,47.33c-6.03,0.99-10.05-1.7-13.65-4.54c-0.43-0.34-1.06-0.27-1.4,0.17c-0.34,0.43-0.27,1.06,0.17,1.4
		c3.23,2.55,7.07,5.18,12.4,5.18c0.89,0,1.83-0.07,2.81-0.23c0.54-0.09,0.92-0.6,0.83-1.15C35.71,47.61,35.21,47.24,34.66,47.33z"/>
	<path class="st0" d="M49.23,52.65c-5.1-2.28-6.61-4.99-7.03-6.1c3.5-2.69,5.91-7.06,6.35-11.58c0.54-5.56-1.05-10.86-5.01-16.68
		c-1.06-1.55-2.35-3-3.85-4.32c-0.42-0.37-1.05-0.32-1.41,0.09c-0.36,0.42-0.32,1.05,0.09,1.41c1.37,1.21,2.56,2.53,3.52,3.95
		c3.68,5.41,5.17,10.29,4.67,15.36c-0.41,4.2-2.74,8.24-6.08,10.55c-0.3,0.21-0.47,0.57-0.42,0.94c0.02,0.19,0.63,4.77,8.35,8.21
		c0.13,0.06,0.27,0.09,0.41,0.09c0.38,0,0.75-0.22,0.91-0.59C49.96,53.47,49.74,52.88,49.23,52.65z"/>
	<path class="st0" d="M15.86,37.14c-3.27-4.8-6.03-13.83-0.64-29.6l0.03-0.08c9.41,0.54,15.62,2.97,19.18,4.93
		c0.48,0.26,1.09,0.09,1.36-0.4c0.27-0.48,0.09-1.09-0.4-1.36c-3.77-2.07-10.34-4.65-20.24-5.18l-0.19-0.01
		c-0.68-0.04-1.26,0.36-1.48,1l-0.15,0.45c-5.66,16.54-2.65,26.19,0.88,31.37c0.38,0.55,0.79,1.1,1.22,1.63
		c0.2,0.24,0.48,0.36,0.77,0.36c0.22,0,0.45-0.08,0.64-0.23c0.43-0.35,0.49-0.98,0.13-1.41C16.57,38.14,16.2,37.64,15.86,37.14z"/>
	<path class="st0" d="M24.39,13.93c0.53-0.14,0.85-0.69,0.71-1.22c-0.14-0.53-0.69-0.85-1.22-0.71c-3.57,0.95-9.24,4.25-7.11,15.72
		c0.09,0.48,0.51,0.82,0.98,0.82c0.06,0,0.12-0.01,0.18-0.02c0.54-0.1,0.9-0.62,0.8-1.17C16.99,17.96,20.85,14.87,24.39,13.93z"/>
	<path class="st0" d="M39.07,24.13c-2.57-3.8-5.77-6.15-9.01-6.6c-2.04-0.29-3.94,0.22-5.37,1.42c-1.03,0.86-1.64,2.16-1.76,3.74
		c-0.25,3.1,1.36,7.22,4,10.27c3.49,4.03,5.52,3.68,7.04,2.81c0.34-0.19,1.14-0.78,1.37-2.15c0.38-2.27-1.04-5.26-4.23-8.9
		c-0.36-0.42-1-0.46-1.41-0.09s-0.46,1-0.09,1.41c3.77,4.3,3.88,6.5,3.76,7.25c-0.1,0.57-0.38,0.74-0.39,0.75
		c-0.58,0.33-1.65,0.94-4.54-2.38c-2.27-2.62-3.72-6.24-3.52-8.8c0.08-1.05,0.44-1.84,1.06-2.36c0.99-0.83,2.34-1.17,3.8-0.97
		c2.68,0.38,5.39,2.41,7.63,5.74c4.17,6.18,4.24,11.07,0.2,14.51c-1.69,1.44-3.87,1.98-6.31,1.55c-4.07-0.71-8.33-3.98-10.83-8.35
		c-0.27-0.48-0.89-0.64-1.37-0.37c-0.48,0.27-0.64,0.89-0.37,1.37c2.84,4.94,7.52,8.51,12.23,9.33c0.66,0.12,1.31,0.17,1.94,0.17
		c2.27,0,4.32-0.74,6.01-2.18C43.72,37.18,43.78,31.09,39.07,24.13z"/>
</g>
</svg>
