<svg version="1.1" id="Layer_1" xmlns="http://www.w3.org/2000/svg" xmlns:xlink="http://www.w3.org/1999/xlink" x="0px" y="0px"
	 viewBox="0 0 60 60" style="enable-background:new 0 0 60 60;" xml:space="preserve">
<style type="text/css">
	.st0{fill:#181818;}
</style>
<path d="M31.99,23.03c-0.55,0-1,0.45-1,1c0,0.55,0.45,1,1,1c0.55,0,1,0.45,1,1c0,0.55,0.45,1,1,1c0.55,0,1-0.45,1-1
	C34.98,24.37,33.64,23.03,31.99,23.03z"/>
<path d="M37.97,17.47c-1.65,0-2.99,1.34-2.99,2.99c0,1.65,1.34,2.99,2.99,2.99c1.65,0,2.99-1.34,2.99-2.99
	C40.96,18.81,39.62,17.47,37.97,17.47z M37.97,21.45c-0.55,0-1-0.45-1-1s0.45-1,1-1s1,0.45,1,1S38.52,21.45,37.97,21.45z"/>
<path d="M37.97,38.97c-3.85,0-6.97,3.13-6.97,6.97c0,0.55,0.45,1,1,1s1-0.45,1-1c0-2.75,2.23-4.98,4.98-4.98c0.55,0,1-0.45,1-1
	C38.97,39.41,38.52,38.97,37.97,38.97z"/>
<path d="M28.04,19.04c0.55,0,1-0.45,1-1c0-0.55-0.45-1-1-1c-1.65,0-2.99-1.34-2.99-2.99c0-0.55-0.45-1-1-1c-0.55,0-1,0.45-1,1
	C23.06,16.8,25.29,19.04,28.04,19.04z"/>
<path d="M25.02,34.98c-2.2,0-3.99,1.79-3.99,3.99c0,2.2,1.79,3.99,3.99,3.99c2.2,0,3.99-1.79,3.99-3.99
	C29,36.77,27.22,34.98,25.02,34.98z M25.02,40.96c-1.1,0-1.99-0.89-1.99-1.99c0-1.1,0.89-1.99,1.99-1.99c1.1,0,1.99,0.89,1.99,1.99
	C27.01,40.07,26.12,40.96,25.02,40.96z"/>
<path d="M15.93,41.02c-1.25-1.07-1.4-2.96-0.33-4.21c0.36-0.42,0.31-1.05-0.11-1.4c-0.42-0.36-1.05-0.31-1.4,0.11
	c-1.78,2.09-1.53,5.24,0.56,7.02c0.42,0.36,1.05,0.31,1.4-0.11C16.4,42,16.35,41.38,15.93,41.02z"/>
<path d="M45.94,23.03c-0.55,0-1,0.45-1,1c0,1.65-1.34,2.99-2.99,2.99c-0.55,0-1,0.45-1,1c0,0.55,0.45,1,1,1
	c2.75,0,4.98-2.23,4.98-4.98C46.94,23.47,46.49,23.03,45.94,23.03z"/>
<path d="M43.95,32.99c-1.65,0-2.99,1.34-2.99,2.99s1.34,2.99,2.99,2.99s2.99-1.34,2.99-2.99S45.6,32.99,43.95,32.99z M43.95,36.97
	c-0.55,0-1-0.45-1-1c0-0.55,0.45-1,1-1s1,0.45,1,1C44.95,36.53,44.5,36.97,43.95,36.97z"/>
<g>
	<path d="M30,56.75c-14.75,0-26.75-12-26.75-26.75c0-14.75,12-26.75,26.75-26.75s26.75,12,26.75,26.75
		C56.75,44.75,44.75,56.75,30,56.75z M30,5.25C16.35,5.25,5.25,16.35,5.25,30S16.35,54.75,30,54.75S54.75,43.65,54.75,30
		S43.65,5.25,30,5.25z"/>
</g>
<g>
	<rect x="26.99" y="6.11" transform="matrix(0.7609 -0.6489 0.6489 0.7609 -13.8914 25.7453)" width="2" height="51.23"/>
</g>
<path d="M14.59,24.41c-1.65,0-2.99,1.34-2.99,2.99c0,1.65,1.34,2.99,2.99,2.99s2.99-1.34,2.99-2.99
	C17.58,25.75,16.24,24.41,14.59,24.41z M14.59,28.4c-0.55,0-1-0.45-1-1s0.45-1,1-1c0.55,0,1,0.45,1,1S15.14,28.4,14.59,28.4z"/>
</svg>
