<svg version="1.1" id="Layer_1" xmlns="http://www.w3.org/2000/svg" xmlns:xlink="http://www.w3.org/1999/xlink" x="0px" y="0px"
	 viewBox="0 0 60 60" style="enable-background:new 0 0 60 60;" xml:space="preserve">
<style type="text/css">
	.st0{fill:#181818;}
</style>
<path class="st0" d="M42.14,6.76c-6.57,0-10.44,6.04-12.28,10c-1.84-3.96-5.71-10-12.28-10c-7.04,0-14.14,4.5-14.14,14.57
	c0,13.94,24.81,30.82,25.86,31.53l0.56,0.38l0.56-0.37c1.07-0.71,26.15-17.59,26.15-31.54C56.56,12.34,51.04,6.76,42.14,6.76z
	 M29.86,50.82c-3.69-2.59-24.42-17.7-24.42-29.49c0-9.28,6.54-12.57,12.14-12.57c6.44,0,9.96,7.35,11.17,10.51
	c0.18,0.46,0.61,0.76,1.11,0.76c0.5,0,0.93-0.3,1.11-0.76c1.21-3.16,4.73-10.51,11.17-10.51c7.78,0,12.43,4.7,12.43,12.57
	C54.56,33.12,33.58,48.23,29.86,50.82z"/>
</svg>
