<svg version="1.1" id="Layer_1" xmlns="http://www.w3.org/2000/svg" xmlns:xlink="http://www.w3.org/1999/xlink" x="0px" y="0px"
	 viewBox="0 0 60 60" style="enable-background:new 0 0 60 60;" xml:space="preserve">
<style type="text/css">
	.st0{fill:#181818;}
</style>
<g>
	<path class="st0" d="M39.73,35.78c0.96,0,1.97-0.16,3.02-0.49c5.11-1.61,11.04-7.49,11.96-15.21l0.09-0.79l-0.75-0.27
		c-6.96-2.52-16.41,1.52-19.9,6.68c-1.66,2.46-1.79,4.96-0.41,6.98c-1.84,2.62-3.35,5.73-4.4,9.13H28.3
		c-0.7-2.86-1.63-5.67-2.74-8.35c1.91-4.05,3.54-9.94,1.05-15.81c-2.51-5.9-8.66-10.47-18.29-13.56L7.37,3.78l-0.3,0.96
		c-2.27,7.15-2.91,17.11,2.13,23.65c3.1,4.03,7.77,6.06,13.91,6.06c0.24,0,0.49-0.01,0.73-0.02c0.96,2.38,1.78,4.85,2.42,7.38H5.2v2
		h21.51c0.62,2.95,0.99,5.94,0.99,8.87c0,0.55,0.45,1,1,1s1-0.45,1-1c0-3.03,0.43-6.03,1.18-8.87h21.88v-2H31.47
		c0.93-2.8,2.19-5.39,3.69-7.61C36.45,35.24,38,35.78,39.73,35.78z M10.78,27.17C6.43,21.52,6.8,12.88,8.68,6.31
		c8.49,2.89,13.9,6.97,16.09,12.12c1.89,4.45,1.06,9-0.3,12.52c-3.09-6.66-7.15-12.29-11.05-15.54c-0.42-0.35-1.05-0.29-1.41,0.13
		c-0.35,0.42-0.29,1.06,0.13,1.41c3.85,3.2,7.85,8.84,10.83,15.48C17.56,32.39,13.45,30.64,10.78,27.17z M28.77,43.87
		c0-0.02-0.01-0.04-0.01-0.06h0.03C28.78,43.83,28.77,43.85,28.77,43.87z M35.81,26.82c2.4-3.55,8.26-6.57,13.59-6.57
		c1.1,0,2.18,0.13,3.2,0.41c-1.09,6.27-6.06,11.34-10.45,12.72c-1.66,0.52-3.94,0.76-5.8-0.78c2.16-2.71,4.71-4.69,7.45-5.52
		c0.53-0.16,0.83-0.72,0.66-1.25c-0.16-0.53-0.72-0.82-1.25-0.66c-3.01,0.92-5.78,2.98-8.14,5.79
		C34.44,29.45,35.06,27.92,35.81,26.82z"/>
	<path class="st0" d="M12.28,48.12c-0.53,0.15-0.84,0.71-0.69,1.24c0.15,0.53,0.71,0.84,1.24,0.69c0.53-0.15,0.84-0.71,0.69-1.24
		C13.37,48.28,12.81,47.97,12.28,48.12z"/>
	<path class="st0" d="M40.27,48.55c-0.55,0-1,0.45-1,1s0.45,1,1,1s1-0.45,1-1S40.82,48.55,40.27,48.55z"/>
	<path class="st0" d="M45.3,52.53c-0.55,0-1,0.45-1,1s0.45,1,1,1c0.55,0,1-0.45,1-1S45.86,52.53,45.3,52.53z"/>
	<path class="st0" d="M49.22,48.94c-0.55,0-1,0.45-1,1c0,0.55,0.45,1,1,1c0.55,0,1-0.45,1-1C50.22,49.39,49.77,48.94,49.22,48.94z"
		/>
	<path class="st0" d="M17.78,51.73c-0.53,0.15-0.84,0.71-0.69,1.24c0.15,0.53,0.71,0.84,1.24,0.69s0.84-0.71,0.69-1.24
		C18.87,51.89,18.31,51.58,17.78,51.73z"/>
</g>
</svg>
