<svg version="1.1" id="Layer_1" xmlns="http://www.w3.org/2000/svg" xmlns:xlink="http://www.w3.org/1999/xlink" x="0px" y="0px"
	 viewBox="0 0 60 60" style="enable-background:new 0 0 60 60;" xml:space="preserve">
<style type="text/css">
	.st0{fill:#181818;}
</style>
<g>
	<path d="M31.02,43.28V21.56c0-0.55-0.45-1-1-1s-1,0.45-1,1v21.72c-1.78,0.45-3.11,2.05-3.11,3.97c0,2.27,1.84,4.11,4.11,4.11
		s4.11-1.84,4.11-4.11C34.13,45.33,32.8,43.73,31.02,43.28z"/>
	<path d="M37.22,37.41V7.88c0-4.04-3.29-7.33-7.33-7.33c-4.04,0-7.33,3.29-7.33,7.33v29.73c-2.97,2.31-4.73,5.87-4.73,9.64
		c0,6.73,5.47,12.2,12.2,12.2s12.2-5.47,12.2-12.2C42.22,43.34,40.36,39.7,37.22,37.41z M30.02,57.45c-5.62,0-10.2-4.57-10.2-10.2
		c0-3.29,1.61-6.4,4.31-8.32l0.42-0.3V7.88c0-2.94,2.39-5.33,5.33-5.33s5.33,2.39,5.33,5.33v30.58l0.45,0.3
		c2.85,1.9,4.55,5.07,4.55,8.49C40.22,52.87,35.64,57.45,30.02,57.45z"/>
</g>
</svg>
