<svg version="1.1" id="Layer_1" xmlns="http://www.w3.org/2000/svg" xmlns:xlink="http://www.w3.org/1999/xlink" x="0px" y="0px"
	 viewBox="0 0 60 60" style="enable-background:new 0 0 60 60;" xml:space="preserve">
<style type="text/css">
	.st0{fill:#181818;}
</style>
<g>
	<path class="st0" d="M8.66,32.15l2.66,3.33l1.56-1.25L7.43,27.4l-5.46,6.82l1.56,1.25l3.06-3.83c1.01,9.02,7.08,16.84,15.76,19.93
		l0.67-1.88C15.3,46.94,9.82,40.11,8.66,32.15z"/>
	<path class="st0" d="M33.52,50.72l3.33-2.66l-1.25-1.56l-6.82,5.46l6.82,5.46l1.25-1.56l-3.82-3.06
		c9.46-1.03,17.42-7.5,20.25-16.78l-1.91-0.58C48.84,43.69,41.87,49.53,33.52,50.72z"/>
	<path class="st0" d="M57.22,22.53l-3.06,3.82C53.07,16.54,46.05,8.28,36.31,5.8l-0.49,1.94c8.68,2.22,15.01,9.44,16.26,18.11
		l-2.65-3.32l-1.56,1.25l5.46,6.82l5.46-6.82L57.22,22.53z"/>
	<path class="st0" d="M25.15,0.6L23.9,2.16l3.82,3.06c-9.48,1.03-17.45,7.52-20.27,16.83l1.91,0.58
		c2.52-8.29,9.49-14.15,17.86-15.33L23.9,9.95l1.25,1.56l6.82-5.46L25.15,0.6z"/>
</g>
</svg>
