<?xml version="1.0" encoding="UTF-8"?>
<svg width="87px" height="82px" viewBox="0 0 87 82" version="1.1" xmlns="http://www.w3.org/2000/svg" xmlns:xlink="http://www.w3.org/1999/xlink">
    <title>Group 38</title>
    <defs>
        <polygon id="path-1" points="0.0511161305 0.203967904 8.46118787 0.203967904 8.46118787 11.7654577 0.0511161305 11.7654577"></polygon>
        <polygon id="path-3" points="0.300595482 0.288641189 16.7023109 0.288641189 16.7023109 2.50284581 0.300595482 2.50284581"></polygon>
        <polygon id="path-5" points="0.150923821 0.10645351 17.9757801 0.10645351 17.9757801 15.9627056 0.150923821 15.9627056"></polygon>
    </defs>
    <g id="Desktop" stroke="none" stroke-width="1" fill="none" fill-rule="evenodd">
        <g id="Landing-page" transform="translate(-120.000000, -260.000000)">
            <g id="Group-38" transform="translate(120.644534, 260.000000)">
                <polygon id="Fill-1" fill="#285246" points="36.439345 55.4718562 48.5209847 39.0281411 37.184626 39.0281411 45.460402 27.907811 46.0552788 33.3383234 47.4557402 33.1836625 46.5330958 24.7794754 38.219364 26.3101215 38.4729937 27.6956843 43.8485235 26.7049324 33.1811794 41.0390873 44.5473352 41.0390873 34.8175341 54.282812 34.189313 48.8537185 32.7899158 49.0168928 33.7629314 57.4146948 42.0685044 55.8340322 41.8060066 54.4495336"></polygon>
                <g id="Group-37" transform="translate(0.000000, 0.150759)">
                    <path d="M9.20714667,24.8076762 C7.37001663,23.6888679 6.63041127,21.7261646 7.64386571,20.0639148 C8.68037739,18.3626451 10.7278604,18.1785419 12.5646357,19.2977049 C14.4978967,20.4753979 15.2034483,22.3636086 14.1786426,24.0460778 C13.1651882,25.7083275 11.1404077,25.9853691 9.20714667,24.8076762 L9.20714667,24.8076762 Z M17.551385,29.8660802 L12.6217468,26.861899 C13.7710616,26.8466458 15.0839054,26.2148774 15.9675298,24.7647542 C17.6283607,22.0386789 16.4602454,19.1263719 13.6955048,17.4414197 C10.9885846,15.7922948 7.93580586,15.9735602 6.23914762,18.7571013 C5.30834452,20.2849096 5.39525259,21.795691 6.00538267,22.8832833 L4.55525955,21.9996589 L3.48327519,23.7591038 L16.4563434,31.6641903 L17.551385,29.8660802 Z" id="Fill-2" fill="#285246"></path>
                    <path d="M21.3970845,18.1662329 L17.9147316,13.9655583 C16.3972104,12.1355227 16.6997924,10.6204846 18.076487,9.47861909 C18.3031574,9.29061389 18.5617533,9.10615596 18.8341835,8.93837019 L17.3893812,7.19524274 C17.2879294,7.25022539 17.0321714,7.40346736 16.8058557,7.59111784 C15.9690552,8.28496344 15.1485721,9.49493652 15.6253249,11.2753103 L14.4118046,9.81135282 L12.8080847,11.1408688 L19.7589562,19.5241271 L21.3970845,18.1662329 Z" id="Fill-4" fill="#285246"></path>
                    <path d="M25.7875025,4.77912763 C27.5749708,4.06577205 28.9534391,4.83198192 29.5954946,6.25762889 L24.065304,8.46473898 C23.6165746,7.1568613 24.1476006,5.43359855 25.7875025,4.77912763 M29.6103931,13.6863173 C31.9441407,12.7551595 33.0352803,10.6622714 32.8767174,8.67792978 L30.9384902,8.76873983 C31.0009222,10.0847762 30.57525,11.2784319 28.9137097,11.9410615 C27.1897375,12.6292315 25.4249717,11.8711803 24.6399614,10.0879688 L32.2520435,7.05008854 C32.2140878,6.8947182 32.1427877,6.65492289 32.0424,6.40271214 C30.7916333,3.26941041 28.1822631,1.80048677 25.0702449,3.04238526 C22.5261444,4.05761333 21.0980144,7.13770605 22.3650984,10.3132203 C23.7410837,13.7615194 26.8981521,14.7692982 29.6103931,13.6863173" id="Fill-6" fill="#285246"></path>
                    <g id="Group-10" transform="translate(34.408499, 0.000000)">
                        <mask id="mask-2" fill="white">
                            <use xlink:href="#path-1"></use>
                        </mask>
                        <g id="Clip-9"></g>
                        <path d="M4.55898418,9.95001552 C3.02053409,10.007836 2.15038927,9.15720114 1.94890446,8.00930525 L0.0511161305,8.76026186 C0.27991491,10.0202514 1.61829909,11.8733442 4.60438921,11.7605411 C7.29676555,11.6594439 8.51738043,9.77868248 8.45920524,8.24058712 C8.39819223,6.61132697 7.33578549,5.47336343 5.32909604,5.11828191 L3.54978646,4.79973725 C2.70589143,4.65039727 2.28270237,4.23572166 2.25645258,3.53442679 C2.22807444,2.78808163 2.92582204,2.0594728 4.01164074,2.01867922 C5.75370401,1.95305476 6.18540651,3.18289254 6.34219575,3.7437156 L8.19351487,2.97147538 C7.90866926,2.03073993 6.93033277,0.0967694684 3.94388793,0.208508407 C1.81730082,0.288676662 0.133412746,1.91545372 0.204358104,3.79337735 C0.262178571,5.33147271 1.30081861,6.44779792 3.03401371,6.74505897 L4.90448807,7.08240415 C5.81684538,7.25231828 6.33368231,7.73155417 6.35993209,8.43249431 C6.38972914,9.22424451 5.75831546,9.90496522 4.55898418,9.95001552" id="Fill-8" fill="#285246" mask="url(#mask-2)"></path>
                    </g>
                    <path d="M47.8110345,12.8522482 C50.4033779,13.5883063 52.1454412,12.1764937 52.5657924,10.6951546 C53.0109746,9.1272622 52.3529564,7.71615903 50.5534274,6.75804197 L48.9596399,5.90563349 C48.2030076,5.50230913 47.9284491,4.97731348 48.1203563,4.30191367 C48.3243242,3.5832372 49.2132695,3.10577494 50.2582947,3.40268126 C51.9354429,3.87907934 51.9659494,5.18199084 51.941828,5.76374278 L53.9414229,5.60198736 C53.9616424,4.6186847 53.6281992,2.47648961 50.7531385,1.66026327 C48.7060102,1.07922079 46.6021256,2.10615484 46.0891907,3.91348784 C45.6684847,5.39518164 46.3108949,6.77755194 47.8674361,7.59590665 L49.542456,8.49513906 C50.3579729,8.93854755 50.700639,9.5536438 50.5090865,10.2290436 C50.2927032,10.9909968 49.4821524,11.4436281 48.3275167,11.1158606 C46.8461777,10.6955093 46.2814526,9.6171399 46.4446269,8.46321365 L44.407431,8.59091529 C44.2357432,9.86012775 44.9359739,12.0360219 47.8110345,12.8522482" id="Fill-11" fill="#285246"></path>
                    <path d="M61.8255451,21.0934384 L63.057866,19.7660507 C62.8794384,19.6922676 62.5814679,19.4471513 62.3824662,19.2623387 C61.5694324,18.5071254 61.6095165,17.8650699 62.2873994,17.1350421 L66.1386681,12.9865123 L67.864414,14.589168 L69.1737106,13.1787742 L67.4483194,11.5761186 L69.7895163,9.05436585 L68.3624504,7.72946128 L67.1609907,9.02385934 C66.4987158,9.73686019 65.655885,9.91244995 64.7931894,9.11183159 L64.3614869,8.71099031 L63.0525451,10.121384 L64.5792892,11.5385176 L60.5119918,15.9190387 C59.1565807,17.3794489 59.2477455,18.9778478 60.6247949,20.2569926 C61.1558209,20.7493534 61.6467628,21.0200099 61.8255451,21.0934384" id="Fill-13" fill="#285246"></path>
                    <path d="M73.3430628,21.7824597 C74.2185285,23.3680884 73.79463,25.4123789 71.5946145,26.6266087 C69.3747342,27.8521898 67.4194802,27.1214526 66.5440144,25.5354691 C65.6685487,23.9498404 66.0920925,21.9055499 68.3123275,20.6803236 C70.5126978,19.465739 72.4675971,20.1964762 73.3430628,21.7824597 M64.8792816,26.4545662 C66.454978,29.308698 69.7312346,30.138404 72.6453152,28.529718 C75.5391764,26.9323832 76.5838468,23.7178491 75.0081504,20.8633626 C73.432454,18.0088761 70.1561973,17.1795249 67.2619815,18.7772143 C64.3482556,20.3855456 63.3035852,23.6000798 64.8792816,26.4545662" id="Fill-15" fill="#285246"></path>
                    <g id="Group-19" transform="translate(68.462271, 38.665220)">
                        <mask id="mask-4" fill="white">
                            <use xlink:href="#path-3"></use>
                        </mask>
                        <g id="Clip-18"></g>
                        <polygon id="Fill-17" fill="#285246" mask="url(#mask-4)" points="0.311946739 2.50284581 16.7024528 2.4166472 16.6914563 0.288641189 0.300595482 0.374485072"></polygon>
                    </g>
                    <path d="M76.7192105,50.4702794 C76.2034378,52.3240816 74.7582808,52.95585 73.2354387,52.6018327 L74.8324187,46.8666099 C76.1449078,47.3018597 77.1927708,48.7690097 76.7192105,50.4702794 M74.3929122,44.3938095 C70.816202,43.3980914 68.1018326,45.2972986 67.3185959,48.1106368 C66.644615,50.5312924 67.6474276,52.6674571 69.321738,53.7447624 L70.4242289,52.1481371 C69.3401838,51.4000183 68.6484666,50.3376116 69.1287667,48.6150583 C69.6268031,46.8268805 71.2996946,45.8825978 73.193581,46.3391312 L70.9946296,54.2339306 C71.1411317,54.2981362 71.3752514,54.3868179 71.6370398,54.4598916 C74.8863372,55.3651544 77.636534,54.1803669 78.5354117,50.9527078 C79.2704056,48.3138952 77.6865505,45.3114877 74.3929122,44.3938095" id="Fill-20" fill="#285246"></path>
                    <path d="M65.8473665,62.3435881 L65.4472347,62.0466818 C63.5388045,60.6288388 63.7037525,59.0024165 64.7434567,57.6030193 C65.3911878,56.7311008 66.4142199,56.6449022 67.0686908,57.1305232 C67.850154,57.7112109 67.8448331,58.5533323 67.4322858,59.3748796 L65.8473665,62.3435881 Z M70.3768729,59.7012282 C71.299872,60.5844979 71.5723022,61.7742516 70.6681036,62.9913192 C69.6823178,64.3179974 68.5553508,64.354889 67.700814,63.7206375 C67.3918469,63.4907745 67.2276084,63.1431423 67.5461531,62.5620998 L68.9561921,59.9427972 C69.8540056,58.240818 69.854715,56.4927244 68.2736977,55.318224 C66.8927463,54.2923541 64.8058886,54.5190246 63.4827577,56.3001078 C62.3220917,57.8633887 62.5100969,59.3564338 62.8438948,60.1971363 C62.2082244,59.7246402 61.854207,59.5178345 61.5959659,59.4103523 L60.3537127,61.0828891 C60.6119538,61.1903713 61.0887066,61.4596089 61.869815,62.0402967 L66.2503361,65.2934961 C67.9402546,66.5492289 70.2048304,66.6520997 72.1490879,64.0352802 C73.5665762,62.12685 73.4970497,59.7906194 71.9734982,58.348655 L70.3768729,59.7012282 Z" id="Fill-22" fill="#285246"></path>
                    <path d="M56.9494352,63.5047508 L60.1370101,67.9324506 C61.5261202,69.8618096 61.1210222,71.3527263 59.6698349,72.3977514 C59.4311038,72.5697939 59.160802,72.7361608 58.8770205,72.8847913 L60.199442,74.7222761 C60.3047959,74.6743879 60.5701315,74.539237 60.8092174,74.3671945 C61.6907134,73.7318789 62.5917195,72.5814999 62.2373474,70.7720385 L63.3483517,72.3154548 L65.0389796,71.0983872 L58.6762452,62.2617881 L56.9494352,63.5047508 Z" id="Fill-24" fill="#285246"></path>
                    <path d="M50.8504756,67.0256979 L52.7046325,73.0400907 C53.1845778,74.5980507 52.784446,76.1425312 51.1619257,76.642696 C49.3446603,77.2031643 48.3783846,76.22199 47.9314288,74.7722216 L46.0041982,68.5194525 L43.9705495,69.1466094 L46.0049076,75.7452372 C46.725003,78.0818225 48.4833837,79.4819292 50.9930757,78.7086248 C52.2044677,78.3354522 53.2846108,77.4575034 53.641466,75.9257931 L54.1019013,77.4188382 L56.0922733,76.8048061 L52.8841243,66.398541 L50.8504756,67.0256979 Z" id="Fill-26" fill="#285246"></path>
                    <g id="Group-30" transform="translate(19.155247, 64.205549)">
                        <mask id="mask-6" fill="white">
                            <use xlink:href="#path-5"></use>
                        </mask>
                        <g id="Clip-29"></g>
                        <path d="M13.6800387,11.1728652 C13.1021887,12.6974809 11.7694802,13.4026778 10.3299989,12.8567533 C8.80573784,12.279258 8.54785146,11.0433899 9.05333714,9.70961717 L11.4768306,3.31637623 L9.48681328,2.56187235 L7.15164682,8.72241252 C6.59756357,10.1835322 5.24889231,10.9309415 3.83033988,10.3935304 C2.32736247,9.82348447 2.04854721,8.57945762 2.55438762,7.24603962 L4.97752632,0.852443949 L3.00879263,0.10645351 L0.504776222,6.71146634 C-0.49839114,9.3577282 0.772240222,11.2434558 2.55084035,11.9177914 C3.84240059,12.4073144 5.30990532,12.4310811 6.68908308,11.2831852 C6.75541699,12.833696 7.73730075,13.884042 9.00722266,14.3654063 C10.1930743,14.8144904 11.6428427,14.7587983 12.7244047,13.8858157 L12.2107603,15.240872 L14.1159979,15.962741 L17.9757801,5.78030852 L16.0074011,5.03360863 L13.6800387,11.1728652 Z" id="Fill-28" fill="#285246" mask="url(#mask-6)"></path>
                    </g>
                    <path d="M16.28611,65.2600453 C14.3890311,66.9084607 12.3245212,66.6033957 11.1361864,65.2369881 C9.94820641,63.8695163 9.93401734,61.7823039 11.8303868,60.1338885 C13.7444925,58.4702199 15.8093572,58.7756396 16.9976919,60.1427567 C18.1853172,61.5098737 18.199861,63.5967314 16.28611,65.2600453 M18.4329165,58.8951826 C16.2942687,56.4344428 12.9169149,56.3106432 10.4047398,58.4932771 C7.910301,60.661722 7.56231402,64.0234678 9.70096184,66.4842075 C11.8396097,68.9449472 15.2169634,69.0687469 17.7121117,66.9010115 C20.2239321,64.7180228 20.5712096,61.3555676 18.4329165,58.8951826" id="Fill-31" fill="#285246"></path>
                    <path d="M13.3710362,51.390689 L8.32220975,53.4608745 C6.12254893,54.3629448 4.76642841,53.6222752 4.08783606,51.96712 C3.97645185,51.6946899 3.87677362,51.3931721 3.79873372,51.0827861 L1.70336257,51.9415797 C1.72571036,52.0550923 1.79559154,52.3441946 1.90733048,52.6169795 C2.31952301,53.6222752 3.2290425,54.7666239 5.07149345,54.8428901 L3.31204857,55.5651139 L4.10202513,57.4916351 L14.1783943,53.3597774 L13.3710362,51.390689 Z" id="Fill-33" fill="#285246"></path>
                    <path d="M1.89299952,43.2101571 C1.74153118,41.2917946 2.88233253,40.2027834 4.43390751,40.0122951 L4.90179215,45.9482932 C3.51977658,45.9887321 2.03205242,44.9706662 1.89299952,43.2101571 M6.16284589,48.1195759 C9.86441994,47.8279905 11.7618535,45.1122022 11.5327,42.2009594 C11.3354719,39.6955241 9.66009731,38.0339838 7.71832286,37.5966057 L7.23057353,39.4741746 C8.50581634,39.8051347 9.51927078,40.5656689 9.65974259,42.3485258 C9.8055353,44.1991354 8.55796118,45.6599003 6.62257181,45.8805404 L5.97909741,37.710473 C5.8187609,37.7005406 5.56903324,37.6977028 5.2983767,37.7189864 C1.93556673,37.9839673 -0.241746307,40.0396091 0.0218156976,43.3800713 C0.236780132,46.1111128 2.75534034,48.3877494 6.16284589,48.1195759" id="Fill-35" fill="#285246"></path>
                </g>
            </g>
        </g>
    </g>
</svg>