<svg version="1.1" id="Layer_1" xmlns="http://www.w3.org/2000/svg" xmlns:xlink="http://www.w3.org/1999/xlink" x="0px" y="0px"
	 viewBox="0 0 200.5 200.5" style="enable-background:new 0 0 200.5 200.5;" xml:space="preserve">
<style type="text/css">
	.st0{fill:#285246;}
</style>
<g id="Layer_1_1_">
</g>
<g id="Layer_2_1_">
</g>
<g id="Layer_3">
	<g>
		<path class="st0" d="M40.3,37.3l-1,0.8l2.5,3.1l3.5-2.8l7.9,9.7c2.6,3.2,6,3.5,9.2,0.9c1.2-1,2-2,2.2-2.3l-2.4-2.9
			c-0.2,0.4-0.8,0.9-1.3,1.3c-1.9,1.5-3.2,1.3-4.5-0.4L49,35.5l4-3.2l-2.5-3.1l-4,3.2L42,26.8l-3.3,2.7l2.3,2.9
			C42.3,33.8,42.3,35.7,40.3,37.3z"/>
		<path class="st0" d="M83.8,38.3l4.3-1.6c-0.3-0.5-0.9-1.5-1.5-3.4l-3.9-10.7c-1.5-4.1-5.4-6.9-12.1-4.5c-4.9,1.8-7.6,6-6.6,10.3
			l4.4-0.5c-0.6-2.6,0.4-5,3.5-6.2c3.4-1.2,5.4,0,6.2,2.1c0.3,0.8,0.1,1.6-1.1,2.2l-5.7,3c-3.7,2-5.8,5.1-4.4,9
			c1.2,3.4,5.2,5.3,9.8,3.7c4-1.5,5.5-4.3,5.9-6.2C83.1,37.1,83.4,37.9,83.8,38.3z M75.9,38c-2.2,0.8-4.2-0.2-4.7-1.8
			c-0.7-1.9,0.4-3.4,2.1-4.4l6.5-3.5l0.4,1C81.8,34,79.5,36.7,75.9,38z"/>
		<path class="st0" d="M99.4,32.9c1.2,2.1,3.7,4,7.3,4.2c6.9,0.5,11.4-4.5,12-11.3c0.5-6.6-2.8-12.2-9.9-12.6
			c-3.9-0.3-6.7,1.3-8.2,3.5l0.3-3.6l-4.5-0.2l-2.6,31.8l4.6,0.3L99.4,32.9z M100,24.6c0.4-4.5,3.5-7.8,7.7-7.5
			c4.3,0.3,6.7,3.9,6.3,8.4c-0.4,4.7-3.4,7.9-7.6,7.6C102.2,32.8,99.6,29.3,100,24.6z"/>
		<path class="st0" d="M142.1,51.9c1.2,1,2.3,1.5,2.7,1.6l2.4-3c-0.4-0.1-1.1-0.6-1.5-1c-1.9-1.5-1.9-2.8-0.6-4.5l7.5-9.3l4,3.1
			l2.5-3.2l-4-3.1l4.5-5.7l-3.3-2.6l-2.3,2.9c-1.3,1.6-3.1,2.1-5.1,0.5l-1-0.8l-2.5,3.2l3.5,2.8l-7.9,9.9
			C138.4,46,138.9,49.4,142.1,51.9z"/>
		<path class="st0" d="M153.6,66.3c3.7,6,10.8,7.4,16.8,3.7c5.9-3.7,7.7-10.7,4-16.6c-3.7-6-10.8-7.4-16.7-3.7
			C151.7,53.4,149.9,60.4,153.6,66.3z M160.2,53.7c4.5-2.8,8.8-1.4,10.8,1.9c2.1,3.3,1.4,7.7-3.1,10.5c-4.6,2.8-8.8,1.5-10.9-1.8
			C155,60.9,155.6,56.5,160.2,53.7z"/>
		<polygon class="st0" points="164.2,99.3 164.1,103.9 198.7,104 198.8,99.4 		"/>
		<path class="st0" d="M175.4,113.9c-7.5-2.3-13.4,1.7-15.3,7.7c-1.7,5.2,0.3,9.8,3.7,12.2l2.5-3.4c-2.2-1.7-3.6-4-2.4-7.7
			c1.2-3.8,4.9-5.8,8.8-4.8l-5.4,16.9c0.3,0.1,0.8,0.3,1.3,0.5c6.8,2.1,12.7-0.4,14.9-7.3C185.4,122.6,182.3,116,175.4,113.9z
			 M179.8,127.1c-1.3,4-4.4,5.3-7.6,4.5l3.9-12.3C178.9,120.3,180.9,123.5,179.8,127.1z"/>
		<path class="st0" d="M164,149.3c1.9,1.9,2.3,4.5,0.2,7c-2.3,2.8-4.7,2.8-6.4,1.4c-0.6-0.5-0.9-1.3-0.2-2.5l3.3-5.5
			c2.1-3.6,2.4-7.3-0.9-9.9c-2.8-2.3-7.3-1.9-10.3,1.9c-2.7,3.3-2.5,6.5-1.9,8.3c-1.3-1-2-1.5-2.6-1.7l-2.9,3.5
			c0.5,0.2,1.5,0.8,3.1,2.1l8.9,7.1c3.4,2.8,8.3,3.1,12.7-2.4c3.3-4,3.4-9,0.4-12.2L164,149.3z M154,154.8l-0.8-0.7
			c-3.9-3.1-3.3-6.6-0.9-9.5c1.5-1.8,3.7-2,5-0.9c1.6,1.3,1.5,3.1,0.5,4.8L154,154.8z"/>
		<path class="st0" d="M132.6,158.5l6.1,9.7c2.6,4.2,1.5,7.3-1.8,9.4c-0.5,0.3-1.2,0.7-1.8,1l2.5,4c0.2-0.1,0.8-0.4,1.4-0.7
			c2-1.3,4.1-3.6,3.7-7.5l2.1,3.4l3.8-2.4l-12.1-19.3L132.6,158.5z"/>
		<path class="st0" d="M117,166.1l2.9,12.9c0.7,3.3-0.4,6.5-4,7.3c-4,0.9-5.9-1.3-6.6-4.4l-3-13.4l-4.5,1l3.1,14.1
			c1.1,5,4.6,8.2,10.2,6.9c2.7-0.6,5.2-2.3,6.3-5.5l0.7,3.2l4.4-1l-5-22.2L117,166.1z"/>
		<path class="st0" d="M65.4,176.9c-1.9,2.9-5.1,3.6-7.8,1.8c-2.9-1.9-2.9-4.6-1.2-7.1l8.1-12l-3.8-2.5l-7.8,11.5
			c-1.8,2.7-5,3.6-7.8,1.8c-2.9-1.9-2.9-4.6-1.2-7.1l8.1-12l-3.8-2.5l-8.4,12.4c-3.3,5-1.6,9.5,1.9,11.7c2.5,1.6,5.6,2.4,9,0.7
			c-0.6,3.2,1,5.9,3.4,7.5c2.3,1.5,5.4,2.1,8,0.8l-1.7,2.5l3.7,2.4L77,167.7l-3.8-2.5L65.4,176.9z"/>
		<path class="st0" d="M41.6,133.3c-3.1-6.3-10-8.4-16.3-5.3c-6.3,3.1-8.7,9.9-5.6,16.2s10,8.4,16.3,5.3
			C42.2,146.3,44.7,139.6,41.6,133.3z M33.8,145.3c-4.8,2.4-8.9,0.6-10.6-2.9s-0.7-7.8,4.1-10.2c4.8-2.4,8.9-0.6,10.6,2.9
			C39.7,138.6,38.7,142.9,33.8,145.3z"/>
		<path class="st0" d="M34.6,112.1l-11.4,1.4c-5,0.6-7.3-1.7-7.7-5.6c-0.1-0.6-0.1-1.3-0.1-2l-4.7,0.6c0,0.2,0,0.9,0,1.5
			c0.3,2.3,1.4,5.2,5.1,6.5l-4,0.5l0.5,4.5l22.8-2.7L34.6,112.1z"/>
		<path class="st0" d="M22,98.1c7.6,1.6,13.2-2.8,14.6-9c1.2-5.3-1.1-9.8-4.7-11.8l-2.2,3.6c2.4,1.5,3.9,3.6,3,7.4
			c-0.9,3.9-4.3,6.2-8.4,5.5l3.9-17.3c-0.3-0.1-0.8-0.3-1.4-0.4c-6.9-1.5-12.6,1.4-14.3,8.5C11.3,90.3,15,96.6,22,98.1z M16.5,85.3
			c0.9-4.1,3.9-5.6,7.2-5.1l-2.9,12.6C18,92.1,15.7,89.1,16.5,85.3z"/>
	</g>
</g>
</svg>
