<?xml version="1.0" encoding="UTF-8"?>
<svg width="19px" height="22px" viewBox="0 0 19 22" version="1.1" xmlns="http://www.w3.org/2000/svg" xmlns:xlink="http://www.w3.org/1999/xlink">
    <title>Swap_Tegnebræt 1 kopi 28 Copy</title>
    <g id="Mobile" stroke="none" stroke-width="1" fill="none" fill-rule="evenodd">
        <g id="iPhone-11-Pro-Copy-118" transform="translate(-18.000000, -116.000000)" fill="#000000" fill-rule="nonzero">
            <g id="Swap_Tegnebræt-1-kopi-28-Copy" transform="translate(18.606344, 116.934884)">
                <path d="M17.0366379,9.31896552 L14.8814655,9.5237069 C14.9245421,10.0004657 14.9245421,10.4801377 14.8814655,10.9568966 C14.7995108,11.8832701 14.5163398,12.7805911 14.0517241,13.5862069 C13.6120616,14.3309853 13.0074928,14.9650453 12.2844828,15.4396552 C11.5596676,15.9102572 10.7384888,16.2122153 9.88146552,16.3232759 C8.96046279,16.4566575 8.02196798,16.4016676 7.12284483,16.1616379 C6.70525045,16.0534514 6.29783149,15.9092323 5.90517241,15.7306034 L8.53448276,14.9224138 L8.125,13.5862069 L2.53232759,15.3103448 L3.09267241,16.5603448 L3.09267241,16.5603448 L3.16810345,16.5603448 L5.11853448,20.8706897 L6.40086207,20.299569 L5.17241379,17.8103448 C5.63500487,18.0040567 6.11024035,18.1660688 6.59482759,18.2952586 C7.35911006,18.4905582 8.14436548,18.5918815 8.93318966,18.5969828 C9.35530661,18.5968559 9.77679524,18.5644337 10.1939655,18.5 C11.3467174,18.3318434 12.4494917,17.9164651 13.4267241,17.2823276 C14.4423514,16.6173785 15.2846431,15.7196728 15.8836207,14.6637931 C16.4940533,13.5890202 16.8618545,12.3936663 16.9612069,11.1616379 C17.0402032,10.5508028 17.0654437,9.93421361 17.0366379,9.31896552 L17.0366379,9.31896552 Z" id="Path"></path>
                <path d="M2.34913793,9.68534483 C2.44760834,8.75478173 2.74925434,7.85720094 3.23275862,7.05603448 C3.65480787,6.30027142 4.24465746,5.65143687 4.95689655,5.15948276 C5.68171172,4.68888074 6.50289055,4.38692261 7.35991379,4.27586207 C8.28091652,4.14248043 9.21941133,4.19747036 10.1185345,4.4375 C10.7883167,4.61343387 11.4328958,4.87416251 12.0366379,5.21336207 L9.00862069,5.95689655 L9.34267241,7.32543103 L15.0862069,5.9137931 L12.8448276,0.0948275862 L11.5409483,0.601293103 L12.4461207,2.97198276 C11.8850514,2.70951207 11.3005936,2.50026177 10.700431,2.34698276 C9.52648885,2.03869112 8.3026239,1.96907007 7.1012931,2.14224138 C5.94854118,2.310398 4.84576694,2.72577629 3.86853448,3.35991379 C2.81750526,4.01275809 1.94102386,4.91142889 1.31465517,5.97844828 C0.704222557,7.0532212 0.336421367,8.24857507 0.237068966,9.48060345 C0.183213183,10.0936471 0.183213183,10.7102323 0.237068966,11.3232759 L2.39224138,11.1185345 C2.33480663,10.6430727 2.32038035,10.1633989 2.34913793,9.68534483 Z" id="Path"></path>
            </g>
        </g>
    </g>
</svg>