<svg version="1.1" id="Layer_1" xmlns="http://www.w3.org/2000/svg" xmlns:xlink="http://www.w3.org/1999/xlink" x="0px" y="0px"
	 viewBox="0 0 60.1 102.8" style="enable-background:new 0 0 60.1 102.8;" xml:space="preserve">
<style type="text/css">
	.st0{fill:#295347;}
</style>
<g id="psznfT_1_">

		<image style="overflow:visible;enable-background:new    ;" width="686" height="547" id="psznfT_2_" xlink:href="20CB93A10F6D947B.png"  transform="matrix(0.9982 0 0 0.9982 1022.5991 -351.4854)">
	</image>
</g>
<g>
	<g>
		<path d="M47,12.4c0.7,0.7,0.7,1.8,0,2.4c-0.7,0.7-1.7,0.6-2.4,0s-0.7-1.7,0-2.4C45.2,11.8,46.3,11.8,47,12.4z M47.6,10.2
			c0.2-0.2,0.4-0.4,0.6-0.7c1.2-1.2,2.6-1.7,4.4-1.3L54,8.5c1.1,0.2,2.1-0.1,2.8-0.8c1.1-1.1,1.4-2.8-0.1-4.3
			c-1.6-1.6-3.5-1.1-4.7,0.1c-0.3,0.3-0.6,0.8-0.8,1l-1.6-2c0.2-0.3,0.4-0.7,0.8-1c1.7-1.7,5-2.5,7.8,0.3c2.6,2.6,2.2,5.8,0.3,7.7
			c-1.5,1.5-3.3,1.7-5.1,1.3L52,10.5c-1-0.2-1.9,0.2-2.6,1c-0.1,0.1-0.1,0.1-0.3,0.4L47.6,10.2z"/>
	</g>
</g>
<path class="st0" d="M40,56.7c-4.4-3-10.5-3.8-14.8-2.1c-2,0.8-3.9,1.7-5.5,2.7c-0.1-0.2-0.1-0.5-0.1-0.7c-1-10.7,5.5-23.1,17.9-34
	l-1.3-1.5C23.3,32.5,16.5,45.5,17.6,56.8c0,0.6,0.1,1.1,0.2,1.7C6.8,66.5,7,79.4,7.4,98.9V99l-6-6L0,94.4l8.4,8.4l8.4-8.4L15.4,93
	l-6,6v-0.1C9,80,8.8,68.1,18.4,60.8c1.5,5.5,5.2,10.1,10.7,13.3c3.7,2.2,7.7,2.4,10.9,0.6c3.1-1.8,5-5.4,5-9.5
	C45,61.9,43.2,58.9,40,56.7z M38.9,72.8c-2.6,1.5-5.8,1.3-8.9-0.5c-5.3-3.1-8.7-7.6-10-12.9c1.7-1.1,3.7-2.1,5.9-3
	c3.7-1.5,9.1-0.7,12.9,1.9c2.6,1.8,4.1,4.2,4.1,6.8C42.9,68.5,41.4,71.4,38.9,72.8z"/>
</svg>
