<?xml version="1.0" encoding="utf-8"?>
<!-- Generator: Adobe Illustrator 16.0.0, SVG Export Plug-In . SVG Version: 6.00 Build 0)  -->
<!DOCTYPE svg PUBLIC "-//W3C//DTD SVG 1.1//EN" "http://www.w3.org/Graphics/SVG/1.1/DTD/svg11.dtd">
<svg version="1.1" xmlns="http://www.w3.org/2000/svg" xmlns:xlink="http://www.w3.org/1999/xlink" x="0px" y="0px"  viewBox="0 0 75 75" enable-background="new 0 0 75 75" xml:space="preserve">
<g id="Cashmere">
	<g>
		<path fill="#FFFFFF" d="M24.566,33.585l0.651,36.303c0.002,0.109,0.093,0.197,0.203,0.195c0,0,6.365,0.1,7.821-0.08
			c1.456-0.182,14.151-0.438,15.758-0.164c1.606,0.271,12.328-0.129,12.328-0.129c0.109-0.002,0.197-0.092,0.197-0.199V14.687"/>
		<path fill="none" stroke="#99979A" stroke-width="0.5" stroke-miterlimit="10" d="M24.566,33.585l0.651,36.303
			c0.002,0.109,0.093,0.197,0.203,0.195c0,0,6.365,0.1,7.821-0.08c1.456-0.182,14.151-0.438,15.758-0.164
			c1.606,0.271,12.328-0.129,12.328-0.129c0.109-0.002,0.197-0.092,0.197-0.199V14.687"/>
		<path fill="#FFFFFF" d="M25.525,4.997L13.499,27.741c-0.052,0.1-0.013,0.223,0.086,0.273l32.258,16.361
			c0.098,0.051,0.217,0.012,0.268-0.084L61.41,14.905c0.058-0.111-0.002-0.252-0.125-0.283L25.754,4.896
			C25.664,4.872,25.568,4.913,25.525,4.997"/>
		<path fill="none" stroke="#99979A" stroke-width="0.5" stroke-miterlimit="10" d="M25.525,4.997L13.499,27.741
			c-0.052,0.1-0.013,0.223,0.086,0.273l32.258,16.361c0.098,0.051,0.217,0.012,0.268-0.084L61.41,14.905
			c0.058-0.111-0.002-0.252-0.125-0.283L25.754,4.896C25.664,4.872,25.568,4.913,25.525,4.997z"/>
		<path fill="#FFFFFF" d="M25.166,64.702c0,0-2.29-0.234-3.117-0.52c-0.743-0.254-2.969-0.494-2.969-0.494
			c-0.107-0.018-0.181-0.117-0.165-0.225l4.331-30.549"/>
		<path fill="none" stroke="#99979A" stroke-width="0.5" stroke-miterlimit="10" d="M25.166,64.702c0,0-2.29-0.234-3.117-0.52
			c-0.743-0.254-2.969-0.494-2.969-0.494c-0.107-0.018-0.181-0.117-0.165-0.225l4.331-30.549"/>
	</g>
</g>
</svg>
