<?xml version="1.0" encoding="utf-8"?>
<!-- Generator: Adobe Illustrator 16.0.0, SVG Export Plug-In . SVG Version: 6.00 Build 0)  -->
<!DOCTYPE svg PUBLIC "-//W3C//DTD SVG 1.1//EN" "http://www.w3.org/Graphics/SVG/1.1/DTD/svg11.dtd">
<svg version="1.1" xmlns="http://www.w3.org/2000/svg" xmlns:xlink="http://www.w3.org/1999/xlink" x="0px" y="0px" width="75px"
	 height="75px" viewBox="0 0 75 75" enable-background="new 0 0 75 75" xml:space="preserve">
<g id="Accessories">
	<g>
		<g opacity="0.15">
			<g>
				<defs>
					<rect id="SVGID_3_" x="32.616" y="6.326" width="7.23" height="62.547"/>
				</defs>
				<clipPath id="SVGID_2_">
					<use xlink:href="#SVGID_3_"  overflow="visible"/>
				</clipPath>
				<path clip-path="url(#SVGID_2_)" fill="#99979A" d="M39.646,68.576h-0.32c0.314,0.223,0.453,0.297,0.5,0.297
					C39.921,68.873,39.646,68.576,39.646,68.576 M37.079,6.328h-3.518c0,0-0.039,4.143,0,4.645c0.039,0.504,0.352,0.439,0.352,1.176
					v7.955c0,1.008-0.398,2.285-0.891,3.158c-0.488,0.873-0.4,1.879-0.4,3.625v36.342c0,2.578,0.91,4.295,2.312,5.348h1.195h3.195
					c-0.094-0.066-0.205-0.146-0.332-0.242c-1.402-1.055-2.854-2.527-2.854-5.105V26.887c0-1.746-0.09-2.752,0.4-3.625
					c0.488-0.873,0.889-2.15,0.889-3.158v-7.955c0-0.736-0.311-0.672-0.35-1.176C37.038,10.471,37.079,6.328,37.079,6.328"/>
			</g>
		</g>
		<path fill="#9B9694" d="M32.149,11.758c0.002,0,0.711-0.127,1.738-0.252c1.025-0.127,2.365-0.254,3.613-0.254v-0.398
			c-2.545,0-5.416,0.51-5.422,0.51L32.149,11.758z"/>
		<path fill="#9B9694" d="M37.501,68.775h4.123c0.961,0.002,1.711-0.311,2.264-0.83c0.828-0.781,1.219-1.988,1.42-3.281
			c0.195-1.295,0.193-2.689,0.195-3.857v-0.01V26.674c0-1.764-0.238-2.873-0.58-3.629c-0.34-0.756-0.789-1.154-1.141-1.473
			c-0.354-0.318-0.652-0.586-0.85-0.812c-0.203-0.225-0.287-0.404-0.285-0.518v-1.66c0.002-0.289-0.084-0.496-0.166-0.633
			l-0.094-0.152l-0.016-0.031l-0.018,0.006h0.018v-0.006l-0.018,0.006h0.018l0.002-0.012c0.014-0.047,0.074-0.16,0.135-0.291
			c0.061-0.133,0.125-0.295,0.127-0.484c-0.002-0.195-0.074-0.354-0.133-0.477c-0.061-0.123-0.098-0.219-0.092-0.24l-0.002-0.004
			l0.002-0.002c0.061-0.188,0.229-0.508,0.232-0.863c0-0.189-0.066-0.348-0.119-0.467c-0.055-0.119-0.092-0.213-0.09-0.24v-0.004
			l0,0v-0.002c-0.004-0.016,0.016-0.064,0.066-0.191c0.047-0.123,0.096-0.305,0.096-0.566c0-0.244,0.008-0.482,0.049-0.658
			c0.039-0.18,0.102-0.262,0.156-0.281c0.342-0.16,0.443-0.514,0.447-0.77l-0.023-0.189v-0.004
			c-0.039-0.113-0.102-0.178-0.135-0.229l-0.043-0.094c0-0.02,0.008-0.074,0.109-0.188c0.166-0.182,0.248-0.42,0.291-0.707
			c0.043-0.289,0.051-0.639,0.051-1.09c0-0.318-0.004-0.688-0.004-1.117c0-0.719-0.115-1.188-0.326-1.516
			c-0.209-0.33-0.508-0.488-0.781-0.59c-0.385-0.145-1.184-0.225-2.121-0.285c-0.934-0.059-1.977-0.084-2.766-0.084
			c-1.584,0.002-3.795,0.117-4.545,0.279c-0.354,0.08-0.734,0.176-1.02,0.508c-0.283,0.332-0.432,0.844-0.432,1.688
			c0,0.43-0.004,0.799-0.004,1.117c0,0.451,0.008,0.801,0.053,1.09c0.043,0.287,0.127,0.525,0.291,0.705
			c0.102,0.115,0.107,0.168,0.107,0.189l-0.043,0.094c-0.033,0.051-0.094,0.115-0.131,0.23l-0.027,0.191
			c0.004,0.256,0.109,0.609,0.449,0.77c0.053,0.02,0.117,0.102,0.156,0.281c0.041,0.176,0.049,0.414,0.049,0.658
			c0,0.262,0.047,0.443,0.094,0.566c0.051,0.127,0.072,0.176,0.068,0.191v0.016l0.201,0.004l-0.201-0.012
			c0.002,0.025-0.035,0.119-0.09,0.238s-0.117,0.277-0.117,0.467c0.002,0.355,0.17,0.676,0.229,0.863v0.006
			c0.008,0.023-0.029,0.119-0.092,0.24c-0.057,0.123-0.129,0.281-0.131,0.477c0.002,0.217,0.084,0.396,0.154,0.539l0.086,0.182
			l0.02,0.055l0.004,0.014l0.002-0.002H32.63v0.002l0.002-0.002H32.63h0.018l-0.018-0.006v0.006h0.018l-0.018-0.006
			c0,0.045-0.281,0.314-0.275,0.816v1.66c0.004,0.113-0.082,0.293-0.285,0.518c-0.199,0.227-0.496,0.494-0.85,0.812
			c-0.352,0.318-0.801,0.717-1.141,1.473c-0.342,0.756-0.582,1.865-0.582,3.629v34.123h0.137l-0.137-0.004v0.004h0.137l-0.137-0.004
			v0.01c0.002,1.557-0.002,3.512,0.469,5.111c0.236,0.797,0.596,1.51,1.148,2.031c0.551,0.52,1.301,0.832,2.262,0.83H37.501v-0.398
			h-4.125c-0.877-0.002-1.506-0.273-1.988-0.725c-0.723-0.674-1.107-1.797-1.299-3.053c-0.189-1.256-0.191-2.631-0.191-3.797h-0.133
			l0.133,0.004v-0.004h-0.133l0.133,0.004v-0.01V26.674c0-1.729,0.236-2.779,0.545-3.465c0.311-0.686,0.689-1.02,1.045-1.338
			c0.354-0.32,0.658-0.592,0.881-0.846c0.221-0.254,0.383-0.496,0.387-0.783v-1.66c0-0.219,0.055-0.33,0.109-0.432
			c0.051-0.102,0.152-0.176,0.166-0.379c-0.01-0.18-0.092-0.285-0.152-0.422c-0.062-0.129-0.111-0.26-0.109-0.365
			c-0.002-0.09,0.037-0.191,0.092-0.307c0.051-0.117,0.125-0.234,0.129-0.41l-0.02-0.133c-0.08-0.229-0.215-0.512-0.209-0.736
			c-0.002-0.098,0.033-0.195,0.08-0.305c0.049-0.109,0.113-0.219,0.125-0.379v-0.004l0.002-0.002v-0.023
			c-0.004-0.156-0.064-0.244-0.094-0.334c-0.035-0.092-0.066-0.205-0.068-0.424c0-0.254-0.008-0.512-0.059-0.744
			c-0.051-0.223-0.146-0.455-0.387-0.561c-0.123-0.043-0.213-0.256-0.209-0.404l0.008-0.074l0.08-0.123
			c0.047-0.068,0.115-0.176,0.115-0.318c0-0.156-0.076-0.307-0.213-0.457c-0.094-0.102-0.156-0.246-0.193-0.496
			c-0.037-0.246-0.047-0.586-0.047-1.031c0-0.314,0.004-0.684,0.004-1.117c0-0.803,0.146-1.213,0.334-1.43s0.453-0.297,0.803-0.375
			c0.662-0.15,2.904-0.271,4.459-0.27c0.779,0,1.818,0.025,2.74,0.082c0.916,0.057,1.738,0.152,2,0.26
			c0.25,0.096,0.443,0.201,0.592,0.432c0.15,0.234,0.264,0.623,0.264,1.301c0,0.434,0.004,0.801,0.004,1.117
			c0,0.447-0.01,0.785-0.047,1.031c-0.037,0.25-0.102,0.395-0.191,0.496c-0.139,0.15-0.215,0.301-0.215,0.457
			c0,0.143,0.066,0.252,0.115,0.318l0.08,0.125l0.189-0.059l-0.191,0.057l0.01,0.074c0.004,0.148-0.086,0.361-0.209,0.404
			c-0.238,0.105-0.336,0.338-0.389,0.561c-0.051,0.232-0.057,0.49-0.059,0.744c0,0.219-0.033,0.332-0.068,0.424
			c-0.029,0.09-0.09,0.178-0.094,0.334l0.002,0.035l0.199-0.016l-0.199,0.012c0.012,0.16,0.08,0.268,0.125,0.377
			c0.049,0.109,0.084,0.207,0.082,0.305c0.004,0.225-0.129,0.508-0.209,0.736l0.191,0.064l-0.191-0.066l-0.02,0.135
			c0.004,0.176,0.076,0.293,0.131,0.41c0.053,0.115,0.092,0.217,0.092,0.307c0,0.105-0.047,0.236-0.113,0.365
			c-0.059,0.137-0.141,0.242-0.148,0.422c0.012,0.203,0.113,0.277,0.164,0.379c0.057,0.102,0.107,0.213,0.109,0.432v1.66
			c0.004,0.287,0.164,0.529,0.385,0.783c0.225,0.254,0.529,0.523,0.883,0.846c0.354,0.318,0.732,0.652,1.045,1.338
			c0.307,0.686,0.545,1.736,0.545,3.465v34.123v0.01c0,1.555-0.004,3.484-0.455,4.994c-0.223,0.756-0.553,1.402-1.037,1.854
			c-0.482,0.449-1.111,0.721-1.988,0.723h-4.123V68.775z"/>
		<path fill="#9B9694" d="M42.921,11.365c-0.006-0.002-2.875-0.512-5.42-0.512v0.4c1.246,0,2.588,0.125,3.613,0.252
			c1.027,0.127,1.736,0.252,1.738,0.252L42.921,11.365z"/>
	</g>
</g>
<g id="TENCEL_Men_x27_s">
</g>
<g id="TENCEL_Women_x27_s">
</g>
<g id="STE">
</g>
<g id="Invisible">
</g>
<g id="Socks">
</g>
<g id="Cashmere">
</g>
<g id="Titles" display="none">
</g>
<g id="OC_Womens">
</g>
<g id="OC_Mens">
</g>
<g id="STA_Womens">
</g>
<g id="STA_Mens">
</g>
</svg>
