<?xml version="1.0" encoding="utf-8"?>
<!-- Generator: Adobe Illustrator 16.0.0, SVG Export Plug-In . SVG Version: 6.00 Build 0)  -->
<!DOCTYPE svg PUBLIC "-//W3C//DTD SVG 1.1//EN" "http://www.w3.org/Graphics/SVG/1.1/DTD/svg11.dtd">
<svg version="1.1" xmlns="http://www.w3.org/2000/svg" xmlns:xlink="http://www.w3.org/1999/xlink" x="0px" y="0px" width="75px"
	 height="75px" viewBox="0 0 75 75" enable-background="new 0 0 75 75" xml:space="preserve">
<g id="Accessories">
	<g>
		<g opacity="0.15">
			<g>
				<defs>
					<rect id="SVGID_1_" x="19.631" y="35.518" width="25.9" height="4.564"/>
				</defs>
				<clipPath id="SVGID_2_">
					<use xlink:href="#SVGID_1_"  overflow="visible"/>
				</clipPath>
				<path clip-path="url(#SVGID_2_)" fill="#99979A" d="M20.749,36.799c-0.558,0-1.119,0.418-1.119,1.135s0.558,1.135,1.119,1.135
					c0.558,0,1.118-0.418,1.118-1.135S21.302,36.799,20.749,36.799 M20.749,39.023l-0.229-0.102c-0.11-0.133-0.16-0.461-0.16-0.988
					s0.045-0.859,0.16-0.99l0.229-0.094l0.226,0.094c0.112,0.141,0.152,0.463,0.152,0.99s-0.045,0.859-0.152,0.994L20.749,39.023z"
					/>
				<path clip-path="url(#SVGID_2_)" fill="#99979A" d="M23.496,36.801c-0.159,0-0.264,0.059-0.344,0.123
					c-0.084,0.068-0.208,0.242-0.268,0.48H22.88l0.005-0.525l-0.025-0.033h-0.935v0.023l0.158,0.045
					c0.045,0.029,0.07,0.07,0.086,0.164l0.015,0.367v0.926c0,0.139,0,0.342-0.025,0.428c-0.03,0.123-0.075,0.154-0.144,0.184
					l-0.119,0.02v0.021h1.288v-0.021l-0.136-0.023c-0.073-0.035-0.134-0.086-0.153-0.209c-0.01-0.084-0.015-0.199-0.015-0.32v-0.416
					c0-0.127,0.005-0.279,0.01-0.318c0.04-0.391,0.184-0.611,0.258-0.611c0.055,0,0.064,0.045,0.105,0.164
					c0.05,0.143,0.129,0.248,0.309,0.248c0.159,0,0.307-0.123,0.307-0.332c0-0.141-0.034-0.23-0.089-0.289
					C23.716,36.828,23.596,36.801,23.496,36.801"/>
				<path clip-path="url(#SVGID_2_)" fill="#99979A" d="M25.937,36.764c-0.204,0-0.363,0.135-0.403,0.309H25.51
					c-0.155-0.174-0.443-0.271-0.697-0.271c-0.432,0-0.905,0.242-0.905,0.76c0,0.338,0.239,0.572,0.479,0.676v0.016
					c-0.174,0.045-0.452,0.203-0.452,0.502c0,0.273,0.198,0.422,0.456,0.447v0.01c-0.302,0.031-0.577,0.17-0.577,0.408
					c0,0.338,0.364,0.463,0.926,0.463c0.603,0,1.264-0.27,1.264-0.875c0-0.453-0.27-0.666-0.767-0.666
					c-0.14,0-0.601,0.049-0.74,0.049c-0.13,0-0.215-0.055-0.215-0.145c0-0.1,0.114-0.154,0.215-0.174
					c0.09,0.025,0.209,0.049,0.322,0.049c0.428,0,0.896-0.242,0.896-0.756l-0.066-0.287l-0.055-0.154l0.076-0.154
					c0.04,0,0.054,0.045,0.095,0.145c0.029,0.078,0.093,0.184,0.238,0.184c0.148,0,0.254-0.084,0.254-0.264
					C26.256,36.875,26.165,36.764,25.937,36.764 M24.812,38.281c-0.219,0-0.278-0.186-0.278-0.721c0-0.537,0.06-0.717,0.278-0.717
					c0.214,0,0.279,0.176,0.279,0.717S25.026,38.281,24.812,38.281 M24.738,40.031c-0.407,0-0.602-0.18-0.602-0.418
					c0-0.299,0.239-0.377,0.453-0.402c0.144-0.016,0.452-0.043,0.605-0.043c0.273,0,0.373,0.152,0.373,0.367
					C25.568,39.822,25.29,40.031,24.738,40.031"/>
				<path clip-path="url(#SVGID_2_)" fill="#99979A" d="M27.175,36.805c-0.293,0-0.613,0.104-0.737,0.268l-0.08,0.219
					c0,0.18,0.119,0.27,0.294,0.27c0.198,0,0.293-0.096,0.293-0.299c0-0.135-0.01-0.26,0.005-0.314
					c0.021-0.043,0.064-0.084,0.194-0.084c0.189,0,0.244,0.051,0.244,0.285c0,0.074-0.004,0.223-0.004,0.328
					c0,0.18-0.084,0.332-0.489,0.441c-0.149,0.049-0.412,0.09-0.537,0.234c-0.084,0.094-0.129,0.178-0.129,0.342
					c0,0.404,0.28,0.574,0.568,0.574c0.293,0,0.525-0.102,0.591-0.355h0.009c0.006,0.105,0.035,0.191,0.085,0.24
					c0.071,0.074,0.19,0.115,0.368,0.115c0.274,0,0.488-0.09,0.538-0.146v-0.023l-0.141,0.039l-0.123-0.055
					c-0.046-0.045-0.056-0.145-0.056-0.367v-1.084C28.068,36.984,27.726,36.805,27.175,36.805 M27.158,38.889
					c-0.14,0-0.214-0.111-0.214-0.389c0-0.16,0.016-0.334,0.055-0.424c0.047-0.092,0.091-0.146,0.184-0.209l0.196-0.164
					l-0.007,0.783C27.372,38.729,27.255,38.889,27.158,38.889"/>
				<path clip-path="url(#SVGID_2_)" fill="#99979A" d="M30.166,36.801c-0.135,0-0.344,0.055-0.468,0.146
					c-0.099,0.076-0.193,0.195-0.248,0.385h-0.011l0.011-0.453l-0.03-0.033h-0.93v0.027l0.159,0.041
					c0.039,0.033,0.071,0.074,0.084,0.168c0.01,0.08,0.01,0.275,0.01,0.367v0.922c0,0.145,0,0.348-0.019,0.428
					c-0.036,0.123-0.079,0.154-0.15,0.184l-0.114,0.02v0.021h1.248v-0.021l-0.112-0.023c-0.079-0.035-0.116-0.086-0.136-0.209
					c-0.016-0.08-0.016-0.195-0.016-0.314v-0.521c0-0.15,0.006-0.275,0.016-0.4c0.034-0.406,0.265-0.555,0.383-0.555
					c0.1,0,0.154,0.023,0.193,0.068c0.055,0.061,0.066,0.154,0.066,0.324v1.084c0,0.119,0,0.234-0.017,0.314
					c-0.02,0.119-0.055,0.174-0.134,0.209l-0.109,0.023v0.021h1.243v-0.021l-0.113-0.02c-0.071-0.029-0.115-0.061-0.146-0.184
					c-0.022-0.08-0.029-0.283-0.029-0.428v-0.85c0-0.24-0.056-0.41-0.135-0.523C30.56,36.846,30.392,36.801,30.166,36.801"/>
				<path clip-path="url(#SVGID_2_)" fill="#99979A" d="M31.825,35.727c-0.194,0-0.363,0.158-0.363,0.367
					c0,0.197,0.166,0.355,0.363,0.355c0.198,0,0.367-0.146,0.367-0.355C32.192,35.879,32.019,35.727,31.825,35.727 M32.148,36.844
					h-0.931v0.029l0.156,0.041c0.044,0.035,0.074,0.074,0.088,0.168c0.01,0.078,0.01,0.275,0.01,0.367v0.971
					c0,0.129,0,0.309-0.018,0.379c-0.036,0.123-0.08,0.152-0.151,0.184l-0.114,0.02v0.021h1.269v-0.021l-0.115-0.02
					c-0.064-0.031-0.109-0.061-0.144-0.184c-0.021-0.07-0.025-0.25-0.025-0.379v-1.227c0-0.129,0.005-0.234,0.005-0.314
					L32.148,36.844z"/>
				<path clip-path="url(#SVGID_2_)" fill="#99979A" d="M33.619,36.801c-0.582,0-1.139,0.395-1.139,1.111
					c0,0.359,0.111,0.652,0.313,0.865c0.171,0.176,0.438,0.291,0.797,0.291c0.476,0,0.734-0.35,0.836-0.744l-0.062-0.018
					c-0.1,0.289-0.284,0.646-0.689,0.646c-0.111,0-0.221-0.041-0.289-0.172c-0.105-0.186-0.164-0.479-0.164-0.922
					c0-0.389,0.048-0.742,0.153-0.885l0.238-0.119c0.114,0,0.154,0.092,0.186,0.352c0.023,0.219,0.103,0.359,0.312,0.359
					c0.129,0,0.274-0.086,0.274-0.27c0-0.113-0.039-0.199-0.128-0.295C34.161,36.9,33.924,36.801,33.619,36.801"/>
				<path clip-path="url(#SVGID_2_)" fill="#99979A" d="M35.083,35.518h-0.745v0.025l0.21,0.066
					c0.062,0.041,0.109,0.096,0.115,0.189l0.004,0.148v2.643c0,0.129-0.004,0.293-0.016,0.441h0.021l0.332-0.283h0.016
					c0.118,0.201,0.358,0.32,0.605,0.32c0.43,0,0.982-0.283,0.982-1.127c0-0.846-0.436-1.139-0.876-1.139
					c-0.287,0-0.537,0.17-0.612,0.455h-0.018v-1.096c0-0.219,0.018-0.506,0.018-0.604L35.083,35.518z M35.604,39.01
					c-0.123,0-0.287-0.064-0.368-0.184c-0.082-0.123-0.134-0.318-0.134-0.58v-0.531c0-0.322,0.067-0.518,0.164-0.65
					s0.261-0.174,0.379-0.174c0.297,0,0.479,0.357,0.479,1.062C36.123,38.549,35.954,39.01,35.604,39.01"/>
				<path clip-path="url(#SVGID_2_)" fill="#99979A" d="M37.564,36.809c-0.222,0-0.519,0.088-0.63,0.23l-0.082,0.209
					c0,0.133,0.093,0.195,0.205,0.195c0.143,0,0.229-0.066,0.229-0.209c0-0.15,0.046-0.273,0.092-0.314s0.099-0.051,0.19-0.051
					c0.22,0,0.282,0.068,0.282,0.324l-0.007,0.311c0,0.148-0.111,0.322-0.414,0.43c-0.199,0.084-0.431,0.094-0.584,0.258
					c-0.107,0.117-0.123,0.205-0.123,0.332c0,0.369,0.266,0.545,0.555,0.545c0.291,0,0.46-0.145,0.542-0.324h0.01
					c0,0.162,0.036,0.25,0.103,0.285c0.062,0.039,0.158,0.039,0.281,0.039c0.174,0,0.364-0.068,0.4-0.115v-0.02l-0.154,0.041
					l-0.111-0.041c-0.048-0.045-0.058-0.158-0.058-0.389c0-0.318,0.01-1.064,0.01-1.234C38.301,36.945,37.944,36.809,37.564,36.809
					 M37.507,38.924c-0.21,0-0.307-0.139-0.307-0.414c0-0.141,0.031-0.27,0.082-0.35c0.046-0.072,0.107-0.137,0.25-0.211
					c0.098-0.049,0.216-0.105,0.303-0.229l-0.005,0.742C37.83,38.738,37.652,38.924,37.507,38.924"/>
				<path clip-path="url(#SVGID_2_)" fill="#99979A" d="M39.429,36.803c-0.438,0-0.676,0.322-0.676,0.619
					c0,0.385,0.261,0.564,0.584,0.707c0.328,0.15,0.538,0.293,0.538,0.498c0,0.303-0.128,0.383-0.369,0.383
					c-0.322,0-0.676-0.35-0.742-0.787h-0.025l0.01,0.799h0.027l0.146-0.145h0.022c0.146,0.123,0.393,0.191,0.562,0.191
					c0.401,0,0.729-0.217,0.729-0.684c0-0.361-0.284-0.531-0.647-0.686c-0.281-0.117-0.481-0.23-0.481-0.492
					c0-0.225,0.139-0.342,0.317-0.342c0.123,0,0.272,0.055,0.385,0.162c0.117,0.107,0.204,0.271,0.235,0.441h0.026l-0.021-0.631
					h-0.01l-0.132,0.123H39.89C39.803,36.867,39.604,36.803,39.429,36.803"/>
				<path clip-path="url(#SVGID_2_)" fill="#99979A" d="M40.814,35.695c-0.119,0-0.268,0.104-0.268,0.268
					c0,0.158,0.148,0.256,0.268,0.256c0.123,0,0.275-0.082,0.275-0.256C41.09,35.783,40.938,35.695,40.814,35.695 M41.009,36.85
					h-0.688v0.025l0.175,0.047c0.046,0.035,0.077,0.07,0.092,0.168c0.011,0.082,0.011,0.316,0.011,0.416v0.977
					c0,0.109,0,0.211-0.021,0.289c-0.03,0.137-0.071,0.162-0.174,0.209l-0.112,0.021v0.018h1.056v-0.018l-0.112-0.021
					c-0.104-0.047-0.145-0.072-0.174-0.209c-0.021-0.078-0.021-0.18-0.021-0.289v-1.281c0-0.133,0.005-0.238,0.005-0.316
					L41.009,36.85z M45.252,38.543c-0.116,0-0.266,0.104-0.266,0.266c0,0.16,0.149,0.256,0.266,0.256
					c0.123,0,0.277-0.082,0.277-0.256C45.529,38.631,45.375,38.543,45.252,38.543"/>
				<path clip-path="url(#SVGID_2_)" fill="#99979A" d="M42.356,36.803c-0.456,0-0.981,0.41-0.981,1.105
					c0,0.371,0.082,0.67,0.292,0.887c0.163,0.164,0.409,0.273,0.685,0.273c0.425,0,0.692-0.334,0.784-0.74l-0.067-0.02
					c-0.075,0.266-0.233,0.656-0.687,0.656c-0.112,0-0.225-0.021-0.322-0.17c-0.123-0.188-0.2-0.516-0.2-0.973
					c0-0.4,0.067-0.738,0.19-0.855l0.286-0.107c0.207,0,0.262,0.102,0.303,0.357c0.027,0.164,0.082,0.271,0.261,0.271
					c0.094,0,0.205-0.061,0.205-0.219l-0.105-0.238C42.905,36.92,42.669,36.803,42.356,36.803"/>
				<path clip-path="url(#SVGID_2_)" fill="#99979A" d="M44.002,36.803c-0.438,0-0.676,0.322-0.676,0.619
					c0,0.385,0.261,0.564,0.584,0.707c0.327,0.15,0.538,0.293,0.538,0.498c0,0.303-0.129,0.383-0.369,0.383
					c-0.323,0-0.677-0.35-0.743-0.787h-0.024l0.009,0.799h0.027l0.147-0.145h0.021c0.147,0.123,0.394,0.191,0.562,0.191
					c0.401,0,0.729-0.217,0.729-0.684c0-0.361-0.283-0.531-0.646-0.686c-0.282-0.117-0.48-0.23-0.48-0.492
					c0-0.225,0.137-0.342,0.316-0.342c0.123,0,0.272,0.055,0.384,0.162c0.118,0.107,0.205,0.271,0.236,0.441h0.027l-0.022-0.631
					h-0.011l-0.131,0.123h-0.018C44.376,36.867,44.177,36.803,44.002,36.803"/>
			</g>
		</g>
		<path fill="#9B9694" d="M15.999,22.551v21.561c0,1.025-0.025,2.035-0.025,3.002c0.001,1.979,0.106,3.785,0.816,5.201
			c0.709,1.418,2.051,2.402,4.38,2.682c5.7,0.699,8.736,0.699,11.409,0.699v-0.4c-2.671,0-5.676,0-11.359-0.695
			c-2.244-0.281-3.412-1.168-4.072-2.465c-0.658-1.303-0.777-3.057-0.775-5.021c0-0.961,0.027-1.971,0.027-3.002V31.369v-6.186
			v-2.633H15.999z"/>
		<path fill="#9B9694" d="M32.579,22.068c-8.956,0-13.558-0.312-15.908-0.643c-1.175-0.164-1.786-0.334-2.086-0.461
			c-0.148-0.061-0.219-0.113-0.239-0.135l-0.009-0.01l-0.069,0.051h0.082l-0.013-0.051l-0.069,0.051h0.082h-0.17l0.152,0.07
			l0.018-0.07h-0.17l0.152,0.07l0.041-0.09l-0.046-0.088l-0.143,0.076h0.163l-0.021-0.076l-0.143,0.076h0.163H14.24l0.097,0.049
			l0.011-0.049H14.24l0.097,0.049l-0.026-0.012l0.023,0.018l0.003-0.006l-0.026-0.012l0.023,0.018
			c-0.001-0.01,0.136-0.129,0.591-0.252c1.366-0.387,5.519-0.938,17.654-0.938v-0.4c-8.92,0-13.531,0.295-15.928,0.611
			c-1.199,0.158-1.842,0.32-2.205,0.463c-0.18,0.072-0.294,0.139-0.374,0.211l-0.125,0.25l0.028,0.111l0.175-0.094l-0.181-0.084
			l-0.021,0.098l0.117,0.244c0.135,0.129,0.37,0.252,0.898,0.395c1.582,0.422,5.846,0.959,17.615,0.959V22.068z"/>
		<path fill="#9B9694" d="M48.76,22.551v21.561c0,1.031,0.027,2.041,0.027,3.002c0.001,1.965-0.117,3.719-0.775,5.021
			c-0.659,1.297-1.827,2.184-4.069,2.465c-5.688,0.695-8.692,0.695-11.363,0.695v0.4c2.673,0,5.709,0,11.41-0.699
			c2.329-0.279,3.671-1.264,4.38-2.682c0.71-1.416,0.815-3.223,0.817-5.201c0-0.967-0.026-1.977-0.026-3.002V31.369v-6.186v-2.633
			H48.76z"/>
		<path fill="#9B9694" d="M32.579,22.469c8.967,0,13.579-0.312,15.965-0.646c1.192-0.168,1.828-0.338,2.185-0.488
			c0.178-0.074,0.289-0.145,0.365-0.219l0.116-0.244l-0.013-0.08l-0.188,0.068l0.179,0.088l0.023-0.107l-0.125-0.25
			c-0.14-0.125-0.38-0.24-0.914-0.379c-1.602-0.4-5.885-0.904-17.594-0.904v0.398c8.91,0,13.514,0.295,15.876,0.607
			c1.182,0.154,1.804,0.314,2.11,0.438c0.154,0.062,0.227,0.113,0.25,0.135l0.01,0.01l0.036-0.029l-0.042,0.016l0.006,0.014
			l0.036-0.029l-0.042,0.016l0.11-0.041h-0.117l0.007,0.041l0.11-0.041h-0.117h0.16l-0.144-0.068l-0.017,0.068h0.16l-0.144-0.068
			l-0.037,0.074l0.028,0.08l0.152-0.055h-0.162l0.01,0.055l0.152-0.055h-0.162h0.108l-0.1-0.047l-0.009,0.047h0.108l-0.1-0.047
			l0.027,0.012l-0.024-0.016l-0.003,0.004l0.027,0.012l-0.024-0.016c0.001,0.006-0.125,0.129-0.572,0.258
			c-1.343,0.406-5.473,0.994-17.671,0.992V22.469z"/>
		<path fill="#9B9694" d="M49.091,48.336c3.965,0,6.97-0.959,8.978-3.043c2.006-2.084,2.984-5.254,2.984-9.605
			c0.008-3.502-1.277-5.645-3.434-6.85c-2.15-1.205-5.118-1.512-8.528-1.514v0.402c3.388-0.002,6.299,0.314,8.332,1.461
			c2.026,1.146,3.222,3.086,3.231,6.5c-0.002,4.295-0.969,7.35-2.875,9.328c-1.905,1.977-4.782,2.918-8.688,2.92V48.336z"/>
		<path fill="#9B9694" d="M49.091,46.4c3.301,0,5.81-0.779,7.487-2.48c1.678-1.703,2.494-4.291,2.492-7.83
			c0.008-2.854-1.071-4.615-2.873-5.596c-1.796-0.986-4.27-1.232-7.106-1.234v0.402c2.814-0.002,5.233,0.256,6.913,1.182
			c1.675,0.928,2.658,2.484,2.666,5.246c0,3.484-0.801,5.951-2.377,7.547c-1.575,1.6-3.958,2.361-7.202,2.363V46.4z"/>
		<path fill="#9B9694" d="M32.579,23.139c-8.956,0-13.558-0.314-15.908-0.645c-1.175-0.164-1.786-0.334-2.086-0.459
			c-0.148-0.062-0.219-0.115-0.239-0.137l-0.009-0.01l-0.069,0.053h0.082l-0.013-0.053l-0.069,0.053h0.082h-0.171l0.153,0.07
			l0.018-0.07h-0.171l0.153,0.07l0.019-0.039v-1.115h-0.4v1.07h0.2l-0.181-0.086l-0.021,0.1l0.117,0.244
			c0.135,0.127,0.37,0.25,0.898,0.393c1.582,0.422,5.846,0.959,17.615,0.959V23.139z"/>
		<path fill="#9B9694" d="M50.809,20.859v1.068v0.035l0.015,0.035l0.151-0.059h-0.164l0.013,0.059l0.151-0.059h-0.164h0.107
			l-0.097-0.045l-0.011,0.045h0.107l-0.097-0.045l0.024,0.012l-0.021-0.018l-0.003,0.006l0.024,0.012l-0.021-0.018
			c0.001,0.008-0.126,0.129-0.574,0.26c-1.342,0.404-5.471,0.99-17.67,0.99v0.398c8.965,0,13.58-0.312,15.963-0.646
			c1.195-0.168,1.829-0.338,2.186-0.486c0.18-0.076,0.288-0.146,0.365-0.221l0.117-0.244l-0.014-0.082l-0.188,0.07h0.2v-1.068
			H50.809z"/>
		<path fill="#9B9694" d="M15.398,21.594c1.763-0.385,6.207-0.848,17.182-0.846v-0.4c-10.99,0.002-15.439,0.459-17.267,0.855
			L15.398,21.594z"/>
		<path fill="#9B9694" d="M49.887,21.213c-0.093-0.025-0.113-0.031-0.155-0.037c-0.031-0.008-0.059-0.01-0.207-0.037
			c-2.008-0.379-6.553-0.789-16.944-0.791v0.398c10.379,0,14.915,0.412,16.87,0.785c0.148,0.029,0.199,0.035,0.218,0.037
			c0.009,0.002,0.012,0.002,0.112,0.031L49.887,21.213z"/>
	</g>
</g>
<g id="TENCEL_Men_x27_s">
</g>
<g id="TENCEL_Women_x27_s">
</g>
<g id="STE">
</g>
<g id="Invisible">
</g>
<g id="Socks">
</g>
<g id="Cashmere">
</g>
<g id="Titles" display="none">
</g>
<g id="OC_Womens">
</g>
<g id="OC_Mens">
</g>
<g id="STA_Womens">
</g>
<g id="STA_Mens">
</g>
</svg>
