<?xml version="1.0" encoding="utf-8"?>
<!-- Generator: Adobe Illustrator 16.0.0, SVG Export Plug-In . SVG Version: 6.00 Build 0)  -->
<!DOCTYPE svg PUBLIC "-//W3C//DTD SVG 1.1//EN" "http://www.w3.org/Graphics/SVG/1.1/DTD/svg11.dtd">
<svg version="1.1" xmlns="http://www.w3.org/2000/svg" xmlns:xlink="http://www.w3.org/1999/xlink" x="0px" y="0px"  viewBox="0 0 75 75" enable-background="new 0 0 75 75" xml:space="preserve">
<g id="Accessories">
	<g>
		<path fill="none" stroke="#99979A" stroke-width="0.5" stroke-miterlimit="10" d="M41.231,17.665h4.651 M41.231,16.851h4.651
			 M41.231,16.034h4.651 M41.231,15.218h4.651 M41.231,14.401h4.651 M41.231,13.585h4.651 M41.231,12.771h4.651 M41.231,11.952
			h4.651 M41.231,11.136h4.651 M41.231,10.321h4.651 M41.231,9.503h4.651 M41.231,8.688h4.651 M41.231,7.87h4.651 M41.231,7.056
			h4.651 M39.24,68.017V6.985c0-0.549,0.445-0.996,0.996-0.996c0.55,0,0.995,0.447,0.995,0.996v61.031
			c0,0.549-0.445,0.994-0.995,0.994C39.685,69.011,39.24,68.565,39.24,68.017z M31.109,17.665h4.651 M31.109,16.851h4.651
			 M31.109,16.034h4.651 M31.109,15.218h4.651 M31.109,14.401h4.651 M31.109,13.585h4.651 M31.109,12.771h4.651 M31.109,11.952
			h4.651 M31.109,11.136h4.651 M31.109,10.321h4.651 M31.109,9.503h4.651 M31.109,8.688h4.651 M31.109,7.87h4.651 M31.109,7.056
			h4.651 M29.118,68.017V6.985c0-0.549,0.445-0.996,0.996-0.996c0.55,0,0.995,0.447,0.995,0.996v61.031
			c0,0.549-0.445,0.994-0.995,0.994C29.563,69.011,29.118,68.565,29.118,68.017z"/>
	</g>
</g></svg>
