<?xml version="1.0" encoding="utf-8"?>
<!-- Generator: Adobe Illustrator 16.0.0, SVG Export Plug-In . SVG Version: 6.00 Build 0)  -->
<!DOCTYPE svg PUBLIC "-//W3C//DTD SVG 1.1//EN" "http://www.w3.org/Graphics/SVG/1.1/DTD/svg11.dtd">
<svg version="1.1" xmlns="http://www.w3.org/2000/svg" xmlns:xlink="http://www.w3.org/1999/xlink" x="0px" y="0px"  viewBox="0 0 75 75" enable-background="new 0 0 75 75" xml:space="preserve">
<g id="Accessories">
	<g>
		<g opacity="0.15">
			<g>
				<defs>
					<rect id="SVGID_5_" x="22.963" y="45.533" width="29.07" height="5.125"/>
				</defs>
				<clipPath id="SVGID_2_">
					<use xlink:href="#SVGID_5_"  overflow="visible"/>
				</clipPath>
				<path clip-path="url(#SVGID_2_)" fill="#99979A" d="M24.221,46.975c-0.625,0-1.258,0.469-1.258,1.271s0.625,1.273,1.258,1.273
					c0.625,0,1.256-0.471,1.256-1.273S24.84,46.975,24.221,46.975 M24.221,49.469l-0.258-0.109
					c-0.123-0.154-0.178-0.521-0.178-1.113c0-0.59,0.049-0.965,0.178-1.109l0.258-0.105l0.25,0.105
					c0.129,0.154,0.174,0.52,0.174,1.109c0,0.592-0.051,0.965-0.174,1.117L24.221,49.469z"/>
				<path clip-path="url(#SVGID_2_)" fill="#99979A" d="M27.305,46.975c-0.18,0-0.297,0.066-0.387,0.141
					c-0.094,0.078-0.234,0.271-0.301,0.541h-0.004l0.004-0.592l-0.029-0.039h-1.049v0.025l0.178,0.053
					c0.053,0.031,0.078,0.078,0.096,0.182c0.014,0.09,0.018,0.314,0.018,0.414v1.039c0,0.156,0,0.385-0.029,0.479
					c-0.031,0.143-0.084,0.174-0.16,0.207l-0.135,0.023v0.021h1.445v-0.021l-0.15-0.027c-0.084-0.041-0.148-0.096-0.174-0.234
					c-0.01-0.098-0.014-0.225-0.014-0.357v-0.469c0-0.141,0.004-0.314,0.008-0.359c0.047-0.434,0.207-0.684,0.291-0.684
					c0.062,0,0.074,0.049,0.119,0.182c0.055,0.162,0.143,0.281,0.344,0.281c0.18,0,0.348-0.143,0.348-0.375
					c0-0.158-0.039-0.258-0.102-0.324C27.549,47.006,27.414,46.975,27.305,46.975"/>
				<path clip-path="url(#SVGID_2_)" fill="#99979A" d="M30.045,46.936c-0.23,0-0.41,0.15-0.453,0.348h-0.029
					c-0.172-0.197-0.496-0.311-0.781-0.311c-0.484,0-1.016,0.275-1.016,0.857c0,0.377,0.268,0.639,0.537,0.756v0.018
					c-0.195,0.053-0.508,0.229-0.508,0.562c0,0.309,0.221,0.475,0.512,0.504v0.01c-0.338,0.035-0.646,0.193-0.646,0.459
					c0,0.381,0.408,0.52,1.037,0.52c0.676,0,1.418-0.301,1.418-0.984c0-0.508-0.301-0.746-0.859-0.746
					c-0.156,0-0.676,0.057-0.83,0.057c-0.146,0-0.242-0.062-0.242-0.162c0-0.113,0.129-0.174,0.242-0.195
					c0.1,0.029,0.232,0.055,0.361,0.055c0.479,0,1.006-0.271,1.006-0.848c0-0.102-0.029-0.223-0.074-0.324l-0.061-0.174
					c0-0.098,0.051-0.172,0.084-0.172c0.045,0,0.061,0.049,0.105,0.162c0.033,0.088,0.107,0.207,0.268,0.207
					c0.168,0,0.285-0.096,0.285-0.295C30.4,47.057,30.301,46.936,30.045,46.936 M28.781,48.637c-0.244,0-0.312-0.207-0.312-0.807
					c0-0.605,0.068-0.805,0.312-0.805c0.24,0,0.312,0.193,0.312,0.805C29.094,48.438,29.021,48.637,28.781,48.637 M28.697,50.602
					c-0.457,0-0.676-0.199-0.676-0.469c0-0.334,0.27-0.424,0.51-0.453c0.162-0.016,0.508-0.049,0.682-0.049
					c0.305,0,0.418,0.172,0.418,0.414C29.631,50.369,29.318,50.602,28.697,50.602"/>
				<path clip-path="url(#SVGID_2_)" fill="#99979A" d="M31.434,46.979c-0.33,0-0.689,0.117-0.828,0.305
					c-0.049,0.064-0.088,0.148-0.088,0.244c0,0.199,0.133,0.303,0.328,0.303c0.223,0,0.33-0.109,0.33-0.336
					c0-0.152-0.014-0.291,0.006-0.354c0.02-0.051,0.072-0.094,0.217-0.094c0.211,0,0.273,0.055,0.273,0.318
					c0,0.084-0.006,0.252-0.006,0.367c0,0.201-0.096,0.373-0.549,0.496c-0.166,0.059-0.463,0.104-0.6,0.266
					c-0.096,0.104-0.146,0.199-0.146,0.385c0,0.451,0.314,0.641,0.637,0.641c0.328,0,0.592-0.111,0.664-0.395h0.012
					c0.004,0.117,0.039,0.211,0.094,0.266c0.078,0.084,0.211,0.129,0.412,0.129c0.307,0,0.547-0.1,0.604-0.162V49.33l-0.154,0.045
					l-0.143-0.062c-0.049-0.051-0.061-0.162-0.061-0.414v-1.217C32.436,47.18,32.053,46.979,31.434,46.979 M31.414,49.318
					c-0.154,0-0.238-0.123-0.238-0.436c0-0.178,0.016-0.375,0.061-0.473c0.049-0.109,0.1-0.168,0.207-0.236
					c0.078-0.049,0.15-0.088,0.217-0.184l-0.006,0.877C31.654,49.139,31.521,49.318,31.414,49.318"/>
				<path clip-path="url(#SVGID_2_)" fill="#99979A" d="M34.791,46.975c-0.15,0-0.387,0.061-0.523,0.168
					c-0.113,0.082-0.219,0.217-0.281,0.43h-0.01l0.01-0.508l-0.033-0.039h-1.045v0.033l0.18,0.045
					c0.045,0.039,0.078,0.082,0.096,0.188c0.01,0.09,0.01,0.309,0.01,0.414v1.033c0,0.162,0,0.389-0.021,0.479
					c-0.039,0.143-0.09,0.174-0.168,0.207l-0.127,0.023v0.021h1.4v-0.021l-0.129-0.027c-0.088-0.041-0.129-0.096-0.15-0.234
					c-0.016-0.092-0.016-0.219-0.016-0.354v-0.586c0-0.166,0.004-0.305,0.016-0.447c0.039-0.457,0.297-0.625,0.432-0.625
					c0.109,0,0.172,0.029,0.215,0.078c0.062,0.068,0.074,0.174,0.074,0.365v1.215c0,0.135,0,0.262-0.018,0.354
					c-0.021,0.135-0.061,0.193-0.148,0.234l-0.123,0.027v0.021h1.393v-0.021l-0.129-0.023c-0.078-0.033-0.127-0.064-0.16-0.207
					c-0.027-0.09-0.033-0.316-0.033-0.479v-0.953c0-0.27-0.062-0.459-0.15-0.586C35.232,47.025,35.043,46.975,34.791,46.975"/>
				<path clip-path="url(#SVGID_2_)" fill="#99979A" d="M36.654,45.768c-0.219,0-0.408,0.18-0.408,0.412
					c0,0.225,0.184,0.404,0.408,0.404c0.221,0,0.412-0.166,0.412-0.404S36.871,45.768,36.654,45.768 M37.016,47.025h-1.043v0.031
					l0.172,0.045c0.053,0.039,0.084,0.084,0.102,0.191c0.01,0.088,0.01,0.305,0.01,0.414v1.088c0,0.145,0,0.344-0.02,0.422
					c-0.039,0.141-0.092,0.174-0.17,0.207l-0.127,0.023v0.021h1.422v-0.021l-0.127-0.023c-0.074-0.033-0.123-0.066-0.162-0.207
					c-0.023-0.078-0.029-0.277-0.029-0.422v-1.379c0-0.146,0.006-0.264,0.006-0.352L37.016,47.025z"/>
				<path clip-path="url(#SVGID_2_)" fill="#99979A" d="M38.668,46.975c-0.654,0-1.279,0.445-1.279,1.25
					c0,0.4,0.123,0.73,0.352,0.973c0.191,0.193,0.49,0.322,0.893,0.322c0.537,0,0.826-0.393,0.938-0.832l-0.066-0.023
					c-0.111,0.326-0.318,0.727-0.775,0.727c-0.123,0-0.246-0.045-0.324-0.188c-0.117-0.213-0.184-0.543-0.184-1.041
					c0-0.434,0.055-0.83,0.172-0.994l0.27-0.133c0.127,0,0.172,0.107,0.205,0.396c0.029,0.244,0.117,0.4,0.352,0.4
					c0.145,0,0.307-0.092,0.307-0.299c0-0.129-0.045-0.225-0.145-0.33C39.275,47.084,39.008,46.975,38.668,46.975"/>
				<path clip-path="url(#SVGID_2_)" fill="#99979A" d="M40.309,45.533h-0.834v0.031l0.234,0.074
					c0.07,0.047,0.121,0.109,0.127,0.213l0.006,0.166v2.967c0,0.145-0.006,0.328-0.016,0.494h0.021l0.375-0.314h0.018
					c0.133,0.225,0.4,0.355,0.676,0.355c0.484,0,1.105-0.316,1.105-1.266c0-0.947-0.488-1.275-0.982-1.275
					c-0.324,0-0.605,0.189-0.691,0.512h-0.016v-1.23c0-0.246,0.016-0.57,0.016-0.68L40.309,45.533z M40.895,49.457
					c-0.139,0-0.32-0.076-0.414-0.207c-0.092-0.139-0.148-0.355-0.148-0.65v-0.598c0-0.361,0.074-0.582,0.184-0.732
					c0.109-0.148,0.293-0.195,0.426-0.195c0.332,0,0.533,0.404,0.533,1.197C41.475,48.939,41.287,49.457,40.895,49.457"/>
				<path clip-path="url(#SVGID_2_)" fill="#99979A" d="M43.094,46.982c-0.248,0-0.58,0.1-0.707,0.26
					c-0.057,0.068-0.09,0.137-0.09,0.234c0,0.15,0.102,0.221,0.229,0.221c0.16,0,0.258-0.074,0.258-0.236
					c0-0.166,0.053-0.305,0.104-0.352c0.053-0.047,0.109-0.057,0.213-0.057c0.246,0,0.316,0.076,0.316,0.363l-0.006,0.35
					c0,0.166-0.125,0.363-0.465,0.484c-0.225,0.09-0.482,0.102-0.656,0.287c-0.119,0.131-0.137,0.229-0.137,0.373
					c0,0.414,0.299,0.609,0.619,0.609c0.328,0,0.518-0.162,0.611-0.361h0.01c0,0.182,0.041,0.279,0.115,0.32
					c0.07,0.041,0.178,0.041,0.316,0.041c0.195,0,0.408-0.074,0.449-0.127v-0.021L44.1,49.416l-0.127-0.045
					c-0.051-0.053-0.062-0.18-0.062-0.439c0-0.354,0.012-1.195,0.012-1.385C43.922,47.139,43.52,46.982,43.094,46.982
					 M43.031,49.357c-0.234,0-0.346-0.152-0.346-0.465c0-0.154,0.035-0.299,0.092-0.391c0.053-0.08,0.121-0.156,0.281-0.236
					c0.111-0.057,0.242-0.121,0.34-0.26l-0.006,0.834C43.393,49.152,43.191,49.357,43.031,49.357"/>
				<path clip-path="url(#SVGID_2_)" fill="#99979A" d="M45.189,46.979c-0.496,0-0.76,0.361-0.76,0.693
					c0,0.434,0.293,0.633,0.656,0.795c0.367,0.166,0.604,0.328,0.604,0.559c0,0.34-0.145,0.432-0.414,0.432
					c-0.363,0-0.76-0.393-0.834-0.885h-0.027l0.01,0.895h0.029l0.168-0.16h0.021c0.166,0.139,0.443,0.213,0.633,0.213
					c0.447,0,0.814-0.24,0.814-0.766c0-0.408-0.314-0.596-0.725-0.77c-0.316-0.133-0.539-0.26-0.539-0.553
					c0-0.254,0.156-0.385,0.357-0.385c0.137,0,0.305,0.064,0.43,0.184c0.133,0.121,0.23,0.307,0.264,0.494h0.031l-0.025-0.707h-0.01
					l-0.15,0.141h-0.016C45.607,47.053,45.383,46.979,45.189,46.979"/>
				<path clip-path="url(#SVGID_2_)" fill="#99979A" d="M46.744,45.736c-0.135,0-0.301,0.115-0.301,0.299
					c0,0.178,0.166,0.289,0.301,0.289c0.137,0,0.309-0.092,0.309-0.289C47.053,45.832,46.881,45.736,46.744,45.736 M46.961,47.031
					h-0.771v0.027l0.195,0.053c0.053,0.041,0.086,0.08,0.105,0.188c0.01,0.094,0.01,0.359,0.01,0.467v1.1
					c0,0.119,0,0.234-0.021,0.32c-0.035,0.154-0.082,0.184-0.195,0.234l-0.127,0.025v0.021h1.184v-0.021l-0.127-0.025
					c-0.115-0.051-0.16-0.08-0.195-0.234c-0.021-0.086-0.021-0.201-0.021-0.32v-1.439c0-0.148,0.004-0.268,0.004-0.355
					L46.961,47.031z M51.725,48.932c-0.133,0-0.299,0.113-0.299,0.301c0,0.176,0.166,0.285,0.299,0.285
					c0.139,0,0.312-0.092,0.312-0.285C52.037,49.031,51.863,48.932,51.725,48.932"/>
				<path clip-path="url(#SVGID_2_)" fill="#99979A" d="M48.475,46.979c-0.512,0-1.104,0.459-1.104,1.24
					c0,0.414,0.09,0.754,0.328,0.994c0.182,0.186,0.461,0.307,0.77,0.307c0.479,0,0.777-0.373,0.881-0.828l-0.076-0.023
					c-0.086,0.299-0.266,0.738-0.771,0.738c-0.125,0-0.252-0.025-0.361-0.193c-0.139-0.211-0.225-0.58-0.225-1.09
					c0-0.451,0.076-0.83,0.213-0.961c0.086-0.08,0.23-0.121,0.324-0.121c0.229,0,0.293,0.117,0.336,0.404
					c0.031,0.182,0.094,0.303,0.295,0.303c0.104,0,0.23-0.07,0.23-0.248c0-0.08-0.041-0.166-0.119-0.262
					C49.09,47.111,48.826,46.979,48.475,46.979"/>
				<path clip-path="url(#SVGID_2_)" fill="#99979A" d="M50.322,46.979c-0.494,0-0.76,0.361-0.76,0.693
					c0,0.434,0.293,0.633,0.656,0.795c0.369,0.166,0.604,0.328,0.604,0.559c0,0.34-0.145,0.432-0.414,0.432
					c-0.361,0-0.76-0.393-0.834-0.885h-0.027l0.01,0.895h0.029l0.168-0.16h0.021c0.166,0.139,0.443,0.213,0.633,0.213
					c0.447,0,0.814-0.24,0.814-0.766c0-0.408-0.314-0.596-0.723-0.77c-0.316-0.133-0.539-0.26-0.539-0.553
					c0-0.254,0.154-0.385,0.354-0.385c0.139,0,0.307,0.064,0.434,0.184c0.131,0.121,0.229,0.307,0.264,0.494h0.029l-0.025-0.707
					h-0.008l-0.152,0.141H50.84C50.742,47.053,50.516,46.979,50.322,46.979"/>
			</g>
		</g>
		<path fill="#9B9694" d="M20.518,28.232h33.965v39.727H20.518V28.232z M20.117,27.832v40.527h34.766v-0.201h-0.201v-0.199v0.199
			h0.201V27.832H20.117z"/>
		<path fill="#9B9694" d="M48.236,28.137c-0.002-5.906-1.184-11.258-3.105-15.146c-1.922-3.883-4.602-6.342-7.629-6.35
			c-3.031,0.008-5.709,2.467-7.631,6.35c-1.926,3.889-3.107,9.24-3.107,15.146h0.4c-0.002-5.854,1.176-11.15,3.064-14.971
			c1.893-3.822,4.484-6.131,7.273-6.125c2.789-0.006,5.379,2.303,7.27,6.125c1.889,3.82,3.066,9.117,3.066,14.971H48.236z"/>
		<path fill="#9B9694" d="M46.738,28.137c0-5.461-1.014-10.404-2.666-14.002c-0.824-1.799-1.811-3.262-2.918-4.281
			c-1.105-1.021-2.346-1.602-3.652-1.602c-1.311,0-2.551,0.58-3.656,1.602c-3.314,3.062-5.58,10.094-5.586,18.283h0.4
			c-0.002-5.41,1.01-10.309,2.629-13.834c0.811-1.766,1.771-3.186,2.826-4.154c1.059-0.973,2.197-1.494,3.387-1.494
			c1.186,0,2.324,0.521,3.383,1.494c3.172,2.912,5.461,9.875,5.455,17.988H46.738z"/>
	</g>
</g>
<g id="TENCEL_Men_x27_s">
</g>
<g id="TENCEL_Women_x27_s">
</g>
<g id="STE">
</g>
<g id="Invisible">
</g>
<g id="Socks">
</g>
<g id="Cashmere">
</g>
<g id="Titles" display="none">
</g>
<g id="OC_Womens">
</g>
<g id="OC_Mens">
</g>
<g id="STA_Womens">
</g>
<g id="STA_Mens">
</g>
</svg>
