<?xml version="1.0" encoding="utf-8"?>
<!-- Generator: Adobe Illustrator 16.0.0, SVG Export Plug-In . SVG Version: 6.00 Build 0)  -->
<!DOCTYPE svg PUBLIC "-//W3C//DTD SVG 1.1//EN" "http://www.w3.org/Graphics/SVG/1.1/DTD/svg11.dtd">
<svg version="1.1" xmlns="http://www.w3.org/2000/svg" xmlns:xlink="http://www.w3.org/1999/xlink" x="0px" y="0px" width="75px"
	 height="75px" viewBox="0 0 75 75" enable-background="new 0 0 75 75" xml:space="preserve">
<g id="Accessories">
</g>
<g id="TENCEL_Men_x27_s">
</g>
<g id="TENCEL_Women_x27_s">
</g>
<g id="STE">
</g>
<g id="Invisible">
</g>
<g id="Socks">
</g>
<g id="Cashmere">
	<g>
		<path fill="none" stroke="#99979A" stroke-width="0.478" stroke-miterlimit="10" d="M37.499,19.49
			c-12.379,0-19.15,15.738-19.15,35.154"/>
		<path fill="none" stroke="#99979A" stroke-width="0.478" stroke-miterlimit="10" d="M22.178,54.799
			c0-15.531,5.419-35.309,15.321-35.309"/>
		<path fill="none" stroke="#99979A" stroke-width="0.478" stroke-miterlimit="10" d="M26.008,54.953
			c0-11.648,4.064-35.463,11.491-35.463"/>
		<path fill="none" stroke="#99979A" stroke-width="0.478" stroke-miterlimit="10" d="M29.839,55.107
			c0-7.768,2.709-35.617,7.66-35.617"/>
		<path fill="none" stroke="#99979A" stroke-width="0.478" stroke-miterlimit="10" d="M33.669,55.262
			c0-3.885,1.354-35.771,3.83-35.771"/>
		
			<line fill="none" stroke="#99979A" stroke-width="0.478" stroke-miterlimit="10" x1="37.499" y1="55.416" x2="37.499" y2="19.49"/>
		<path fill="none" stroke="#99979A" stroke-width="0.478" stroke-miterlimit="10" d="M37.499,19.49
			c12.379,0,19.151,15.738,19.151,35.154"/>
		<path fill="none" stroke="#99979A" stroke-width="0.478" stroke-miterlimit="10" d="M52.82,54.799
			c0-15.531-5.418-35.309-15.321-35.309"/>
		<path fill="none" stroke="#99979A" stroke-width="0.478" stroke-miterlimit="10" d="M48.99,54.953
			c0-11.648-4.063-35.463-11.491-35.463"/>
		<path fill="none" stroke="#99979A" stroke-width="0.478" stroke-miterlimit="10" d="M45.159,55.107
			c0-7.768-2.709-35.617-7.66-35.617"/>
		<path fill="none" stroke="#99979A" stroke-width="0.478" stroke-miterlimit="10" d="M41.329,55.262
			c0-3.885-1.354-35.771-3.83-35.771"/>
		
			<line fill="none" stroke="#99979A" stroke-width="0.478" stroke-miterlimit="10" x1="37.499" y1="55.416" x2="37.499" y2="19.49"/>
		<path fill="none" stroke="#99979A" stroke-width="0.478" stroke-miterlimit="10" d="M18.348,54.645L18.348,54.645
			c0-19.414,6.772-35.154,19.151-35.154"/>
		<path fill="none" stroke="#99979A" stroke-width="0.478" stroke-miterlimit="10" d="M37.499,19.49
			c12.379,0,19.151,15.738,19.151,35.154"/>
		<path fill="#FFFFFF" d="M55.692,55.508H19.306c-1.248,0-2.259-1.012-2.259-2.26v-6.16c0-1.248,1.011-2.26,2.259-2.26h36.387
			c1.248,0,2.261,1.012,2.261,2.26v6.16C57.953,54.496,56.94,55.508,55.692,55.508"/>
		<path fill="#FEFEFE" stroke="#99979A" stroke-width="0.481" stroke-miterlimit="10" d="M55.692,55.508H19.306
			c-1.248,0-2.259-1.012-2.259-2.26v-6.16c0-1.248,1.011-2.26,2.259-2.26h36.387c1.248,0,2.261,1.012,2.261,2.26v6.16
			C57.953,54.496,56.94,55.508,55.692,55.508z"/>
		<line fill="#FFFFFF" x1="22.88" y1="44.828" x2="22.88" y2="55.51"/>
		<line fill="none" stroke="#99979A" stroke-width="0.481" stroke-miterlimit="10" x1="22.88" y1="44.828" x2="22.88" y2="55.51"/>
		<line fill="#FFFFFF" x1="19" y1="44.828" x2="19" y2="55.51"/>
		<line fill="none" stroke="#99979A" stroke-width="0.481" stroke-miterlimit="10" x1="19" y1="44.828" x2="19" y2="55.51"/>
		<line fill="#FFFFFF" x1="26.715" y1="44.828" x2="26.715" y2="55.51"/>
		
			<line fill="none" stroke="#99979A" stroke-width="0.481" stroke-miterlimit="10" x1="26.715" y1="44.828" x2="26.715" y2="55.51"/>
		<line fill="#FFFFFF" x1="30.465" y1="44.828" x2="30.465" y2="55.51"/>
		
			<line fill="none" stroke="#99979A" stroke-width="0.481" stroke-miterlimit="10" x1="30.465" y1="44.828" x2="30.465" y2="55.51"/>
		<line fill="#FFFFFF" x1="34.088" y1="44.828" x2="34.088" y2="55.51"/>
		
			<line fill="none" stroke="#99979A" stroke-width="0.481" stroke-miterlimit="10" x1="34.088" y1="44.828" x2="34.088" y2="55.51"/>
		<line fill="#FFFFFF" x1="37.499" y1="44.828" x2="37.499" y2="55.51"/>
		
			<line fill="none" stroke="#99979A" stroke-width="0.481" stroke-miterlimit="10" x1="37.499" y1="44.828" x2="37.499" y2="55.51"/>
		<line fill="#FFFFFF" x1="40.899" y1="44.828" x2="40.899" y2="55.51"/>
		
			<line fill="none" stroke="#99979A" stroke-width="0.481" stroke-miterlimit="10" x1="40.899" y1="44.828" x2="40.899" y2="55.51"/>
		<line fill="#FFFFFF" x1="44.5" y1="44.828" x2="44.5" y2="55.51"/>
		<line fill="none" stroke="#99979A" stroke-width="0.481" stroke-miterlimit="10" x1="44.5" y1="44.828" x2="44.5" y2="55.51"/>
		<line fill="#FFFFFF" x1="48.238" y1="44.828" x2="48.238" y2="55.51"/>
		
			<line fill="none" stroke="#99979A" stroke-width="0.481" stroke-miterlimit="10" x1="48.238" y1="44.828" x2="48.238" y2="55.51"/>
		<line fill="#FFFFFF" x1="52.113" y1="44.828" x2="52.113" y2="55.51"/>
		
			<line fill="none" stroke="#99979A" stroke-width="0.481" stroke-miterlimit="10" x1="52.113" y1="44.828" x2="52.113" y2="55.51"/>
		<line fill="#FFFFFF" x1="55.967" y1="44.828" x2="55.967" y2="55.51"/>
		
			<line fill="none" stroke="#99979A" stroke-width="0.481" stroke-miterlimit="10" x1="55.967" y1="44.828" x2="55.967" y2="55.51"/>
	</g>
</g>
<g id="Titles" display="none">
	<text transform="matrix(1 0 0 1 24.7676 1.084)" display="inline"><tspan x="0" y="0" fill="#9B9694" font-family="'CircularAirPro-Bold'" font-size="4.4">B</tspan><tspan x="2.702" y="0" fill="#9B9694" font-family="'CircularAirPro-Bold'" font-size="4.4">eanie</tspan></text>
</g>
<g id="OC_Womens">
</g>
<g id="OC_Mens">
</g>
<g id="STA_Womens">
</g>
<g id="STA_Mens">
</g>
</svg>
