<?xml version="1.0" encoding="utf-8"?>
<!-- Generator: Adobe Illustrator 16.0.0, SVG Export Plug-In . SVG Version: 6.00 Build 0)  -->
<!DOCTYPE svg PUBLIC "-//W3C//DTD SVG 1.1//EN" "http://www.w3.org/Graphics/SVG/1.1/DTD/svg11.dtd">
<svg version="1.1" xmlns="http://www.w3.org/2000/svg" xmlns:xlink="http://www.w3.org/1999/xlink" x="0px" y="0px"  viewBox="0 0 75 75" enable-background="new 0 0 75 75" xml:space="preserve">
<g id="Accessories">
</g>
<g id="TENCEL_Men_x27_s">
</g>
<g id="TENCEL_Women_x27_s">
</g>
<g id="STE">
</g>
<g id="Invisible">
</g>
<g id="Socks">
</g>
<g id="Cashmere">
	<g>
		<path fill="#FFFFFF" d="M26.852,50.179c0,0-3.066-20.125-3.279-22.684c-0.213-2.559-0.253-5.117,1.356-5.248
			c1.611-0.131,2.015,2.693,2.73,6.676c0.714,3.984,1.136,2.492,0.63-0.098c-0.508-2.592-1.758-8.287,0.482-8.689
			c2.24-0.4,2.443,5.676,2.779,7.922c0.336,2.244,0.739,4.311,0.422-0.219c-0.315-4.527-0.747-7.166,0.954-7.314
			c1.702-0.152,2.065,5.385,2.154,7.328c0.087,1.943,0.328,5.131,0.436-0.076c0,0-0.376-4.746,1.491-4.617
			c1.867,0.131,1.171,4.229,1.41,8.803c0.241,4.576,0.697,17.045,0.794,18.021c0.098,0.973,0.513,2.311-2.002,2.771
			c-2.514,0.463-6.889,0.344-7.883,0.178C28.331,52.765,27.182,52.356,26.852,50.179"/>
		<path fill="none" stroke="#99979A" stroke-width="0.5" stroke-miterlimit="10" d="M26.852,50.179c0,0-3.066-20.125-3.279-22.684
			c-0.213-2.559-0.253-5.117,1.356-5.248c1.611-0.131,2.015,2.693,2.73,6.676c0.714,3.984,1.136,2.492,0.63-0.098
			c-0.508-2.592-1.758-8.287,0.482-8.689c2.24-0.4,2.443,5.676,2.779,7.922c0.336,2.244,0.739,4.311,0.422-0.219
			c-0.315-4.527-0.747-7.166,0.954-7.314c1.702-0.152,2.065,5.385,2.154,7.328c0.087,1.943,0.328,5.131,0.436-0.076
			c0,0-0.376-4.746,1.491-4.617c1.867,0.131,1.171,4.229,1.41,8.803c0.241,4.576,0.697,17.045,0.794,18.021
			c0.098,0.973,0.513,2.311-2.002,2.771c-2.514,0.463-6.889,0.344-7.883,0.178C28.331,52.765,27.182,52.356,26.852,50.179z"/>
		<path fill="none" stroke="#99979A" stroke-width="0.5" stroke-miterlimit="10" d="M29.211,52.911c0,0-0.521-3.793-0.684-6.355"/>
		<path fill="none" stroke="#99979A" stroke-width="0.5" stroke-miterlimit="10" d="M31.295,53.194c0,0-0.584-4.262-0.747-6.824"/>
		<path fill="none" stroke="#99979A" stroke-width="0.5" stroke-miterlimit="10" d="M33.214,53.019c0,0-0.467-4.275-0.56-6.844"/>
		<path fill="none" stroke="#99979A" stroke-width="0.5" stroke-miterlimit="10" d="M35.243,52.831c0,0-0.465-4.275-0.557-6.844"/>
		<path fill="none" stroke="#99979A" stroke-width="0.5" stroke-miterlimit="10" d="M37.222,52.649c0,0-0.423-4.281-0.489-6.85"/>
		<path fill="#FFFFFF" d="M24.988,45.065c0,0,12.062-16.398,13.721-18.359c1.659-1.961,3.44-3.799,4.671-2.752
			c1.23,1.047-0.481,3.33-2.792,6.65s-0.958,2.566,0.515,0.375c1.474-2.189,4.617-7.102,6.486-5.803
			c1.868,1.301-2.286,5.742-3.635,7.566c-1.351,1.826-2.529,3.572,0.451,0.145c2.979-3.426,4.539-5.594,5.848-4.498
			c1.309,1.098-2.348,5.268-3.661,6.705c-1.312,1.438-3.394,3.859,0.364,0.254c0,0,3.09-3.621,4.318-2.209
			c1.23,1.412-2.162,3.818-5.227,7.223c-3.066,3.404-11.56,12.545-12.181,13.303c-0.62,0.758-1.272,1.998-3.376,0.545
			c-2.105-1.451-5.114-4.629-5.699-5.451C24.206,47.938,23.129,47.347,24.988,45.065"/>
		<path fill="none" stroke="#99979A" stroke-width="0.5" stroke-miterlimit="10" d="M24.988,45.065c0,0,12.062-16.398,13.721-18.359
			c1.659-1.961,3.44-3.799,4.671-2.752c1.23,1.047-0.481,3.33-2.792,6.65s-0.958,2.566,0.515,0.375
			c1.474-2.189,4.617-7.102,6.486-5.803c1.868,1.301-2.286,5.742-3.635,7.566c-1.351,1.826-2.529,3.572,0.451,0.145
			c2.979-3.426,4.539-5.594,5.848-4.498c1.309,1.098-2.348,5.268-3.661,6.705c-1.312,1.438-3.394,3.859,0.364,0.254
			c0,0,3.09-3.621,4.318-2.209c1.23,1.412-2.162,3.818-5.227,7.223c-3.066,3.404-11.56,12.545-12.181,13.303
			c-0.62,0.758-1.272,1.998-3.376,0.545c-2.105-1.451-5.114-4.629-5.699-5.451C24.206,47.938,23.129,47.347,24.988,45.065z"/>
		<path fill="none" stroke="#99979A" stroke-width="0.5" stroke-miterlimit="10" d="M24.724,48.665c0,0,2.313-3.053,4.011-4.979"/>
		<path fill="none" stroke="#99979A" stroke-width="0.5" stroke-miterlimit="10" d="M25.998,50.339c0,0,2.601-3.428,4.298-5.355"/>
		<path fill="none" stroke="#99979A" stroke-width="0.5" stroke-miterlimit="10" d="M27.479,51.571c0,0,2.693-3.354,4.442-5.234"/>
		<path fill="none" stroke="#99979A" stroke-width="0.5" stroke-miterlimit="10" d="M29.045,52.872c0,0,2.512-3.152,4.262-5.031"/>
		<path fill="none" stroke="#99979A" stroke-width="0.5" stroke-miterlimit="10" d="M30.574,54.144c0,0,2.622-3.215,4.391-5.074"/>
		<path fill="none" stroke="#99979A" stroke-width="0.5" stroke-miterlimit="10" d="M36.599,50.511
			c-2.104-1.451-8.778-7.5-9.363-8.32"/>
	</g>
</g>
<g id="Titles" display="none">
	<text transform="matrix(1 0 0 1 31.4004 1.084)" display="inline"><tspan x="0" y="0" fill="#9B9694" font-family="'CircularAirPro-Bold'" font-size="4.4">Gl</tspan><tspan x="4.646" y="0" fill="#9B9694" font-family="'CircularAirPro-Bold'" font-size="4.4">ov</tspan><tspan x="9.482" y="0" fill="#9B9694" font-family="'CircularAirPro-Bold'" font-size="4.4">es</tspan></text>
</g>
<g id="OC_Womens">
</g>
<g id="OC_Mens">
</g>
<g id="STA_Womens">
</g>
<g id="STA_Mens">
</g>
</svg>
