<?xml version="1.0" encoding="utf-8"?>
<!-- Generator: Adobe Illustrator 16.0.0, SVG Export Plug-In . SVG Version: 6.00 Build 0)  -->
<!DOCTYPE svg PUBLIC "-//W3C//DTD SVG 1.1//EN" "http://www.w3.org/Graphics/SVG/1.1/DTD/svg11.dtd">
<svg version="1.1" xmlns="http://www.w3.org/2000/svg" xmlns:xlink="http://www.w3.org/1999/xlink" x="0px" y="0px" width="75px"
	 height="75px" viewBox="0 0 75 75" enable-background="new 0 0 75 75" xml:space="preserve">
<g id="Accessories">
</g>
<g id="TENCEL_Men_x27_s">
</g>
<g id="TENCEL_Women_x27_s">
</g>
<g id="STE">
</g>
<g id="Invisible">
</g>
<g id="Socks">
</g>
<g id="Cashmere">
	<g>
		<path fill="#99969A" d="M35.249,69.654c-1.278,0-2.467-0.018-2.562-0.02h-0.003c-0.17,0-0.313-0.14-0.316-0.313l-0.463-43.395
			l0.355-0.005l0.462,43.359c0.426,0.005,4.542,0.061,5.506-0.059c1.117-0.138,10.114-0.31,11.255-0.115
			c1.075,0.182,8.172-0.073,8.697-0.092V12.488h0.355v56.562c0,0.173-0.142,0.317-0.317,0.319c-0.307,0.011-7.649,0.281-8.795,0.087
			c-1.114-0.188-10.164-0.003-11.152,0.118C37.766,69.638,36.467,69.654,35.249,69.654 M32.688,69.279L32.688,69.279h0.001H32.688z
			 M58.211,69.015H58.21H58.211z"/>
		
			<rect x="4.827" y="40.976" transform="matrix(0.0147 0.9999 -0.9999 0.0147 73.8138 7.2638)" fill="#99969A" width="56.789" height="0.22"/>
		
			<rect x="5.801" y="40.876" transform="matrix(0.012 0.9999 -0.9999 0.012 74.8652 6.2013)" fill="#99969A" width="56.988" height="0.22"/>
		
			<rect x="6.911" y="40.877" transform="matrix(0.0081 1 -1 0.0081 76.1012 5.2508)" fill="#99969A" width="56.985" height="0.219"/>
		<rect x="7.91" y="40.877" transform="matrix(0.0081 1 -1 0.0081 77.0916 4.2517)" fill="#99969A" width="56.985" height="0.219"/>
		
			<rect x="8.909" y="40.877" transform="matrix(0.0081 1 -1 0.0081 78.0825 3.2533)" fill="#99969A" width="56.985" height="0.219"/>
		<rect x="9.907" y="40.877" transform="matrix(0.0081 1 -1 0.0081 79.0727 2.255)" fill="#99969A" width="56.985" height="0.219"/>
		
			<rect x="10.906" y="40.877" transform="matrix(0.0081 1 -1 0.0081 80.0627 1.2556)" fill="#99969A" width="56.985" height="0.219"/>
		
			<rect x="11.906" y="40.461" transform="matrix(0.0081 1 -1 0.0081 80.6384 -0.1548)" fill="#99969A" width="56.983" height="0.219"/>
		
			<rect x="12.904" y="40.461" transform="matrix(0.0081 1 -1 0.0081 81.6286 -1.153)" fill="#99969A" width="56.983" height="0.218"/>
		
			<rect x="13.903" y="40.461" transform="matrix(0.0081 1 -1 0.0081 82.6185 -2.1525)" fill="#99969A" width="56.983" height="0.219"/>
		
			<rect x="14.901" y="40.461" transform="matrix(0.0081 1 -1 0.0081 83.6099 -3.1505)" fill="#99969A" width="56.983" height="0.218"/>
		
			<rect x="15.899" y="40.654" transform="matrix(0.0081 1 -1 0.0081 84.7928 -3.9581)" fill="#99969A" width="56.985" height="0.219"/>
		
			<rect x="16.899" y="40.461" transform="matrix(0.0081 1 -1 0.0081 85.5902 -5.1485)" fill="#99969A" width="56.983" height="0.219"/>
		
			<rect x="17.897" y="40.461" transform="matrix(0.0081 1 -1 0.0081 86.5813 -6.1469)" fill="#99969A" width="56.983" height="0.219"/>
		
			<rect x="18.896" y="40.461" transform="matrix(0.0081 1 -1 0.0081 87.5713 -7.1457)" fill="#99969A" width="56.983" height="0.219"/>
		
			<rect x="19.895" y="40.461" transform="matrix(0.0081 1 -1 0.0081 88.5616 -8.1448)" fill="#99969A" width="56.983" height="0.219"/>
		
			<rect x="20.893" y="40.877" transform="matrix(0.0081 1 -1 0.0081 89.9691 -8.7302)" fill="#99969A" width="56.985" height="0.219"/>
		
			<rect x="21.891" y="40.877" transform="matrix(0.0081 1 -1 0.0081 90.9595 -9.7287)" fill="#99969A" width="56.985" height="0.219"/>
		
			<rect x="22.89" y="40.877" transform="matrix(0.0081 1 -1 0.0081 91.9497 -10.7278)" fill="#99969A" width="56.985" height="0.219"/>
		
			<rect x="23.889" y="40.877" transform="matrix(0.0081 1 -1 0.0081 92.9408 -11.7262)" fill="#99969A" width="56.985" height="0.219"/>
		
			<rect x="24.699" y="40.669" transform="matrix(0.0074 1 -1 0.0074 93.7821 -12.9204)" fill="#99969A" width="57.4" height="0.22"/>
		<rect x="26" y="40.874" transform="matrix(0.0041 1 -1 0.0041 95.2557 -13.6773)" fill="#99969A" width="56.989" height="0.219"/>
		
			<rect x="26.947" y="40.515" transform="matrix(0.0041 1 -1 0.0041 95.8919 -15.0323)" fill="#99969A" width="57.091" height="0.219"/>
		<rect x="28" y="40.461" transform="matrix(0.0041 1 -1 0.0041 96.8325 -16.0851)" fill="#99969A" width="56.982" height="0.219"/>
		
			<rect x="28.999" y="40.461" transform="matrix(0.0041 1 -1 0.0041 97.8262 -17.0846)" fill="#99969A" width="56.982" height="0.219"/>
		<path fill="#FEFEFE" d="M32.765,5.599L16.658,37.855c-0.038,0.07-0.01,0.157,0.062,0.193l22.935,11.633
			c0.069,0.036,0.154,0.009,0.19-0.061l18.434-36.977c0.042-0.08-0.001-0.179-0.089-0.202L32.927,5.528
			C32.863,5.511,32.795,5.54,32.765,5.599"/>
		<path fill="#99969A" d="M39.718,49.876c-0.05,0-0.099-0.014-0.145-0.036L16.638,38.207c-0.077-0.04-0.134-0.107-0.16-0.189
			s-0.018-0.17,0.022-0.246L32.606,5.517c0.07-0.133,0.223-0.202,0.369-0.159l25.261,6.913c0.094,0.026,0.169,0.093,0.209,0.182
			c0.038,0.088,0.035,0.189-0.01,0.275L40.003,49.7c-0.04,0.077-0.106,0.133-0.187,0.159C39.784,49.871,39.75,49.876,39.718,49.876
			 M16.831,37.906l22.871,11.601l18.399-36.904L32.909,5.708L16.831,37.906z M32.88,5.7L32.88,5.7L32.88,5.7z"/>
		<line x1="33.463" y1="5.675" x2="33.633" y2="5.722"/>
		<polygon fill="#99969A" points="17.537,38.306 33.634,5.722 33.463,5.675 17.384,38.227 		"/>
		<line x1="34.313" y1="5.908" x2="34.482" y2="5.953"/>
		<polygon fill="#99969A" points="18.397,38.704 34.482,5.953 34.313,5.908 18.244,38.627 		"/>
		<line x1="35.493" y1="6.23" x2="35.663" y2="6.277"/>
		<polygon fill="#99969A" points="19.348,39.288 35.663,6.277 35.493,6.23 19.195,39.209 		"/>
		<line x1="36.479" y1="6.5" x2="36.647" y2="6.547"/>
		<polygon fill="#99969A" points="20.227,39.764 36.648,6.547 36.478,6.5 20.073,39.685 		"/>
		<line x1="37.463" y1="6.77" x2="37.632" y2="6.816"/>
		<polygon fill="#99969A" points="21.104,40.239 37.632,6.816 37.463,6.771 20.951,40.161 		"/>
		<line x1="38.447" y1="7.039" x2="38.617" y2="7.085"/>
		
			<rect x="21.822" y="40.667" transform="matrix(-0.8881 -0.4597 0.4597 -0.8881 22.6703 86.8628)" fill="#99969A" width="0.172" height="0.01"/>
		<polygon fill="#99969A" points="38.447,7.039 21.834,40.629 21.988,40.707 38.617,7.085 		"/>
		
			<rect x="22.706" y="41.116" transform="matrix(-0.8881 -0.4597 0.4597 -0.8881 24.1257 88.1429)" fill="#99969A" width="0.172" height="0.038"/>
		<line x1="39.433" y1="7.309" x2="39.602" y2="7.354"/>
		<polygon fill="#99969A" points="39.433,7.309 22.724,41.08 22.877,41.157 39.602,7.354 		"/>
		<line x1="40.422" y1="7.58" x2="40.592" y2="7.625"/>
		<polygon fill="#99969A" points="23.859,41.444 40.592,7.627 40.422,7.58 23.706,41.365 		"/>
		<line x1="41.407" y1="7.849" x2="41.576" y2="7.895"/>
		<polygon fill="#99969A" points="24.737,41.92 41.576,7.896 41.406,7.849 24.584,41.842 		"/>
		<line x1="42.392" y1="8.118" x2="42.561" y2="8.164"/>
		<polygon fill="#99969A" points="25.615,42.396 42.561,8.166 42.392,8.118 25.462,42.317 		"/>
		<line x1="43.376" y1="8.388" x2="43.545" y2="8.434"/>
		<polygon fill="#99969A" points="26.493,42.872 43.545,8.434 43.376,8.388 26.339,42.793 		"/>
		<line x1="44.359" y1="8.656" x2="44.528" y2="8.703"/>
		
			<rect x="27.161" y="43.375" transform="matrix(-0.8881 -0.4597 0.4597 -0.8881 31.4984 94.4563)" fill="#99969A" width="0.172" height="0.039"/>
		<polygon fill="#99969A" points="44.359,8.656 27.179,43.339 27.332,43.418 44.528,8.703 		"/>
		<line x1="45.346" y1="8.927" x2="45.515" y2="8.973"/>
		<polygon fill="#99969A" points="28.25,43.824 45.515,8.973 45.346,8.927 28.096,43.745 		"/>
		<line x1="46.331" y1="9.196" x2="46.5" y2="9.243"/>
		<polygon fill="#99969A" points="29.127,44.3 46.5,9.243 46.331,9.196 28.974,44.221 		"/>
		
			<rect x="29.843" y="44.733" transform="matrix(-0.8881 -0.4597 0.4597 -0.8881 35.9469 98.22)" fill="#99969A" width="0.172" height="0.003"/>
		<line x1="47.315" y1="9.466" x2="47.484" y2="9.513"/>
		<polygon fill="#99969A" points="47.315,9.466 29.852,44.696 30.005,44.772 47.484,9.513 		"/>
		
			<rect x="30.727" y="45.184" transform="matrix(-0.8904 -0.4552 0.4552 -0.8904 37.676 99.4689)" fill="#99969A" width="0.172" height="0.029"/>
		<line x1="48.3" y1="9.735" x2="48.47" y2="9.782"/>
		<polygon fill="#99969A" points="48.3,9.735 30.743,45.147 30.896,45.226 48.47,9.782 		"/>
		<line x1="49.28" y1="10.004" x2="49.45" y2="10.05"/>
		
			<rect x="31.609" y="45.634" transform="matrix(-0.8904 -0.4552 0.4552 -0.8904 39.1343 100.7389)" fill="#99969A" width="0.172" height="0.049"/>
		<polygon fill="#99969A" points="49.28,10.004 31.629,45.598 31.783,45.676 49.45,10.05 		"/>
		<line x1="50.265" y1="10.273" x2="50.435" y2="10.319"/>
		
			<rect x="32.495" y="46.082" transform="matrix(-0.8904 -0.4552 0.4552 -0.8904 40.6005 102.0089)" fill="#99969A" width="0.172" height="0.069"/>
		<polygon fill="#99969A" points="50.265,10.273 32.52,46.048 32.673,46.127 50.435,10.319 		"/>
		<line fill="#99969A" x1="51.25" y1="10.543" x2="51.419" y2="10.589"/>
		
			<rect x="33.382" y="46.534" transform="matrix(-0.8881 -0.4597 0.4597 -0.8881 41.7819 103.3241)" fill="#99969A" width="0.172" height="0.085"/>
		<polygon fill="#99969A" points="51.25,10.543 33.41,46.5 33.563,46.578 51.419,10.589 		"/>
		<line fill="#99969A" x1="52.234" y1="10.812" x2="52.404" y2="10.858"/>
		
			<rect x="34.285" y="46.989" transform="matrix(-0.8904 -0.4552 0.4552 -0.8904 43.5811 104.499)" fill="#99969A" width="0.172" height="0.028"/>
		<polyline fill="#99969A" points="52.404,10.859 52.234,10.812 34.301,46.952 34.454,47.029 		"/>
		<line fill="#99969A" x1="53.26" y1="11.093" x2="53.429" y2="11.139"/>
		
			<rect x="35.162" y="47.438" transform="matrix(-0.8904 -0.4552 0.4552 -0.8904 45.0204 105.8056)" fill="#99969A" width="0.172" height="0.089"/>
		<polygon fill="#99969A" points="53.26,11.093 35.192,47.403 35.345,47.482 53.429,11.139 		"/>
		<line fill="#99969A" x1="54.426" y1="11.412" x2="54.596" y2="11.458"/>
		
			<rect x="36.075" y="47.894" transform="matrix(-0.8863 -0.4632 0.4632 -0.8863 46.0223 107.102)" fill="#99969A" width="0.171" height="0.013"/>
		<polygon fill="#99969A" points="54.426,11.412 36.085,47.857 36.239,47.935 54.596,11.458 		"/>
		
			<rect x="36.96" y="48.346" transform="matrix(-0.8863 -0.4632 0.4632 -0.8863 47.4755 108.3924)" fill="#99969A" width="0.171" height="0.044"/>
		<line fill="#99969A" x1="55.416" y1="11.683" x2="55.585" y2="11.729"/>
		<polygon fill="#99969A" points="55.416,11.683 36.977,48.31 37.131,48.388 55.585,11.729 		"/>
		<line fill="#99969A" x1="56.403" y1="11.953" x2="56.572" y2="12"/>
		<polygon fill="#99969A" points="38.045,48.797 56.573,12 56.403,11.954 37.894,48.717 		"/>
		<polygon fill="#99969A" points="57.399,12.207 57.39,12.224 57.474,12.247 		"/>
		<polygon fill="#99969A" points="38.938,49.246 57.55,12.287 57.474,12.246 57.39,12.224 38.786,49.165 		"/>
		<rect x="36.361" y="58.587" fill="#FEFEFE" width="8.424" height="6.094"/>
		<path fill="#99969A" d="M44.895,64.79h-8.643v-6.312h8.643V64.79z M36.471,64.57h8.204v-5.873h-8.204V64.57z"/>
	</g>
</g>
<g id="Titles">
</g>
<g id="OC_Womens">
</g>
<g id="OC_Mens">
</g>
<g id="STA_Womens">
</g>
<g id="STA_Mens">
</g>
<g id="Hosiery">
</g>
</svg>
