<?xml version="1.0" encoding="utf-8"?>
<!-- Generator: Adobe Illustrator 16.0.0, SVG Export Plug-In . SVG Version: 6.00 Build 0)  -->
<!DOCTYPE svg PUBLIC "-//W3C//DTD SVG 1.1//EN" "http://www.w3.org/Graphics/SVG/1.1/DTD/svg11.dtd">
<svg version="1.1" xmlns="http://www.w3.org/2000/svg" xmlns:xlink="http://www.w3.org/1999/xlink" x="0px" y="0px" width="75px"
	 height="75px" viewBox="0 0 75 75" enable-background="new 0 0 75 75" xml:space="preserve">
<g id="Accessories">
</g>
<g id="TENCEL_Men_x27_s">
</g>
<g id="TENCEL_Women_x27_s">
</g>
<g id="STE">
</g>
<g id="Invisible">
</g>
<g id="Socks">
</g>
<g id="Cashmere">
</g>
<g id="Titles" display="none">
</g>
<g id="OC_Womens">
</g>
<g id="OC_Mens">
</g>
<g id="STA_Womens">
</g>
<g id="STA_Mens">
	<g>
		<path fill="none" stroke="#99979A" stroke-width="0.5" stroke-miterlimit="10" d="M52.204,18.247l-9.374-3.981
			c0,0-1.696,0.871-5.33,0.875c-3.634-0.004-5.33-0.875-5.33-0.875l-9.374,3.981c-2.962,2.574-7.868,10.929-7.868,10.929
			s5.586,4.662,7.285,5.779c0.341-0.341,2.332-2.478,2.332-2.478v26.519c2.127,0.521,12.396,0.626,12.943,0.632H37.5h0.013
			c0.546-0.006,10.815-0.111,12.943-0.632V32.478c0,0,1.991,2.137,2.331,2.478c1.699-1.117,7.285-5.779,7.285-5.779
			S55.167,20.821,52.204,18.247z"/>
		<path fill="none" stroke="#99979A" stroke-width="0.5" stroke-miterlimit="10" d="M50.456,32.478c0,0-0.194-11.157,1.748-14.229"
			/>
		<path fill="none" stroke="#99979A" stroke-width="0.5" stroke-miterlimit="10" d="M24.544,32.452c0,0,0.194-11.159-1.748-14.229"
			/>
		<path fill="none" stroke="#99979A" stroke-width="0.5" stroke-miterlimit="10" d="M32.17,14.265c0,0,0.049,3.982,5.33,3.982"/>
		<path fill="none" stroke="#99979A" stroke-width="0.5" stroke-miterlimit="10" d="M42.83,14.265c0,0-0.048,3.982-5.33,3.982"/>
		<path fill="none" stroke="#99979A" stroke-width="0.5" stroke-miterlimit="10" d="M31.344,14.556c0,0,0.057,4.518,6.156,4.518"/>
		<path fill="none" stroke="#99979A" stroke-width="0.5" stroke-miterlimit="10" d="M43.656,14.556c0,0-0.057,4.518-6.156,4.518"/>
		<path fill="none" stroke="#99979A" stroke-width="0.5" stroke-miterlimit="10" d="M24.545,33.587v26.519
			c2.127,0.519,12.396,0.626,12.943,0.63H37.5h0.013c0.547-0.004,10.815-0.111,12.943-0.63V33.587"/>
		<g opacity="0.15">
			<g>
				<defs>
					<rect id="SVGID_57_" x="48.182" y="25.323" width="2.844" height="33.458"/>
				</defs>
				<clipPath id="SVGID_2_">
					<use xlink:href="#SVGID_57_"  overflow="visible"/>
				</clipPath>
				<path clip-path="url(#SVGID_2_)" fill="#938B83" d="M50.523,26.51c-2.181,2.118-1.818,7.953-1.818,31.701l1.726-0.227
					L50.523,26.51z"/>
				<path clip-path="url(#SVGID_2_)" fill="none" stroke="#99979A" stroke-miterlimit="10" d="M50.523,26.51
					c-2.181,2.118-1.818,7.953-1.818,31.701l1.726-0.227L50.523,26.51z"/>
			</g>
		</g>
		<g opacity="0.15">
			<g>
				<defs>
					<rect id="SVGID_59_" x="49.928" y="25.057" width="3.379" height="10.195"/>
				</defs>
				<clipPath id="SVGID_4_">
					<use xlink:href="#SVGID_59_"  overflow="visible"/>
				</clipPath>
				<path clip-path="url(#SVGID_4_)" fill="#938B83" d="M52.763,33.943c-0.16-4.687-2.239-7.434-2.239-7.434l-0.092,4.955
					L52.763,33.943z"/>
				<path clip-path="url(#SVGID_4_)" fill="none" stroke="#99979A" stroke-miterlimit="10" d="M52.763,33.943
					c-0.16-4.687-2.239-7.434-2.239-7.434l-0.092,4.955L52.763,33.943z"/>
			</g>
		</g>
		<g opacity="0.15">
			<g>
				<defs>
					<rect id="SVGID_61_" x="23.973" y="25.323" width="2.844" height="33.458"/>
				</defs>
				<clipPath id="SVGID_6_">
					<use xlink:href="#SVGID_61_"  overflow="visible"/>
				</clipPath>
				<path clip-path="url(#SVGID_6_)" fill="#938B83" d="M24.478,26.51c2.18,2.118,1.817,7.953,1.817,31.701l-1.726-0.227
					L24.478,26.51z"/>
				<path clip-path="url(#SVGID_6_)" fill="none" stroke="#99979A" stroke-miterlimit="10" d="M24.478,26.51
					c2.18,2.118,1.817,7.953,1.817,31.701l-1.726-0.227L24.478,26.51z"/>
			</g>
		</g>
		<g opacity="0.15">
			<g>
				<defs>
					<rect id="SVGID_63_" x="21.692" y="25.057" width="3.38" height="10.195"/>
				</defs>
				<clipPath id="SVGID_8_">
					<use xlink:href="#SVGID_63_"  overflow="visible"/>
				</clipPath>
				<path clip-path="url(#SVGID_8_)" fill="#938B83" d="M22.237,33.943c0.16-4.687,2.24-7.434,2.24-7.434l0.091,4.955L22.237,33.943
					z"/>
				<path clip-path="url(#SVGID_8_)" fill="none" stroke="#99979A" stroke-miterlimit="10" d="M22.237,33.943
					c0.16-4.687,2.24-7.434,2.24-7.434l0.091,4.955L22.237,33.943z"/>
			</g>
		</g>
	</g>
</g>
</svg>
