<?xml version="1.0" encoding="utf-8"?>
<!-- Generator: Adobe Illustrator 16.0.0, SVG Export Plug-In . SVG Version: 6.00 Build 0)  -->
<!DOCTYPE svg PUBLIC "-//W3C//DTD SVG 1.1//EN" "http://www.w3.org/Graphics/SVG/1.1/DTD/svg11.dtd">
<svg version="1.1" xmlns="http://www.w3.org/2000/svg" xmlns:xlink="http://www.w3.org/1999/xlink" x="0px" y="0px" width="75px"
	 height="75px" viewBox="0 0 75 75" enable-background="new 0 0 75 75" xml:space="preserve">
<g id="Accessories">
</g>
<g id="TENCEL_Men_x27_s">
	<g>
		<path fill="none" stroke="#99979A" stroke-width="0.5" stroke-miterlimit="10" d="M50.456,58.995V32.477
			c0,0,1.991,2.138,2.331,2.479c1.7-1.117,7.285-5.779,7.285-5.779s-4.905-8.355-7.868-10.928l-9.373-3.983
			c0,0-1.696,0.871-5.331,0.876c-3.634-0.005-5.33-0.876-5.33-0.876l-9.374,3.983c-2.962,2.573-7.867,10.928-7.867,10.928
			s5.586,4.662,7.285,5.779c0.34-0.341,2.331-2.479,2.331-2.479v26.519"/>
		<path fill="none" stroke="#99979A" stroke-width="0.5" stroke-miterlimit="10" d="M50.456,32.479c0,0-0.194-11.16,1.748-14.23"/>
		<path fill="none" stroke="#99979A" stroke-width="0.5" stroke-miterlimit="10" d="M24.544,32.451c0,0,0.194-11.157-1.749-14.229"
			/>
		<path fill="none" stroke="#99979A" stroke-width="0.5" stroke-miterlimit="10" d="M24.544,33.586v26.519
			c2.127,0.52,12.396,0.626,12.943,0.631H37.5h0.013c0.547-0.005,10.816-0.111,12.943-0.631V33.586"/>
		<path fill="none" stroke="#99979A" stroke-width="0.5" stroke-miterlimit="10" d="M24.544,58.995
			c7.455,0.724,18.456,0.723,25.911,0"/>
		<path fill="none" stroke="#99979A" stroke-width="0.5" stroke-miterlimit="10" d="M31.842,14.626
			c0.199,1.563,0.958,3.344,2.096,4.529c0.841,0.876,1.65,1.475,3.547,2.305c1.919-0.836,2.732-1.436,3.577-2.316
			c1.138-1.185,1.896-2.966,2.096-4.53"/>
		<path fill="none" stroke="#99979A" stroke-width="0.5" stroke-miterlimit="10" d="M30.954,14.744
			c0.23,1.776,1.108,3.799,2.425,5.146c0.973,0.995,1.91,1.675,4.104,2.619c2.219-0.951,3.161-1.632,4.138-2.632
			c1.316-1.347,2.194-3.37,2.426-5.147"/>
	</g>
</g>
<g id="TENCEL_Women_x27_s">
</g>
<g id="STE">
</g>
<g id="Invisible">
</g>
<g id="Socks">
</g>
<g id="Cashmere">
</g>
<g id="Titles" display="none">
</g>
<g id="OC_Womens">
</g>
<g id="OC_Mens">
</g>
<g id="STA_Womens">
</g>
<g id="STA_Mens">
</g>
</svg>
