<?xml version="1.0" encoding="utf-8"?>
<!-- Generator: Adobe Illustrator 16.0.0, SVG Export Plug-In . SVG Version: 6.00 Build 0)  -->
<!DOCTYPE svg PUBLIC "-//W3C//DTD SVG 1.1//EN" "http://www.w3.org/Graphics/SVG/1.1/DTD/svg11.dtd">
<svg version="1.1" xmlns="http://www.w3.org/2000/svg" xmlns:xlink="http://www.w3.org/1999/xlink" x="0px" y="0px"  viewBox="0 0 75 75" enable-background="new 0 0 75 75" xml:space="preserve"><g id="TENCEL_Men_x27_s">
	<g>
		<path fill="#FFFFFF" d="M38.804,18.797c-6.43,0.117-12.857,0.234-19.287,0.353c-1.607,0.029-1.611,2.529,0,2.5
			c6.43-0.118,12.857-0.235,19.287-0.353C40.41,21.269,40.415,18.769,38.804,18.797"/>
		<path fill="#FFFFFF" d="M52.521,19.275c-4.734-0.096-9.514-0.385-14.245-0.104c-1.599,0.093-1.608,2.595,0,2.5
			c4.731-0.28,9.511,0.009,14.245,0.104C54.131,21.807,54.131,19.307,52.521,19.275"/>
		<path fill="grey" stroke="#99979A" stroke-width="0.5" stroke-miterlimit="10" d="M52.261,18.066
			c-5.235,2.332-17.814,2.162-17.814,2.162s-12.58,0.17-17.817-2.162c0,0-3.356,8.195-3.356,27.491c0,0,8.024,3.984,18.043,3.018
			c0,0,0.067-4.497,3.131-4.497c3.039,0,3.129,4.497,3.129,4.497c10.019,0.967,18.044-3.018,18.044-3.018
			C55.619,26.262,52.261,18.066,52.261,18.066z"/>
		<path fill="none" stroke="#99979A" stroke-width="0.5" stroke-miterlimit="10" d="M13.271,45.587
			c0-1.894,18.234,1.527,18.043,2.816"/>
		<path fill="none" stroke="#99979A" stroke-width="0.5" stroke-miterlimit="10" d="M13.271,44.423
			c0-1.893,18.404,1.528,18.212,2.817"/>
		<path fill="none" stroke="#99979A" stroke-width="0.5" stroke-miterlimit="10" d="M53.459,21.967
			c-3.423,1.525-9.994,2.086-14.44,2.291c-2.669,0.123-4.573,0.119-4.573,0.119"/>
		<path fill="none" stroke="#99979A" stroke-width="0.5" stroke-miterlimit="10" d="M16.545,18.01c0,0,14.854-0.367,17.9-0.367"/>
		<path fill="none" stroke="#99979A" stroke-width="0.5" stroke-miterlimit="10" d="M52.345,18.01c0,0-14.853-0.367-17.898-0.367"/>
		<path fill="none" stroke="#99979A" stroke-width="0.5" stroke-miterlimit="10" d="M39.02,24.256c0,0,6.279,13.512-2.936,20.45"/>
		<path fill="none" stroke="#99979A" stroke-width="0.5" stroke-miterlimit="10" d="M29.867,24.256c0,0-6.278,13.512,2.937,20.45"/>
		<path fill="none" stroke="#99979A" stroke-width="0.5" stroke-miterlimit="10" d="M34.445,44.077v-19.7
			c0,0-13.538,0.031-19.014-2.409"/>
		<path fill="none" stroke="#99979A" stroke-width="0.5" stroke-miterlimit="10" d="M55.619,45.587
			c0-1.894-18.234,1.527-18.043,2.816"/>
		<path fill="none" stroke="#99979A" stroke-width="0.5" stroke-miterlimit="10" d="M55.619,44.423
			c0-1.893-18.403,1.528-18.213,2.817"/>
		<path fill="#FFFFFF" d="M43.512,28.376c-6.43,0.117-12.857,0.234-19.288,0.353"/>
		<path fill="#FFFFFF" d="M43.512,27.126c-6.43,0.117-12.857,0.234-19.288,0.353c-1.606,0.029-1.61,2.529,0,2.5
			c6.431-0.118,12.858-0.235,19.288-0.353C45.118,29.598,45.123,27.098,43.512,27.126"/>
		<path fill="#FFFFFF" d="M57.229,28.854c-2.893-0.059-5.784-0.115-8.677-0.175c-1.855-0.037-3.717-0.073-5.568,0.069"/>
		<path fill="#FFFFFF" d="M57.229,27.604c-4.734-0.096-9.515-0.385-14.245-0.105c-1.599,0.094-1.608,2.595,0,2.5
			c4.73-0.279,9.511,0.01,14.245,0.105C58.839,30.136,58.839,27.636,57.229,27.604"/>
		<path fill="#FFFFFF" d="M43.512,27.177c-6.43,0.116-12.857,0.233-19.288,0.352c-1.606,0.029-1.61,2.529,0,2.5
			c6.431-0.118,12.858-0.235,19.288-0.352C45.118,29.647,45.123,27.147,43.512,27.177"/>
		<path fill="#FFFFFF" d="M57.229,27.655c-4.734-0.096-9.515-0.385-14.245-0.105c-1.599,0.093-1.608,2.594,0,2.5
			c4.73-0.279,9.511,0.01,14.245,0.105C58.839,30.187,58.839,27.687,57.229,27.655"/>
		<path fill="#FFFFFF" d="M43.512,28.376c-6.43,0.117-12.857,0.234-19.288,0.353"/>
		<path fill="#FFFFFF" d="M43.512,27.126c-6.43,0.117-12.857,0.234-19.288,0.353c-1.606,0.029-1.61,2.529,0,2.5
			c6.431-0.118,12.858-0.235,19.288-0.353C45.118,29.598,45.123,27.098,43.512,27.126"/>
		<path fill="#FFFFFF" d="M57.229,28.854c-2.893-0.059-5.784-0.115-8.677-0.175c-1.855-0.037-3.717-0.073-5.568,0.069"/>
		<path fill="#FFFFFF" d="M57.229,27.604c-4.734-0.096-9.515-0.385-14.245-0.105c-1.599,0.094-1.608,2.595,0,2.5
			c4.73-0.279,9.511,0.01,14.245,0.105C58.839,30.136,58.839,27.636,57.229,27.604"/>
		<path fill="#FFFFFF" d="M22.655,27.534c0,0,14.854-0.365,17.899-0.365"/>
		<path fill="none" stroke="#99979A" stroke-width="0.5" stroke-miterlimit="10" d="M22.655,27.534c0,0,14.854-0.365,17.899-0.365"
			/>
		<path fill="#FFFFFF" d="M58.454,27.534c0,0-14.853-0.365-17.898-0.365"/>
		<path fill="none" stroke="#99979A" stroke-width="0.5" stroke-miterlimit="10" d="M58.454,27.534c0,0-14.853-0.365-17.898-0.365"
			/>
		<path fill="#FFFFFF" d="M38.031,57.206c0.531-1.317,1.294-2.044,2.523-2.044s1.936,0.749,2.587,2.044
			c10.018,0.968,18.587-3.018,18.587-3.018c0-19.294-3.357-26.597-3.357-26.597c-5.236,2.334-17.816,2.163-17.816,2.163
			s-12.579,0.171-17.816-2.163c0,0-3.356,7.303-3.356,26.597C19.382,54.188,28.014,58.174,38.031,57.206"/>
		<path fill="none" stroke="#99979A" stroke-width="0.604" stroke-miterlimit="10" d="M38.031,57.206
			c0.531-1.317,1.294-2.044,2.523-2.044s1.936,0.749,2.587,2.044c10.018,0.968,18.587-3.018,18.587-3.018
			c0-19.294-3.357-26.597-3.357-26.597c-5.236,2.334-17.816,2.163-17.816,2.163s-12.579,0.171-17.816-2.163
			c0,0-3.356,7.303-3.356,26.597C19.382,54.188,28.014,58.174,38.031,57.206z"/>
		<path fill="#FFFFFF" d="M61.714,52.841c0-1.948-15.555,1.402-19.521,3.198"/>
		<path fill="none" stroke="#99979A" stroke-width="0.565" stroke-miterlimit="10" d="M61.714,52.841
			c0-1.948-15.555,1.402-19.521,3.198"/>
		<path fill="#FFFFFF" d="M61.729,54.188c0-1.862-14.294,1.21-18.593,2.976"/>
		<path fill="none" stroke="#99979A" stroke-width="0.556" stroke-miterlimit="10" d="M61.729,54.188
			c0-1.862-14.294,1.21-18.593,2.976"/>
		<path fill="#FFFFFF" d="M19.395,52.841c0-1.948,15.557,1.402,19.521,3.198"/>
		<path fill="none" stroke="#99979A" stroke-width="0.565" stroke-miterlimit="10" d="M19.395,52.841
			c0-1.948,15.557,1.402,19.521,3.198"/>
		<path fill="#FFFFFF" d="M19.381,54.188c0-1.862,14.293,1.21,18.594,2.976"/>
		<path fill="none" stroke="#99979A" stroke-width="0.556" stroke-miterlimit="10" d="M19.381,54.188
			c0-1.862,14.293,1.21,18.594,2.976"/>
		<path fill="#FFFFFF" d="M45.028,33.781c0,0,6.581,14.626-3.075,22.062"/>
		<path fill="none" stroke="#99979A" stroke-width="0.53" stroke-miterlimit="10" d="M45.028,33.781c0,0,6.581,14.626-3.075,22.062"
			/>
		<path fill="#FFFFFF" d="M40.555,55.163V33.901c0,0-13.538,0.032-19.014-2.408"/>
		<path fill="none" stroke="#99979A" stroke-width="0.5" stroke-miterlimit="10" d="M40.555,55.163V33.901
			c0,0-13.538,0.032-19.014-2.408"/>
		<path fill="#FFFFFF" d="M59.568,31.494c-3.423,1.524-9.994,2.085-14.44,2.29c-2.669,0.123-4.573,0.117-4.573,0.117"/>
		<path fill="none" stroke="#99979A" stroke-width="0.5" stroke-miterlimit="10" d="M59.568,31.494
			c-3.423,1.524-9.994,2.085-14.44,2.29c-2.669,0.123-4.573,0.117-4.573,0.117"/>
		<path fill="#FFFFFF" d="M36.081,33.781c0,0-6.581,14.626,3.075,22.062"/>
		<path fill="none" stroke="#99979A" stroke-width="0.53" stroke-miterlimit="10" d="M36.081,33.781c0,0-6.581,14.626,3.075,22.062"
			/>
	</g>
</g>
</svg>
