<?xml version="1.0" encoding="utf-8"?>
<!-- Generator: Adobe Illustrator 16.0.0, SVG Export Plug-In . SVG Version: 6.00 Build 0)  -->
<!DOCTYPE svg PUBLIC "-//W3C//DTD SVG 1.1//EN" "http://www.w3.org/Graphics/SVG/1.1/DTD/svg11.dtd">
<svg version="1.1" xmlns="http://www.w3.org/2000/svg" xmlns:xlink="http://www.w3.org/1999/xlink" x="0px" y="0px"  viewBox="0 0 75 75" enable-background="new 0 0 75 75" xml:space="preserve">
<g id="Sweat">
	<g>
		<path fill="none" stroke="#04080F" stroke-width="0.5" stroke-miterlimit="10" d="M37.667,55.915c0,0-12.73,0-13.83-1.457"/>
		<path fill="none" stroke="#04080F" stroke-width="0.5" stroke-miterlimit="10" d="M37.665,15.692c-0.059,0-0.109,0-0.161-0.006"/>
		<path fill="none" stroke="#04080F" stroke-width="0.5" stroke-miterlimit="10" d="M16.782,60.739c0,0,0.825,2.316,1.333,3.303
			c0.015,0.141,0.156,0.232,0.286,0.168c0.403-0.189,1.119-0.479,1.991-0.654c0.931-0.18,2.03-0.232,3.084,0.137
			c0.176,0.059,0.352-0.064,0.345-0.246l-0.169-3.619"/>
		<path fill="none" stroke="#04080F" stroke-width="0.5" stroke-miterlimit="10" d="M18.144,64.163c0,0,3.604,0.961,5.525-0.496"/>
		<path fill="none" stroke="#04080F" stroke-width="0.5" stroke-miterlimit="10" d="M24.256,58.78
			c-0.025-0.014-0.039-0.033-0.052-0.045"/>
		<path fill="none" stroke="#04080F" stroke-width="0.5" stroke-miterlimit="10" d="M34.555,16.766
			c-0.013,0-0.025-0.006-0.031-0.006c-0.501-0.175-0.964-0.382-1.381-0.621c-0.402-0.228-0.773-0.472-1.105-0.737
			c-2.03-1.609-2.765-3.69-2.765-3.69"/>
		<line fill="none" stroke="#04080F" stroke-width="0.5" stroke-miterlimit="10" x1="37.593" y1="21.923" x2="37.502" y2="21.775"/>
		<line fill="none" stroke="#04080F" stroke-width="0.5" stroke-miterlimit="10" x1="34.555" y1="16.766" x2="34.536" y2="16.733"/>
		<path fill="none" stroke="#04080F" stroke-width="0.5" stroke-miterlimit="10" d="M31.499,14.997l-8.836,10.871
			c0,0-0.617,15.926-0.565,18.219c0.006,0.258,0.015,0.521,0.027,0.789c0.152,3.33,0.774,6.621,1.75,9.811
			c0.369,1.205,0.688,2.355,0.694,2.775c0.007,0.459-0.136,0.924-0.312,1.318"/>
		<path fill="none" stroke="#04080F" stroke-width="0.5" stroke-miterlimit="10" d="M30.897,10.526c0,0,2.141,0.925,6.928,1.029"/>
		<line fill="none" stroke="#04080F" stroke-width="0.5" stroke-miterlimit="10" x1="25.114" y1="55.124" x2="25.803" y2="58.938"/>
		<line fill="none" stroke="#04080F" stroke-width="0.5" stroke-miterlimit="10" x1="26.529" y1="55.312" x2="27.208" y2="59.212"/>
		<line fill="none" stroke="#04080F" stroke-width="0.5" stroke-miterlimit="10" x1="28.042" y1="55.593" x2="28.53" y2="59.407"/>
		<line fill="none" stroke="#04080F" stroke-width="0.5" stroke-miterlimit="10" x1="29.486" y1="55.724" x2="29.923" y2="59.515"/>
		<line fill="none" stroke="#04080F" stroke-width="0.5" stroke-miterlimit="10" x1="30.938" y1="55.745" x2="31.307" y2="59.454"/>
		<line fill="none" stroke="#04080F" stroke-width="0.5" stroke-miterlimit="10" x1="32.432" y1="55.817" x2="32.651" y2="59.546"/>
		<line fill="none" stroke="#04080F" stroke-width="0.5" stroke-miterlimit="10" x1="33.852" y1="56.026" x2="34.067" y2="59.636"/>
		<line fill="none" stroke="#04080F" stroke-width="0.5" stroke-miterlimit="10" x1="35.305" y1="56.112" x2="35.451" y2="59.636"/>
		<line fill="none" stroke="#04080F" stroke-width="0.5" stroke-miterlimit="10" x1="36.757" y1="55.896" x2="36.834" y2="59.771"/>
		<line fill="none" stroke="#04080F" stroke-width="0.5" stroke-miterlimit="10" x1="29.735" y1="12.304" x2="31.235" y2="11.563"/>
		<line fill="none" stroke="#04080F" stroke-width="0.5" stroke-miterlimit="10" x1="30.247" y1="13.423" x2="31.654" y2="12.584"/>
		<line fill="none" stroke="#04080F" stroke-width="0.5" stroke-miterlimit="10" x1="31.04" y1="14.389" x2="32.217" y2="13.296"/>
		<line fill="none" stroke="#04080F" stroke-width="0.5" stroke-miterlimit="10" x1="32.035" y1="15.404" x2="32.984" y2="14.134"/>
		<line fill="none" stroke="#04080F" stroke-width="0.5" stroke-miterlimit="10" x1="33.137" y1="16.142" x2="33.939" y2="14.774"/>
		<line fill="none" stroke="#04080F" stroke-width="0.5" stroke-miterlimit="10" x1="34.519" y1="16.778" x2="34.904" y2="15.253"/>
		<line fill="none" stroke="#04080F" stroke-width="0.5" stroke-miterlimit="10" x1="35.901" y1="18.965" x2="35.926" y2="15.583"/>
		<line fill="none" stroke="#04080F" stroke-width="0.5" stroke-miterlimit="10" x1="36.873" y1="15.786" x2="36.873" y2="20.667"/>
		<path fill="none" stroke="#04080F" stroke-width="0.5" stroke-miterlimit="10" d="M51.172,54.458
			c-1.099,1.457-13.83,1.457-13.83,1.457"/>
		<path fill="none" stroke="#04080F" stroke-width="0.5" stroke-miterlimit="10" d="M59.323,35.349
			c-0.174-1.012-2.745-14.194-3.479-17.291c-0.729-3.088-3.3-3.91-3.3-3.91l-6.407-2.274l-1.919-1.3
			c-0.047-0.032-0.11-0.012-0.124,0.039c-0.189,0.73-1.522,4.99-6.591,5.074c-5.062-0.084-6.396-4.344-6.591-5.074
			c-0.013-0.051-0.07-0.071-0.117-0.039l-1.919,1.3l-6.415,2.274c0,0-2.562,0.822-3.298,3.91
			c-0.728,3.097-3.225,16.295-3.479,17.291c-0.87,3.389-0.911,13.193-0.821,15.469c0.092,2.273,0.821,8.738,1.92,9.92
			c0,0,0.416-0.504,1.45-0.879c1.074-0.387,2.804-0.633,5.419-0.031c0,0,0.339-0.439,0.606-1.047
			c0.363,0.244,2.113,0.451,4.228,0.607c0.443,0.039,0.905,0.064,1.373,0.096c3.624,0.229,7.642,0.236,7.642,0.236
			s4.024-0.008,7.648-0.236c0.467-0.031,0.929-0.062,1.378-0.096c2.102-0.156,3.845-0.363,4.223-0.607
			c0.268,0.607,0.605,1.047,0.605,1.047c2.615-0.602,4.352-0.355,5.42,0.031c1.034,0.375,1.45,0.879,1.45,0.879
			c1.099-1.182,1.835-7.646,1.925-9.92C60.241,48.542,60.058,39.587,59.323,35.349z M37.502,21.774l-2.946-5.008
			c0.423,0.147,0.878,0.265,1.358,0.342c0.307,0.052,0.625,0.091,0.957,0.109c0.183,0.014,0.37,0.02,0.566,0.026h0.136
			c0.189-0.007,0.377-0.013,0.561-0.026c0.332-0.019,0.656-0.058,0.963-0.109c0.48-0.077,0.93-0.194,1.353-0.336L37.502,21.774z"/>
		<path fill="none" stroke="#04080F" stroke-width="0.5" stroke-miterlimit="10" d="M37.502,15.687
			c-0.052,0.006-0.104,0.006-0.163,0.006"/>
		<path fill="none" stroke="#04080F" stroke-width="0.5" stroke-miterlimit="10" d="M58.223,60.739c0,0-0.789,2.271-1.333,3.303
			c-0.007,0.141-0.149,0.232-0.279,0.168c-0.404-0.189-1.119-0.479-1.991-0.654c-0.93-0.18-2.037-0.232-3.09,0.137
			c-0.169,0.059-0.346-0.064-0.338-0.246l0.161-3.619"/>
		<path fill="none" stroke="#04080F" stroke-width="0.5" stroke-miterlimit="10" d="M56.866,64.138c0,0-3.603,0.959-5.524-0.496"/>
		<path fill="none" stroke="#04080F" stroke-width="0.5" stroke-miterlimit="10" d="M50.807,58.735
			c-0.014,0.02-0.032,0.031-0.059,0.045"/>
		<path fill="none" stroke="#04080F" stroke-width="0.5" stroke-miterlimit="10" d="M40.45,16.772
			c0.014-0.006,0.025-0.006,0.032-0.014c0.508-0.174,0.97-0.381,1.386-0.619c0.403-0.228,0.769-0.473,1.101-0.744
			c2.028-1.604,2.764-3.685,2.764-3.685"/>
		<line fill="none" stroke="#04080F" stroke-width="0.5" stroke-miterlimit="10" x1="37.502" y1="21.774" x2="37.417" y2="21.923"/>
		<line fill="none" stroke="#04080F" stroke-width="0.5" stroke-miterlimit="10" x1="40.469" y1="16.733" x2="40.45" y2="16.772"/>
		<path fill="none" stroke="#04080F" stroke-width="0.5" stroke-miterlimit="10" d="M43.51,14.997l8.836,10.871
			c0,0,0.62,15.926,0.568,18.219c-0.026,1.053-0.11,2.213-0.208,3.285c-0.205,2.232-0.67,4.434-1.345,6.572
			c-0.455,1.443-0.913,3.014-0.919,3.518c-0.014,0.459,0.13,0.924,0.306,1.318"/>
		<path fill="none" stroke="#04080F" stroke-width="0.5" stroke-miterlimit="10" d="M44.112,10.526c0,0-2.14,0.925-6.927,1.029"/>
		<line fill="none" stroke="#04080F" stroke-width="0.5" stroke-miterlimit="10" x1="45.274" y1="12.304" x2="43.774" y2="11.563"/>
		<line fill="none" stroke="#04080F" stroke-width="0.5" stroke-miterlimit="10" x1="44.762" y1="13.423" x2="43.356" y2="12.584"/>
		<line fill="none" stroke="#04080F" stroke-width="0.5" stroke-miterlimit="10" x1="43.969" y1="14.389" x2="42.792" y2="13.296"/>
		<line fill="none" stroke="#04080F" stroke-width="0.5" stroke-miterlimit="10" x1="42.974" y1="15.404" x2="42.026" y2="14.134"/>
		<line fill="none" stroke="#04080F" stroke-width="0.5" stroke-miterlimit="10" x1="41.872" y1="16.142" x2="41.071" y2="14.774"/>
		<line fill="none" stroke="#04080F" stroke-width="0.5" stroke-miterlimit="10" x1="40.49" y1="16.778" x2="40.106" y2="15.253"/>
		<line fill="none" stroke="#04080F" stroke-width="0.5" stroke-miterlimit="10" x1="39.108" y1="18.965" x2="39.083" y2="15.583"/>
		<line fill="none" stroke="#04080F" stroke-width="0.5" stroke-miterlimit="10" x1="38.136" y1="15.786" x2="38.136" y2="20.667"/>
		<line fill="none" stroke="#04080F" stroke-width="0.5" stroke-miterlimit="10" x1="49.896" y1="55.114" x2="49.208" y2="58.927"/>
		<line fill="none" stroke="#04080F" stroke-width="0.5" stroke-miterlimit="10" x1="48.481" y1="55.302" x2="47.802" y2="59.2"/>
		<line fill="none" stroke="#04080F" stroke-width="0.5" stroke-miterlimit="10" x1="46.967" y1="55.583" x2="46.481" y2="59.397"/>
		<line fill="none" stroke="#04080F" stroke-width="0.5" stroke-miterlimit="10" x1="45.524" y1="55.712" x2="45.087" y2="59.503"/>
		<line fill="none" stroke="#04080F" stroke-width="0.5" stroke-miterlimit="10" x1="44.072" y1="55.735" x2="43.703" y2="59.442"/>
		<line fill="none" stroke="#04080F" stroke-width="0.5" stroke-miterlimit="10" x1="42.578" y1="55.808" x2="42.36" y2="59.534"/>
		<line fill="none" stroke="#04080F" stroke-width="0.5" stroke-miterlimit="10" x1="41.158" y1="56.017" x2="40.944" y2="59.624"/>
		<line fill="none" stroke="#04080F" stroke-width="0.5" stroke-miterlimit="10" x1="39.705" y1="56.103" x2="39.56" y2="59.624"/>
		<line fill="none" stroke="#04080F" stroke-width="0.5" stroke-miterlimit="10" x1="38.252" y1="55.886" x2="38.176" y2="59.761"/>
		<line fill="none" stroke="#04080F" stroke-width="0.5" stroke-miterlimit="10" x1="17.781" y1="60.159" x2="19.063" y2="63.817"/>
		<line fill="none" stroke="#04080F" stroke-width="0.5" stroke-miterlimit="10" x1="19.099" y1="59.696" x2="19.958" y2="63.585"/>
		<line fill="none" stroke="#04080F" stroke-width="0.5" stroke-miterlimit="10" x1="20.367" y1="59.677" x2="20.834" y2="63.483"/>
		<line fill="none" stroke="#04080F" stroke-width="0.5" stroke-miterlimit="10" x1="21.622" y1="59.688" x2="21.872" y2="63.415"/>
		<line fill="none" stroke="#04080F" stroke-width="0.5" stroke-miterlimit="10" x1="22.774" y1="59.677" x2="22.993" y2="63.415"/>
		<line fill="none" stroke="#04080F" stroke-width="0.5" stroke-miterlimit="10" x1="57.312" y1="60.167" x2="56.031" y2="63.825"/>
		<line fill="none" stroke="#04080F" stroke-width="0.5" stroke-miterlimit="10" x1="55.995" y1="59.704" x2="55.136" y2="63.591"/>
		<line fill="none" stroke="#04080F" stroke-width="0.5" stroke-miterlimit="10" x1="54.726" y1="59.685" x2="54.259" y2="63.491"/>
		<line fill="none" stroke="#04080F" stroke-width="0.5" stroke-miterlimit="10" x1="53.471" y1="59.696" x2="53.221" y2="63.423"/>
		<line fill="none" stroke="#04080F" stroke-width="0.5" stroke-miterlimit="10" x1="52.319" y1="59.685" x2="52.101" y2="63.423"/>
	</g>
</g>
</svg>
