<?xml version="1.0" encoding="utf-8"?>
<!-- Generator: Adobe Illustrator 16.0.0, SVG Export Plug-In . SVG Version: 6.00 Build 0)  -->
<!DOCTYPE svg PUBLIC "-//W3C//DTD SVG 1.1//EN" "http://www.w3.org/Graphics/SVG/1.1/DTD/svg11.dtd">
<svg version="1.1" xmlns="http://www.w3.org/2000/svg" xmlns:xlink="http://www.w3.org/1999/xlink" x="0px" y="0px" viewBox="0 0 75 75" enable-background="new 0 0 75 75" xml:space="preserve">
<g id="Cashmere">
	<g>
		<path fill="#99969A" d="M16.199,67.042l0.019-0.324c0.086-1.531-0.865-4.232-0.875-4.258c-1.771-2.732-1.878-5.818-1.883-5.947
			l0.179-17.084c0.026-0.191,2.415-15.734,3.207-19.26c0.832-3.695,2.171-6.934,2.984-7.93c0.823-1.006,10.297-4.088,11.374-4.438
			l0.104-0.031l0.094,0.051c2.836,1.547,6.186,1.396,6.223,1.391l0.025,0.5c-0.134,0.008-3.452,0.162-6.392-1.4
			c-4.025,1.303-10.495,3.578-11.04,4.244c-0.094,0.113-0.194,0.26-0.301,0.438c1.847,1.646,1.868,6.82,1.868,7.053l0.267,36.008
			l2.047,0.621v0.188c0,1.705-1.155,4.516-1.333,4.939l0.093,4.68l-0.285-0.033c-2.157-0.254-6.018,0.521-6.056,0.529L16.199,67.042
			z M19.667,13.44c-0.747,1.43-1.699,4.021-2.334,6.838c-0.789,3.508-3.174,19.035-3.197,19.191l-0.176,17.039
			c0.001,0.021,0.109,3.068,1.827,5.73c0.063,0.156,0.904,2.547,0.936,4.188c0.925-0.172,3.727-0.652,5.625-0.504l-0.084-4.219
			l0.021-0.049c0.014-0.029,1.225-2.877,1.31-4.611l-2.04-0.619l-0.001-0.184l-0.268-36.193
			C21.285,19.993,21.264,14.997,19.667,13.44"/>
		<path fill="#99969A" d="M15.694,62.597l-0.233-0.441c0.128-0.068,3.157-1.635,7.113-0.645l-0.12,0.484
			C18.684,61.054,15.723,62.579,15.694,62.597"/>
		<path fill="#99969A" d="M19.032,67.231c-1.472,0-2.636-0.211-2.723-0.227l0.092-0.492c0.038,0.008,3.749,0.68,6.258-0.395
			l0.197,0.459C21.661,67.089,20.242,67.231,19.032,67.231"/>
		<path fill="#99969A" d="M53.518,46.829l-0.5-0.004l0.197-26.781c-0.005-0.238-0.104-6.037,2.138-7.252l0.238,0.438
			c-1.975,1.072-1.877,6.754-1.876,6.812L53.518,46.829z"/>
		<path fill="#99969A" d="M58.801,67.042l-0.316-0.064c-0.039-0.008-3.896-0.785-6.058-0.531l-0.284,0.035l0.094-4.68
			c-0.179-0.424-1.333-3.234-1.333-4.941v-0.184l2.046-0.623l0.069-9.229l0.5,0.004l-0.071,9.596l-2.04,0.621
			c0.085,1.732,1.296,4.58,1.309,4.607l0.022,0.051l-0.084,4.219c1.898-0.15,4.699,0.332,5.625,0.506
			c0.03-1.645,0.871-4.031,0.909-4.137c1.743-2.715,1.851-5.764,1.852-5.793l-0.177-17.064c-0.022-0.121-2.407-15.648-3.196-19.156
			c-0.804-3.576-2.123-6.793-2.884-7.723c-0.548-0.67-6.74-2.891-10.836-4.244c-2.938,1.561-6.186,1.404-6.325,1.402l0.028-0.5
			c0.031,0.004,3.319,0.152,6.154-1.395l0.096-0.051l0.102,0.035c1.058,0.348,10.346,3.43,11.168,4.436
			c0.815,0.996,2.153,4.234,2.985,7.93c0.792,3.523,3.18,19.068,3.205,19.225l0.18,17.109c-0.004,0.141-0.11,3.225-1.907,6.008
			c0.009,0-0.935,2.684-0.85,4.209L58.801,67.042z"/>
		<path fill="#99969A" d="M59.306,62.597c-0.028-0.018-2.985-1.543-6.759-0.602l-0.121-0.484c3.958-0.992,6.987,0.574,7.114,0.645
			L59.306,62.597z"/>
		<path fill="#99969A" d="M55.881,67.222c-1.187,0-2.564-0.143-3.736-0.646l0.196-0.459c2.508,1.074,6.183,0.379,6.219,0.371
			l0.095,0.49C58.569,66.995,57.376,67.222,55.881,67.222"/>
		<path fill="#99969A" d="M37.821,11.616c-3.324,0-5.862-0.775-5.9-0.789l0.147-0.477c0.059,0.018,5.715,1.744,11.142-0.043
			l0.155,0.475C41.465,11.409,39.539,11.616,37.821,11.616"/>
		<path fill="#99969A" d="M37.651,13.394c-2.354,0-4.13-0.619-5.277-1.84c-1.446-1.537-1.348-3.447-1.342-3.529l0.5,0.029
			c-0.001,0.02-0.089,1.787,1.211,3.162c1.051,1.113,2.701,1.678,4.908,1.678c2.204,0,3.844-0.562,4.872-1.674
			c1.273-1.373,1.153-3.143,1.152-3.16l0.498-0.039c0.007,0.08,0.142,1.996-1.278,3.533C41.768,12.774,40.004,13.394,37.651,13.394"
			/>
		<path fill="#99969A" d="M38.895,57.556c-8.04,0-14.96-0.438-15.063-0.445l0.033-0.498c0.152,0.008,15.693,0.994,27.267,0
			l0.043,0.498C47.285,57.444,42.948,57.556,38.895,57.556"/>
		<path fill="#99969A" d="M38.208,52.853c-9.3,0-16.503-1.67-16.609-1.695l0.115-0.488c0.16,0.039,16.259,3.768,31.389,0.002
			l0.121,0.484C48.112,52.427,42.894,52.853,38.208,52.853"/>
		<rect x="38.866" y="52.755" fill="#99969A" width="0.498" height="4.449"/>
		<rect x="40.902" y="52.622" fill="#99969A" width="0.498" height="4.582"/>
		<rect x="42.938" y="52.386" fill="#99969A" width="0.498" height="5.012"/>
		<rect x="44.974" y="52.13" fill="#99969A" width="0.498" height="5.01"/>
		<rect x="47.01" y="52.028" fill="#99969A" width="0.498" height="5.01"/>
		<rect x="49.048" y="51.673" fill="#99969A" width="0.498" height="5.191"/>
		<rect x="51.084" y="51.144" fill="#99969A" width="0.498" height="5.49"/>
		<rect x="35.811" y="52.714" fill="#99969A" width="0.498" height="4.629"/>
		<rect x="36.831" y="52.714" fill="#99969A" width="0.498" height="4.629"/>
		<rect x="33.775" y="52.569" fill="#99969A" width="0.498" height="4.773"/>
		<rect x="31.739" y="52.526" fill="#99969A" width="0.498" height="4.787"/>
		<rect x="29.704" y="52.269" fill="#99969A" width="0.498" height="5.012"/>
		<rect x="27.667" y="52.167" fill="#99969A" width="0.498" height="5.01"/>
		<rect x="25.63" y="51.812" fill="#99969A" width="0.498" height="5.189"/>
		<rect x="23.593" y="51.282" fill="#99969A" width="0.498" height="5.496"/>
		
			<rect x="14.649" y="63.974" transform="matrix(0.1251 0.9921 -0.9921 0.1251 78.6668 39.2386)" fill="#99969A" width="4.87" height="0.5"/>
		
			<rect x="15.917" y="63.765" transform="matrix(0.1201 0.9928 -0.9928 0.1201 79.5927 38.2289)" fill="#99969A" width="4.627" height="0.5"/>
		
			<rect x="17.06" y="63.607" transform="matrix(0.0744 0.9972 -0.9972 0.0744 81.6968 39.6897)" fill="#99969A" width="4.814" height="0.499"/>
		
			<rect x="18.203" y="63.567" transform="matrix(0.0324 0.9995 -0.9995 0.0324 83.7919 41.0853)" fill="#99969A" width="4.948" height="0.5"/>
		<polygon fill="#99969A" points="21.511,66.298 21.387,61.464 21.887,61.448 22.011,66.282 		"/>
		
			<rect x="57.647" y="61.685" transform="matrix(0.985 0.1723 -0.1723 0.985 11.9182 -9.0179)" fill="#99969A" width="0.499" height="4.893"/>
		
			<rect x="56.568" y="61.732" transform="matrix(0.9935 0.1134 -0.1134 0.9935 7.6321 -6.0318)" fill="#99969A" width="0.499" height="4.632"/>
		
			<rect x="54.356" y="61.409" transform="matrix(0.9978 0.0665 -0.0665 0.9978 4.3703 -3.4908)" fill="#99969A" width="0.499" height="4.946"/>
		
			<rect x="55.544" y="61.643" transform="matrix(0.9963 0.086 -0.086 0.9963 5.7007 -4.5592)" fill="#99969A" width="0.5" height="4.554"/>
		
			<rect x="53.21" y="61.478" transform="matrix(0.9992 0.039 -0.039 0.9992 2.534 -2.038)" fill="#99969A" width="0.5" height="4.796"/>
		<path fill="#99969A" d="M37.335,15.628c-7.674,0-8.111-6.938-8.115-7.01l0.5-0.023c0.013,0.266,0.425,6.533,7.615,6.533
			c7.201,0,7.866-6.277,7.892-6.545l0.498,0.047C45.718,8.698,45,15.628,37.335,15.628"/>
		
			<rect x="31.046" y="10.226" transform="matrix(0.4904 0.8715 -0.8715 0.4904 25.6474 -21.6021)" fill="#99969A" width="0.5" height="1.81"/>
		
			<rect x="30.645" y="9.181" transform="matrix(0.422 0.9066 -0.9066 0.422 27.0547 -22.1441)" fill="#99969A" width="0.5" height="1.931"/>
		
			<rect x="30.417" y="8.339" transform="matrix(0.318 0.9481 -0.9481 0.318 29.6801 -22.7711)" fill="#99969A" width="0.501" height="1.81"/>
		
			<rect x="31.626" y="11.122" transform="matrix(0.6204 0.7843 -0.7843 0.6204 21.5061 -20.4472)" fill="#99969A" width="0.501" height="1.742"/>
		
			<rect x="35.736" y="13.104" transform="matrix(0.9889 0.1488 -0.1488 0.9889 2.5141 -5.1972)" fill="#99969A" width="0.499" height="2.194"/>
		
			<rect x="34.502" y="12.887" transform="matrix(0.9498 0.3127 -0.3127 0.9498 6.085 -10.1708)" fill="#99969A" width="0.5" height="1.998"/>
		
			<rect x="33.366" y="12.525" transform="matrix(0.8803 0.4745 -0.4745 0.8803 10.3961 -14.341)" fill="#99969A" width="0.498" height="1.81"/>
		
			<rect x="32.316" y="11.86" transform="matrix(0.7579 0.6524 -0.6524 0.7579 16.2134 -18.1554)" fill="#99969A" width="0.5" height="1.812"/>
		
			<rect x="37.155" y="13.267" transform="matrix(0.9978 0.0665 -0.0665 0.9978 1.0357 -2.4564)" fill="#99969A" width="0.499" height="2.114"/>
		
			<rect x="42.88" y="11.077" transform="matrix(0.8128 0.5825 -0.5825 0.8128 14.7939 -23.3852)" fill="#99969A" width="1.811" height="0.5"/>
		
			<rect x="43.436" y="9.981" transform="matrix(0.8802 0.4746 -0.4746 0.8802 10.1589 -19.7826)" fill="#99969A" width="1.654" height="0.5"/>
		
			<rect x="43.769" y="8.998" transform="matrix(0.9077 0.4196 -0.4196 0.9077 8.0033 -17.8923)" fill="#99969A" width="1.811" height="0.497"/>
		
			<rect x="42.267" y="12.009" transform="matrix(0.7124 0.7018 -0.7018 0.7124 21.0095 -26.747)" fill="#99969A" width="1.742" height="0.501"/>
		
			<rect x="37.677" y="13.861" transform="matrix(0.0427 0.9991 -0.9991 0.0427 51.2151 -25.2303)" fill="#99969A" width="2.193" height="0.5"/>
		
			<rect x="39.034" y="13.679" transform="matrix(0.2097 0.9778 -0.9778 0.2097 45.256 -28.1354)" fill="#99969A" width="1.998" height="0.5"/>
		
			<rect x="40.307" y="13.344" transform="matrix(0.3786 0.9255 -0.9255 0.3786 38.1897 -29.6973)" fill="#99969A" width="1.811" height="0.5"/>
		
			<rect x="41.421" y="12.796" transform="matrix(0.5704 0.8214 -0.8214 0.5704 28.897 -29.1606)" fill="#99969A" width="1.81" height="0.499"/>
		<rect x="37.337" y="9.513" fill="#99969A" width="0.5" height="1.869"/>
		<rect x="35.95" y="9.478" fill="#99969A" width="0.5" height="1.871"/>
		<rect x="34.562" y="9.247" fill="#99969A" width="0.5" height="1.869"/>
		<rect x="33.175" y="8.983" fill="#99969A" width="0.5" height="1.811"/>
		<rect x="31.789" y="8.479" fill="#99969A" width="0.5" height="2.109"/>
		<rect x="38.723" y="9.235" fill="#99969A" width="0.5" height="1.869"/>
		<rect x="40.111" y="9.22" fill="#99969A" width="0.5" height="1.869"/>
		<rect x="41.5" y="8.825" fill="#99969A" width="0.5" height="2.111"/>
		<rect x="42.885" y="8.476" fill="#99969A" width="0.5" height="2.111"/>
	</g>
</g>
</svg>
