<?xml version="1.0" encoding="utf-8"?>
<!-- Generator: Adobe Illustrator 16.0.0, SVG Export Plug-In . SVG Version: 6.00 Build 0)  -->
<!DOCTYPE svg PUBLIC "-//W3C//DTD SVG 1.1//EN" "http://www.w3.org/Graphics/SVG/1.1/DTD/svg11.dtd">
<svg version="1.1" xmlns="http://www.w3.org/2000/svg" xmlns:xlink="http://www.w3.org/1999/xlink" x="0px" y="0px" width="75px"
	 height="75px" viewBox="0 0 75 75" enable-background="new 0 0 75 75" xml:space="preserve">
<g id="Accessories">
</g>
<g id="TENCEL_Men_x27_s">
</g>
<g id="TENCEL_Women_x27_s">
</g>
<g id="Shirting">
	<g>
		<path fill="#99969A" d="M51.881,38.901c0.025-0.093,0.035-0.478,0.033-1.038l8.461-3.409l-0.098-0.234
			c-0.049-0.111-4.715-11.098-5.371-13.018c-0.666-1.954-1.648-3.539-1.689-3.605l-0.004,0.002c-0.166-0.295-0.752-0.53-0.982-0.61
			l-7.393-3.372c-0.408-0.6-1.943-2.814-2.623-3.321c-0.043-0.044-0.08-0.071-0.111-0.087c-0.002-0.001-0.002-0.003-0.004-0.003
			c-0.002-0.001-0.006-0.002-0.008-0.003c-0.008-0.003-0.018-0.009-0.023-0.011l-0.002,0.003c-0.676-0.322-3.635-0.399-4.242-0.411
			c-4.654,0.146-4.861,0.352-4.939,0.43c-0.002,0.002-0.006,0.007-0.008,0.009h-0.002c0,0.001-0.002,0.004-0.002,0.007
			c-0.258,0.272-2.268,2.891-2.646,3.385l-7.379,3.367c-0.244,0.086-0.809,0.314-0.988,0.602l-0.076-0.046
			c-0.041,0.067-1.023,1.652-1.689,3.605c-0.656,1.921-5.322,12.906-5.369,13.018l-0.1,0.235l8.518,3.431
			c-0.004,0.576,0.006,0.968,0.029,1.06c0.084,0.619-0.777,14.866-1.375,24.291l-0.012,0.186l0.967,0.358l0.256-1.381l0.076,1.24
			l0.178,0.045c0.061,0.016,6.049,1.516,13.965,1.59v0.003c0.203,0.001,0.402,0.001,0.605,0v-0.003
			c7.914-0.074,13.904-1.574,13.965-1.59l0.176-0.045l0.076-1.238l0.254,1.379l0.971-0.358l-0.014-0.186
			C52.662,53.751,51.801,39.504,51.881,38.901 M52.594,60.544c-0.115,0.039-0.23,0.074-0.346,0.111l-0.447-2.416l-0.16,2.614
			c-4.172,1.295-8.32,1.829-12.131,1.931l0.004-40.146h-0.162c1.07-0.906,2.273-1.901,3.217-2.672l0.162-0.133l-0.418-0.738h3.232
			l-0.408-3.458l7.445,3.355c-0.32,1.826-1.012,5.271-1.502,7.659c0.18,4.62,0.412,11.661,0.318,12.12
			C51.275,39.229,52.172,53.809,52.594,60.544 M36.738,24.98c0.17-0.234,1.111-1.066,2.275-2.058L39.01,62.799
			c-0.771,0.014-1.523,0.007-2.262-0.012L36.738,24.98z M30.629,13.91c0.631-0.823,1.5-1.95,2.051-2.657
			c0.027,0.881,0.346,2.472,1.539,5.309l-1.127,2.033h-2.963L30.629,13.91z M42.443,11.226c0.592,0.698,1.428,1.858,1.986,2.681
			l0.553,4.688h-2.955l-1.264-2.223C41.846,14.012,42.41,12.271,42.443,11.226 M40.506,16.93l1.582,2.782
			c-1.709,1.396-3.602,2.97-4.758,4.013C37.953,22.409,39.035,20.112,40.506,16.93 M40.256,16.279
			c-1.156,2.506-2.082,4.485-2.752,5.908c-2.506-4.696-3.594-7.56-4.037-9.265h8.129C41.344,13.733,40.932,14.816,40.256,16.279
			 M34.471,17.139c0.664,1.523,1.555,3.361,2.768,5.613c-0.088,0.183-0.168,0.354-0.242,0.512l-3.975-3.51L34.471,17.139z
			 M51.91,37.326c-0.006-0.521-0.02-1.136-0.035-1.815l7.203-2.837c0.289,0.682,0.516,1.217,0.639,1.507L51.91,37.326z
			 M58.885,32.213l-7.023,2.767c-0.082-3.124-0.236-7.143-0.285-8.287c1.025-4.943,1.434-7.165,1.588-8.182
			c0.348,0.64,0.871,1.687,1.27,2.854C54.918,22.782,57.475,28.874,58.885,32.213 M52.76,17.815
			c-0.004,0.107-0.037,0.346-0.09,0.668l-7.602-3.425l-0.098-0.833l7.072,3.226C52.348,17.559,52.666,17.723,52.76,17.815
			 M37.826,10.283c1.344,0.028,3.625,0.148,4.035,0.362c0.025,0.028,0.254,0.354-0.121,1.777h-8.393
			c-0.264-1.217-0.156-1.704-0.107-1.835C33.615,10.475,35.826,10.346,37.826,10.283 M23.035,17.443l7.057-3.22l-0.09,0.833
			l-7.613,3.431c-0.053-0.323-0.088-0.562-0.092-0.671C22.393,17.722,22.713,17.558,23.035,17.443 M20.566,21.304
			c0.414-1.212,0.961-2.293,1.309-2.924c0.137,0.943,0.531,3.112,1.602,8.252c-0.045,1.185-0.199,5.239-0.281,8.368l-7.1-2.796
			C17.5,28.876,20.08,22.73,20.566,21.304 M15.9,32.665l7.281,2.867c-0.016,0.656-0.027,1.249-0.035,1.757l-7.861-3.169
			C15.404,33.838,15.625,33.319,15.9,32.665 M23.66,38.774c-0.094-0.462,0.139-7.503,0.312-12.184
			c-0.486-2.341-1.176-5.771-1.498-7.595l7.467-3.365l-0.369,3.464h3.242l-0.426,0.769l4.385,3.87
			c-0.328,0.69-0.506,1.058-0.512,1.068l0.004,0.001c-0.01,0.016-0.016,0.03-0.02,0.042l0.176,0.065h-0.184l0.01,37.862
			c-5.959-0.209-10.721-1.352-12.832-1.946l-0.16-2.585l-0.443,2.409c-0.139-0.041-0.26-0.078-0.348-0.106
			C22.887,53.81,23.783,39.229,23.66,38.774 M22.309,63.022c0.031-0.485,0.072-1.16,0.123-1.965c0.08,0.025,0.184,0.057,0.289,0.089
			l-0.352,1.897L22.309,63.022z M23.449,61.355c2.217,0.612,6.934,1.711,12.799,1.916v1.425c-6.619-0.161-11.693-1.28-12.688-1.514
			L23.449,61.355z M37.529,64.716c-0.264-0.001-0.521-0.008-0.781-0.012v-1.42c0.453,0.012,0.91,0.021,1.375,0.021
			c0.291,0,0.59-0.01,0.887-0.015l-0.002,1.399C38.523,64.704,38.031,64.713,37.529,64.716 M39.508,64.673l0.002-1.391
			c3.801-0.1,7.936-0.633,12.098-1.903l-0.111,1.804C50.539,63.407,45.785,64.454,39.508,64.673 M52.688,63.044l-0.35-1.896
			c0.096-0.032,0.191-0.06,0.287-0.092c0.051,0.805,0.094,1.48,0.125,1.966L52.688,63.044z"/>
		<path fill="#99969A" d="M41.102,35.506c0,2.247,1.684,2.436,1.725,2.439h4.805c0.441,0,0.818-0.156,1.119-0.462
			c0.768-0.783,0.748-2.298,0.748-2.357v-6.768h-8.396V35.506z M48.393,37.134c-0.207,0.209-0.455,0.312-0.762,0.312l-4.779,0.001
			c-0.051-0.006-1.25-0.16-1.25-1.94v-4.735h7.396v4.36C48.998,35.145,49.014,36.501,48.393,37.134 M48.998,30.271h-7.396v-1.412
			h7.396V30.271z"/>
		<path fill="#99969A" d="M37.975,25.977c0.244,0,0.443-0.199,0.443-0.444s-0.199-0.445-0.443-0.445c-0.246,0-0.445,0.2-0.445,0.445
			S37.729,25.977,37.975,25.977"/>
		<path fill="#99969A" d="M37.975,32.626c0.244,0,0.443-0.199,0.443-0.443c0-0.246-0.199-0.446-0.443-0.446
			c-0.246,0-0.445,0.2-0.445,0.446C37.529,32.427,37.729,32.626,37.975,32.626"/>
		<path fill="#99969A" d="M37.975,39.478c0.244,0,0.443-0.198,0.443-0.444c0-0.244-0.199-0.444-0.443-0.444
			c-0.246,0-0.445,0.2-0.445,0.444C37.529,39.279,37.729,39.478,37.975,39.478"/>
		<path fill="#99969A" d="M37.975,46.2c0.244,0,0.443-0.199,0.443-0.445c0-0.244-0.199-0.444-0.443-0.444
			c-0.246,0-0.445,0.2-0.445,0.444C37.529,46.001,37.729,46.2,37.975,46.2"/>
		<path fill="#99969A" d="M37.975,52.916c0.244,0,0.443-0.199,0.443-0.445c0-0.244-0.199-0.444-0.443-0.444
			c-0.246,0-0.445,0.2-0.445,0.444C37.529,52.717,37.729,52.916,37.975,52.916"/>
		<path fill="#99969A" d="M38.418,59.226c0-0.246-0.199-0.445-0.443-0.445c-0.246,0-0.445,0.199-0.445,0.445
			c0,0.245,0.199,0.444,0.445,0.444C38.219,59.67,38.418,59.471,38.418,59.226"/>
	</g>
</g>
<g id="STE">
</g>
<g id="Invisible">
</g>
<g id="Socks">
</g>
<g id="Cashmere">
</g>
<g id="Titles">
</g>
<g id="OC_Womens">
</g>
<g id="OC_Mens">
</g>
<g id="STA_Womens">
</g>
<g id="STA_Mens">
</g>
</svg>
