<?xml version="1.0" encoding="utf-8"?>
<!-- Generator: Adobe Illustrator 16.0.0, SVG Export Plug-In . SVG Version: 6.00 Build 0)  -->
<!DOCTYPE svg PUBLIC "-//W3C//DTD SVG 1.1//EN" "http://www.w3.org/Graphics/SVG/1.1/DTD/svg11.dtd">
<svg version="1.1" xmlns="http://www.w3.org/2000/svg" xmlns:xlink="http://www.w3.org/1999/xlink" x="0px" y="0px" width="75px"
	 height="75px" viewBox="0 0 75 75" enable-background="new 0 0 75 75" xml:space="preserve">
<g id="Accessories">
</g>
<g id="TENCEL_Men_x27_s">
	<g>
		<g opacity="0.15">
			<g>
				<defs>
					<rect id="SVGID_7_" x="45.339" y="5.686" width="4.65" height="64.077"/>
				</defs>
				<clipPath id="SVGID_2_">
					<use xlink:href="#SVGID_7_"  overflow="visible"/>
				</clipPath>
				<path clip-path="url(#SVGID_2_)" fill="none" stroke="#99979A" stroke-width="2" stroke-miterlimit="10" d="M46.337,69.764
					v-3.126c0.515-0.771,1.644-11.306,1.813-11.819c0.14-0.417-0.128-11.042-0.128-11.332c0-0.367-0.327-5.782-0.213-6.438
					c0.829-4.822,1.023-10.232,1.023-10.232c0.441-7.202-0.146-13.246-0.346-13.868c-0.207-0.653-0.771-3.692-0.771-3.692
					l-0.058-0.474c0,0-0.28-1.597-0.257-3.081"/>
			</g>
		</g>
		<g opacity="0.15">
			<g>
				<defs>
					<rect id="SVGID_9_" x="24.78" y="5.686" width="4.655" height="64.077"/>
				</defs>
				<clipPath id="SVGID_4_">
					<use xlink:href="#SVGID_9_"  overflow="visible"/>
				</clipPath>
				<path clip-path="url(#SVGID_4_)" fill="none" stroke="#99979A" stroke-width="2" stroke-miterlimit="10" d="M28.436,69.764
					v-3.126c-0.515-0.771-1.643-11.306-1.813-11.819c-0.139-0.417,0.129-11.042,0.129-11.332c0-0.367,0.327-5.782,0.213-6.438
					c-0.83-4.822-1.024-10.232-1.024-10.232c-0.44-7.202,0.147-13.246,0.346-13.868c0.208-0.653,0.771-3.692,0.771-3.692
					l0.059-0.474c0,0,0.278-1.597,0.257-3.081"/>
			</g>
		</g>
		<path fill="none" stroke="#99979A" stroke-width="0.503" stroke-miterlimit="10" d="M26.251,8.113c0,0,9.164,0.629,11.894,0.652
			c2.632,0.024,10.654-0.754,10.654-0.754"/>
		<polygon fill="none" stroke="#99979A" stroke-width="0.495" stroke-miterlimit="10" points="31.25,69.631 27.734,69.631 
			27.514,69.631 27.514,69.251 27.514,66.505 31.25,66.505 		"/>
		<polygon fill="none" stroke="#99979A" stroke-width="0.495" stroke-miterlimit="10" points="43.827,69.764 47.344,69.764 
			47.564,69.764 47.564,69.384 47.564,66.638 43.827,66.638 		"/>
		<path fill="none" stroke="#99979A" stroke-width="0.495" stroke-miterlimit="10" d="M38.768,23.397
			c0.205,4.52,1.56,9.985,1.809,11.527c0.374,2.312,1.701,10.718,1.701,10.718c-0.515,5.825,0.936,14.143,0.85,15.256
			s0.482,5.676,0.482,5.676c1.601,0.222,3.956,0.063,3.956,0.063c0.514-0.77,1.642-11.304,1.812-11.818
			c0.14-0.417-0.129-11.042-0.129-11.332c0-0.366-0.326-5.781-0.213-6.438c0.83-4.823,1.023-10.232,1.023-10.232
			c0.441-7.202-0.146-13.246-0.345-13.868c-0.208-0.653-0.771-3.692-0.771-3.692l-0.058-0.474c0,0-0.279-1.598-0.257-3.08
			c0,0-4.588-0.466-11.244-0.466c-6.654,0-10.848,0.827-10.848,0.827l-0.405,3.061c0,0-0.562,3.038-0.77,3.691
			c-0.199,0.622-0.786,6.666-0.347,13.867c0,0,0.195,5.41,1.024,10.234c0.114,0.656-0.212,6.071-0.212,6.437
			c0,0.29-0.27,10.915-0.129,11.332c0.171,0.516,1.299,11.049,1.812,11.819c0,0,2.039,0.133,3.956-0.063
			c0,0,0.567-4.562,0.482-5.677c-0.086-1.112,1.364-9.429,0.85-15.255c0,0,1.327-8.406,1.701-10.717
			c0.249-1.543,1.61-6.787,1.815-11.306c0.029-0.664,0.571-0.574,1.222-0.574C38.188,22.913,38.7,22.838,38.768,23.397z"/>
		<line fill="none" stroke="#99979A" stroke-width="0.5" stroke-miterlimit="10" x1="37.386" y1="8.767" x2="37.538" y2="22.674"/>
		<path fill="none" stroke="#99979A" stroke-width="0.503" stroke-miterlimit="10" d="M26.537,6.062c0,0,2.982,0.508,10.326,0.496
			c7.344-0.011,11.672-0.496,11.672-0.496"/>
		<path fill="none" stroke="#99979A" stroke-width="0.5" stroke-miterlimit="10" d="M33.581,8.542
			c0.056,0.095-0.899,12.947,2.785,14.545"/>
		<path fill="none" stroke="#99979A" stroke-width="0.5" stroke-miterlimit="10" d="M41.334,8.542c0,0,1.053,13.26-2.635,14.545"/>
	</g>
</g>
<g id="TENCEL_Women_x27_s">
</g>
<g id="STE">
</g>
<g id="Invisible">
</g>
<g id="Socks">
</g>
<g id="Cashmere">
</g>
<g id="Titles" display="none">
</g>
<g id="OC_Womens">
</g>
<g id="OC_Mens">
</g>
<g id="STA_Womens">
</g>
<g id="STA_Mens">
</g>
</svg>
