<?xml version="1.0" encoding="utf-8"?>
<!-- Generator: Adobe Illustrator 16.0.0, SVG Export Plug-In . SVG Version: 6.00 Build 0)  -->
<!DOCTYPE svg PUBLIC "-//W3C//DTD SVG 1.1//EN" "http://www.w3.org/Graphics/SVG/1.1/DTD/svg11.dtd">
<svg version="1.1" xmlns="http://www.w3.org/2000/svg" xmlns:xlink="http://www.w3.org/1999/xlink" x="0px" y="0px" width="75px"
	 height="75px" viewBox="0 0 75 75" enable-background="new 0 0 75 75" xml:space="preserve">
<g id="Accessories">
</g>
<g id="TENCEL_Men_x27_s">
</g>
<g id="TENCEL_Women_x27_s">
</g>
<g id="STE">
</g>
<g id="Invisible">
</g>
<g id="Socks">
</g>
<g id="Cashmere">
</g>
<g id="Titles" display="none">
	<text transform="matrix(1 0 0 1 46.2168 5.3301)" display="inline"><tspan x="0" y="0" fill="#9B9694" font-family="'CircularAirPro-Bold'" font-size="4.4">B</tspan><tspan x="2.702" y="0" fill="#9B9694" font-family="'CircularAirPro-Bold'" font-size="4.4">ox</tspan><tspan x="7.454" y="0" fill="#9B9694" font-family="'CircularAirPro-Bold'" font-size="4.4">e</tspan><tspan x="9.887" y="0" fill="#9B9694" font-family="'CircularAirPro-Bold'" font-size="4.4">r</tspan><tspan x="11.633" y="0" fill="#9B9694" font-family="'CircularAirPro-Bold'" font-size="4.4">s</tspan></text>
</g>
<g id="OC_Womens">
</g>
<g id="OC_Mens">
	<g>
		<path fill="#FFFFFF" d="M38.103,17.748c-6.429,0.116-12.858,0.233-19.287,0.352c-1.608,0.029-1.612,2.529,0,2.5
			c6.429-0.118,12.858-0.235,19.287-0.352C39.709,20.219,39.715,17.719,38.103,17.748"/>
		<path fill="#FFFFFF" d="M51.821,18.225c-4.734-0.095-9.514-0.384-14.244-0.104c-1.6,0.093-1.61,2.594,0,2.5
			c4.73-0.28,9.51,0.009,14.244,0.104C53.43,20.757,53.43,18.257,51.821,18.225"/>
		<path fill="none" stroke="#99979A" stroke-width="0.5" stroke-miterlimit="10" d="M52.962,18.213
			c-5.237,2.334-17.816,2.162-17.816,2.162s-12.58,0.172-17.816-2.162c0,0-3.358,8.195-3.358,27.491c0,0,8.025,3.985,18.044,3.018
			c0,0,0.068-4.496,3.13-4.496c3.039,0,3.13,4.496,3.13,4.496c10.018,0.968,18.044-3.018,18.044-3.018
			C56.32,26.408,52.962,18.213,52.962,18.213z"/>
		<path fill="none" stroke="#99979A" stroke-width="0.5" stroke-miterlimit="10" d="M13.972,45.733
			c0-1.894,18.235,1.527,18.043,2.816"/>
		<path fill="none" stroke="#99979A" stroke-width="0.5" stroke-miterlimit="10" d="M13.972,44.57
			c0-1.894,18.404,1.527,18.213,2.816"/>
		<path fill="none" stroke="#99979A" stroke-width="0.5" stroke-miterlimit="10" d="M54.16,22.115
			c-3.422,1.524-9.994,2.085-14.441,2.289c-2.668,0.123-4.573,0.118-4.573,0.118"/>
		<path fill="none" stroke="#99979A" stroke-width="0.5" stroke-miterlimit="10" d="M17.247,18.156c0,0,14.853-0.366,17.899-0.366"
			/>
		<path fill="none" stroke="#99979A" stroke-width="0.5" stroke-miterlimit="10" d="M53.046,18.156c0,0-14.854-0.366-17.9-0.366"/>
		<path fill="none" stroke="#99979A" stroke-width="0.5" stroke-miterlimit="10" d="M39.72,24.402c0,0,6.28,13.513-2.935,20.451"/>
		<path fill="none" stroke="#99979A" stroke-width="0.5" stroke-miterlimit="10" d="M30.569,24.402c0,0-6.28,13.513,2.935,20.451"/>
		<path fill="none" stroke="#99979A" stroke-width="0.5" stroke-miterlimit="10" d="M35.146,44.226V24.523
			c0,0-13.537,0.031-19.013-2.408"/>
		<path fill="none" stroke="#99979A" stroke-width="0.5" stroke-miterlimit="10" d="M56.321,45.733
			c0-1.894-18.235,1.527-18.043,2.816"/>
		<path fill="none" stroke="#99979A" stroke-width="0.5" stroke-miterlimit="10" d="M56.321,44.57
			c0-1.894-18.405,1.527-18.213,2.816"/>
		<path fill="#FFFFFF" d="M42.811,27.327c-6.43,0.116-12.858,0.233-19.287,0.352"/>
		<path fill="#FFFFFF" d="M42.811,26.077c-6.43,0.116-12.858,0.233-19.287,0.352c-1.608,0.029-1.612,2.529,0,2.5
			c6.429-0.118,12.857-0.235,19.287-0.352C44.417,28.548,44.423,26.048,42.811,26.077"/>
		<path fill="#FFFFFF" d="M56.529,27.805c-2.892-0.059-5.784-0.116-8.677-0.175c-1.856-0.037-3.717-0.073-5.568,0.069"/>
		<path fill="#FFFFFF" d="M56.529,26.555c-4.734-0.096-9.514-0.385-14.245-0.105c-1.599,0.094-1.609,2.594,0,2.5
			c4.731-0.279,9.51,0.01,14.245,0.105C58.138,29.086,58.138,26.586,56.529,26.555"/>
		<path fill="#FFFFFF" d="M57.669,26.542c-5.236,2.334-17.815,2.162-17.815,2.162s-12.58,0.172-17.816-2.162
			c0,0-3.358,8.195-3.358,27.491c0,0,8.025,3.985,18.043,3.018c0,0,0.068-4.497,3.131-4.497c3.039,0,3.13,4.497,3.13,4.497
			c10.018,0.968,18.043-3.018,18.043-3.018C61.027,34.737,57.669,26.542,57.669,26.542"/>
		<path fill="none" stroke="#99979A" stroke-width="0.5" stroke-miterlimit="10" d="M57.669,26.542
			c-5.236,2.334-17.815,2.162-17.815,2.162s-12.58,0.172-17.816-2.162c0,0-3.358,8.195-3.358,27.491c0,0,8.025,3.985,18.043,3.018
			c0,0,0.068-4.497,3.131-4.497c3.039,0,3.13,4.497,3.13,4.497c10.018,0.968,18.043-3.018,18.043-3.018
			C61.027,34.737,57.669,26.542,57.669,26.542z"/>
		<path fill="#FFFFFF" d="M18.68,54.062c0-1.894,18.235,1.527,18.043,2.816"/>
		<path fill="none" stroke="#99979A" stroke-width="0.5" stroke-miterlimit="10" d="M18.68,54.062
			c0-1.894,18.235,1.527,18.043,2.816"/>
		<path fill="#FFFFFF" d="M18.68,52.898c0-1.893,18.404,1.528,18.213,2.817"/>
		<path fill="none" stroke="#99979A" stroke-width="0.5" stroke-miterlimit="10" d="M18.68,52.898
			c0-1.893,18.404,1.528,18.213,2.817"/>
		<path fill="#FFFFFF" d="M58.868,30.444c-3.423,1.524-9.994,2.084-14.441,2.29c-2.668,0.123-4.573,0.117-4.573,0.117"/>
		<path fill="none" stroke="#99979A" stroke-width="0.5" stroke-miterlimit="10" d="M58.868,30.444
			c-3.423,1.524-9.994,2.084-14.441,2.29c-2.668,0.123-4.573,0.117-4.573,0.117"/>
		<path fill="#FFFFFF" d="M21.955,26.485c0,0,14.853-0.366,17.899-0.366"/>
		<path fill="none" stroke="#99979A" stroke-width="0.5" stroke-miterlimit="10" d="M21.955,26.485c0,0,14.853-0.366,17.899-0.366"
			/>
		<path fill="#FFFFFF" d="M57.753,26.485c0,0-14.853-0.366-17.899-0.366"/>
		<path fill="none" stroke="#99979A" stroke-width="0.5" stroke-miterlimit="10" d="M57.753,26.485c0,0-14.853-0.366-17.899-0.366"
			/>
		<path fill="#FFFFFF" d="M44.428,32.732c0,0,6.279,13.512-2.936,20.45"/>
		<path fill="none" stroke="#99979A" stroke-width="0.5" stroke-miterlimit="10" d="M44.428,32.732c0,0,6.279,13.512-2.936,20.45"/>
		<path fill="#FFFFFF" d="M35.276,32.732c0,0-6.279,13.512,2.936,20.45"/>
		<path fill="none" stroke="#99979A" stroke-width="0.5" stroke-miterlimit="10" d="M35.276,32.732c0,0-6.279,13.512,2.936,20.45"/>
		<path fill="#FFFFFF" d="M39.854,52.553v-19.7c0,0-13.537,0.031-19.014-2.408"/>
		<path fill="none" stroke="#99979A" stroke-width="0.5" stroke-miterlimit="10" d="M39.854,52.553v-19.7
			c0,0-13.537,0.031-19.014-2.408"/>
		<path fill="#FFFFFF" d="M61.028,54.062c0-1.894-18.234,1.527-18.043,2.816"/>
		<path fill="none" stroke="#99979A" stroke-width="0.5" stroke-miterlimit="10" d="M61.028,54.062
			c0-1.894-18.234,1.527-18.043,2.816"/>
		<path fill="#FFFFFF" d="M61.028,52.898c0-1.893-18.404,1.528-18.212,2.817"/>
		<path fill="none" stroke="#99979A" stroke-width="0.5" stroke-miterlimit="10" d="M61.028,52.898
			c0-1.893-18.404,1.528-18.212,2.817"/>
		<path fill="#FFFFFF" d="M42.811,26.127c-6.43,0.116-12.858,0.233-19.287,0.352c-1.608,0.029-1.612,2.529,0,2.5
			c6.429-0.118,12.857-0.235,19.287-0.352C44.417,28.598,44.423,26.098,42.811,26.127"/>
		<path fill="#FFFFFF" d="M56.529,26.604c-4.734-0.096-9.514-0.385-14.245-0.104c-1.599,0.093-1.609,2.594,0,2.5
			c4.731-0.28,9.51,0.009,14.245,0.104C58.138,29.136,58.138,26.636,56.529,26.604"/>
		<path fill="none" stroke="#99979A" stroke-width="0.5" stroke-miterlimit="10" d="M57.669,26.593
			c-5.236,2.333-17.815,2.161-17.815,2.161s-12.58,0.172-17.816-2.161c0,0-3.358,8.195-3.358,27.49c0,0,8.025,3.985,18.043,3.018
			c0,0,0.068-4.496,3.131-4.496c3.039,0,3.13,4.496,3.13,4.496c10.018,0.968,18.043-3.018,18.043-3.018
			C61.027,34.788,57.669,26.593,57.669,26.593z"/>
		<path fill="none" stroke="#99979A" stroke-width="0.5" stroke-miterlimit="10" d="M18.68,54.111
			c0-1.893,18.235,1.528,18.043,2.818"/>
		<path fill="none" stroke="#99979A" stroke-width="0.5" stroke-miterlimit="10" d="M18.68,52.949
			c0-1.894,18.404,1.527,18.213,2.817"/>
		<path fill="none" stroke="#99979A" stroke-width="0.5" stroke-miterlimit="10" d="M58.868,30.494
			c-3.423,1.524-9.994,2.085-14.441,2.29c-2.668,0.122-4.573,0.117-4.573,0.117"/>
		<path fill="none" stroke="#99979A" stroke-width="0.5" stroke-miterlimit="10" d="M21.955,26.535c0,0,14.853-0.366,17.899-0.366"
			/>
		<path fill="none" stroke="#99979A" stroke-width="0.5" stroke-miterlimit="10" d="M57.753,26.535c0,0-14.853-0.366-17.899-0.366"
			/>
		<path fill="none" stroke="#99979A" stroke-width="0.5" stroke-miterlimit="10" d="M44.428,32.781c0,0,6.279,13.513-2.936,20.451"
			/>
		<path fill="none" stroke="#99979A" stroke-width="0.5" stroke-miterlimit="10" d="M35.276,32.781c0,0-6.279,13.513,2.936,20.451"
			/>
		<path fill="none" stroke="#99979A" stroke-width="0.5" stroke-miterlimit="10" d="M39.854,52.604V32.902
			c0,0-13.537,0.031-19.014-2.408"/>
		<path fill="none" stroke="#99979A" stroke-width="0.5" stroke-miterlimit="10" d="M61.028,54.111
			c0-1.893-18.234,1.528-18.043,2.818"/>
		<path fill="none" stroke="#99979A" stroke-width="0.5" stroke-miterlimit="10" d="M61.028,52.949
			c0-1.894-18.404,1.527-18.212,2.817"/>
	</g>
</g>
<g id="STA_Womens">
</g>
<g id="STA_Mens">
</g>
</svg>
