<?xml version="1.0" encoding="utf-8"?>
<!-- Generator: Adobe Illustrator 16.0.0, SVG Export Plug-In . SVG Version: 6.00 Build 0)  -->
<!DOCTYPE svg PUBLIC "-//W3C//DTD SVG 1.1//EN" "http://www.w3.org/Graphics/SVG/1.1/DTD/svg11.dtd">
<svg version="1.1" xmlns="http://www.w3.org/2000/svg" xmlns:xlink="http://www.w3.org/1999/xlink" x="0px" y="0px"  viewBox="0 0 75 75" enable-background="new 0 0 75 75" xml:space="preserve">
<g id="TENCEL_Men_x27_s">
	<g>
		<path fill="none" stroke="#04080F" stroke-width="0.5" stroke-miterlimit="10" d="M51.859,18.643l-7.794-3.931
			c0,0-2.225,3.861-6.562,3.937c-4.345-0.069-6.568-3.937-6.568-3.937l-7.794,3.931c0,0-4.297,6.438-7.423,14.328l8.399,3.994
			l1.171-2.224l-0.343,25.896h25.248l-0.477-25.896l1.163,2.224l8.4-3.994C56.155,25.081,51.859,18.643,51.859,18.643z"/>
		<path fill="#04080F" d="M43.877,14.863H31.145c-0.138,0-0.25-0.112-0.25-0.25c0-0.138,0.112-0.25,0.25-0.25h12.732
			c0.139,0,0.25,0.112,0.25,0.25C44.127,14.751,44.016,14.863,43.877,14.863"/>
		<path fill="#04080F" d="M25.551,33.733l-0.473,1.057v-7.616c0-5.416-1.928-8.313-1.947-8.341l0.413-0.282
			c0.083,0.121,2.034,3.039,2.034,8.623L25.551,33.733z"/>
		<path fill="#04080F" d="M49.96,34.876L49.453,33.7l0.007-6.44c0-5.583,1.951-8.501,2.034-8.623l0.412,0.282
			c-0.019,0.029-1.946,2.926-1.946,8.341V34.876z"/>
		<rect x="25.135" y="59.06" fill="#04080F" width="25.044" height="0.5"/>
		<path fill="#04080F" d="M37.509,19.872c-5.027-0.08-7.656-4.549-7.682-4.594l0.433-0.25c0.025,0.043,2.52,4.269,7.249,4.344
			c4.713-0.083,7.208-4.301,7.231-4.344l0.435,0.25C45.147,15.323,42.519,19.785,37.509,19.872"/>
	</g>
</g>
</svg>
