<?xml version="1.0" encoding="utf-8"?>
<!-- Generator: Adobe Illustrator 16.0.0, SVG Export Plug-In . SVG Version: 6.00 Build 0)  -->
<!DOCTYPE svg PUBLIC "-//W3C//DTD SVG 1.1//EN" "http://www.w3.org/Graphics/SVG/1.1/DTD/svg11.dtd">
<svg version="1.1" xmlns="http://www.w3.org/2000/svg" xmlns:xlink="http://www.w3.org/1999/xlink" x="0px" y="0px"  viewBox="0 0 75 75" enable-background="new 0 0 75 75" xml:space="preserve">
<g id="Sweat">
	<g>
		<path fill="none" stroke="#04080F" stroke-width="0.5" stroke-miterlimit="10" d="M41.599,15.326h8.096
			c0,0,6.347,2.945,6.347,5.51s2.374,19.469,2.754,21.938c0.38,2.471,2.945,13.582,1.14,18.996c0,0-0.417,2.639-0.359,3.58
			c0.009,0.152-0.118,0.275-0.267,0.248c-0.792-0.137-2.792-0.41-4.159,0.062c-0.139,0.049-0.288-0.012-0.34-0.148
			c-0.234-0.631-0.876-2.297-1.333-2.982c0,0-0.985-3.383-0.855-5.033c0.107-1.357-0.19-29.158-0.19-29.158l3.609-7.502"/>
		<path fill="none" stroke="#04080F" stroke-width="0.5" stroke-miterlimit="10" d="M52.549,58.305c0,0-0.585,2.023-1.01,2.637
			c-0.447,0.646-1.538,1.158-2.243,1.234c-2.659,0.285-11.394,0.354-11.394,0.354"/>
		<path fill="none" stroke="#04080F" stroke-width="0.5" stroke-miterlimit="10" d="M51.399,61.166l-0.2,4.117
			c0,0-3.532,1.434-13.86,1.482"/>
		<path fill="none" stroke="#04080F" stroke-width="0.5" stroke-miterlimit="10" d="M59.922,61.961c0,0-4.371-1.055-6.274,0.953"/>
		<path fill="none" stroke="#04080F" stroke-width="0.5" stroke-miterlimit="10" d="M59.485,65.715c0,0-2.906,0.979-4.577,0"/>
		<polyline fill="none" stroke="#04080F" stroke-width="0.5" stroke-miterlimit="10" points="35.924,45.404 46.613,45.404 
			49.94,55.832 49.296,62.176 		"/>
		<path fill="none" stroke="#04080F" stroke-width="0.5" stroke-miterlimit="10" d="M37.698,9.229c0,0,4.628-0.482,6.356-0.994
			c0,0,2.175,0.256,2.111,3.326c0,0,1.599,0.191,1.856,1.537c0,0,1.765,0.695,2.277,2.488"/>
		<path fill="none" stroke="#04080F" stroke-width="0.5" stroke-miterlimit="10" d="M37.522,15.326c0,0,1.264-0.996,2.647-2.113
			c1.587-1.283,3.331-2.721,3.501-2.996c0.32-0.512,1.088-1.662-0.639-1.727"/>
		<line fill="none" stroke="#04080F" stroke-width="0.5" stroke-miterlimit="10" x1="34.831" y1="13.16" x2="40.169" y2="13.16"/>
		<line fill="none" stroke="#04080F" stroke-width="0.5" stroke-miterlimit="10" x1="50.476" y1="65.387" x2="50.055" y2="61.998"/>
		<line fill="none" stroke="#04080F" stroke-width="0.5" stroke-miterlimit="10" x1="48.676" y1="65.902" x2="48.255" y2="62.373"/>
		<line fill="none" stroke="#04080F" stroke-width="0.5" stroke-miterlimit="10" x1="46.802" y1="66.195" x2="46.454" y2="62.498"/>
		<line fill="none" stroke="#04080F" stroke-width="0.5" stroke-miterlimit="10" x1="45.001" y1="66.416" x2="44.653" y2="62.592"/>
		<line fill="none" stroke="#04080F" stroke-width="0.5" stroke-miterlimit="10" x1="42.723" y1="62.484" x2="42.907" y2="66.637"/>
		<line fill="none" stroke="#04080F" stroke-width="0.5" stroke-miterlimit="10" x1="40.592" y1="62.447" x2="40.666" y2="66.527"/>
		<line fill="none" stroke="#04080F" stroke-width="0.5" stroke-miterlimit="10" x1="59.075" y1="61.934" x2="58.965" y2="65.498"/>
		<line fill="none" stroke="#04080F" stroke-width="0.5" stroke-miterlimit="10" x1="58.119" y1="61.75" x2="58.119" y2="65.387"/>
		<line fill="none" stroke="#04080F" stroke-width="0.5" stroke-miterlimit="10" x1="56.962" y1="61.822" x2="57.127" y2="65.387"/>
		<line fill="none" stroke="#04080F" stroke-width="0.5" stroke-miterlimit="10" x1="54.739" y1="62.154" x2="55.51" y2="65.607"/>
		<line fill="none" stroke="#04080F" stroke-width="0.5" stroke-miterlimit="10" x1="55.804" y1="61.859" x2="56.245" y2="65.35"/>
		<path fill="none" stroke="#04080F" stroke-width="0.5" stroke-miterlimit="10" d="M33.321,15.326h-8.095
			c0,0-6.268,2.945-6.268,5.51s-2.374,19.469-2.754,21.938c-0.38,2.471-2.945,13.582-1.14,18.996c0,0,0.417,2.639,0.36,3.58
			c-0.01,0.152,0.117,0.275,0.266,0.248c0.792-0.137,2.792-0.41,4.159,0.062c0.139,0.049,0.288-0.012,0.34-0.148
			c0.235-0.631,0.876-2.297,1.333-2.982c0,0,0.986-3.383,0.855-5.033c-0.107-1.357,0.19-29.158,0.19-29.158l-3.609-7.502"/>
		<path fill="none" stroke="#04080F" stroke-width="0.5" stroke-miterlimit="10" d="M22.452,58.305c0,0,0.585,2.023,1.009,2.637
			c0.447,0.646,1.539,1.158,2.243,1.234c2.66,0.285,12.198,0.354,12.198,0.354"/>
		<path fill="none" stroke="#04080F" stroke-width="0.5" stroke-miterlimit="10" d="M23.601,61.166l0.2,4.117
			c0,0,3.351,1.482,13.538,1.482"/>
		<path fill="none" stroke="#04080F" stroke-width="0.5" stroke-miterlimit="10" d="M15.078,61.961c0,0,4.372-1.055,6.274,0.953"/>
		<path fill="none" stroke="#04080F" stroke-width="0.5" stroke-miterlimit="10" d="M15.515,65.715c0,0,2.906,0.979,4.577,0"/>
		<polyline fill="none" stroke="#04080F" stroke-width="0.5" stroke-miterlimit="10" points="37.087,45.404 28.386,45.404 
			25.061,55.832 25.705,62.176 		"/>
		<path fill="none" stroke="#04080F" stroke-width="0.5" stroke-miterlimit="10" d="M37.718,9.234c0,0-5.045-0.488-6.772-1
			c0,0-2.176,0.256-2.112,3.326c0,0-1.599,0.191-1.855,1.537c0,0-1.743,0.672-2.255,2.463"/>
		<path fill="none" stroke="#04080F" stroke-width="0.5" stroke-miterlimit="10" d="M31.969,8.49
			c-1.727,0.064-0.959,1.217-0.64,1.729c0.171,0.271,1.915,1.713,3.502,2.994c1.383,1.117,2.647,2.113,2.647,2.113h-3.366"/>
		<line fill="none" stroke="#04080F" stroke-width="0.5" stroke-miterlimit="10" x1="24.524" y1="65.387" x2="24.945" y2="61.998"/>
		<line fill="none" stroke="#04080F" stroke-width="0.5" stroke-miterlimit="10" x1="26.324" y1="65.902" x2="26.745" y2="62.373"/>
		<line fill="none" stroke="#04080F" stroke-width="0.5" stroke-miterlimit="10" x1="28.198" y1="66.195" x2="28.546" y2="62.498"/>
		<line fill="none" stroke="#04080F" stroke-width="0.5" stroke-miterlimit="10" x1="29.999" y1="66.416" x2="30.347" y2="62.592"/>
		<line fill="none" stroke="#04080F" stroke-width="0.5" stroke-miterlimit="10" x1="32.277" y1="62.484" x2="32.093" y2="66.637"/>
		<line fill="none" stroke="#04080F" stroke-width="0.5" stroke-miterlimit="10" x1="34.408" y1="62.447" x2="34.334" y2="66.527"/>
		<line fill="none" stroke="#04080F" stroke-width="0.5" stroke-miterlimit="10" x1="15.925" y1="61.934" x2="16.035" y2="65.498"/>
		<line fill="none" stroke="#04080F" stroke-width="0.5" stroke-miterlimit="10" x1="16.881" y1="61.75" x2="16.881" y2="65.387"/>
		<line fill="none" stroke="#04080F" stroke-width="0.5" stroke-miterlimit="10" x1="18.038" y1="61.822" x2="17.873" y2="65.387"/>
		<line fill="none" stroke="#04080F" stroke-width="0.5" stroke-miterlimit="10" x1="20.261" y1="62.154" x2="19.49" y2="65.607"/>
		<line fill="none" stroke="#04080F" stroke-width="0.5" stroke-miterlimit="10" x1="19.196" y1="61.859" x2="18.755" y2="65.35"/>
		<line fill="none" stroke="#04080F" stroke-width="0.5" stroke-miterlimit="10" x1="36.49" y1="62.475" x2="36.49" y2="66.766"/>
		<line fill="none" stroke="#04080F" stroke-width="0.5" stroke-miterlimit="10" x1="38.588" y1="62.521" x2="38.612" y2="66.576"/>
		<path fill="none" stroke="#04080F" stroke-width="0.5" stroke-miterlimit="10" d="M33.796,30.428h-0.14
			c-0.155,0-0.282-0.127-0.282-0.283V14.928c0-0.156,0.127-0.283,0.282-0.283h0.14c0.156,0,0.283,0.127,0.283,0.283v15.217
			C34.079,30.301,33.952,30.428,33.796,30.428z"/>
		<path fill="none" stroke="#04080F" stroke-width="0.5" stroke-miterlimit="10" d="M41.273,30.428h-0.14
			c-0.156,0-0.282-0.127-0.282-0.283V14.928c0-0.156,0.126-0.283,0.282-0.283h0.14c0.156,0,0.282,0.127,0.282,0.283v15.217
			C41.555,30.301,41.429,30.428,41.273,30.428z"/>
		<line fill="none" stroke="#04080F" stroke-width="0.5" stroke-miterlimit="10" x1="37.478" y1="15.326" x2="40.839" y2="15.326"/>
	</g>
</g>
</svg>
