<?xml version="1.0" encoding="utf-8"?>
<!-- Generator: Adobe Illustrator 16.0.0, SVG Export Plug-In . SVG Version: 6.00 Build 0)  -->
<!DOCTYPE svg PUBLIC "-//W3C//DTD SVG 1.1//EN" "http://www.w3.org/Graphics/SVG/1.1/DTD/svg11.dtd">
<svg version="1.1" xmlns="http://www.w3.org/2000/svg" xmlns:xlink="http://www.w3.org/1999/xlink" x="0px" y="0px"  viewBox="0 0 75 75" enable-background="new 0 0 75 75" xml:space="preserve">
<g id="Denim">
	<g>
		<path fill="#99979A" d="M29.636,70.062c-2.085,0-3.733-0.652-3.843-0.697l-0.154-0.064l-0.002-0.166
			c-0.003-0.232-0.232-23.359-0.459-29.711c-0.227-6.357,0.452-31.316,0.459-31.567l0.01-0.345l0.325,0.115
			c2.175,0.783,11.136,1.131,11.227,1.134h0.614c0.081-0.003,9.041-0.351,11.216-1.134l0.325-0.115l0.01,0.345
			c0.007,0.251,0.687,25.21,0.459,31.567c-0.227,6.352-0.457,29.479-0.459,29.711l-0.002,0.166l-0.154,0.064
			c-0.178,0.072-4.401,1.744-7.965-0.361l-0.115-0.068l-0.008-0.135c-0.882-17.848-2.509-44.71-3.414-46.46h-0.408
			c-0.907,1.75-2.533,28.612-3.414,46.46l-0.008,0.135l-0.116,0.068C32.394,69.811,30.931,70.062,29.636,70.062 M41.612,68.641
			c2.958,1.662,6.479,0.588,7.253,0.316c0.021-2.145,0.24-23.486,0.457-29.549c0.213-5.945-0.37-28.221-0.45-31.207
			c-2.66,0.733-10.694,1.045-11.05,1.06h-0.634c-0.364-0.015-8.399-0.326-11.061-1.06c-0.08,2.986-0.663,25.262-0.45,31.207
			c0.217,6.062,0.436,27.404,0.456,29.549c0.774,0.271,4.296,1.346,7.255-0.316c0.067-1.34,0.619-12.275,1.299-23.107
			c1.474-23.465,2.082-23.604,2.446-23.687l0.708-0.006l0.026,0.006c0.363,0.083,0.972,0.222,2.445,23.687
			C40.994,56.365,41.546,67.301,41.612,68.641"/>
		<path fill="#99979A" d="M37.263,18.755v-0.5c1.732,0,1.966-1.126,2.048-2.183c0.008-0.086,0.014-0.162,0.021-0.226
			c0.012-0.091,0.016-0.181,0.016-0.272V8.928h0.5v6.646c0,0.113-0.006,0.223-0.02,0.334c-0.006,0.056-0.012,0.125-0.019,0.203
			C39.747,16.902,39.603,18.755,37.263,18.755"/>
		<path fill="#99979A" d="M30.366,12.114c-2.216,0-4.534-0.069-4.558-0.069l0.016-0.5c0.021,0,2.334,0.069,4.542,0.069
			c1.964,0,2.038-2.746,2.04-2.862l0.5,0.008C32.888,9.92,32.33,12.114,30.366,12.114"/>
		<path fill="#99979A" d="M30.604,13.094h-4.788v-0.5h4.788c2.444,0,2.682-3.645,2.684-3.68l0.5,0.027
			C33.785,8.984,33.521,13.094,30.604,13.094"/>
		<polygon fill="#99979A" points="27.112,12.004 26.612,11.984 26.738,8.887 31.988,9.835 31.988,11.286 31.488,11.286 
			31.488,10.253 27.215,9.48 		"/>
		<polygon fill="#99979A" points="27.86,12.01 27.362,11.979 27.486,10.029 31.21,10.566 31.21,11.764 30.71,11.764 30.71,11 
			27.951,10.601 		"/>
		<path fill="#99979A" d="M38.662,8.745c-0.415,0-0.752-0.337-0.752-0.752s0.337-0.752,0.752-0.752s0.752,0.337,0.752,0.752
			S39.077,8.745,38.662,8.745 M38.662,7.741c-0.139,0-0.252,0.112-0.252,0.252s0.113,0.252,0.252,0.252
			c0.14,0,0.252-0.112,0.252-0.252S38.802,7.741,38.662,7.741"/>
		<path fill="#99979A" d="M35.503,10.219h-1.456V6.42h1.456V10.219z M34.547,9.719h0.456V6.92h-0.456V9.719z"/>
		<path fill="#99979A" d="M37.438,22.096l-0.5-0.01l0.316-15.333h0.246c7.829,0,11.439-1.308,11.476-1.322l0.329-0.122l0.058,2.549
			l-0.5,0.012l-0.042-1.86C47.78,6.328,44.269,7.23,37.746,7.253L37.438,22.096z"/>
		<path fill="#99979A" d="M26.137,7.876l-0.5-0.024l0.132-2.512l0.301,0.085c0.047,0.013,4.803,1.328,11.431,1.328v0.5
			c-5.748,0-10.11-0.981-11.265-1.271L26.137,7.876z"/>
		<path fill="#99979A" d="M49.063,5.676c-0.01,0-0.021-0.001-0.031-0.002c-0.019-0.002-2.023-0.236-11.531-0.236
			c-9.505,0-11.448,0.233-11.467,0.236c-0.136,0.008-0.263-0.079-0.28-0.216c-0.018-0.136,0.079-0.263,0.216-0.28
			c0.075-0.01,1.958-0.24,11.531-0.24c9.571,0,11.516,0.23,11.594,0.24c0.137,0.018,0.234,0.143,0.217,0.279
			C49.296,5.583,49.188,5.676,49.063,5.676"/>
		<path fill="#99979A" d="M29.674,68.549c-2.084,0-3.733-0.652-3.843-0.697l0.188-0.463c0.041,0.014,4.174,1.645,7.523-0.328
			l0.254,0.43C32.431,68.297,30.969,68.549,29.674,68.549"/>
		<path fill="#99979A" d="M45.4,68.549c-1.295,0-2.757-0.252-4.122-1.059l0.254-0.43c3.348,1.975,7.483,0.342,7.524,0.328
			l0.188,0.463C49.135,67.896,47.485,68.549,45.4,68.549"/>
		<path fill="#99979A" d="M41.458,10.219h-1.456V6.42h1.456V10.219z M40.502,9.719h0.456V6.92h-0.456V9.719z"/>
		<path fill="#99979A" d="M44.876,12.166c-1.919,0-2.462-2.193-2.48-3.354l0.5-0.008c0.002,0.116,0.073,2.861,1.98,2.861
			c2.15,0,4.402-0.068,4.425-0.07l0.016,0.5C49.294,12.098,47.034,12.166,44.876,12.166"/>
		<path fill="#99979A" d="M49.309,13.146h-4.664c-2.277,0-3.027-2.716-3.106-4.151l0.5-0.029c0.001,0.037,0.231,3.681,2.606,3.681
			h4.664V13.146z"/>
	</g>
</g>
</svg>
