<?xml version="1.0" encoding="utf-8"?>
<!-- Generator: Adobe Illustrator 16.0.0, SVG Export Plug-In . SVG Version: 6.00 Build 0)  -->
<!DOCTYPE svg PUBLIC "-//W3C//DTD SVG 1.1//EN" "http://www.w3.org/Graphics/SVG/1.1/DTD/svg11.dtd">
<svg version="1.1" xmlns="http://www.w3.org/2000/svg" xmlns:xlink="http://www.w3.org/1999/xlink" x="0px" y="0px"  viewBox="0 0 75 75" enable-background="new 0 0 75 75" xml:space="preserve">
<g id="OC_Sweat">
	<g>
		<path fill="none" stroke="#04080F" stroke-width="0.5" stroke-miterlimit="10" d="M33.342,15.321h-8.094
			c0,0-6.269,2.944-6.269,5.508c0,2.565-2.374,19.47-2.754,21.939c-0.38,2.47-2.944,13.581-1.14,18.994c0,0,0.225,2.64,0.168,3.582
			c-0.01,0.151,0.117,0.273,0.266,0.247c0.792-0.138,3.354-0.41,4.721,0.063c0.14,0.048,0.288-0.012,0.339-0.149
			c0.235-0.63,0.507-2.296,0.965-2.982c0,0,0.985-3.383,0.854-5.034c-0.107-1.355,0.19-29.157,0.19-29.157l-3.609-7.503"/>
		<path fill="none" stroke="#04080F" stroke-width="0.5" stroke-miterlimit="10" d="M22.403,58.104c0,0,0.655,2.217,1.08,2.832
			c0.446,0.646,1.538,1.157,2.243,1.232c2.659,0.285,11.784,0.347,11.784,0.347"/>
		<path fill="none" stroke="#04080F" stroke-width="0.5" stroke-miterlimit="10" d="M23.623,61.16l0.2,4.118
			c0,0,3.49,1.493,13.676,1.493"/>
		<path fill="none" stroke="#04080F" stroke-width="0.5" stroke-miterlimit="10" d="M15.1,61.955c0,0,4.371-1.054,6.274,0.952"/>
		<path fill="none" stroke="#04080F" stroke-width="0.5" stroke-miterlimit="10" d="M15.328,65.534c0,0,3.484,1.045,5.156,0.067"/>
		<polyline fill="none" stroke="#04080F" stroke-width="0.5" stroke-miterlimit="10" points="37.5,45.397 28.408,45.398 
			25.082,55.826 25.727,62.17 		"/>
		<path fill="none" stroke="#04080F" stroke-width="0.5" stroke-miterlimit="10" d="M32.114,8.484
			c-1.728,0.064-1.083,1.216-0.763,1.728c0.171,0.273,1.915,1.713,3.501,2.995c1.384,1.117,2.647,2.114,2.647,2.114h-3.365"/>
		<line fill="none" stroke="#04080F" stroke-width="0.5" stroke-miterlimit="10" x1="25.082" y1="65.777" x2="24.967" y2="61.992"/>
		<line fill="none" stroke="#04080F" stroke-width="0.5" stroke-miterlimit="10" x1="26.586" y1="65.896" x2="26.586" y2="62.366"/>
		<line fill="none" stroke="#04080F" stroke-width="0.5" stroke-miterlimit="10" x1="28.149" y1="66.286" x2="28.149" y2="62.492"/>
		<line fill="none" stroke="#04080F" stroke-width="0.5" stroke-miterlimit="10" x1="29.711" y1="66.41" x2="29.711" y2="62.585"/>
		<line fill="none" stroke="#04080F" stroke-width="0.5" stroke-miterlimit="10" x1="31.273" y1="62.479" x2="31.273" y2="66.621"/>
		<line fill="none" stroke="#04080F" stroke-width="0.5" stroke-miterlimit="10" x1="32.872" y1="62.442" x2="32.798" y2="66.521"/>
		<line fill="none" stroke="#04080F" stroke-width="0.5" stroke-miterlimit="10" x1="34.397" y1="62.468" x2="34.397" y2="66.76"/>
		<line fill="none" stroke="#04080F" stroke-width="0.5" stroke-miterlimit="10" x1="37.51" y1="62.516" x2="37.533" y2="66.571"/>
		<line fill="none" stroke="#04080F" stroke-width="0.5" stroke-miterlimit="10" x1="35.948" y1="62.516" x2="35.971" y2="66.571"/>
		<path fill="none" stroke="#04080F" stroke-width="0.5" stroke-miterlimit="10" d="M33.818,30.422h-0.14
			c-0.156,0-0.282-0.126-0.282-0.283V14.921c0-0.157,0.126-0.283,0.282-0.283h0.14c0.156,0,0.282,0.126,0.282,0.283v15.217
			C34.1,30.296,33.974,30.422,33.818,30.422z"/>
		<path fill="none" stroke="#04080F" stroke-width="0.5" stroke-miterlimit="10" d="M41.657,15.321h8.095
			c0,0,6.268,2.944,6.268,5.508c0,2.565,2.374,19.47,2.754,21.939c0.38,2.47,2.945,13.581,1.14,18.994c0,0-0.225,2.64-0.168,3.582
			c0.01,0.151-0.117,0.273-0.266,0.247c-0.792-0.138-3.353-0.41-4.721,0.063c-0.139,0.048-0.288-0.012-0.339-0.149
			c-0.235-0.63-0.507-2.296-0.964-2.982c0,0-0.986-3.383-0.855-5.034c0.107-1.355-0.19-29.157-0.19-29.157l3.609-7.503"/>
		<path fill="none" stroke="#04080F" stroke-width="0.5" stroke-miterlimit="10" d="M52.596,58.104c0,0-0.655,2.217-1.08,2.832
			c-0.446,0.646-1.538,1.157-2.243,1.232c-2.659,0.285-11.784,0.347-11.784,0.347"/>
		<path fill="none" stroke="#04080F" stroke-width="0.5" stroke-miterlimit="10" d="M51.376,61.16l-0.201,4.118
			c0,0-3.489,1.493-13.676,1.493"/>
		<path fill="none" stroke="#04080F" stroke-width="0.5" stroke-miterlimit="10" d="M59.9,61.955c0,0-4.372-1.054-6.274,0.952"/>
		<path fill="none" stroke="#04080F" stroke-width="0.5" stroke-miterlimit="10" d="M59.671,65.534c0,0-3.484,1.045-5.155,0.067"/>
		<polyline fill="none" stroke="#04080F" stroke-width="0.5" stroke-miterlimit="10" points="37.5,45.397 46.59,45.398 
			49.917,55.826 49.273,62.17 		"/>
		<path fill="none" stroke="#04080F" stroke-width="0.5" stroke-miterlimit="10" d="M50.253,15.554
			c-0.512-1.791-2.255-2.464-2.255-2.464c-0.256-1.343-1.855-1.535-1.855-1.535c0.064-3.071-2.111-3.327-2.111-3.327
			c-1.507,0.446-5.521,0.411-6.524,0.507h-0.017c-1.003-0.096-5.017-0.061-6.523-0.507c0,0-2.175,0.256-2.111,3.327
			c0,0-1.6,0.192-1.856,1.535c0,0-1.743,0.673-2.254,2.464"/>
		<path fill="none" stroke="#04080F" stroke-width="0.5" stroke-miterlimit="10" d="M42.719,8.516
			c1.728,0.064,1.249,1.184,0.929,1.695c-0.171,0.274-1.914,1.714-3.501,2.995c-1.383,1.118-2.647,2.115-2.647,2.115h3.365"/>
		<line fill="none" stroke="#04080F" stroke-width="0.5" stroke-miterlimit="10" x1="49.917" y1="65.777" x2="50.032" y2="61.992"/>
		<line fill="none" stroke="#04080F" stroke-width="0.5" stroke-miterlimit="10" x1="48.413" y1="65.896" x2="48.413" y2="62.366"/>
		<line fill="none" stroke="#04080F" stroke-width="0.5" stroke-miterlimit="10" x1="46.851" y1="66.286" x2="46.851" y2="62.492"/>
		<line fill="none" stroke="#04080F" stroke-width="0.5" stroke-miterlimit="10" x1="45.289" y1="66.41" x2="45.289" y2="62.585"/>
		<line fill="none" stroke="#04080F" stroke-width="0.5" stroke-miterlimit="10" x1="43.726" y1="62.479" x2="43.726" y2="66.621"/>
		<line fill="none" stroke="#04080F" stroke-width="0.5" stroke-miterlimit="10" x1="42.127" y1="62.442" x2="42.2" y2="66.521"/>
		<line fill="none" stroke="#04080F" stroke-width="0.5" stroke-miterlimit="10" x1="40.602" y1="62.468" x2="40.602" y2="66.76"/>
		<line fill="none" stroke="#04080F" stroke-width="0.5" stroke-miterlimit="10" x1="39.051" y1="62.516" x2="39.028" y2="66.571"/>
		<path fill="none" stroke="#04080F" stroke-width="0.5" stroke-miterlimit="10" d="M41.182,30.422h0.14
			c0.155,0,0.282-0.126,0.282-0.283V14.921c0-0.157-0.127-0.283-0.282-0.283h-0.14c-0.156,0-0.283,0.126-0.283,0.283v15.217
			C40.898,30.296,41.025,30.422,41.182,30.422z"/>
	</g>
</g>
</svg>
