<?xml version="1.0" encoding="utf-8"?>
<!-- Generator: Adobe Illustrator 16.0.0, SVG Export Plug-In . SVG Version: 6.00 Build 0)  -->
<!DOCTYPE svg PUBLIC "-//W3C//DTD SVG 1.1//EN" "http://www.w3.org/Graphics/SVG/1.1/DTD/svg11.dtd">
<svg version="1.1" xmlns="http://www.w3.org/2000/svg" xmlns:xlink="http://www.w3.org/1999/xlink" x="0px" y="0px" width="75px"
	 height="75px" viewBox="0 0 75 75" enable-background="new 0 0 75 75" xml:space="preserve">
<g id="Accessories">
</g>
<g id="TENCEL_Men_x27_s">
	<g>
		<path fill="none" stroke="#99979A" stroke-width="0.5" stroke-miterlimit="10" d="M37.5,24.079c0,0-12.579,0.17-17.815-2.163
			c0,0-4.061,15.712-5.612,28.998c0,0,10.301,2.893,20.297,2.456c0,0,0.068-4.497,3.131-4.497"/>
		<path fill="none" stroke="#99979A" stroke-width="0.5" stroke-miterlimit="10" d="M14.072,50.942
			c0-1.894,20.488,0.968,20.297,2.257"/>
		<path fill="none" stroke="#99979A" stroke-width="0.5" stroke-miterlimit="10" d="M14.233,49.593
			c1.126-1.468,20.497,1.153,20.305,2.442"/>
		<path fill="none" stroke="#99979A" stroke-width="0.5" stroke-miterlimit="10" d="M19.599,21.858
			c0.281-0.007,14.943-0.276,17.9-0.273"/>
		<path fill="none" stroke="#99979A" stroke-width="0.5" stroke-miterlimit="10" d="M37.5,42.188
			c4.828,0.038,3.948-8.702,3.795-14.942"/>
		<path fill="none" stroke="#99979A" stroke-width="0.5" stroke-miterlimit="10" d="M37.5,47.974V27.327c0,0-13.216,0-18.658-2.259"
			/>
		<path fill="none" stroke="#99979A" stroke-width="0.5" stroke-miterlimit="10" d="M37.5,24.079c0,0,12.579,0.17,17.815-2.163
			c0,0,4.06,15.712,5.613,28.998c0,0-10.303,2.893-20.299,2.456c0,0-0.067-4.497-3.13-4.497"/>
		<path fill="none" stroke="#99979A" stroke-width="0.5" stroke-miterlimit="10" d="M60.927,50.942
			c0-1.894-20.488,0.968-20.297,2.257"/>
		<path fill="none" stroke="#99979A" stroke-width="0.5" stroke-miterlimit="10" d="M60.765,49.593
			c-1.125-1.468-20.496,1.153-20.305,2.442"/>
		<path fill="none" stroke="#99979A" stroke-width="0.5" stroke-miterlimit="10" d="M55.399,21.858
			c-0.28-0.007-14.942-0.276-17.898-0.273"/>
		<path fill="none" stroke="#99979A" stroke-width="0.5" stroke-miterlimit="10" d="M37.5,48.873V27.326c0,0,13.217,0,18.658-2.259"
			/>
	</g>
</g>
<g id="TENCEL_Women_x27_s">
</g>
<g id="STE">
</g>
<g id="Invisible">
</g>
<g id="Socks">
</g>
<g id="Cashmere">
</g>
<g id="Titles" display="none">
	<text transform="matrix(1 0 0 1 12.6001 7.6338)" display="inline"><tspan x="0" y="0" fill="#9B9694" font-family="'CircularAirPro-Bold'" font-size="4.4">T</tspan><tspan x="2.31" y="0" fill="#9B9694" font-family="'CircularAirPro-Bold'" font-size="4.4">en</tspan><tspan x="7.312" y="0" fill="#9B9694" font-family="'CircularAirPro-Bold'" font-size="4.4">c</tspan><tspan x="9.715" y="0" fill="#9B9694" font-family="'CircularAirPro-Bold'" font-size="4.4">el </tspan><tspan x="14.445" y="0" fill="#9B9694" font-family="'CircularAirPro-Bold'" font-size="4.4">B</tspan><tspan x="17.146" y="0" fill="#9B9694" font-family="'CircularAirPro-Bold'" font-size="4.4">ox</tspan><tspan x="21.89" y="0" fill="#9B9694" font-family="'CircularAirPro-Bold'" font-size="4.4">e</tspan><tspan x="24.323" y="0" fill="#9B9694" font-family="'CircularAirPro-Bold'" font-size="4.4">r</tspan><tspan x="26.069" y="0" fill="#9B9694" font-family="'CircularAirPro-Bold'" font-size="4.4">s sho</tspan><tspan x="36.353" y="0" fill="#9B9694" font-family="'CircularAirPro-Bold'" font-size="4.4">r</tspan><tspan x="38.169" y="0" fill="#9B9694" font-family="'CircularAirPro-Bold'" font-size="4.4">t</tspan><tspan x="39.872" y="0" fill="#9B9694" font-family="'CircularAirPro-Bold'" font-size="4.4">s</tspan></text>
</g>
<g id="OC_Womens">
</g>
<g id="OC_Mens">
</g>
<g id="STA_Womens">
</g>
<g id="STA_Mens">
</g>
</svg>
