<?xml version="1.0" encoding="utf-8"?>
<!-- Generator: Adobe Illustrator 16.0.0, SVG Export Plug-In . SVG Version: 6.00 Build 0)  -->
<!DOCTYPE svg PUBLIC "-//W3C//DTD SVG 1.1//EN" "http://www.w3.org/Graphics/SVG/1.1/DTD/svg11.dtd">
<svg version="1.1" xmlns="http://www.w3.org/2000/svg" xmlns:xlink="http://www.w3.org/1999/xlink" x="0px" y="0px"  viewBox="0 0 75 75" enable-background="new 0 0 75 75" xml:space="preserve">
<g id="Re-swim">
	<g>
		
			<line fill="none" stroke="#000000" stroke-width="0.503" stroke-linecap="square" stroke-miterlimit="10" x1="37.494" y1="19.257" x2="37.484" y2="18.029"/>
		
			<line fill="none" stroke="#000000" stroke-width="0.503" stroke-linecap="round" stroke-miterlimit="10" x1="37.412" y1="47.571" x2="37.475" y2="21.117"/>
		<path fill="none" stroke="#000000" stroke-width="0.503" stroke-linecap="round" stroke-miterlimit="10" d="M13.645,57.731
			c0,0,13.488,2.333,23.085,0.79"/>
		<path fill="none" stroke="#000000" stroke-width="0.251" stroke-linecap="round" stroke-miterlimit="10" d="M37.848,20.988h-0.695
			c-0.146,0-0.264-0.119-0.264-0.264v-1.015c0-0.146,0.118-0.264,0.264-0.264h0.695c0.146,0,0.266,0.118,0.266,0.264v1.015
			C38.113,20.869,37.994,20.988,37.848,20.988z"/>
		<path fill="none" stroke="#000000" stroke-width="0.251" stroke-linecap="round" stroke-miterlimit="10" d="M34.428,25.391
			c-0.456-0.098-1.409-0.895-1.45-1.854c-0.04-0.952,0.583-1.993,1.993-3.035c1.41-1.042,1.846-0.896,1.846-0.896
			s-1.998,5.678-2.306,5.74c-0.306,0.062,0.828,0.245,1.288,0.184s1.354-4.541,1.354-4.541"/>
		<path fill="none" stroke="#000000" stroke-width="0.251" stroke-linecap="round" stroke-miterlimit="10" d="M36.014,21.417
			c0,0-1.688,1.107-1.688,1.751c0,0.645,0.613,1.227,0.613,1.227"/>
		<path fill="none" stroke="#000000" stroke-width="0.251" stroke-linecap="round" stroke-miterlimit="10" d="M34.928,25.536
			c0,0-1.291,6.987-1.113,7.966c0.178,0.979,0.668,0.936,0.668,0.936s0.311,0.266,0.488-1.024c0.18-1.291,0.828-7.885,0.828-7.885"
			/>
		<path fill="none" stroke="#000000" stroke-width="0.251" stroke-linecap="round" stroke-miterlimit="10" d="M14.717,59.059
			c0,0,0.736-28.175,5.535-43.836"/>
		<path fill="none" stroke="#000000" stroke-width="0.503" stroke-linecap="round" stroke-miterlimit="10" d="M19.165,15.131
			c0,0,7.714,0.905,18.335,0.771"/>
		<path fill="none" stroke="#000000" stroke-width="0.503" stroke-linecap="round" stroke-miterlimit="10" d="M18.655,17.336
			c0,0,7.924,0.8,18.83,0.681"/>
		<path fill="none" stroke="#000000" stroke-width="0.503" stroke-linecap="round" stroke-miterlimit="10" d="M37.588,47.571
			l0.662,12.093c9.818,2.204,23.242-0.602,23.242-0.602s-0.199-7.213-1.402-20.437s-4.254-23.495-4.254-23.495
			s-11.065-0.64-18.336-0.64c-7.27,0-18.334,0.64-18.334,0.64s-3.054,10.271-4.256,23.495c-1.201,13.224-1.402,20.437-1.402,20.437
			s13.424,2.806,23.242,0.602l0.662-12.093"/>
		
			<line fill="none" stroke="#000000" stroke-width="0.503" stroke-linecap="square" stroke-miterlimit="10" x1="37.506" y1="19.257" x2="37.516" y2="18.029"/>
		
			<line fill="none" stroke="#000000" stroke-width="0.503" stroke-linecap="round" stroke-miterlimit="10" x1="37.588" y1="47.571" x2="37.525" y2="21.117"/>
		<path fill="none" stroke="#000000" stroke-width="0.503" stroke-linecap="round" stroke-miterlimit="10" d="M61.355,57.731
			c0,0-13.488,2.333-23.084,0.79"/>
		<path fill="none" stroke="#000000" stroke-width="0.251" stroke-linecap="round" stroke-miterlimit="10" d="M37.152,20.988h0.695
			c0.146,0,0.264-0.119,0.264-0.264v-1.015c0-0.146-0.118-0.264-0.264-0.264h-0.695c-0.146,0-0.264,0.118-0.264,0.264v1.015
			C36.889,20.869,37.006,20.988,37.152,20.988z"/>
		<path fill="none" stroke="#000000" stroke-width="0.251" stroke-linecap="round" stroke-miterlimit="10" d="M40.572,25.391
			c0.456-0.098,1.41-0.895,1.45-1.854c0.04-0.952-0.582-1.993-1.992-3.035c-1.411-1.042-1.847-0.896-1.847-0.896s2,5.678,2.306,5.74
			c0.308,0.062-0.828,0.245-1.287,0.184c-0.46-0.062-1.354-4.541-1.354-4.541"/>
		<path fill="none" stroke="#000000" stroke-width="0.251" stroke-linecap="round" stroke-miterlimit="10" d="M38.986,21.417
			c0,0,1.688,1.107,1.688,1.751c0,0.645-0.613,1.227-0.613,1.227"/>
		<path fill="none" stroke="#000000" stroke-width="0.251" stroke-linecap="round" stroke-miterlimit="10" d="M40.073,25.536
			c0,0,1.291,6.987,1.112,7.966c-0.178,0.979-0.668,0.936-0.668,0.936s-0.312,0.266-0.488-1.024
			c-0.18-1.291-0.827-7.885-0.827-7.885"/>
		<path fill="none" stroke="#000000" stroke-width="0.251" stroke-linecap="round" stroke-miterlimit="10" d="M60.283,59.059
			c0,0-0.736-28.175-5.534-43.836"/>
		<path fill="none" stroke="#000000" stroke-width="0.503" stroke-linecap="round" stroke-miterlimit="10" d="M55.836,15.131
			c0,0-7.715,0.905-18.336,0.771"/>
		<path fill="none" stroke="#000000" stroke-width="0.503" stroke-linecap="round" stroke-miterlimit="10" d="M56.345,17.336
			c0,0-7.924,0.8-18.829,0.681"/>
	</g>
</g>
</svg>
