<?xml version="1.0" encoding="utf-8"?>
<!-- Generator: Adobe Illustrator 16.0.0, SVG Export Plug-In . SVG Version: 6.00 Build 0)  -->
<!DOCTYPE svg PUBLIC "-//W3C//DTD SVG 1.1//EN" "http://www.w3.org/Graphics/SVG/1.1/DTD/svg11.dtd">
<svg version="1.1" xmlns="http://www.w3.org/2000/svg" xmlns:xlink="http://www.w3.org/1999/xlink" x="0px" y="0px"  viewBox="0 0 75 75" enable-background="new 0 0 75 75" xml:space="preserve">
<g id="Accessories">
</g>
<g id="TENCEL_Men_x27_s">
</g>
<g id="TENCEL_Women_x27_s">
</g>
<g id="STE">
</g>
<g id="Invisible">
</g>
<g id="Socks">
</g>
<g id="Cashmere">
</g>
<g id="Titles" display="none">
</g>
<g id="OC_Womens">
</g>
<g id="OC_Mens">
</g>
<g id="STA_Womens">
</g>
<g id="STA_Mens">
	<g>
		<path fill="none" stroke="#99979A" stroke-width="0.5" stroke-miterlimit="10" d="M55.316,22.381
			c-5.236,2.333-17.815,2.163-17.815,2.163s-12.581,0.17-17.817-2.163c0,0-3.358,8.196-3.358,27.492c0,0,8.026,3.985,18.044,3.018
			c0,0,0.068-4.497,3.131-4.497c3.039,0,3.129,4.497,3.129,4.497c10.018,0.968,18.044-3.018,18.044-3.018
			C58.674,30.577,55.316,22.381,55.316,22.381z"/>
		<path fill="none" stroke="#99979A" stroke-width="0.5" stroke-miterlimit="10" d="M16.326,49.902
			c0-1.894,18.235,1.527,18.043,2.816"/>
		<path fill="none" stroke="#99979A" stroke-width="0.5" stroke-miterlimit="10" d="M16.338,48.018
			c0-1.893,18.575,1.528,18.383,2.818"/>
		<path fill="none" stroke="#99979A" stroke-width="0.5" stroke-miterlimit="10" d="M56.513,26.283
			c-3.422,1.525-9.993,2.085-14.441,2.29c-2.668,0.123-4.572,0.119-4.572,0.119"/>
		<path fill="none" stroke="#99979A" stroke-width="0.5" stroke-miterlimit="10" d="M19.6,22.325c0,0,14.854-0.367,17.9-0.367"/>
		<path fill="none" stroke="#99979A" stroke-width="0.5" stroke-miterlimit="10" d="M55.4,22.325c0,0-14.853-0.367-17.899-0.367"/>
		<path fill="none" stroke="#99979A" stroke-width="0.5" stroke-miterlimit="10" d="M42.074,28.571c0,0,6.28,13.512-2.935,20.451"/>
		<path fill="none" stroke="#99979A" stroke-width="0.5" stroke-miterlimit="10" d="M32.922,28.571c0,0-6.28,13.512,2.936,20.451"/>
		<path fill="none" stroke="#99979A" stroke-width="0.5" stroke-miterlimit="10" d="M37.5,28.692c0,0-13.538,0.031-19.014-2.409"/>
		<path fill="none" stroke="#99979A" stroke-width="0.5" stroke-miterlimit="10" d="M58.674,49.902
			c0-1.894-18.235,1.527-18.043,2.816"/>
		<path fill="none" stroke="#99979A" stroke-width="0.5" stroke-miterlimit="10" d="M58.664,48.018
			c0-1.893-18.585,1.528-18.394,2.818"/>
	</g>
</g>
</svg>
