<?xml version="1.0" encoding="utf-8"?>
<!-- Generator: Adobe Illustrator 16.0.0, SVG Export Plug-In . SVG Version: 6.00 Build 0)  -->
<!DOCTYPE svg PUBLIC "-//W3C//DTD SVG 1.1//EN" "http://www.w3.org/Graphics/SVG/1.1/DTD/svg11.dtd">
<svg version="1.1" xmlns="http://www.w3.org/2000/svg" xmlns:xlink="http://www.w3.org/1999/xlink" x="0px" y="0px"  viewBox="0 0 75 75" enable-background="new 0 0 75 75" xml:space="preserve"><g id="Titles" display="none">
	<text transform="matrix(1 0 0 1 17.8892 5.3301)" display="inline"><tspan x="0" y="0" fill="#9B9694" font-family="'CircularAirPro-Bold'" font-size="4.4">OC Long </tspan><tspan x="19.316" y="0" fill="#9B9694" font-family="'CircularAirPro-Bold'" font-size="4.4">S</tspan><tspan x="21.956" y="0" fill="#9B9694" font-family="'CircularAirPro-Bold'" font-size="4.4">le</tspan><tspan x="25.599" y="0" fill="#9B9694" font-family="'CircularAirPro-Bold'" font-size="4.4">e</tspan><tspan x="27.992" y="0" fill="#9B9694" font-family="'CircularAirPro-Bold'" font-size="4.4">v</tspan><tspan x="30.329" y="0" fill="#9B9694" font-family="'CircularAirPro-Bold'" font-size="4.4">e</tspan></text>
</g><g id="OC_Mens">
	<g>
		<path fill="none" stroke="#99979A" stroke-width="0.5" stroke-miterlimit="10" d="M37.5,59.626L37.5,59.626h0.013h0.012
			c0.547-0.006,10.816-0.111,12.943-0.632V32.477c0,0,3.39,22.618,3.87,26.026l5.026-0.528c-0.587-20.28-1.156-35.85-7.148-39.729
			l-9.373-3.982c0,0-1.696,0.871-5.33,0.876"/>
		<path fill="none" stroke="#99979A" stroke-width="0.5" stroke-miterlimit="10" d="M50.468,32.477c0,0-0.194-11.158,1.748-14.229"
			/>
		<path fill="none" stroke="#99979A" stroke-width="0.5" stroke-miterlimit="10" d="M42.843,14.264c0,0-0.049,3.982-5.33,3.982"/>
		<path fill="none" stroke="#99979A" stroke-width="0.5" stroke-miterlimit="10" d="M43.668,14.555c0,0-0.056,4.518-6.155,4.518"/>
		<path fill="none" stroke="#99979A" stroke-width="0.5" stroke-miterlimit="10" d="M37.5,60.736L37.5,60.736h0.013h0.012
			c0.547-0.007,10.816-0.111,12.943-0.633V33.586"/>
		<path fill="none" stroke="#99979A" stroke-width="0.5" stroke-miterlimit="10" d="M37.5,59.626L37.5,59.626h-0.012h-0.012
			c-0.548-0.006-10.816-0.111-12.944-0.632V32.477c0,0-3.389,22.618-3.869,26.026l-5.027-0.528
			c0.587-20.28,1.157-35.85,7.148-39.729l9.374-3.982c0,0,1.696,0.871,5.33,0.876"/>
		<path fill="none" stroke="#99979A" stroke-width="0.5" stroke-miterlimit="10" d="M24.532,32.477c0,0,0.194-11.158-1.748-14.229"
			/>
		<path fill="none" stroke="#99979A" stroke-width="0.5" stroke-miterlimit="10" d="M32.158,14.264c0,0,0.048,3.982,5.33,3.982"/>
		<path fill="none" stroke="#99979A" stroke-width="0.5" stroke-miterlimit="10" d="M31.332,14.555c0,0,0.057,4.518,6.156,4.518"/>
		<path fill="none" stroke="#99979A" stroke-width="0.5" stroke-miterlimit="10" d="M37.5,60.736L37.5,60.736h-0.012h-0.012
			c-0.548-0.007-10.816-0.111-12.944-0.633V33.586"/>
	</g>
</g></svg>
