<?xml version="1.0" encoding="utf-8"?>
<!-- Generator: Adobe Illustrator 16.0.0, SVG Export Plug-In . SVG Version: 6.00 Build 0)  -->
<!DOCTYPE svg PUBLIC "-//W3C//DTD SVG 1.1//EN" "http://www.w3.org/Graphics/SVG/1.1/DTD/svg11.dtd">
<svg version="1.1" xmlns="http://www.w3.org/2000/svg" xmlns:xlink="http://www.w3.org/1999/xlink" x="0px" y="0px"  viewBox="0 0 75 75" enable-background="new 0 0 75 75" xml:space="preserve">
<g id="Accessories">
</g>
<g id="TENCEL_Men_x27_s">
</g>
<g id="TENCEL_Women_x27_s">
</g>
<g id="STE">
</g>
<g id="Invisible">
</g>
<g id="Socks">
</g>
<g id="Cashmere">
</g>
<g id="Titles" display="none">
</g>
<g id="OC_Womens">
</g>
<g id="OC_Mens">
	<g>
		<path fill="none" stroke="#99979A" stroke-width="0.5" stroke-miterlimit="10" d="M50.468,34.242c0,0,3.39,22.618,3.869,26.025
			l5.027-0.526c-0.586-20.28-1.157-35.851-7.148-39.729l-8.792-3.63"/>
		<path fill="none" stroke="#99979A" stroke-width="0.5" stroke-miterlimit="10" d="M37.5,61.392L37.5,61.392h0.012h0.012
			c0.547-0.005,10.816-0.11,12.944-0.631"/>
		<path fill="none" stroke="#99979A" stroke-width="0.5" stroke-miterlimit="10" d="M50.468,34.242c0,0-0.194-11.157,1.748-14.229"
			/>
		<path fill="none" stroke="#99979A" stroke-width="0.5" stroke-miterlimit="10" d="M37.5,62.501L37.5,62.501
			c0,0.001,0.005,0.001,0.012,0c0.008,0.001,0.012,0.001,0.012,0.001v-0.001c0.547-0.006,10.816-0.11,12.944-0.632
			c-0.821-9.261,0-27.627,0-27.627"/>
		<path fill="none" stroke="#99979A" stroke-width="0.5" stroke-miterlimit="10" d="M24.532,34.242c0,0-3.39,22.618-3.87,26.025
			l-5.026-0.526c0.586-20.28,1.156-35.851,7.148-39.729l8.792-3.63"/>
		<path fill="none" stroke="#99979A" stroke-width="0.5" stroke-miterlimit="10" d="M37.5,61.392L37.5,61.392h-0.013h-0.011
			c-0.547-0.005-10.817-0.11-12.944-0.631"/>
		<path fill="none" stroke="#99979A" stroke-width="0.5" stroke-miterlimit="10" d="M24.532,34.242c0,0,0.194-11.157-1.748-14.229"
			/>
		<path fill="none" stroke="#99979A" stroke-width="0.5" stroke-miterlimit="10" d="M37.5,62.501L37.5,62.501
			c0,0.001-0.005,0.001-0.013,0c-0.007,0.001-0.011,0.001-0.011,0.001v-0.001c-0.547-0.006-10.817-0.11-12.944-0.632
			c0.795-9.519,0-27.627,0-27.627"/>
		<path fill="none" stroke="#99979A" stroke-width="0.479" stroke-miterlimit="10" d="M37.5,18.992c0,0-4.532,0.029-5.924-2.609"/>
		<path fill="none" stroke="#99979A" stroke-width="0.479" stroke-miterlimit="10" d="M42.447,12.943c0,0-1.758,1.818-4.947,1.818
			c-3.19,0-4.948-1.818-4.948-1.818"/>
		<path fill="none" stroke="#99979A" stroke-width="0.479" stroke-miterlimit="10" d="M37.5,18.992c0,0,4.532,0.029,5.924-2.609"/>
		<path fill="none" stroke="#99979A" stroke-width="0.479" stroke-miterlimit="10" d="M43.424,16.383
			c-0.472-0.744-0.977-3.438-0.977-3.438s-1.757-0.446-4.947-0.446c-3.189,0-4.948,0.446-4.948,0.446s-0.504,2.694-0.976,3.438"/>
	</g>
</g>
<g id="STA_Womens">
</g>
<g id="STA_Mens">
</g>
</svg>
