<?xml version="1.0" encoding="utf-8"?>
<!-- Generator: Adobe Illustrator 16.0.0, SVG Export Plug-In . SVG Version: 6.00 Build 0)  -->
<!DOCTYPE svg PUBLIC "-//W3C//DTD SVG 1.1//EN" "http://www.w3.org/Graphics/SVG/1.1/DTD/svg11.dtd">
<svg version="1.1" xmlns="http://www.w3.org/2000/svg" xmlns:xlink="http://www.w3.org/1999/xlink" x="0px" y="0px"  viewBox="0 0 75 75" enable-background="new 0 0 75 75" xml:space="preserve">
<g id="STA_Mens">
	<g>
		<path fill="none" stroke="#99979A" stroke-width="0.5" stroke-miterlimit="10" d="M28.008,5.353c0,0,2.88,1.402,9.413,1.402"/>
		<path fill="none" stroke="#99979A" stroke-width="0.5" stroke-miterlimit="10" d="M46.834,5.353c0,0-2.881,1.402-9.413,1.402"/>
		<path fill="none" stroke="#99979A" stroke-width="0.5" stroke-miterlimit="10" d="M30.284,69.173c1.486-0.522,3-0.536,4.541,0"/>
		<path fill="none" stroke="#99979A" stroke-width="0.5" stroke-miterlimit="10" d="M30.284,68.121c1.486-0.523,3-0.537,4.541,0"/>
		<path fill="none" stroke="#99979A" stroke-width="0.5" stroke-miterlimit="10" d="M47.203,6.875c0,0-3.016,1.494-9.781,1.494
			c-6.768,0-9.782-1.494-9.782-1.494"/>
		<path fill="none" stroke="#99979A" stroke-width="0.5" stroke-miterlimit="10" d="M36.652,24.298c0,0-0.023,0.985,0,3.053
			c0.023,2.065-0.434,5.335-0.674,7.378c-0.239,2.042-0.168,3.58-0.048,6.128c0.12,2.546,0.073,3.82-0.168,5.142
			c-0.24,1.321-0.408,2.619-0.359,5.527c0.048,2.908-0.187,8.443-0.506,11.634c-0.317,3.191-0.072,6.014-0.072,6.014
			c-1.61,0.642-3.116,0.622-4.541,0c0,0,0.279-3.134-0.724-7.439s-1.18-10.795-1.003-12.565c0.178-1.769-1.518-6.83-1.894-19.334
			c-0.467-15.498,1.344-24.481,1.344-24.481h9.414h9.413c0,0,2.307,9.926,1.344,24.481c-0.825,12.483-2.072,17.565-1.895,19.334
			c0.178,1.771,0,8.26-1.003,12.565c-1.002,4.306-0.723,7.439-0.723,7.439c-1.425,0.622-2.932,0.642-4.541,0
			c0,0,0.245-2.822-0.073-6.014c-0.318-3.19-0.553-8.726-0.505-11.634c0.049-2.908-0.119-4.206-0.359-5.527
			s-0.289-2.596-0.169-5.142c0.121-2.548,0.191-4.086-0.048-6.128c-0.24-2.043-0.696-5.312-0.674-7.378c0.024-2.067,0-3.053,0-3.053
			H36.652z"/>
		<path fill="none" stroke="#99979A" stroke-width="0.5" stroke-miterlimit="10" d="M44.559,69.173
			c-1.488-0.522-3.001-0.536-4.541,0"/>
		<path fill="none" stroke="#99979A" stroke-width="0.5" stroke-miterlimit="10" d="M44.559,68.121
			c-1.488-0.523-3.001-0.537-4.541,0"/>
		<g opacity="0.15">
			<g>
				<defs>
					<rect id="SVGID_73_" x="26.639" y="5.392" width="5.733" height="64.107"/>
				</defs>
				<clipPath id="SVGID_2_">
					<use xlink:href="#SVGID_73_"  overflow="visible"/>
				</clipPath>
				<path clip-path="url(#SVGID_2_)" fill="none" stroke="#99979A" stroke-width="2" stroke-miterlimit="10" d="M31.336,69.411
					c0,0,0.279-3.135-0.724-7.439c-1.002-4.307-1.179-10.795-1.002-12.565c0.177-1.769-1.519-6.829-1.895-19.334
					C27.25,14.574,29.061,5.59,29.061,5.59"/>
			</g>
		</g>
		<g opacity="0.15">
			<g>
				<defs>
					<rect id="SVGID_75_" x="42.469" y="5.392" width="5.733" height="64.107"/>
				</defs>
				<clipPath id="SVGID_4_">
					<use xlink:href="#SVGID_75_"  overflow="visible"/>
				</clipPath>
				<path clip-path="url(#SVGID_4_)" fill="none" stroke="#99979A" stroke-width="2" stroke-miterlimit="10" d="M43.505,69.411
					c0,0-0.28-3.135,0.723-7.439c1.003-4.307,1.179-10.795,1.003-12.565c-0.177-1.769,1.519-6.829,1.895-19.334
					C47.592,14.574,45.78,5.59,45.78,5.59"/>
			</g>
		</g>
		<path fill="none" stroke="#99979A" stroke-width="0.5" stroke-linecap="round" stroke-linejoin="round" d="M47.47,36.902
			c0,0-6.463-1.381-9.017-6.179"/>
		<path fill="none" stroke="#99979A" stroke-width="0.5" stroke-linecap="round" stroke-linejoin="round" d="M27.281,36.902
			c0,0,6.463-1.381,9.015-6.179"/>
	</g>
</g>
</svg>
