<?xml version="1.0" encoding="utf-8"?>
<!-- Generator: Adobe Illustrator 16.0.0, SVG Export Plug-In . SVG Version: 6.00 Build 0)  -->
<!DOCTYPE svg PUBLIC "-//W3C//DTD SVG 1.1//EN" "http://www.w3.org/Graphics/SVG/1.1/DTD/svg11.dtd">
<svg version="1.1" xmlns="http://www.w3.org/2000/svg" xmlns:xlink="http://www.w3.org/1999/xlink" x="0px" y="0px"  viewBox="0 0 75 75" enable-background="new 0 0 75 75" xml:space="preserve"><g id="Titles" display="none">
	<text transform="matrix(1 0 0 1 27.3115 5.332)" display="inline"><tspan x="0" y="0" fill="#9B9694" font-family="'CircularAirPro-Bold'" font-size="4.4">T</tspan><tspan x="2.31" y="0" fill="#9B9694" font-family="'CircularAirPro-Bold'" font-size="4.4">ee</tspan></text>
</g><g id="OC_Mens">
	<g>
		<path fill="#E2E2E2" stroke="#99979A" stroke-width="0.5" stroke-miterlimit="10" d="M52.204,18.248l-9.374-3.982
			c0,0-1.696,0.871-5.33,0.875c-3.634-0.004-5.33-0.875-5.33-0.875l-9.374,3.982c-2.963,2.574-7.868,10.928-7.868,10.928
			s5.586,4.662,7.285,5.779c0.341-0.34,2.332-2.478,2.332-2.478v26.519c2.127,0.521,12.395,0.626,12.943,0.631v0.001H37.5h0.012
			v-0.001c0.547-0.005,10.816-0.11,12.943-0.631V32.477c0,0,1.992,2.138,2.332,2.478c1.699-1.117,7.285-5.779,7.285-5.779
			S55.167,20.822,52.204,18.248z"/>
		<path fill="none" stroke="#99979A" stroke-width="0.5" stroke-miterlimit="10" d="M50.455,32.478c0,0-0.193-11.16,1.749-14.23"/>
		<path fill="none" stroke="#99979A" stroke-width="0.5" stroke-miterlimit="10" d="M24.544,32.453c0,0,0.194-11.16-1.748-14.23"/>
		<path fill="none" stroke="#99979A" stroke-width="0.5" stroke-miterlimit="10" d="M32.17,14.265c0,0,0.049,3.981,5.33,3.981"/>
		<path fill="none" stroke="#99979A" stroke-width="0.5" stroke-miterlimit="10" d="M42.83,14.265c0,0-0.048,3.981-5.33,3.981"/>
		<path fill="none" stroke="#99979A" stroke-width="0.5" stroke-miterlimit="10" d="M31.344,14.556c0,0,0.057,4.517,6.156,4.517"/>
		<path fill="none" stroke="#99979A" stroke-width="0.5" stroke-miterlimit="10" d="M43.656,14.556c0,0-0.057,4.517-6.156,4.517"/>
		<path fill="none" stroke="#99979A" stroke-width="0.5" stroke-miterlimit="10" d="M24.545,33.585v26.519
			c2.127,0.52,12.396,0.626,12.943,0.631H37.5h0.012c0.548-0.005,10.816-0.111,12.943-0.631V33.585"/>
	</g>
</g></svg>
