<?xml version="1.0" encoding="utf-8"?>
<!-- Generator: Adobe Illustrator 16.0.0, SVG Export Plug-In . SVG Version: 6.00 Build 0)  -->
<!DOCTYPE svg PUBLIC "-//W3C//DTD SVG 1.1//EN" "http://www.w3.org/Graphics/SVG/1.1/DTD/svg11.dtd">
<svg version="1.1" xmlns="http://www.w3.org/2000/svg" xmlns:xlink="http://www.w3.org/1999/xlink" x="0px" y="0px"  viewBox="0 0 75 75" enable-background="new 0 0 75 75" xml:space="preserve"><g id="Socks">
	<g>
		<path fill="#FFFFFF" d="M31.853,29.594c0,0.002,11.398,0,11.398,0 M43.267,25.953c0,0-0.038,1.048-0.038,5.121
			c0,1.712,1.282,5.433,1.659,6.64c0.378,1.207,1.585,5.354-4.827,7.091c-6.412,1.734-9.537,3.846-11.24,4.676
			c-0.942,0.459-5.356,1.736-8.826,1.131c-3.47-0.602-6.638-2.111-7.468-3.317c-0.83-1.207,0-2.188,1.056-2.489
			c1.056-0.302,5.507-1.207,8.373-3.622c2.867-2.414,7.88-7.592,8.525-8.373c1.246-1.508,1.432-2.189,1.432-3.295v-3.562H43.267z"/>
		<path fill="none" stroke="#97989B" stroke-width="0.5" stroke-miterlimit="10" d="M31.853,29.594c0,0.002,11.398,0,11.398,0
			 M43.267,25.953c0,0-0.038,1.048-0.038,5.121c0,1.712,1.282,5.433,1.659,6.64c0.378,1.207,1.585,5.354-4.827,7.091
			c-6.412,1.734-9.537,3.846-11.24,4.676c-0.942,0.459-5.356,1.736-8.826,1.131c-3.47-0.602-6.638-2.111-7.468-3.317
			c-0.83-1.207,0-2.188,1.056-2.489c1.056-0.302,5.507-1.207,8.373-3.622c2.867-2.414,7.88-7.592,8.525-8.373
			c1.246-1.508,1.432-2.189,1.432-3.295v-3.562H43.267z"/>
		<path fill="none" stroke="#97989B" stroke-width="0.5" stroke-miterlimit="10" d="M31.853,29.594c0,0.002,11.398,0,11.398,0
			 M43.267,25.953c0,0-0.038,1.048-0.038,5.121c0,1.712,1.282,5.433,1.659,6.64c0.378,1.207,1.585,5.354-4.827,7.091
			c-6.412,1.734-9.537,3.846-11.24,4.676c-0.942,0.459-5.356,1.736-8.826,1.131c-3.47-0.602-6.638-2.111-7.468-3.317
			c-0.83-1.207,0-2.188,1.056-2.489c1.056-0.302,5.507-1.207,8.373-3.622c2.867-2.414,7.88-7.592,8.525-8.373
			c1.246-1.508,1.432-2.189,1.432-3.295v-3.562H43.267z"/>
		<path fill="#FFFFFF" d="M38.792,35.65c0,0.002,11.397,0,11.397,0 M50.207,32.011c0,0-0.038,1.048-0.038,5.121
			c0,1.712,1.281,5.432,1.659,6.639c0.377,1.207,1.584,5.354-4.827,7.091c-6.412,1.735-9.537,3.846-11.24,4.676
			c-0.943,0.459-5.357,1.736-8.826,1.132c-3.47-0.603-6.638-2.111-7.468-3.318s0-2.188,1.055-2.489
			c1.057-0.302,5.507-1.207,8.374-3.622c2.867-2.414,7.879-7.592,8.525-8.373c1.246-1.508,1.432-2.188,1.432-3.295v-3.561H50.207z"
			/>
		<path fill="none" stroke="#97989B" stroke-width="0.5" stroke-miterlimit="10" d="M38.792,35.65c0,0.002,11.397,0,11.397,0
			 M50.207,32.011c0,0-0.038,1.048-0.038,5.121c0,1.712,1.281,5.432,1.659,6.639c0.377,1.207,1.584,5.354-4.827,7.091
			c-6.412,1.735-9.537,3.846-11.24,4.676c-0.943,0.459-5.357,1.736-8.826,1.132c-3.47-0.603-6.638-2.111-7.468-3.318
			s0-2.188,1.055-2.489c1.057-0.302,5.507-1.207,8.374-3.622c2.867-2.414,7.879-7.592,8.525-8.373
			c1.246-1.508,1.432-2.188,1.432-3.295v-3.561H50.207z"/>
		<path fill="none" stroke="#97989B" stroke-width="0.5" stroke-miterlimit="10" d="M38.792,35.65c0,0.002,11.397,0,11.397,0
			 M50.207,32.011c0,0-0.038,1.048-0.038,5.121c0,1.712,1.281,5.432,1.659,6.639c0.377,1.207,1.584,5.354-4.827,7.091
			c-6.412,1.735-9.537,3.846-11.24,4.676c-0.943,0.459-5.357,1.736-8.826,1.132c-3.47-0.603-6.638-2.111-7.468-3.318
			s0-2.188,1.055-2.489c1.057-0.302,5.507-1.207,8.374-3.622c2.867-2.414,7.879-7.592,8.525-8.373
			c1.246-1.508,1.432-2.188,1.432-3.295v-3.561H50.207z"/>
	</g>
</g></svg>
