<?xml version="1.0" encoding="utf-8"?>
<!-- Generator: Adobe Illustrator 16.0.0, SVG Export Plug-In . SVG Version: 6.00 Build 0)  -->
<!DOCTYPE svg PUBLIC "-//W3C//DTD SVG 1.1//EN" "http://www.w3.org/Graphics/SVG/1.1/DTD/svg11.dtd">
<svg version="1.1" xmlns="http://www.w3.org/2000/svg" xmlns:xlink="http://www.w3.org/1999/xlink" x="0px" y="0px" width="75px"
	 height="75px" viewBox="0 0 75 75" enable-background="new 0 0 75 75" xml:space="preserve">
<g id="Accessories">
</g>
<g id="TENCEL_Men_x27_s">
</g>
<g id="TENCEL_Women_x27_s">
</g>
<g id="STE">
</g>
<g id="Invisible">
</g>
<g id="Socks">
	<g>
		<path fill="#FFFFFF" d="M26.944,33.135c0,0,0.775,0.984,3.178,2.372c2.4,1.388,4.27,1.713,6.01,1.388
			c2.232-0.415,4.395-1.658,7.319-5.106c1.482-1.747,3.049-4.031,5.087-5.146c0.379-0.207,0.855-0.011,0.975,0.404
			c0.31,1.058,0.568,1.738,0.746,2.313c0.377,1.207,1.584,5.354-4.828,7.09c-6.411,1.735-9.535,3.847-11.238,4.677
			c-0.942,0.459-5.355,1.736-8.825,1.131c-3.471-0.602-6.64-2.111-7.47-3.318c-0.828-1.206,0-2.188,1.057-2.489
			C20.01,36.148,23.935,35.413,26.944,33.135"/>
		<path fill="none" stroke="#97989B" stroke-width="0.5" stroke-miterlimit="10" d="M26.944,33.135c0,0,0.775,0.984,3.178,2.372
			c2.4,1.388,4.27,1.713,6.01,1.388c2.232-0.415,4.395-1.658,7.319-5.106c1.482-1.747,3.049-4.031,5.087-5.146
			c0.379-0.207,0.855-0.011,0.975,0.404c0.31,1.058,0.568,1.738,0.746,2.313c0.377,1.207,1.584,5.354-4.828,7.09
			c-6.411,1.735-9.535,3.847-11.238,4.677c-0.942,0.459-5.355,1.736-8.825,1.131c-3.471-0.602-6.64-2.111-7.47-3.318
			c-0.828-1.206,0-2.188,1.057-2.489C20.01,36.148,23.935,35.413,26.944,33.135"/>
		<path fill="none" stroke="#97989B" stroke-width="0.5" stroke-miterlimit="10" d="M26.944,33.135c0,0,0.775,0.984,3.178,2.372
			c2.4,1.388,4.27,1.713,6.01,1.388c2.232-0.415,4.395-1.658,7.319-5.106c1.482-1.747,3.049-4.031,5.087-5.146
			c0.379-0.207,0.855-0.011,0.975,0.404c0.31,1.058,0.568,1.738,0.746,2.313c0.377,1.207,1.584,5.354-4.828,7.09
			c-6.411,1.735-9.535,3.847-11.238,4.677c-0.942,0.459-5.355,1.736-8.825,1.131c-3.471-0.602-6.64-2.111-7.47-3.318
			c-0.828-1.206,0-2.188,1.057-2.489C20.01,36.148,23.935,35.413,26.944,33.135z"/>
		<path fill="#FFFFFF" d="M33.783,39.161c0,0,0.776,0.983,3.178,2.371c2.401,1.389,4.27,1.713,6.01,1.389
			c2.232-0.415,4.395-1.659,7.319-5.107c1.482-1.747,3.049-4.031,5.087-5.146c0.379-0.206,0.855-0.011,0.976,0.404
			c0.309,1.059,0.567,1.738,0.746,2.313c0.377,1.207,1.584,5.354-4.828,7.09c-6.412,1.736-9.536,3.847-11.239,4.677
			c-0.942,0.459-5.355,1.736-8.825,1.131c-3.471-0.602-6.64-2.11-7.469-3.317s0-2.188,1.056-2.49
			C26.85,42.174,30.773,41.438,33.783,39.161"/>
		<path fill="none" stroke="#97989B" stroke-width="0.5" stroke-miterlimit="10" d="M33.783,39.161c0,0,0.776,0.983,3.178,2.371
			c2.401,1.389,4.27,1.713,6.01,1.389c2.232-0.415,4.395-1.659,7.319-5.107c1.482-1.747,3.049-4.031,5.087-5.146
			c0.379-0.206,0.855-0.011,0.976,0.404c0.309,1.059,0.567,1.738,0.746,2.313c0.377,1.207,1.584,5.354-4.828,7.09
			c-6.412,1.736-9.536,3.847-11.239,4.677c-0.942,0.459-5.355,1.736-8.825,1.131c-3.471-0.602-6.64-2.11-7.469-3.317
			s0-2.188,1.056-2.49C26.85,42.174,30.773,41.438,33.783,39.161"/>
		<path fill="none" stroke="#97989B" stroke-width="0.5" stroke-miterlimit="10" d="M33.783,39.161c0,0,0.776,0.983,3.178,2.371
			c2.401,1.389,4.27,1.713,6.01,1.389c2.232-0.415,4.395-1.659,7.319-5.107c1.482-1.747,3.049-4.031,5.087-5.146
			c0.379-0.206,0.855-0.011,0.976,0.404c0.309,1.059,0.567,1.738,0.746,2.313c0.377,1.207,1.584,5.354-4.828,7.09
			c-6.412,1.736-9.536,3.847-11.239,4.677c-0.942,0.459-5.355,1.736-8.825,1.131c-3.471-0.602-6.64-2.11-7.469-3.317
			s0-2.188,1.056-2.49C26.85,42.174,30.773,41.438,33.783,39.161z"/>
	</g>
</g>
<g id="Cashmere">
</g>
<g id="Titles" display="none">
</g>
<g id="OC_Womens">
</g>
<g id="OC_Mens">
</g>
<g id="STA_Womens">
</g>
<g id="STA_Mens">
</g>
</svg>
