<?xml version="1.0" encoding="utf-8"?>
<!-- Generator: Adobe Illustrator 16.0.0, SVG Export Plug-In . SVG Version: 6.00 Build 0)  -->
<!DOCTYPE svg PUBLIC "-//W3C//DTD SVG 1.1//EN" "http://www.w3.org/Graphics/SVG/1.1/DTD/svg11.dtd">
<svg version="1.1" xmlns="http://www.w3.org/2000/svg" xmlns:xlink="http://www.w3.org/1999/xlink" x="0px" y="0px"  viewBox="0 0 75 75" enable-background="new 0 0 75 75" xml:space="preserve"><g id="Socks">
	<g>
		<path fill="#FFFFFF" d="M37.175,25.702c0,0.002,11.398,0,11.398,0 M48.588,22.062c0,0-0.038,1.048-0.038,5.121
			c0,1.712,1.282,5.432,1.659,6.639c0.378,1.207,1.585,5.355-4.827,7.091c-6.412,1.735-9.537,3.847-11.24,4.676
			c-0.942,0.459-5.356,1.736-8.826,1.132c-3.47-0.603-6.638-2.111-7.468-3.318s0-2.188,1.056-2.489
			c1.056-0.302,5.507-1.207,8.373-3.622c2.867-2.414,7.88-7.592,8.525-8.373c1.246-1.508,1.432-2.188,1.432-3.295v-3.561H48.588z"/>
		<path fill="none" stroke="#97989B" stroke-width="0.5" stroke-miterlimit="10" d="M37.175,25.702c0,0.002,11.398,0,11.398,0
			 M48.588,22.062c0,0-0.038,1.048-0.038,5.121c0,1.712,1.282,5.432,1.659,6.639c0.378,1.207,1.585,5.355-4.827,7.091
			c-6.412,1.735-9.537,3.847-11.24,4.676c-0.942,0.459-5.356,1.736-8.826,1.132c-3.47-0.603-6.638-2.111-7.468-3.318
			s0-2.188,1.056-2.489c1.056-0.302,5.507-1.207,8.373-3.622c2.867-2.414,7.88-7.592,8.525-8.373
			c1.246-1.508,1.432-2.188,1.432-3.295v-3.561H48.588z"/>
		<path fill="none" stroke="#97989B" stroke-width="0.5" stroke-miterlimit="10" d="M37.175,25.702c0,0.002,11.398,0,11.398,0
			 M48.588,22.062c0,0-0.038,1.048-0.038,5.121c0,1.712,1.282,5.432,1.659,6.639c0.378,1.207,1.585,5.355-4.827,7.091
			c-6.412,1.735-9.537,3.847-11.24,4.676c-0.942,0.459-5.356,1.736-8.826,1.132c-3.47-0.603-6.638-2.111-7.468-3.318
			s0-2.188,1.056-2.489c1.056-0.302,5.507-1.207,8.373-3.622c2.867-2.414,7.88-7.592,8.525-8.373
			c1.246-1.508,1.432-2.188,1.432-3.295v-3.561H48.588z"/>
		<path fill="#FFFFFF" d="M44.114,31.759c0,0.003,11.397,0,11.397,0 M55.528,28.118c0,0-0.038,1.049-0.038,5.122
			c0,1.712,1.281,5.432,1.659,6.639c0.377,1.207,1.584,5.355-4.827,7.092c-6.412,1.734-9.537,3.846-11.24,4.676
			c-0.943,0.459-5.357,1.735-8.826,1.131c-3.47-0.603-6.638-2.111-7.468-3.318s0-2.188,1.055-2.488
			c1.057-0.303,5.507-1.207,8.374-3.622c2.867-2.414,7.879-7.593,8.525-8.373c1.246-1.509,1.431-2.189,1.431-3.295v-3.562H55.528z"
			/>
		<path fill="none" stroke="#97989B" stroke-width="0.5" stroke-miterlimit="10" d="M44.114,31.759c0,0.003,11.397,0,11.397,0
			 M55.528,28.118c0,0-0.038,1.049-0.038,5.122c0,1.712,1.281,5.432,1.659,6.639c0.377,1.207,1.584,5.355-4.827,7.092
			c-6.412,1.734-9.537,3.846-11.24,4.676c-0.943,0.459-5.357,1.735-8.826,1.131c-3.47-0.603-6.638-2.111-7.468-3.318
			s0-2.188,1.055-2.488c1.057-0.303,5.507-1.207,8.374-3.622c2.867-2.414,7.879-7.593,8.525-8.373
			c1.246-1.509,1.431-2.189,1.431-3.295v-3.562H55.528z"/>
		<path fill="none" stroke="#97989B" stroke-width="0.5" stroke-miterlimit="10" d="M44.114,31.759c0,0.003,11.397,0,11.397,0
			 M55.528,28.118c0,0-0.038,1.049-0.038,5.122c0,1.712,1.281,5.432,1.659,6.639c0.377,1.207,1.584,5.355-4.827,7.092
			c-6.412,1.734-9.537,3.846-11.24,4.676c-0.943,0.459-5.357,1.735-8.826,1.131c-3.47-0.603-6.638-2.111-7.468-3.318
			s0-2.188,1.055-2.488c1.057-0.303,5.507-1.207,8.374-3.622c2.867-2.414,7.879-7.593,8.525-8.373
			c1.246-1.509,1.431-2.189,1.431-3.295v-3.562H55.528z"/>
	</g>
</g></svg>
