<?xml version="1.0" encoding="utf-8"?>
<!-- Generator: Adobe Illustrator 16.0.0, SVG Export Plug-In . SVG Version: 6.00 Build 0)  -->
<!DOCTYPE svg PUBLIC "-//W3C//DTD SVG 1.1//EN" "http://www.w3.org/Graphics/SVG/1.1/DTD/svg11.dtd">
<svg version="1.1" xmlns="http://www.w3.org/2000/svg" xmlns:xlink="http://www.w3.org/1999/xlink" x="0px" y="0px"  viewBox="0 0 75 75" enable-background="new 0 0 75 75" xml:space="preserve"><g id="Socks">
	<g>
		<path fill="none" stroke="#97989B" stroke-width="0.5" stroke-miterlimit="10" d="M37.018,16.494c0,0.002,11.4,0,11.4,0
			 M37.08,12.23h11.353c0,0-0.039,20.518-0.039,24.592c0,1.711,1.284,5.43,1.661,6.637c0.377,1.209,1.584,5.357-4.829,7.092
			c-6.412,1.736-9.537,3.848-11.24,4.678c-0.94,0.459-5.354,1.734-8.825,1.133c-3.471-0.605-6.639-2.113-7.469-3.32
			s0-2.188,1.058-2.49c1.056-0.301,5.507-1.207,8.373-3.621c2.865-2.414,7.979-7.52,8.523-8.373
			c0.928-1.453,1.283-1.734,1.283-5.508L37.08,12.23z"/>
		<path fill="#FFFFFF" d="M44.269,22.744c0,0.002,11.4,0,11.4,0 M44.331,18.482h11.353c0,0-0.039,20.518-0.039,24.592
			c0,1.711,1.284,5.43,1.661,6.637s1.584,5.357-4.829,7.09c-6.412,1.736-9.537,3.85-11.239,4.678
			c-0.941,0.459-5.355,1.734-8.825,1.133c-3.471-0.605-6.64-2.113-7.469-3.32c-0.83-1.205,0-2.188,1.057-2.49
			c1.056-0.301,5.507-1.207,8.373-3.621s7.979-7.518,8.523-8.373c0.93-1.451,1.283-1.732,1.283-5.506L44.331,18.482z"/>
		<path fill="none" stroke="#97989B" stroke-width="0.5" stroke-miterlimit="10" d="M44.269,22.744c0,0.002,11.4,0,11.4,0
			 M44.331,18.482h11.353c0,0-0.039,20.518-0.039,24.592c0,1.711,1.284,5.43,1.661,6.637s1.584,5.357-4.829,7.09
			c-6.412,1.736-9.537,3.85-11.239,4.678c-0.941,0.459-5.355,1.734-8.825,1.133c-3.471-0.605-6.64-2.113-7.469-3.32
			c-0.83-1.205,0-2.188,1.057-2.49c1.056-0.301,5.507-1.207,8.373-3.621s7.979-7.518,8.523-8.373
			c0.93-1.451,1.283-1.732,1.283-5.506L44.331,18.482z"/>
		<line fill="none" stroke="#97989B" stroke-width="0.5" stroke-miterlimit="10" x1="44.27" y1="22.744" x2="55.668" y2="22.744"/>
	</g>
</g></svg>
