<?xml version="1.0" encoding="utf-8"?>
<!-- Generator: Adobe Illustrator 16.0.0, SVG Export Plug-In . SVG Version: 6.00 Build 0)  -->
<!DOCTYPE svg PUBLIC "-//W3C//DTD SVG 1.1//EN" "http://www.w3.org/Graphics/SVG/1.1/DTD/svg11.dtd">
<svg version="1.1" xmlns="http://www.w3.org/2000/svg" xmlns:xlink="http://www.w3.org/1999/xlink" x="0px" y="0px"  viewBox="0 0 75 75" enable-background="new 0 0 75 75" xml:space="preserve"><g id="Socks">
	<g>
		<path fill="none" stroke="#99979A" stroke-width="0.5" stroke-miterlimit="10" d="M40.706,16.698h11.353
			c0,0-0.039,17.834-0.039,21.906c0,1.711,1.284,5.434,1.661,6.641s1.584,5.354-4.829,7.09c-6.412,1.734-9.537,3.846-11.239,4.676
			c-0.941,0.459-5.355,1.736-8.826,1.133s-6.639-2.111-7.469-3.318c-0.829-1.207,0-2.189,1.058-2.49
			c1.056-0.301,5.507-1.207,8.373-3.621c2.865-2.414,7.979-7.521,8.523-8.373c0.928-1.453,1.283-1.736,1.283-5.506L40.706,16.698z"
			/>
		<path fill="none" stroke="#99979A" stroke-width="0.5" stroke-miterlimit="10" d="M25.059,51.593c0,0,1.753,1.496,4.884,2.994
			c2.614,1.254,2.441,3.637,2.441,3.637"/>
		<path fill="#938B83" d="M40.644,17.134c0,0.002,11.398,0,11.398,0H40.644z"/>
		<path fill="none" stroke="#99979A" stroke-miterlimit="10" d="M40.644,17.134c0,0.002,11.398,0,11.398,0H40.644z"/>
		<path fill="#99979A" d="M42.666,22.647c-0.441,0-0.881-0.328-0.881-0.893c0-0.562,0.443-0.893,0.881-0.893
			c0.436,0,0.881,0.33,0.881,0.893C43.546,22.319,43.105,22.647,42.666,22.647 M42.842,20.976c-0.048-0.059-0.117-0.074-0.177-0.074
			c-0.062,0-0.134,0.02-0.18,0.074c-0.09,0.104-0.125,0.363-0.125,0.779c0,0.414,0.039,0.672,0.125,0.779
			c0.05,0.062,0.118,0.078,0.18,0.078c0.06,0,0.125-0.016,0.177-0.074c0.086-0.107,0.121-0.369,0.121-0.783
			C42.963,21.339,42.932,21.085,42.842,20.976"/>
		<path fill="#99979A" d="M44.879,21.427c-0.143,0-0.204-0.082-0.243-0.195c-0.031-0.094-0.039-0.129-0.082-0.129
			c-0.06,0-0.172,0.176-0.203,0.48c-0.004,0.031-0.008,0.152-0.008,0.25v0.328c0,0.094,0.004,0.186,0.012,0.25
			c0.015,0.1,0.062,0.139,0.121,0.166c0.031,0.012,0.074,0.02,0.104,0.02v0.016h-1.014v-0.016c0.028-0.004,0.063-0.004,0.094-0.016
			c0.056-0.023,0.092-0.047,0.114-0.145c0.021-0.068,0.021-0.229,0.021-0.336v-0.73c0-0.068-0.005-0.225-0.013-0.289
			c-0.011-0.074-0.03-0.105-0.066-0.129c-0.039-0.027-0.091-0.031-0.125-0.035v-0.02h0.735c0.017,0,0.021,0.012,0.021,0.027
			c0,0.035-0.004,0.354-0.004,0.414h0.004c0.047-0.186,0.144-0.324,0.211-0.379c0.062-0.051,0.144-0.098,0.27-0.098
			c0.078,0,0.172,0.023,0.224,0.074c0.043,0.047,0.069,0.119,0.069,0.227C45.121,21.327,45.004,21.427,44.879,21.427"/>
		<path fill="#99979A" d="M46.799,21.255c-0.112,0-0.165-0.082-0.188-0.146c-0.031-0.078-0.043-0.113-0.074-0.113
			c-0.024,0-0.059,0.053-0.059,0.121c0,0.025,0.022,0.072,0.043,0.121c0.03,0.072,0.051,0.158,0.051,0.229
			c0,0.402-0.367,0.596-0.704,0.596c-0.09,0-0.184-0.021-0.255-0.041c-0.078,0.016-0.168,0.059-0.168,0.137
			c0,0.072,0.065,0.115,0.168,0.115c0.109,0,0.473-0.041,0.584-0.041c0.39,0,0.602,0.168,0.602,0.525
			c0,0.477-0.52,0.688-0.994,0.688c-0.441,0-0.728-0.096-0.728-0.363c0-0.188,0.215-0.297,0.454-0.32v-0.008
			c-0.203-0.02-0.36-0.137-0.36-0.354c0-0.234,0.219-0.359,0.356-0.395c-0.004,0,0-0.012,0-0.012
			c-0.188-0.082-0.376-0.266-0.376-0.533c0-0.404,0.372-0.598,0.713-0.598c0.199,0,0.426,0.078,0.548,0.215h0.019
			c0.031-0.137,0.156-0.242,0.317-0.242c0.18,0,0.25,0.086,0.25,0.213C46.999,21.188,46.917,21.255,46.799,21.255 M46.166,22.726
			c-0.122,0-0.364,0.023-0.477,0.035c-0.169,0.02-0.356,0.082-0.356,0.316c0,0.189,0.152,0.328,0.473,0.328
			c0.436,0,0.653-0.164,0.653-0.391C46.458,22.847,46.38,22.726,46.166,22.726 M45.645,21.46c0,0.424,0.048,0.568,0.22,0.568
			c0.168,0,0.218-0.141,0.218-0.568c0-0.426-0.05-0.562-0.218-0.562C45.693,20.897,45.645,21.038,45.645,21.46"/>
		<path fill="#99979A" d="M48.254,22.647c-0.141,0-0.234-0.031-0.29-0.09c-0.039-0.041-0.062-0.107-0.065-0.189H47.89
			c-0.051,0.201-0.234,0.279-0.466,0.279c-0.227,0-0.445-0.133-0.445-0.451c0-0.129,0.034-0.195,0.102-0.27
			c0.097-0.113,0.305-0.145,0.422-0.184c0.318-0.086,0.384-0.209,0.384-0.35c0-0.082,0.004-0.199,0.004-0.256
			c0-0.186-0.043-0.225-0.191-0.225c-0.103,0-0.137,0.031-0.153,0.066c-0.011,0.043-0.003,0.143-0.003,0.246
			c0,0.162-0.075,0.236-0.23,0.236c-0.139,0-0.231-0.07-0.231-0.211c0-0.068,0.027-0.125,0.062-0.172
			c0.098-0.131,0.349-0.213,0.578-0.213c0.436,0,0.705,0.141,0.705,0.492v0.855c0,0.176,0.009,0.254,0.043,0.289
			c0.021,0.025,0.052,0.043,0.099,0.043c0.035,0,0.078-0.012,0.108-0.031v0.02C48.637,22.577,48.469,22.647,48.254,22.647
			 M47.73,21.704c-0.074,0.047-0.109,0.09-0.146,0.164c-0.031,0.07-0.042,0.207-0.042,0.332c0,0.221,0.059,0.307,0.167,0.307
			c0.076,0,0.169-0.125,0.169-0.318l0.004-0.613C47.835,21.642,47.786,21.669,47.73,21.704"/>
		<path fill="#99979A" d="M49.824,22.612v-0.016c0.03,0,0.059-0.008,0.086-0.02c0.062-0.027,0.09-0.07,0.104-0.164
			c0.012-0.064,0.012-0.154,0.012-0.246v-0.855c0-0.133-0.008-0.207-0.051-0.254c-0.031-0.035-0.074-0.055-0.151-0.055
			c-0.095,0-0.274,0.119-0.303,0.438c-0.008,0.1-0.011,0.197-0.011,0.314v0.412c0,0.092,0,0.182,0.011,0.246
			c0.017,0.096,0.043,0.137,0.106,0.164c0.027,0.012,0.055,0.02,0.091,0.02v0.016h-0.983v-0.016
			c0.027-0.004,0.063-0.004,0.091-0.016c0.055-0.023,0.09-0.047,0.116-0.146c0.017-0.061,0.017-0.221,0.017-0.336v-0.723
			c0-0.076,0-0.229-0.008-0.289c-0.013-0.076-0.035-0.107-0.066-0.135c-0.04-0.027-0.09-0.031-0.125-0.031v-0.023h0.731
			c0.02,0,0.022,0.012,0.022,0.027c0,0.035-0.007,0.297-0.007,0.357h0.007c0.043-0.148,0.118-0.242,0.197-0.303
			c0.097-0.074,0.261-0.117,0.367-0.117c0.177,0,0.309,0.035,0.392,0.156c0.062,0.09,0.105,0.225,0.105,0.41v0.67
			c0,0.115,0.004,0.275,0.022,0.336c0.024,0.1,0.06,0.123,0.115,0.146c0.031,0.012,0.062,0.012,0.09,0.016v0.016H49.824z"/>
		<path fill="#99979A" d="M50.882,22.612v-0.016c0.026-0.004,0.063-0.004,0.091-0.016c0.055-0.023,0.09-0.047,0.117-0.145
			c0.016-0.055,0.016-0.197,0.016-0.297v-0.766c0-0.072,0-0.225-0.008-0.287c-0.013-0.076-0.035-0.107-0.07-0.135
			c-0.036-0.027-0.082-0.031-0.123-0.031v-0.023h0.733c0.016,0,0.022,0.008,0.022,0.027c0,0.062-0.004,0.145-0.004,0.248v0.967
			c0,0.1,0.004,0.242,0.021,0.297c0.026,0.098,0.062,0.121,0.112,0.145c0.031,0.012,0.063,0.012,0.09,0.016v0.016H50.882z
			 M51.383,20.589c-0.156,0-0.285-0.125-0.285-0.281c0-0.164,0.133-0.289,0.285-0.289s0.29,0.121,0.29,0.289
			C51.673,20.472,51.54,20.589,51.383,20.589"/>
	</g>
</g></svg>
