<?xml version="1.0" encoding="utf-8"?>
<!-- Generator: Adobe Illustrator 16.0.0, SVG Export Plug-In . SVG Version: 6.00 Build 0)  -->
<!DOCTYPE svg PUBLIC "-//W3C//DTD SVG 1.1//EN" "http://www.w3.org/Graphics/SVG/1.1/DTD/svg11.dtd">
<svg version="1.1" xmlns="http://www.w3.org/2000/svg" xmlns:xlink="http://www.w3.org/1999/xlink" x="0px" y="0px"  viewBox="0 0 75 75" enable-background="new 0 0 75 75" xml:space="preserve"><g id="Socks">
	<g>
		<path fill="#FFFFFF" d="M46.18,29.595c0,0-0.038,1.985-0.038,6.06c0,1.711,1.282,5.43,1.659,6.638
			c0.378,1.206,1.585,5.356-4.827,7.092c-6.412,1.732-9.537,3.847-11.24,4.677c-0.943,0.459-5.356,1.733-8.825,1.132
			c-3.471-0.605-6.639-2.113-7.469-3.321c-0.829-1.207,0-2.186,1.055-2.487c1.057-0.303,5.508-1.207,8.373-3.621
			c2.868-2.414,7.88-7.594,8.526-8.373c1.246-1.511,1.432-2.191,1.432-3.297v-4.498H46.18z"/>
		<path fill="none" stroke="#97989B" stroke-width="0.5" stroke-miterlimit="10" d="M46.18,29.595c0,0-0.038,1.985-0.038,6.06
			c0,1.711,1.282,5.43,1.659,6.638c0.378,1.206,1.585,5.356-4.827,7.092c-6.412,1.732-9.537,3.847-11.24,4.677
			c-0.943,0.459-5.356,1.733-8.825,1.132c-3.471-0.605-6.639-2.113-7.469-3.321c-0.829-1.207,0-2.186,1.055-2.487
			c1.057-0.303,5.508-1.207,8.373-3.621c2.868-2.414,7.88-7.594,8.526-8.373c1.246-1.511,1.432-2.191,1.432-3.297v-4.498H46.18z"/>
		<path fill="#FFFFFF" d="M53.519,35.761c0,0-0.037,1.985-0.037,6.061c0,1.711,1.28,5.43,1.658,6.637
			c0.377,1.207,1.584,5.357-4.827,7.092c-6.412,1.734-9.536,3.848-11.239,4.678c-0.944,0.459-5.358,1.733-8.826,1.132
			c-3.47-0.605-6.639-2.113-7.468-3.32c-0.83-1.208,0-2.187,1.054-2.489c1.058-0.303,5.507-1.207,8.374-3.621
			c2.868-2.413,7.879-7.594,8.525-8.372c1.246-1.511,1.432-2.191,1.432-3.298v-4.498H53.519z"/>
		<path fill="none" stroke="#97989B" stroke-width="0.5" stroke-miterlimit="10" d="M53.519,35.761c0,0-0.037,1.985-0.037,6.061
			c0,1.711,1.28,5.43,1.658,6.637c0.377,1.207,1.584,5.357-4.827,7.092c-6.412,1.734-9.536,3.848-11.239,4.678
			c-0.944,0.459-5.358,1.733-8.826,1.132c-3.47-0.605-6.639-2.113-7.468-3.32c-0.83-1.208,0-2.187,1.054-2.489
			c1.058-0.303,5.507-1.207,8.374-3.621c2.868-2.413,7.879-7.594,8.525-8.372c1.246-1.511,1.432-2.191,1.432-3.298v-4.498H53.519z"
			/>
		<g opacity="0.15">
			<g>
				<defs>
					<rect id="SVGID_11_" x="39.227" y="40.539" width="16.054" height="14.335"/>
				</defs>
				<clipPath id="SVGID_2_">
					<use xlink:href="#SVGID_11_"  overflow="visible"/>
				</clipPath>
				<path clip-path="url(#SVGID_2_)" fill="#99979A" d="M53.283,40.539H42.362c-0.034,0.99-0.322,1.763-1.476,3.145
					c-0.205,0.247-0.821,0.908-1.659,1.775c0.014,3.618,8.592,8.265,12.483,9.416c1.267-0.518,2.1-1.147,2.64-1.803
					c0.723-0.88,0.929-1.814,0.931-2.64c0.001-0.819-0.208-1.519-0.331-1.914c-0.188-0.599-0.604-1.834-0.974-3.135
					c-0.369-1.304-0.693-2.662-0.694-3.564C53.282,41.367,53.282,40.939,53.283,40.539"/>
			</g>
		</g>
		<g opacity="0.15">
			<g>
				<defs>
					<rect id="SVGID_13_" x="31.922" y="34.373" width="14.021" height="11.549"/>
				</defs>
				<clipPath id="SVGID_4_">
					<use xlink:href="#SVGID_13_"  overflow="visible"/>
				</clipPath>
				<path clip-path="url(#SVGID_4_)" fill="#99979A" d="M45.943,34.373H35.024c-0.035,0.989-0.324,1.761-1.477,3.144
					c-0.202,0.244-0.804,0.889-1.625,1.739c0.497,1.276,1.614,3.572,4.003,5.347c0.802,0.595,1.592,1.017,2.292,1.319
					c1.198-1.223,2.116-2.196,2.36-2.493c1.233-1.507,1.38-2.09,1.388-3.169v-4.699h3.977
					C45.942,35.143,45.942,34.747,45.943,34.373"/>
			</g>
		</g>
		<g opacity="0.15">
			<g>
				<defs>
					<rect id="SVGID_15_" x="15.349" y="48.826" width="11.107" height="6.272"/>
				</defs>
				<clipPath id="SVGID_6_">
					<use xlink:href="#SVGID_15_"  overflow="visible"/>
				</clipPath>
				<path clip-path="url(#SVGID_6_)" fill="#99979A" d="M19.405,48.827c-1.306,0.42-2.377,0.658-2.815,0.784
					c-0.348,0.1-0.668,0.278-0.893,0.511c-0.227,0.232-0.348,0.484-0.349,0.798c0.001,0.251,0.126,0.567,0.345,0.886
					c0.369,0.545,1.343,1.16,2.653,1.752c1.314,0.596,2.501,1.022,4.218,1.32c0.53,0.092,1.425,0.221,1.999,0.221
					c0.516,0,1.169-0.307,1.894-0.536c-0.142-0.798-0.604-2.052-2.355-2.891C21.563,50.457,19.93,49.243,19.405,48.827"/>
			</g>
		</g>
		<g opacity="0.15">
			<g>
				<defs>
					<rect id="SVGID_17_" x="22.696" y="54.996" width="11.185" height="6.256"/>
				</defs>
				<clipPath id="SVGID_8_">
					<use xlink:href="#SVGID_17_"  overflow="visible"/>
				</clipPath>
				<path clip-path="url(#SVGID_8_)" fill="#99979A" d="M25.012,55.498c-0.488,0.128-0.867,0.221-1.089,0.282
					c-0.347,0.101-0.667,0.279-0.891,0.511c-0.225,0.232-0.335,0.488-0.336,0.802c0.001,0.25,0.085,0.535,0.303,0.853
					c0.368,0.545,1.35,1.227,2.661,1.818c1.313,0.595,2.939,1.034,4.656,1.333c0.628,0.109,1.292,0.156,1.961,0.156
					c0.536,0,1.075-0.03,1.602-0.081c-0.023-0.601-0.285-2.297-2.44-3.329c-2.539-1.217-4.171-2.432-4.698-2.848L25.012,55.498z"/>
			</g>
		</g>
		<line fill="#FFFFFF" x1="42.128" y1="40.539" x2="53.481" y2="40.539"/>
		<line fill="none" stroke="#97989B" stroke-width="0.5" stroke-miterlimit="10" x1="42.128" y1="40.539" x2="53.481" y2="40.539"/>
		<line fill="#FFFFFF" x1="34.782" y1="34.373" x2="46.134" y2="34.373"/>
		<line fill="none" stroke="#97989B" stroke-width="0.5" stroke-miterlimit="10" x1="34.782" y1="34.373" x2="46.134" y2="34.373"/>
	</g>
</g></svg>
