<?xml version="1.0" encoding="utf-8"?>
<!-- Generator: Adobe Illustrator 16.0.0, SVG Export Plug-In . SVG Version: 6.00 Build 0)  -->
<!DOCTYPE svg PUBLIC "-//W3C//DTD SVG 1.1//EN" "http://www.w3.org/Graphics/SVG/1.1/DTD/svg11.dtd">
<svg version="1.1" xmlns="http://www.w3.org/2000/svg" xmlns:xlink="http://www.w3.org/1999/xlink" x="0px" y="0px"  viewBox="0 0 75 75" enable-background="new 0 0 75 75" xml:space="preserve"><g id="Socks">
	<g>
		<path fill="#FFFFFF" d="M42.928,8.865c0,0-0.038,18.05-0.038,22.122c0,1.712,1.283,5.432,1.66,6.64
			c0.377,1.206,1.584,5.354-4.828,7.091c-6.412,1.733-9.537,3.846-11.24,4.676c-0.943,0.459-5.357,1.735-8.825,1.132
			c-3.471-0.604-6.639-2.111-7.469-3.319c-0.829-1.207,0-2.188,1.055-2.488c1.058-0.302,5.507-1.208,8.373-3.622
			c2.868-2.414,7.88-7.592,8.526-8.373c1.246-1.509,1.432-2.189,1.432-3.296V8.865H42.928z"/>
		<path fill="#E2E2E2" stroke="#97989B" stroke-width="0.5" stroke-miterlimit="10" d="M42.928,8.865c0,0-0.038,18.05-0.038,22.122
			c0,1.712,1.283,5.432,1.66,6.64c0.377,1.206,1.584,5.354-4.828,7.091c-6.412,1.733-9.537,3.846-11.24,4.676
			c-0.943,0.459-5.357,1.735-8.825,1.132c-3.471-0.604-6.639-2.111-7.469-3.319c-0.829-1.207,0-2.188,1.055-2.488
			c1.058-0.302,5.507-1.208,8.373-3.622c2.868-2.414,7.88-7.592,8.526-8.373c1.246-1.509,1.432-2.189,1.432-3.296V8.865H42.928z"/>
		<path fill="#FFFFFF" d="M50.266,15.032c0,0-0.036,18.049-0.036,22.123c0,1.711,1.281,5.431,1.658,6.638s1.584,5.355-4.827,7.092
			c-6.412,1.734-9.536,3.846-11.239,4.676c-0.944,0.459-5.358,1.735-8.827,1.132s-6.638-2.111-7.467-3.318
			c-0.83-1.208,0-2.188,1.054-2.489c1.058-0.303,5.507-1.208,8.374-3.622c2.868-2.414,7.879-7.593,8.525-8.373
			c1.246-1.509,1.432-2.189,1.432-3.296V15.032H50.266z"/>
		<path fill="none" stroke="#97989B" stroke-width="0.5" stroke-miterlimit="10" d="M50.266,15.032c0,0-0.036,18.049-0.036,22.123
			c0,1.711,1.281,5.431,1.658,6.638s1.584,5.355-4.827,7.092c-6.412,1.734-9.536,3.846-11.239,4.676
			c-0.944,0.459-5.358,1.735-8.827,1.132s-6.638-2.111-7.467-3.318c-0.83-1.208,0-2.188,1.054-2.489
			c1.058-0.303,5.507-1.208,8.374-3.622c2.868-2.414,7.879-7.593,8.525-8.373c1.246-1.509,1.432-2.189,1.432-3.296V15.032H50.266z"
			/>
		<g opacity="0.15">
			<g>
				<defs>
					<rect id="SVGID_19_" x="35.975" y="22.101" width="16.054" height="28.107"/>
				</defs>
				<clipPath id="SVGID_2_">
					<use xlink:href="#SVGID_19_"  overflow="visible"/>
				</clipPath>
				<path clip-path="url(#SVGID_2_)" fill="#99979A" d="M50.03,35.873c-0.001,0.4-0.001,0.828-0.001,1.28
					c0.001,0.902,0.325,2.261,0.694,3.564c0.37,1.301,0.786,2.536,0.974,3.135c0.123,0.396,0.332,1.095,0.331,1.914
					c-0.002,0.825-0.208,1.76-0.931,2.64c-0.54,0.655-1.373,1.285-2.641,1.803c-3.891-1.151-12.469-5.798-12.482-9.416
					c0.838-0.867,1.454-1.528,1.659-1.775c1.152-1.382,1.441-2.154,1.476-3.145l-0.021-13.771h11.066L50.03,35.873"/>
			</g>
		</g>
		<g opacity="0.15">
			<g>
				<defs>
					<path id="SVGID_21_" d="M50.03,35.873L50.03,35.873z"/>
				</defs>
				<clipPath id="SVGID_4_">
					<use xlink:href="#SVGID_21_"  overflow="visible"/>
				</clipPath>
			</g>
		</g>
		<g opacity="0.15">
			<g>
				<defs>
					<rect id="SVGID_23_" x="28.67" y="15.923" width="10.118" height="25.333"/>
				</defs>
				<clipPath id="SVGID_6_">
					<use xlink:href="#SVGID_23_"  overflow="visible"/>
				</clipPath>
				<path clip-path="url(#SVGID_6_)" fill="#99979A" d="M38.714,30.895v4.698c-0.01,1.079-0.154,1.662-1.39,3.169
					c-0.244,0.297-1.162,1.272-2.358,2.493c-0.7-0.301-1.49-0.723-2.292-1.318c-2.391-1.773-3.509-4.069-4.004-5.348
					c0.82-0.849,1.424-1.495,1.625-1.739c1.151-1.383,1.44-2.152,1.477-3.143l-0.106-13.74l7.122-0.044L38.714,30.895z"/>
			</g>
		</g>
		<g opacity="0.15">
			<g>
				<defs>
					<rect id="SVGID_25_" x="12.097" y="44.16" width="11.107" height="6.272"/>
				</defs>
				<clipPath id="SVGID_8_">
					<use xlink:href="#SVGID_25_"  overflow="visible"/>
				</clipPath>
				<path clip-path="url(#SVGID_8_)" fill="#99979A" d="M16.152,44.161c-1.306,0.42-2.378,0.658-2.815,0.784
					c-0.348,0.1-0.668,0.278-0.893,0.511c-0.227,0.232-0.348,0.484-0.349,0.798c0.001,0.251,0.126,0.567,0.346,0.886
					c0.367,0.545,1.342,1.16,2.652,1.752c1.314,0.596,2.501,1.022,4.218,1.32c0.53,0.092,1.424,0.221,1.999,0.221
					c0.516,0,1.169-0.307,1.894-0.536c-0.142-0.798-0.604-2.052-2.355-2.891C18.311,45.791,16.678,44.577,16.152,44.161"/>
			</g>
		</g>
		<g opacity="0.15">
			<g>
				<defs>
					<rect id="SVGID_27_" x="19.444" y="50.33" width="11.184" height="6.256"/>
				</defs>
				<clipPath id="SVGID_10_">
					<use xlink:href="#SVGID_27_"  overflow="visible"/>
				</clipPath>
				<path clip-path="url(#SVGID_10_)" fill="#99979A" d="M21.759,50.832c-0.487,0.128-0.866,0.221-1.088,0.282
					c-0.347,0.101-0.667,0.279-0.891,0.511c-0.225,0.232-0.336,0.488-0.337,0.802c0.001,0.25,0.085,0.535,0.304,0.853
					c0.368,0.545,1.35,1.227,2.661,1.818c1.313,0.595,2.939,1.034,4.656,1.333c0.628,0.109,1.292,0.156,1.961,0.156
					c0.536,0,1.075-0.03,1.602-0.081c-0.023-0.601-0.286-2.297-2.44-3.329c-2.539-1.217-4.171-2.432-4.699-2.848L21.759,50.832z"/>
			</g>
		</g>
		<line fill="#FFFFFF" x1="38.876" y1="21.986" x2="50.229" y2="21.986"/>
		<line fill="none" stroke="#97989B" stroke-width="0.5" stroke-miterlimit="10" x1="38.876" y1="21.986" x2="50.229" y2="21.986"/>
		<line fill="#FFFFFF" x1="31.528" y1="15.82" x2="38.788" y2="15.82"/>
		<line fill="none" stroke="#97989B" stroke-width="0.5" stroke-miterlimit="10" x1="31.528" y1="15.82" x2="38.788" y2="15.82"/>
	</g>
</g></svg>
