<?xml version="1.0" encoding="utf-8"?>
<!-- Generator: Adobe Illustrator 16.0.0, SVG Export Plug-In . SVG Version: 6.00 Build 0)  -->
<!DOCTYPE svg PUBLIC "-//W3C//DTD SVG 1.1//EN" "http://www.w3.org/Graphics/SVG/1.1/DTD/svg11.dtd">
<svg version="1.1" xmlns="http://www.w3.org/2000/svg" xmlns:xlink="http://www.w3.org/1999/xlink" x="0px" y="0px"  viewBox="0 0 75 75" enable-background="new 0 0 75 75" xml:space="preserve"><g id="Socks">
	<g>
		<path fill="grey" stroke="#97989B" stroke-width="0.5" stroke-miterlimit="10" d="M34.114,20.384c0,0.002,11.4,0,11.4,0
			 M34.176,16.12h11.353c0,0-0.039,20.519-0.039,24.593c0,1.711,1.284,5.431,1.661,6.638s1.584,5.356-4.829,7.091
			c-6.412,1.735-9.537,3.848-11.24,4.677c-0.94,0.459-5.354,1.735-8.825,1.133c-3.471-0.604-6.639-2.113-7.469-3.32
			c-0.83-1.206,0-2.188,1.058-2.489c1.056-0.302,5.507-1.207,8.373-3.621c2.865-2.414,7.979-7.52,8.523-8.373
			c0.928-1.453,1.283-1.734,1.283-5.507L34.176,16.12z"/>
		<path fill="#FFFFFF" d="M41.365,26.635c0,0.003,11.4,0,11.4,0 M41.427,22.372H52.78c0,0-0.039,20.519-0.039,24.592
			c0,1.711,1.284,5.431,1.661,6.638c0.377,1.208,1.584,5.356-4.829,7.091c-6.412,1.735-9.537,3.848-11.239,4.677
			c-0.941,0.459-5.355,1.735-8.825,1.133c-3.471-0.604-6.64-2.112-7.469-3.319c-0.83-1.207,0-2.188,1.057-2.49
			c1.056-0.301,5.507-1.207,8.373-3.621s7.979-7.52,8.523-8.373c0.93-1.453,1.283-1.734,1.283-5.507L41.427,22.372z"/>
		<path fill="none" stroke="#97989B" stroke-width="0.5" stroke-miterlimit="10" d="M41.365,26.635c0,0.003,11.4,0,11.4,0
			 M41.427,22.372H52.78c0,0-0.039,20.519-0.039,24.592c0,1.711,1.284,5.431,1.661,6.638c0.377,1.208,1.584,5.356-4.829,7.091
			c-6.412,1.735-9.537,3.848-11.239,4.677c-0.941,0.459-5.355,1.735-8.825,1.133c-3.471-0.604-6.64-2.112-7.469-3.319
			c-0.83-1.207,0-2.188,1.057-2.49c1.056-0.301,5.507-1.207,8.373-3.621s7.979-7.52,8.523-8.373c0.93-1.453,1.283-1.734,1.283-5.507
			L41.427,22.372z"/>
		<line fill="none" stroke="#97989B" stroke-width="0.5" stroke-miterlimit="10" x1="41.366" y1="26.635" x2="52.764" y2="26.635"/>
	</g>
</g></svg>
