<?xml version="1.0" encoding="utf-8"?>
<!-- Generator: Adobe Illustrator 16.0.0, SVG Export Plug-In . SVG Version: 6.00 Build 0)  -->
<!DOCTYPE svg PUBLIC "-//W3C//DTD SVG 1.1//EN" "http://www.w3.org/Graphics/SVG/1.1/DTD/svg11.dtd">
<svg version="1.1" xmlns="http://www.w3.org/2000/svg" xmlns:xlink="http://www.w3.org/1999/xlink" x="0px" y="0px"  viewBox="0 0 75 75" enable-background="new 0 0 75 75" xml:space="preserve">
<g id="Socks">
	<g>
		<path fill="none" stroke="#04080F" stroke-width="0.5" stroke-miterlimit="10" d="M37.965,14.235h11.353
			c0,0-0.038,17.834-0.038,21.908c0,1.71,1.283,5.432,1.66,6.639c0.377,1.207,1.584,5.355-4.828,7.091
			c-6.412,1.734-9.537,3.847-11.24,4.677c-0.942,0.459-5.356,1.735-8.826,1.131c-3.47-0.603-6.638-2.112-7.468-3.319
			s0-2.188,1.056-2.488c1.056-0.303,5.507-1.207,8.373-3.621c2.867-2.414,7.98-7.521,8.524-8.373
			c0.928-1.454,1.283-1.735,1.283-5.507L37.965,14.235z"/>
		<path fill="none" stroke="#04080F" stroke-width="0.5" stroke-miterlimit="10" d="M22.318,49.129c0,0,1.753,1.498,4.884,2.997
			c2.614,1.252,2.442,3.635,2.442,3.635"/>
		<path fill="none" stroke="#04080F" stroke-width="0.5" stroke-miterlimit="10" d="M45.2,50.04c0,0-2.112-8.449,4.224-11.893"/>
		<g opacity="0.15">
			<g>
				<defs>
					<rect id="SVGID_29_" x="37.903" y="14.235" width="11.291" height="5.514"/>
				</defs>
				<clipPath id="SVGID_2_">
					<use xlink:href="#SVGID_29_"  overflow="visible"/>
				</clipPath>
				<polygon clip-path="url(#SVGID_2_)" fill="#938B83" points="37.903,19.749 49.195,19.749 49.195,14.234 37.965,14.234 				"/>
			</g>
		</g>
		<path fill="#FFFFFF" d="M43.445,19.159h11.353c0,0-0.038,17.835-0.038,21.909c0,1.71,1.283,5.431,1.66,6.638
			c0.377,1.207,1.584,5.356-4.828,7.091c-6.412,1.735-9.537,3.848-11.24,4.677c-0.942,0.46-5.356,1.735-8.826,1.132
			c-3.47-0.604-6.638-2.112-7.468-3.319s0-2.188,1.056-2.489c1.056-0.302,5.507-1.207,8.373-3.621
			c2.867-2.414,7.98-7.52,8.524-8.373c0.929-1.453,1.283-1.734,1.283-5.507L43.445,19.159z"/>
		<path fill="none" stroke="#04080F" stroke-width="0.5" stroke-miterlimit="10" d="M43.445,19.159h11.353
			c0,0-0.038,17.835-0.038,21.909c0,1.71,1.283,5.431,1.66,6.638c0.377,1.207,1.584,5.356-4.828,7.091
			c-6.412,1.735-9.537,3.848-11.24,4.677c-0.942,0.46-5.356,1.735-8.826,1.132c-3.47-0.604-6.638-2.112-7.468-3.319
			s0-2.188,1.056-2.489c1.056-0.302,5.507-1.207,8.373-3.621c2.867-2.414,7.98-7.52,8.524-8.373
			c0.929-1.453,1.283-1.734,1.283-5.507L43.445,19.159z"/>
		<path fill="none" stroke="#04080F" stroke-width="0.5" stroke-miterlimit="10" d="M27.799,54.054c0,0,1.753,1.498,4.883,2.997
			c2.615,1.252,2.443,3.634,2.443,3.634"/>
		<path fill="none" stroke="#04080F" stroke-width="0.5" stroke-miterlimit="10" d="M50.68,54.965c0,0-2.112-8.45,4.223-11.893"/>
		<g opacity="0.15">
			<g>
				<defs>
					<rect id="SVGID_31_" x="43.383" y="19.159" width="11.292" height="5.514"/>
				</defs>
				<clipPath id="SVGID_4_">
					<use xlink:href="#SVGID_31_"  overflow="visible"/>
				</clipPath>
				<polygon clip-path="url(#SVGID_4_)" fill="#938B83" points="43.384,24.673 54.674,24.673 54.674,19.159 43.444,19.159 				"/>
			</g>
		</g>
	</g>
</g>
</svg>
