<?xml version="1.0" encoding="utf-8"?>
<!-- Generator: Adobe Illustrator 16.0.0, SVG Export Plug-In . SVG Version: 6.00 Build 0)  -->
<!DOCTYPE svg PUBLIC "-//W3C//DTD SVG 1.1//EN" "http://www.w3.org/Graphics/SVG/1.1/DTD/svg11.dtd">
<svg version="1.1" xmlns="http://www.w3.org/2000/svg" xmlns:xlink="http://www.w3.org/1999/xlink" x="0px" y="0px"  viewBox="0 0 75 75" enable-background="new 0 0 75 75" xml:space="preserve">
<g id="Denim">
	<g>
		<path fill="#99979A" d="M30.339,18.462l-0.603-7.038c-0.02-0.234,0.014-0.91,0.217-1.193c0.14-0.195,0.267-0.39,0.393-0.58
			c0.515-0.785,1.002-1.525,2.081-2.033c1.493-0.702,5.022-0.629,5.17-0.624l-0.013,0.5c-0.02,0.001-1.238-0.026-2.521,0.083
			c-0.902,0.1-1.513,0.365-1.868,0.816c-0.544,0.688-0.41,1.756-0.291,2.697l0.034,0.283c0.183,1.537,3.178,4.841,3.208,4.874
			l0.263,0.288L30.339,18.462z M32.904,7.963C32.81,7.996,32.721,8.031,32.64,8.07c-0.952,0.447-1.38,1.1-1.876,1.854
			c-0.129,0.196-0.261,0.396-0.403,0.597c-0.083,0.114-0.147,0.619-0.126,0.859l0.549,6.415l4.736-1.503
			c-0.758-0.866-2.908-3.436-3.077-4.861l-0.035-0.281c-0.13-1.039-0.278-2.215,0.396-3.069C32.835,8.041,32.868,8.001,32.904,7.963
			"/>
		<path fill="#99979A" d="M37.029,65.18c-5.776,0-16.045-0.654-16.153-0.662l-0.236-0.016l0.439-36.141l-1.547-10.953l0.106-0.088
			c0,0,1.384-1.164,2.33-1.965c0.96-0.814,7.625-4.041,7.907-4.178l0.219,0.449c-2.381,1.152-7.073,3.492-7.804,4.109
			c-0.79,0.67-1.884,1.59-2.225,1.879l1.51,10.713l-0.431,35.705c1.662,0.104,11.631,0.717,16.713,0.641l0.006,0.5
			C37.599,65.178,37.319,65.18,37.029,65.18"/>
		<path fill="#99979A" d="M13.613,67.688c-0.061,0-0.122-0.014-0.175-0.047c-0.09-0.053-0.152-0.143-0.169-0.246
			c-0.296-1.756-0.545-3.062-0.621-3.252c-0.08-0.199-0.25-0.943-0.5-2.055c-0.159-0.709-0.323-1.443-0.377-1.596
			c-0.242-0.684-1.564-14.781-1.344-16.885c0.002-0.016,0.157-1.312,0.387-2.545c0.134-0.727,3.054-11.074,4.896-15.346
			c0.28-0.75,2.812-7.457,3.929-8.396l0.321,0.383c-0.858,0.723-3.024,6.164-3.786,8.199c-1.835,4.258-4.734,14.531-4.868,15.252
			c-0.226,1.217-0.38,2.496-0.382,2.51c-0.215,2.057,1.147,16.158,1.318,16.662c0.061,0.17,0.189,0.736,0.395,1.65
			c0.18,0.805,0.404,1.803,0.476,1.98c0.125,0.311,0.456,2.211,0.621,3.182c0.892-0.293,3.873-1.145,7.434-0.779v-2.059h0.5v2.225
			c0,0.102-0.043,0.195-0.116,0.264c-0.075,0.064-0.177,0.102-0.276,0.086c-3.806-0.432-6.952,0.586-7.544,0.795
			C13.692,67.682,13.652,67.688,13.613,67.688 M13.564,67.197L13.564,67.197L13.564,67.197"/>
		<path fill="#99979A" d="M12.831,63.736l-0.188-0.463c0.086-0.035,2.171-0.875,5.402-0.875h2.925v0.5h-2.925
			C14.919,62.898,12.853,63.727,12.831,63.736"/>
		<path fill="#99979A" d="M16.498,68.012c-1.712,0-2.94-0.314-3.005-0.33l0.127-0.484c0.02,0.004,1.908,0.486,4.212,0.246
			c2.274-0.236,3.425-1.072,3.436-1.078l0.299,0.4c-0.05,0.035-1.258,0.924-3.682,1.176C17.398,67.99,16.934,68.012,16.498,68.012"
			/>
		<path fill="#99979A" d="M20.233,19.606l-0.33-0.375c0.055-0.049,1.368-1.202,2.299-1.874c0.73-0.525,7.55-4.027,7.84-4.177
			l0.229,0.446c-2.445,1.252-7.217,3.732-7.776,4.137C21.584,18.42,20.247,19.594,20.233,19.606"/>
		<path fill="#99979A" d="M32.838,11.597l-0.074-0.16l-0.3-0.142c0.075-0.158,0.187-0.398,5.393-0.49l0.01,0.5
			C35.62,11.344,33.125,11.464,32.838,11.597"/>
		<path fill="#99979A" d="M30.408,61.75h-8.011c-0.176,0-1.715-0.029-1.715-0.98h0.5c0,0.357,0.834,0.48,1.215,0.48h8.011
			c0.754,0,1.361-0.232,1.804-0.693c0.916-0.955,0.861-2.574,0.86-2.59V46.555H21.11v-0.5h12.462v11.902
			c0.003,0.064,0.062,1.84-0.999,2.945C32.032,61.467,31.305,61.75,30.408,61.75"/>
		<rect x="21.181" y="48.559" fill="#99979A" width="12.142" height="0.5"/>
		<path fill="#99979A" d="M35.843,64.926l-0.392-41.053c0.011-0.16,0.275-3.486,2.283-4.67c1.866-1.098,2.415-1.541,2.42-1.545
			c0.052-0.037,0.09-0.076,0.094-0.098c-0.271-0.382-0.588-0.716-0.593-0.719l0.363-0.346c0.013,0.015,0.342,0.361,0.615,0.734
			c0.122,0.168,0.125,0.322,0.104,0.424c-0.047,0.244-0.252,0.383-0.293,0.41c0.003,0-0.545,0.443-2.457,1.57
			c-1.781,1.049-2.036,4.225-2.038,4.256l0.393,41.031L35.843,64.926z"/>
		<polygon fill="#99979A" points="35.95,23.881 35.45,23.863 35.724,16.068 38.29,16.956 37.837,19.576 37.344,19.49 37.724,17.29 
			36.199,16.762 		"/>
		<path fill="#99979A" d="M44.66,18.462l-5.477-1.737c-0.131-0.043-0.23-0.146-0.266-0.277s-0.004-0.268,0.085-0.369
			c1.396-1.583,2.934-3.65,3.06-4.705l0.034-0.284c0.118-0.942,0.252-2.009-0.292-2.698c-0.355-0.449-0.966-0.715-1.867-0.814
			c-1.282-0.109-2.5-0.082-2.521-0.083l-0.012-0.5c0.149-0.005,3.675-0.079,5.169,0.624c1.079,0.508,1.565,1.248,2.08,2.031
			c0.123,0.188,0.248,0.377,0.385,0.568c0.168,0.236,0.275,0.639,0.249,0.936L44.66,18.462z M39.48,16.293l4.736,1.503l0.572-6.687
			c0.016-0.178-0.06-0.465-0.157-0.603c-0.141-0.194-0.27-0.392-0.396-0.584C43.74,9.169,43.312,8.518,42.36,8.07
			c-0.081-0.039-0.17-0.074-0.264-0.107c0.035,0.038,0.067,0.077,0.1,0.118c0.674,0.853,0.527,2.03,0.396,3.069l-0.034,0.281
			C42.395,12.811,40.428,15.208,39.48,16.293"/>
		<path fill="#99979A" d="M37.971,65.18c-0.291,0-0.569-0.002-0.835-0.006l0.006-0.5c5.08,0.074,15.052-0.535,16.714-0.641
			l-0.434-35.668l1.512-10.75c-0.341-0.289-1.435-1.209-2.225-1.879c-0.73-0.617-5.423-2.957-7.804-4.109l0.219-0.449
			c0.282,0.137,6.947,3.363,7.907,4.178c0.946,0.801,2.331,1.965,2.331,1.965l0.105,0.088l-1.549,10.99l0.442,36.104l-0.236,0.016
			C54.016,64.525,43.747,65.18,37.971,65.18"/>
		<path fill="#99979A" d="M61.388,67.688c-0.041,0-0.08-0.006-0.119-0.02c-0.59-0.209-3.736-1.225-7.543-0.793
			c-0.105,0.016-0.201-0.021-0.275-0.086c-0.074-0.068-0.117-0.162-0.117-0.262v-2.227h0.5v2.061
			c3.568-0.369,6.543,0.484,7.434,0.777c0.166-0.971,0.496-2.871,0.621-3.182c0.072-0.178,0.295-1.172,0.475-1.973
			c0.207-0.918,0.336-1.488,0.396-1.658c0.17-0.504,1.533-14.605,1.318-16.664c-0.002-0.01-0.156-1.291-0.383-2.508
			c-0.135-0.723-3.035-11.002-4.863-15.24c-0.766-2.047-2.932-7.488-3.791-8.211l0.322-0.383c1.115,0.939,3.648,7.645,3.934,8.406
			c1.834,4.254,4.756,14.607,4.891,15.336c0.229,1.232,0.385,2.529,0.387,2.543c0.221,2.104-1.102,16.201-1.344,16.887
			c-0.053,0.154-0.219,0.889-0.379,1.602c-0.25,1.109-0.418,1.85-0.498,2.049c-0.076,0.189-0.326,1.496-0.621,3.252
			c-0.018,0.104-0.08,0.193-0.17,0.246C61.509,67.672,61.448,67.688,61.388,67.688"/>
		<path fill="#99979A" d="M62.169,63.736c-0.021-0.01-2.088-0.838-5.213-0.838H54.03v-0.5h2.926c3.23,0,5.316,0.84,5.402,0.875
			L62.169,63.736z"/>
		<path fill="#99979A" d="M58.503,68.012c-0.436,0-0.9-0.021-1.387-0.07c-2.424-0.252-3.633-1.141-3.684-1.176l0.299-0.4
			c0.013,0.006,1.162,0.842,3.438,1.078c2.307,0.242,4.193-0.242,4.211-0.246l0.127,0.484
			C61.442,67.697,60.214,68.012,58.503,68.012"/>
		<path fill="#99979A" d="M54.767,19.606c-0.014-0.013-1.351-1.187-2.262-1.843c-0.559-0.404-5.331-2.885-7.775-4.137l0.228-0.446
			c0.29,0.149,7.111,3.651,7.841,4.177c0.93,0.672,2.244,1.825,2.299,1.874L54.767,19.606z"/>
		<path fill="#99979A" d="M42.163,11.597c-0.287-0.133-2.782-0.253-5.028-0.292l0.008-0.5c5.206,0.092,5.319,0.332,5.394,0.49
			l-0.452,0.214l0.226-0.106L42.163,11.597z"/>
		<path fill="#99979A" d="M52.604,61.75h-8.012c-0.896,0-1.624-0.283-2.164-0.848c-1.062-1.105-1.002-2.881-0.999-2.957V46.055
			H53.89v0.5H41.929v11.402c-0.001,0.025-0.053,1.65,0.861,2.602c0.442,0.459,1.049,0.691,1.802,0.691h8.012
			c0.38,0,1.214-0.123,1.214-0.48h0.5C54.317,61.721,52.778,61.75,52.604,61.75"/>
		<rect x="41.679" y="48.559" fill="#99979A" width="12.141" height="0.5"/>
		<path fill="#99979A" d="M37.318,58.408c-0.479,0-0.868-0.389-0.868-0.869c0-0.477,0.389-0.867,0.868-0.867
			c0.479,0,0.868,0.391,0.868,0.867C38.187,58.02,37.797,58.408,37.318,58.408 M37.318,57.172c-0.203,0-0.368,0.164-0.368,0.367
			s0.165,0.369,0.368,0.369s0.368-0.166,0.368-0.369S37.521,57.172,37.318,57.172"/>
		<path fill="#99979A" d="M37.318,48.52c-0.479,0-0.868-0.389-0.868-0.869c0-0.477,0.389-0.867,0.868-0.867
			c0.479,0,0.868,0.391,0.868,0.867C38.187,48.131,37.797,48.52,37.318,48.52 M37.318,47.283c-0.203,0-0.368,0.166-0.368,0.367
			c0,0.203,0.165,0.369,0.368,0.369s0.368-0.166,0.368-0.369C37.687,47.449,37.521,47.283,37.318,47.283"/>
		<path fill="#99979A" d="M37.318,38.416c-0.11,0-0.221-0.021-0.327-0.064c-0.443-0.182-0.657-0.688-0.477-1.131
			c0.087-0.215,0.253-0.383,0.467-0.473s0.45-0.092,0.664-0.004c0.215,0.086,0.382,0.252,0.473,0.465
			c0.09,0.215,0.092,0.449,0.004,0.664c-0.087,0.217-0.253,0.385-0.467,0.475C37.547,38.395,37.434,38.416,37.318,38.416
			 M37.318,37.18c-0.048,0-0.097,0.01-0.143,0.029c-0.091,0.037-0.161,0.109-0.198,0.199c-0.076,0.189,0.015,0.404,0.203,0.48
			c0.091,0.037,0.19,0.037,0.28-0.002c0.091-0.037,0.161-0.109,0.198-0.201c0.037-0.09,0.036-0.191-0.002-0.281
			s-0.109-0.16-0.2-0.197C37.412,37.189,37.365,37.18,37.318,37.18"/>
		<path fill="#99979A" d="M37.318,28.721c-0.479,0-0.868-0.389-0.868-0.867s0.389-0.868,0.868-0.868c0.479,0,0.868,0.39,0.868,0.868
			S37.797,28.721,37.318,28.721 M37.318,27.485c-0.203,0-0.368,0.165-0.368,0.368s0.165,0.367,0.368,0.367s0.368-0.164,0.368-0.367
			S37.521,27.485,37.318,27.485"/>
		<rect x="39.05" y="18.541" fill="#99979A" width="0.5" height="46.389"/>
		<path fill="#99979A" d="M38.085,19.53l-0.447-0.224c0.231-0.467,1.277-3.037,1.288-3.062l0.463,0.188
			C39.346,16.538,38.325,19.047,38.085,19.53"/>
		<path fill="#99979A" d="M37.106,63.559c-5.775,0-16.045-0.652-16.153-0.66l0.032-0.498c0.112,0.008,11.426,0.73,16.95,0.654
			l0.007,0.5C37.676,63.559,37.396,63.559,37.106,63.559"/>
		<path fill="#99979A" d="M37.971,63.559c-0.291,0-0.569,0-0.835-0.004l0.006-0.5c5.529,0.092,16.838-0.646,16.951-0.654
			l0.032,0.498C54.016,62.906,43.747,63.559,37.971,63.559"/>
	</g>
</g>
</svg>
