<?xml version="1.0" encoding="utf-8"?>
<!-- Generator: Adobe Illustrator 16.0.0, SVG Export Plug-In . SVG Version: 6.00 Build 0)  -->
<!DOCTYPE svg PUBLIC "-//W3C//DTD SVG 1.1//EN" "http://www.w3.org/Graphics/SVG/1.1/DTD/svg11.dtd">
<svg version="1.1" xmlns="http://www.w3.org/2000/svg" xmlns:xlink="http://www.w3.org/1999/xlink" x="0px" y="0px"  viewBox="0 0 75 75" enable-background="new 0 0 75 75" xml:space="preserve">
<g id="Socks">
	<g>
		<path fill="none" stroke="#04080F" stroke-width="0.5" stroke-miterlimit="10" d="M48.947,14.472c0,0-0.037,17.517-0.037,21.518
			c0,1.68,1.261,5.335,1.63,6.52c0.37,1.187,1.556,5.261-4.741,6.964c-6.298,1.705-9.367,3.779-11.039,4.595
			c-0.926,0.451-5.261,1.704-8.669,1.111c-3.409-0.593-6.521-2.074-7.335-3.26c-0.815-1.186,0-2.148,1.037-2.446
			c1.037-0.296,5.408-1.185,8.224-3.556c2.816-2.371,7.837-7.386,8.372-8.224c0.912-1.427,1.26-1.704,1.26-5.409l0.148-17.812
			H48.947z"/>
		<path fill="none" stroke="#04080F" stroke-width="0.5" stroke-miterlimit="10" d="M22.428,48.743c0,0,1.723,1.472,4.797,2.943
			c2.567,1.23,2.398,3.57,2.398,3.57"/>
		<path fill="none" stroke="#04080F" stroke-width="0.5" stroke-miterlimit="10" d="M37.736,15.9c0,0.002,11.196,0,11.196,0H37.736z
			"/>
		<path fill="none" stroke="#04080F" stroke-width="2" stroke-miterlimit="10" d="M37.736,15.553c0,0.002,11.196,0,11.196,0H37.736z
			"/>
		<path fill="#FFFFFF" d="M54.649,19.665c0,0-0.037,17.518-0.037,21.519c0,1.68,1.26,5.335,1.631,6.52
			c0.369,1.186,1.555,5.261-4.742,6.965c-6.298,1.704-9.367,3.778-11.039,4.594c-0.926,0.451-5.261,1.704-8.669,1.111
			c-3.409-0.593-6.521-2.074-7.335-3.261c-0.816-1.185,0-2.147,1.037-2.444s5.408-1.186,8.224-3.557
			c2.816-2.371,7.837-7.386,8.372-8.224c0.912-1.427,1.26-1.704,1.26-5.409l0.148-17.813H54.649z"/>
		<path fill="none" stroke="#04080F" stroke-width="0.5" stroke-miterlimit="10" d="M54.649,19.665c0,0-0.037,17.518-0.037,21.519
			c0,1.68,1.26,5.335,1.631,6.52c0.369,1.186,1.555,5.261-4.742,6.965c-6.298,1.704-9.367,3.778-11.039,4.594
			c-0.926,0.451-5.261,1.704-8.669,1.111c-3.409-0.593-6.521-2.074-7.335-3.261c-0.816-1.185,0-2.147,1.037-2.444
			s5.408-1.186,8.224-3.557c2.816-2.371,7.837-7.386,8.372-8.224c0.912-1.427,1.26-1.704,1.26-5.409l0.148-17.813H54.649z"/>
		<path fill="none" stroke="#04080F" stroke-width="0.5" stroke-miterlimit="10" d="M28.13,53.938c0,0,1.723,1.472,4.797,2.943
			c2.567,1.23,2.398,3.57,2.398,3.57"/>
		<path fill="none" stroke="#04080F" stroke-width="2" stroke-miterlimit="10" d="M43.438,20.726c0,0.002,11.196,0,11.196,0H43.438z
			"/>
		<path fill="#070606" d="M45.466,26.047v-2.2h0.283v0.945c0.071-0.131,0.241-0.249,0.484-0.249c0.442,0,0.672,0.34,0.672,0.766
			c0,0.435-0.246,0.778-0.683,0.778c-0.219,0-0.38-0.094-0.474-0.252v0.212H45.466z M46.181,24.795
			c-0.256,0-0.435,0.198-0.435,0.514c0,0.319,0.179,0.523,0.435,0.523c0.266,0,0.433-0.207,0.433-0.523
			C46.614,24.993,46.45,24.795,46.181,24.795"/>
		<path fill="#070606" d="M44.131,25.306c0,0.271,0.177,0.422,0.383,0.422c0.207,0,0.311-0.137,0.345-0.252l0.354,0.119
			c-0.062,0.248-0.304,0.504-0.699,0.504c-0.44,0-0.786-0.334-0.786-0.793c0-0.463,0.337-0.793,0.774-0.793
			c0.407,0,0.639,0.252,0.702,0.504l-0.362,0.121c-0.035-0.125-0.134-0.252-0.331-0.252C44.304,24.886,44.131,25.034,44.131,25.306"
			/>
		<path fill="#070606" d="M48.045,25.427V25.36L47.6,25.427c-0.123,0.021-0.213,0.088-0.213,0.219c0,0.109,0.09,0.213,0.235,0.213
			C47.857,25.858,48.045,25.746,48.045,25.427 M47.538,25.218l0.396-0.059c0.087-0.012,0.111-0.059,0.111-0.109
			c0-0.143-0.094-0.262-0.316-0.262c-0.203,0-0.31,0.125-0.331,0.295l-0.273-0.064c0.033-0.278,0.279-0.473,0.6-0.473
			c0.437,0,0.607,0.252,0.607,0.534v0.733c0,0.131-0.003,0.24-0.003,0.24h-0.164l-0.156-0.135c-0.078,0.09-0.214,0.18-0.425,0.18
			c-0.298,0-0.488-0.207-0.488-0.438C47.095,25.396,47.283,25.257,47.538,25.218"/>
		<path fill="#070606" d="M48.809,25.582c0.021,0.155,0.134,0.272,0.341,0.272c0.161,0,0.249-0.086,0.249-0.193
			c0-0.094-0.066-0.161-0.188-0.188l-0.249-0.056c-0.231-0.049-0.365-0.204-0.365-0.411c0-0.252,0.234-0.462,0.521-0.462
			c0.399,0,0.521,0.265,0.555,0.392l-0.252,0.096c-0.018-0.076-0.07-0.243-0.303-0.243c-0.147,0-0.244,0.094-0.244,0.194
			c0,0.095,0.055,0.152,0.167,0.177l0.238,0.051c0.266,0.058,0.403,0.216,0.403,0.435c0,0.207-0.174,0.453-0.535,0.453
			c-0.4,0-0.57-0.256-0.596-0.426L48.809,25.582z"/>
		<path fill="#070606" d="M50.096,23.831c0.117,0,0.207,0.088,0.207,0.207c0,0.111-0.09,0.204-0.207,0.204
			c-0.113,0-0.204-0.093-0.204-0.204C49.892,23.919,49.983,23.831,50.096,23.831 M49.956,24.591h0.282v1.463h-0.282V24.591z"/>
		<path fill="#070606" d="M50.742,25.321c0,0.33,0.21,0.514,0.447,0.514c0.274,0,0.374-0.186,0.407-0.303l0.252,0.11
			c-0.072,0.21-0.276,0.456-0.659,0.456c-0.426,0-0.739-0.335-0.739-0.777c0-0.453,0.319-0.775,0.736-0.775
			c0.392,0,0.583,0.242,0.651,0.465l-0.26,0.109c-0.039-0.144-0.143-0.311-0.392-0.311C50.955,24.81,50.742,24.979,50.742,25.321"/>
		<path fill="#070606" d="M52.262,25.582c0.021,0.155,0.134,0.272,0.34,0.272c0.161,0,0.25-0.086,0.25-0.193
			c0-0.094-0.067-0.161-0.188-0.188l-0.249-0.056c-0.231-0.049-0.365-0.204-0.365-0.411c0-0.252,0.234-0.462,0.521-0.462
			c0.4,0,0.522,0.265,0.556,0.392l-0.252,0.096c-0.019-0.076-0.07-0.243-0.304-0.243c-0.146,0-0.244,0.094-0.244,0.194
			c0,0.095,0.055,0.152,0.167,0.177l0.237,0.051c0.268,0.058,0.404,0.216,0.404,0.435c0,0.207-0.173,0.453-0.535,0.453
			c-0.399,0-0.57-0.256-0.596-0.426L52.262,25.582z"/>
		<path fill="#070606" d="M39.779,21.249v-2.201h0.282v0.945c0.071-0.131,0.241-0.248,0.484-0.248c0.442,0,0.672,0.34,0.672,0.766
			c0,0.434-0.246,0.777-0.682,0.777c-0.219,0-0.38-0.095-0.475-0.252v0.213H39.779z M40.493,19.997
			c-0.255,0-0.435,0.196-0.435,0.514c0,0.318,0.18,0.521,0.435,0.521c0.266,0,0.433-0.205,0.433-0.521
			C40.925,20.193,40.761,19.997,40.493,19.997"/>
		<path fill="#070606" d="M38.443,20.507c0,0.271,0.178,0.422,0.383,0.422c0.207,0,0.311-0.136,0.345-0.252l0.354,0.119
			c-0.062,0.249-0.304,0.504-0.699,0.504c-0.44,0-0.786-0.334-0.786-0.793c0-0.462,0.338-0.793,0.774-0.793
			c0.407,0,0.638,0.252,0.702,0.504l-0.362,0.122c-0.036-0.125-0.134-0.252-0.331-0.252C38.616,20.088,38.443,20.235,38.443,20.507"
			/>
		<path fill="#070606" d="M42.358,20.628v-0.066l-0.446,0.066c-0.123,0.021-0.213,0.089-0.213,0.219c0,0.11,0.09,0.213,0.236,0.213
			C42.168,21.06,42.358,20.948,42.358,20.628 M41.849,20.419l0.396-0.059c0.087-0.012,0.112-0.058,0.112-0.108
			c0-0.144-0.095-0.263-0.316-0.263c-0.204,0-0.311,0.125-0.332,0.296l-0.273-0.064c0.033-0.28,0.28-0.474,0.6-0.474
			c0.438,0,0.607,0.252,0.607,0.535v0.732c0,0.131-0.003,0.24-0.003,0.24h-0.164l-0.156-0.134c-0.078,0.09-0.214,0.179-0.425,0.179
			c-0.298,0-0.488-0.206-0.488-0.438C41.407,20.599,41.594,20.458,41.849,20.419"/>
		<path fill="#070606" d="M43.121,20.784c0.021,0.154,0.134,0.272,0.341,0.272c0.161,0,0.249-0.088,0.249-0.194
			c0-0.095-0.066-0.16-0.188-0.188l-0.249-0.056c-0.231-0.047-0.365-0.203-0.365-0.41c0-0.252,0.234-0.461,0.521-0.461
			c0.4,0,0.521,0.265,0.555,0.392l-0.252,0.095c-0.019-0.076-0.07-0.242-0.303-0.242c-0.147,0-0.244,0.094-0.244,0.193
			c0,0.094,0.055,0.152,0.167,0.176l0.238,0.053c0.267,0.058,0.403,0.215,0.403,0.434c0,0.208-0.174,0.454-0.535,0.454
			c-0.4,0-0.57-0.257-0.596-0.427L43.121,20.784z"/>
		<path fill="#070606" d="M44.407,19.033c0.118,0,0.207,0.088,0.207,0.206c0,0.111-0.089,0.203-0.207,0.203
			c-0.112,0-0.203-0.092-0.203-0.203C44.204,19.121,44.294,19.033,44.407,19.033 M44.268,19.792h0.281v1.462h-0.281V19.792z"/>
		<path fill="#070606" d="M45.053,20.522c0,0.332,0.21,0.514,0.447,0.514c0.274,0,0.374-0.186,0.407-0.301l0.252,0.108
			c-0.072,0.21-0.276,0.456-0.659,0.456c-0.426,0-0.738-0.334-0.738-0.777c0-0.453,0.318-0.775,0.735-0.775
			c0.392,0,0.583,0.242,0.651,0.465l-0.26,0.109c-0.039-0.143-0.143-0.311-0.392-0.311C45.266,20.011,45.053,20.183,45.053,20.522"
			/>
		<path fill="#070606" d="M46.574,20.784c0.021,0.154,0.135,0.272,0.341,0.272c0.161,0,0.249-0.088,0.249-0.194
			c0-0.095-0.067-0.16-0.188-0.188l-0.249-0.056c-0.231-0.047-0.365-0.203-0.365-0.41c0-0.252,0.234-0.461,0.521-0.461
			c0.4,0,0.522,0.265,0.556,0.392l-0.252,0.095c-0.018-0.076-0.07-0.242-0.304-0.242c-0.146,0-0.244,0.094-0.244,0.193
			c0,0.094,0.055,0.152,0.168,0.176l0.237,0.053c0.267,0.058,0.403,0.215,0.403,0.434c0,0.208-0.173,0.454-0.534,0.454
			c-0.4,0-0.571-0.257-0.597-0.427L46.574,20.784z"/>
	</g>
</g>
</svg>
