<?xml version="1.0" encoding="utf-8"?>
<!-- Generator: Adobe Illustrator 16.0.0, SVG Export Plug-In . SVG Version: 6.00 Build 0)  -->
<!DOCTYPE svg PUBLIC "-//W3C//DTD SVG 1.1//EN" "http://www.w3.org/Graphics/SVG/1.1/DTD/svg11.dtd">
<svg version="1.1" xmlns="http://www.w3.org/2000/svg" xmlns:xlink="http://www.w3.org/1999/xlink" x="0px" y="0px"  viewBox="0 0 75 75" enable-background="new 0 0 75 75" xml:space="preserve">
<g id="TENCEL_Woven">
	<g>
		<path fill="none" stroke="#04080F" stroke-width="0.5" stroke-miterlimit="10" d="M37.334,26.227c0,0-2.408,27.755-2.346,28.706
			c0.064,0.95-0.443,15.019-0.443,15.019c-4.815,0.76-9.821,0-9.821,0s-0.255-26.742,0-28.65c0.253-1.906-0.128-13.237,0-18.243
			c0.126-5.007,0.823-14.766,0.823-14.766s7.478,1.173,12.135,1.173"/>
		<line fill="none" stroke="#04080F" stroke-width="0.5" stroke-miterlimit="10" x1="46.814" y1="8.667" x2="50.08" y2="18.369"/>
		<line fill="none" stroke="#04080F" stroke-width="0.5" stroke-miterlimit="10" x1="28.114" y1="8.66" x2="24.926" y2="18.23"/>
		<path fill="none" stroke="#04080F" stroke-width="0.5" stroke-miterlimit="10" d="M37.318,9.465
			c4.656,0,12.135-1.172,12.135-1.172s0.697,9.758,0.824,14.765c0.125,5.006-0.254,16.335,0,18.243c0.252,1.908,0,28.65,0,28.65
			s-5.006,0.76-9.822,0c0,0-0.508-14.068-0.444-15.02c0.063-0.949-2.677-28.706-2.677-28.706l0.189-19.168
			c-6.242,0-11.945-1.458-11.945-1.458l-0.031,2.694"/>
		<path fill="none" stroke="#04080F" stroke-width="0.5" stroke-miterlimit="10" d="M49.453,8.293V5.441
			c0,0-7.779,1.616-11.93,1.616"/>
		<path fill="none" stroke="#04080F" stroke-width="0.5" stroke-miterlimit="10" d="M24.68,67.797c0,0,5.422,1.191,9.891,0"/>
		<path fill="none" stroke="#04080F" stroke-width="0.5" stroke-miterlimit="10" d="M50.256,67.708c0,0-5.422,1.192-9.891,0"/>
		<path fill="none" stroke="#04080F" stroke-width="0.25" stroke-miterlimit="10" d="M25.729,15.625
			c0.225-3.778,0.463-7.124,0.463-7.124"/>
		<path fill="none" stroke="#04080F" stroke-width="0.25" stroke-miterlimit="10" d="M25.367,70.16c0,0-0.252-26.742,0-28.649
			c0.254-1.908-0.127-13.238,0-18.244c0.039-1.546,0.137-3.427,0.248-5.453"/>
		<path fill="none" stroke="#04080F" stroke-width="0.25" stroke-miterlimit="10" d="M49.49,16.663
			c-0.24-4.238-0.531-8.319-0.531-8.319"/>
		<path fill="none" stroke="#04080F" stroke-width="0.25" stroke-miterlimit="10" d="M49.688,69.991c0,0,0.252-26.742,0-28.648
			c-0.254-1.908,0.125-13.238,0-18.245c-0.041-1.573-0.137-2.338-0.25-4.4"/>
		<line fill="none" stroke="#04080F" stroke-width="0.5" stroke-miterlimit="10" x1="28.777" y1="8.725" x2="24.817" y2="20.464"/>
		<line fill="none" stroke="#04080F" stroke-width="0.5" stroke-miterlimit="10" x1="46.234" y1="8.85" x2="50.191" y2="20.676"/>
		<path fill="none" stroke="#04080F" stroke-width="0.505" stroke-miterlimit="10" d="M25.36,5.523
			c8.056-1.025,16.157-1.083,24.308-0.158"/>
		<path fill="none" stroke="#04080F" stroke-width="0.5" stroke-miterlimit="10" d="M36.623,8.1c-0.645,0-1.947,1.251-2.109,2.793
			c-0.178,1.698-1.451,2.314-1.451,2.314"/>
		<path fill="none" stroke="#04080F" stroke-width="0.5" stroke-miterlimit="10" d="M38.374,8.1c0.644,0,2.321,0.931,2.12,3.132
			c-0.209,2.283,1.546,3.133,1.546,3.133"/>
	</g>
</g>
</svg>
