<?xml version="1.0" encoding="utf-8"?>
<!-- Generator: Adobe Illustrator 16.0.0, SVG Export Plug-In . SVG Version: 6.00 Build 0)  -->
<!DOCTYPE svg PUBLIC "-//W3C//DTD SVG 1.1//EN" "http://www.w3.org/Graphics/SVG/1.1/DTD/svg11.dtd">
<svg version="1.1" xmlns="http://www.w3.org/2000/svg" xmlns:xlink="http://www.w3.org/1999/xlink" x="0px" y="0px"  viewBox="0 0 75 75" enable-background="new 0 0 75 75" xml:space="preserve">
<g id="STA_Mens">
	<g>
		<g opacity="0.15">
			<g>
				<defs>
					<rect id="SVGID_65_" x="48.194" y="26.336" width="2.844" height="33.457"/>
				</defs>
				<clipPath id="SVGID_2_">
					<use xlink:href="#SVGID_65_"  overflow="visible"/>
				</clipPath>
				<path clip-path="url(#SVGID_2_)" fill="#938B83" d="M50.535,27.523c-2.181,2.118-1.818,7.952-1.818,31.699l1.727-0.227
					L50.535,27.523z"/>
				<path clip-path="url(#SVGID_2_)" fill="none" stroke="#99979A" stroke-miterlimit="10" d="M50.535,27.523
					c-2.181,2.118-1.818,7.952-1.818,31.699l1.727-0.227L50.535,27.523z"/>
			</g>
		</g>
		<g opacity="0.15">
			<g>
				<defs>
					<rect id="SVGID_67_" x="49.943" y="26.615" width="6.217" height="32.436"/>
				</defs>
				<clipPath id="SVGID_4_">
					<use xlink:href="#SVGID_67_"  overflow="visible"/>
				</clipPath>
				<path clip-path="url(#SVGID_4_)" fill="#938B83" d="M50.535,27.523l-0.092,4.954c0,0,3.533,23.713,3.895,26.025l1.266-0.132
					C53.817,43.373,52.493,28.786,50.535,27.523"/>
				<path clip-path="url(#SVGID_4_)" fill="none" stroke="#99979A" stroke-miterlimit="10" d="M50.535,27.523l-0.092,4.954
					c0,0,3.533,23.713,3.895,26.025l1.266-0.132C53.817,43.373,52.493,28.786,50.535,27.523z"/>
			</g>
		</g>
		<path fill="none" stroke="#99979A" stroke-width="0.5" stroke-miterlimit="10" d="M37.5,59.626L37.5,59.626h0.013h0.011
			c0.547-0.006,10.817-0.11,12.944-0.632V32.478c0,0,3.389,22.618,3.87,26.024l5.025-0.527c-0.586-20.28-1.155-35.85-7.146-39.728
			l-9.374-3.982c0,0-1.697,0.871-5.33,0.875"/>
		<path fill="none" stroke="#99979A" stroke-width="0.5" stroke-miterlimit="10" d="M50.468,32.477c0,0-0.194-11.157,1.749-14.229"
			/>
		<path fill="none" stroke="#99979A" stroke-width="0.5" stroke-miterlimit="10" d="M42.843,14.265c0,0-0.05,3.981-5.33,3.981"/>
		<path fill="none" stroke="#99979A" stroke-width="0.5" stroke-miterlimit="10" d="M43.669,14.556c0,0-0.058,4.517-6.156,4.517"/>
		<path fill="none" stroke="#99979A" stroke-width="0.5" stroke-miterlimit="10" d="M37.5,60.735L37.5,60.735h0.013h0.011
			c0.547-0.005,10.817-0.11,12.944-0.631V33.586"/>
		<path fill="none" stroke="#99979A" stroke-width="0.5" stroke-miterlimit="10" d="M37.5,59.626L37.5,59.626h-0.013h-0.011
			c-0.548-0.006-10.817-0.11-12.944-0.632V32.478c0,0-3.39,22.618-3.869,26.024l-5.026-0.527c0.586-20.28,1.156-35.85,7.146-39.728
			l9.374-3.982c0,0,1.696,0.871,5.33,0.875"/>
		<path fill="none" stroke="#99979A" stroke-width="0.5" stroke-miterlimit="10" d="M24.533,32.477c0,0,0.192-11.157-1.749-14.229"
			/>
		<path fill="none" stroke="#99979A" stroke-width="0.5" stroke-miterlimit="10" d="M32.158,14.265c0,0,0.048,3.981,5.33,3.981"/>
		<path fill="none" stroke="#99979A" stroke-width="0.5" stroke-miterlimit="10" d="M31.332,14.556c0,0,0.057,4.517,6.155,4.517"/>
		<path fill="none" stroke="#99979A" stroke-width="0.5" stroke-miterlimit="10" d="M37.5,60.735L37.5,60.735h-0.013h-0.011
			c-0.548-0.005-10.817-0.11-12.944-0.631V33.586"/>
		<g opacity="0.15">
			<g>
				<defs>
					<rect id="SVGID_69_" x="23.961" y="26.336" width="2.845" height="33.457"/>
				</defs>
				<clipPath id="SVGID_6_">
					<use xlink:href="#SVGID_69_"  overflow="visible"/>
				</clipPath>
				<path clip-path="url(#SVGID_6_)" fill="#938B83" d="M24.465,27.523c2.181,2.118,1.817,7.952,1.817,31.699l-1.726-0.227
					L24.465,27.523z"/>
				<path clip-path="url(#SVGID_6_)" fill="none" stroke="#99979A" stroke-miterlimit="10" d="M24.465,27.523
					c2.181,2.118,1.817,7.952,1.817,31.699l-1.726-0.227L24.465,27.523z"/>
			</g>
		</g>
		<g opacity="0.15">
			<g>
				<defs>
					<rect id="SVGID_71_" x="18.84" y="26.615" width="6.218" height="32.436"/>
				</defs>
				<clipPath id="SVGID_8_">
					<use xlink:href="#SVGID_71_"  overflow="visible"/>
				</clipPath>
				<path clip-path="url(#SVGID_8_)" fill="#938B83" d="M24.465,27.523l0.092,4.954c0,0-3.534,23.713-3.895,26.025l-1.266-0.132
					C21.183,43.373,22.508,28.786,24.465,27.523"/>
				<path clip-path="url(#SVGID_8_)" fill="none" stroke="#99979A" stroke-miterlimit="10" d="M24.465,27.523l0.092,4.954
					c0,0-3.534,23.713-3.895,26.025l-1.266-0.132C21.183,43.373,22.508,28.786,24.465,27.523z"/>
			</g>
		</g>
	</g>
</g>
</svg>
