<?xml version="1.0" encoding="utf-8"?>
<!-- Generator: Adobe Illustrator 16.0.0, SVG Export Plug-In . SVG Version: 6.00 Build 0)  -->
<!DOCTYPE svg PUBLIC "-//W3C//DTD SVG 1.1//EN" "http://www.w3.org/Graphics/SVG/1.1/DTD/svg11.dtd">
<svg version="1.1" xmlns="http://www.w3.org/2000/svg" xmlns:xlink="http://www.w3.org/1999/xlink" x="0px" y="0px"  viewBox="0 0 75 75" enable-background="new 0 0 75 75" xml:space="preserve">
<path class="cls-1" fill="none" stroke="#04080F" stroke-width="0.5" stroke-miterlimit="10" d="M36.7,52.18S14.46,42.43,10.87,25.59H8.44A79.38,79.38,0,0,1,3,47.45S.09,64.18,14.51,65.71C14.51,65.71,30.61,68.06,36.7,52.18Z" transform="translate(-0.27 -4.86)"/>
<polyline fill="none" stroke="#04080F" stroke-width="0.5" stroke-miterlimit="10" class="cls-1" points="37.23 65.03 0.82 65.03 0.53 61.61 0.25 46.09 2.68 42.53"/>
<path fill="none" stroke="#04080F" stroke-width="0.5" stroke-miterlimit="10" class="cls-1" d="M36.17,54.05S18.09,42,3.67,46.06" transform="translate(-0.27 -4.86)"/>
<path fill="none" stroke="#04080F" stroke-width="0.5" stroke-miterlimit="10" class="cls-1" d="M10.75,25.52A203,203,0,0,1,13.4,5.11H11.19A189.47,189.47,0,0,0,8.44,25.52l2.43.13" transform="translate(-0.27 -4.86)"/>
<path fill="none" stroke="#04080F" stroke-width="0.5" stroke-miterlimit="10" class="cls-1" d="M38.3,52.18s22.24-9.75,25.85-26.59h2.43a78.68,78.68,0,0,0,5.49,21.86s2.84,16.78-11.56,18.32C60.51,65.71,44.41,68.06,38.3,52.18Z" transform="translate(-0.27 -4.86)"/>
<polyline fill="none" stroke="#04080F" stroke-width="0.5" stroke-miterlimit="10" class="cls-1" points="37.23 65.03 73.65 65.03 73.96 61.61 74.21 46.09 71.8 42.53"/>
<line fill="none" stroke="#04080F" stroke-width="0.5" stroke-miterlimit="10" class="cls-1" x1="0.37" y1="61.08" x2="37.23" y2="60.97"/>
<line fill="none" stroke="#04080F" stroke-width="0.5" stroke-miterlimit="10" class="cls-1" x1="74.11" y1="61.08" x2="37.23" y2="60.97"/>
<path fill="none" stroke="#04080F" stroke-width="0.5" stroke-miterlimit="10" class="cls-1" d="M38.85,54.05s18.06-12.09,32.5-8" transform="translate(-0.27 -4.86)"/>
<path fill="none" stroke="#04080F" stroke-width="0.5" stroke-miterlimit="10" class="cls-1" d="M64.25,25.52A203.24,203.24,0,0,0,61.67,5.11h2.22A189.13,189.13,0,0,1,66.65,25.5l-2.43.14" transform="translate(-0.27 -4.86)"/>
<line fill="none" stroke="#04080F" stroke-width="0.5" stroke-miterlimit="10" class="cls-1" x1="36.43" y1="47.32" x2="38.04" y2="47.32"/>
</svg>