<?xml version="1.0" encoding="utf-8"?>
<!-- Generator: Adobe Illustrator 16.0.0, SVG Export Plug-In . SVG Version: 6.00 Build 0)  -->
<!DOCTYPE svg PUBLIC "-//W3C//DTD SVG 1.1//EN" "http://www.w3.org/Graphics/SVG/1.1/DTD/svg11.dtd">
<svg version="1.1" xmlns="http://www.w3.org/2000/svg" xmlns:xlink="http://www.w3.org/1999/xlink" x="0px" y="0px"  viewBox="0 0 75 75" enable-background="new 0 0 75 75" xml:space="preserve">
<g id="Sweat">
	<g>
		<path fill="none" stroke="#04080F" stroke-width="0.5" stroke-miterlimit="10" d="M37.632,10.224c0,0-3.985,0.173-6.843-1.385
			c0,0-9.52,3.289-10.3,4.24c-0.778,0.952-2.077,4.155-2.855,7.617S15.52,39.39,15.52,39.39l-1.174,16.619
			c0,0,0.087,3.027,1.816,5.711c0,0,0.58,2.717,0.866,4.242c0,0,3.808-0.781,5.972-0.521l-0.087-4.326c0,0,1.298-3.029,1.298-4.76
			l-1.989-0.605l-0.261-29.223l8.188-13.421"/>
		<path fill="none" stroke="#04080F" stroke-width="0.5" stroke-miterlimit="10" d="M16.163,61.72c0,0,2.942-1.559,6.751-0.605"/>
		<path fill="none" stroke="#04080F" stroke-width="0.5" stroke-miterlimit="10" d="M28.54,9.79c0,0,1.198,6.564,9.074,6.564"/>
		<path fill="none" stroke="#04080F" stroke-width="0.5" stroke-miterlimit="10" d="M16.881,66.001c0,0,3.73,0.592,6.271-0.496"/>
		<path fill="none" stroke="#04080F" stroke-width="0.5" stroke-miterlimit="10" d="M58.836,61.72c0,0-2.941-1.559-6.751-0.605"/>
		<path fill="none" stroke="#04080F" stroke-width="0.5" stroke-miterlimit="10" d="M37.646,13.805l-0.031,2.55
			c7.876,0,8.845-6.563,8.845-6.563"/>
		<path fill="none" stroke="#04080F" stroke-width="0.5" stroke-miterlimit="10" d="M58.133,66.005c0,0-3.745,0.582-6.284-0.506"/>
		<path fill="none" stroke="#04080F" stroke-width="0.5" stroke-miterlimit="10" d="M31.812,11.318c0,0,6.101,1.785,11.645,0"/>
		<path fill="none" stroke="#04080F" stroke-width="0.5" stroke-miterlimit="10" d="M30.79,8.839c0,0,0.354,4.966,6.856,4.966
			c6.503,0,6.563-4.966,6.563-4.966"/>
		<path fill="none" stroke="#04080F" stroke-width="0.5" stroke-miterlimit="10" d="M24.211,56.354c0,0,15.162,0.979,26.576,0"/>
		<path fill="none" stroke="#04080F" stroke-width="0.5" stroke-miterlimit="10" d="M21.975,50.563c0,0,15.81,3.725,30.769,0"/>
		<line fill="none" stroke="#04080F" stroke-width="0.5" stroke-miterlimit="10" x1="37.593" y1="56.854" x2="37.593" y2="52.196"/>
		<line fill="none" stroke="#04080F" stroke-width="0.5" stroke-miterlimit="10" x1="39.564" y1="56.743" x2="39.564" y2="52.394"/>
		<line fill="none" stroke="#04080F" stroke-width="0.5" stroke-miterlimit="10" x1="41.535" y1="56.743" x2="41.535" y2="52.263"/>
		<line fill="none" stroke="#04080F" stroke-width="0.5" stroke-miterlimit="10" x1="43.505" y1="56.933" x2="43.505" y2="52.034"/>
		<line fill="none" stroke="#04080F" stroke-width="0.5" stroke-miterlimit="10" x1="45.476" y1="56.681" x2="45.476" y2="51.782"/>
		<line fill="none" stroke="#04080F" stroke-width="0.5" stroke-miterlimit="10" x1="47.448" y1="56.583" x2="47.448" y2="51.683"/>
		<line fill="none" stroke="#04080F" stroke-width="0.5" stroke-miterlimit="10" x1="49.418" y1="56.411" x2="49.418" y2="51.335"/>
		<line fill="none" stroke="#04080F" stroke-width="0.5" stroke-miterlimit="10" x1="51.389" y1="56.187" x2="51.389" y2="50.817"/>
		<line fill="none" stroke="#04080F" stroke-width="0.5" stroke-miterlimit="10" x1="35.622" y1="56.786" x2="35.622" y2="52.263"/>
		<line fill="none" stroke="#04080F" stroke-width="0.5" stroke-miterlimit="10" x1="33.651" y1="56.786" x2="33.651" y2="52.12"/>
		<line fill="none" stroke="#04080F" stroke-width="0.5" stroke-miterlimit="10" x1="31.68" y1="56.757" x2="31.68" y2="52.077"/>
		<line fill="none" stroke="#04080F" stroke-width="0.5" stroke-miterlimit="10" x1="29.709" y1="56.724" x2="29.709" y2="51.825"/>
		<line fill="none" stroke="#04080F" stroke-width="0.5" stroke-miterlimit="10" x1="27.739" y1="56.626" x2="27.739" y2="51.726"/>
		<line fill="none" stroke="#04080F" stroke-width="0.5" stroke-miterlimit="10" x1="25.768" y1="56.454" x2="25.768" y2="51.378"/>
		<line fill="none" stroke="#04080F" stroke-width="0.5" stroke-miterlimit="10" x1="23.796" y1="56.235" x2="23.796" y2="50.86"/>
		<line fill="none" stroke="#04080F" stroke-width="0.5" stroke-miterlimit="10" x1="38.75" y1="13.792" x2="38.875" y2="16.257"/>
		<line fill="none" stroke="#04080F" stroke-width="0.5" stroke-miterlimit="10" x1="40.658" y1="13.316" x2="41.511" y2="15.632"/>
		<line fill="none" stroke="#04080F" stroke-width="0.5" stroke-miterlimit="10" x1="43.94" y1="9.835" x2="46.355" y2="10.853"/>
		<line fill="none" stroke="#04080F" stroke-width="0.5" stroke-miterlimit="10" x1="42.518" y1="12.272" x2="43.959" y2="14.106"/>
		<line fill="none" stroke="#04080F" stroke-width="0.5" stroke-miterlimit="10" x1="43.682" y1="10.726" x2="45.787" y2="11.955"/>
		<line fill="none" stroke="#04080F" stroke-width="0.5" stroke-miterlimit="10" x1="43.253" y1="11.592" x2="45.116" y2="13.211"/>
		<line fill="none" stroke="#04080F" stroke-width="0.5" stroke-miterlimit="10" x1="41.644" y1="12.884" x2="42.917" y2="14.999"/>
		<line fill="none" stroke="#04080F" stroke-width="0.5" stroke-miterlimit="10" x1="39.789" y1="13.655" x2="40.316" y2="16.067"/>
		<line fill="none" stroke="#04080F" stroke-width="0.5" stroke-miterlimit="10" x1="36.327" y1="13.754" x2="36.202" y2="16.22"/>
		<line fill="none" stroke="#04080F" stroke-width="0.5" stroke-miterlimit="10" x1="34.418" y1="13.278" x2="33.566" y2="15.595"/>
		<line fill="none" stroke="#04080F" stroke-width="0.5" stroke-miterlimit="10" x1="31.135" y1="9.796" x2="28.721" y2="10.814"/>
		<line fill="none" stroke="#04080F" stroke-width="0.5" stroke-miterlimit="10" x1="32.558" y1="12.234" x2="31.086" y2="14.107"/>
		<line fill="none" stroke="#04080F" stroke-width="0.5" stroke-miterlimit="10" x1="31.394" y1="10.688" x2="29.291" y2="11.917"/>
		<line fill="none" stroke="#04080F" stroke-width="0.5" stroke-miterlimit="10" x1="31.823" y1="11.554" x2="29.96" y2="13.173"/>
		<line fill="none" stroke="#04080F" stroke-width="0.5" stroke-miterlimit="10" x1="33.432" y1="12.847" x2="32.16" y2="14.96"/>
		<line fill="none" stroke="#04080F" stroke-width="0.5" stroke-miterlimit="10" x1="35.288" y1="13.618" x2="34.761" y2="16.028"/>
		<line fill="none" stroke="#04080F" stroke-width="0.5" stroke-miterlimit="10" x1="37.436" y1="10.026" x2="37.436" y2="12.029"/>
		<line fill="none" stroke="#04080F" stroke-width="0.5" stroke-miterlimit="10" x1="38.361" y1="10.241" x2="38.361" y2="12.244"/>
		<line fill="none" stroke="#04080F" stroke-width="0.5" stroke-miterlimit="10" x1="39.286" y1="10.159" x2="39.286" y2="12.162"/>
		<line fill="none" stroke="#04080F" stroke-width="0.5" stroke-miterlimit="10" x1="40.21" y1="9.976" x2="40.21" y2="11.979"/>
		<line fill="none" stroke="#04080F" stroke-width="0.5" stroke-miterlimit="10" x1="41.135" y1="9.894" x2="41.135" y2="11.897"/>
		<line fill="none" stroke="#04080F" stroke-width="0.5" stroke-miterlimit="10" x1="42.061" y1="9.665" x2="42.061" y2="11.667"/>
		<line fill="none" stroke="#04080F" stroke-width="0.5" stroke-miterlimit="10" x1="42.986" y1="9.28" x2="42.986" y2="11.283"/>
		<line fill="none" stroke="#04080F" stroke-width="0.5" stroke-miterlimit="10" x1="31.885" y1="9.493" x2="31.885" y2="11.495"/>
		<line fill="none" stroke="#04080F" stroke-width="0.5" stroke-miterlimit="10" x1="32.81" y1="9.556" x2="32.81" y2="11.56"/>
		<line fill="none" stroke="#04080F" stroke-width="0.5" stroke-miterlimit="10" x1="33.736" y1="9.781" x2="33.736" y2="11.784"/>
		<line fill="none" stroke="#04080F" stroke-width="0.5" stroke-miterlimit="10" x1="34.661" y1="10.006" x2="34.661" y2="12.009"/>
		<line fill="none" stroke="#04080F" stroke-width="0.5" stroke-miterlimit="10" x1="35.585" y1="10.251" x2="35.585" y2="12.01"/>
		<line fill="none" stroke="#04080F" stroke-width="0.5" stroke-miterlimit="10" x1="36.51" y1="10.067" x2="36.51" y2="12.07"/>
		<path fill="none" stroke="#04080F" stroke-width="0.5" stroke-miterlimit="10" d="M37.632,10.224c0,0,3.722,0.173,6.577-1.385
			c0,0,9.521,3.289,10.3,4.24c0.778,0.952,2.077,4.155,2.855,7.617c0.78,3.462,2.116,18.693,2.116,18.693l1.173,16.619
			c0,0-0.086,3.027-1.817,5.711c0,0-0.567,2.793-0.864,4.242c0,0-3.81-0.781-5.974-0.521l0.087-4.326c0,0-1.298-3.029-1.298-4.76
			l1.991-0.605l0.259-29.223l-8.187-13.421"/>
		<line fill="none" stroke="#04080F" stroke-width="0.5" stroke-miterlimit="10" x1="17.181" y1="61.255" x2="18.06" y2="65.792"/>
		<line fill="none" stroke="#04080F" stroke-width="0.5" stroke-miterlimit="10" x1="18.423" y1="60.817" x2="19.036" y2="65.458"/>
	</g>
</g>
</svg>
