<?xml version="1.0" encoding="utf-8"?>
<!-- Generator: Adobe Illustrator 16.0.0, SVG Export Plug-In . SVG Version: 6.00 Build 0)  -->
<!DOCTYPE svg PUBLIC "-//W3C//DTD SVG 1.1//EN" "http://www.w3.org/Graphics/SVG/1.1/DTD/svg11.dtd">
<svg version="1.1" xmlns="http://www.w3.org/2000/svg" xmlns:xlink="http://www.w3.org/1999/xlink" x="0px" y="0px" viewBox="0 0 75 75" enable-background="new 0 0 75 75" xml:space="preserve">
<g>
	<path stroke="#99979A" stroke-width="0.5" stroke-miterlimit="10" fill="none" d="M37,46.4c0,0-13.4-5.9-15.6-16.1l-1.5,0c0,0-0.4,6.1-3.3,13.2c0,0-1.7,10.2,7,11.1C23.6,54.6,33.3,56,37,46.4z
		"/>
	<polyline stroke="#99979A" stroke-width="0.5" stroke-miterlimit="10" fill="none" points="37.5,57.1 15.5,57.1 15.3,55 15.1,45.7 16.6,43.5 	"/>
	<path stroke="#99979A" stroke-width="0.5" stroke-miterlimit="10" fill="none" d="M36.7,47.5c0,0-10.9-7.3-19.7-4.8"/>
	<path stroke="#99979A" stroke-width="0.5" stroke-miterlimit="10" fill="none" d="M21.3,30.2c0.3-5.5,1.6-12.3,1.6-12.3h-1.3c0,0-1.3,6.9-1.7,12.4L21.3,30.2"/>
	<path stroke="#99979A" stroke-width="0.5" stroke-miterlimit="10" fill="none" d="M38,46.4c0,0,13.4-5.9,15.6-16.1l1.5,0c0,0,0.4,6.1,3.3,13.2c0,0,1.7,10.2-7,11.1C51.4,54.6,41.7,56,38,46.4z"
		/>
	<polyline stroke="#99979A" stroke-width="0.5" stroke-miterlimit="10" fill="none" points="37.5,57.1 59.5,57.1 59.7,55 59.9,45.7 58.4,43.5 	"/>
	<g>
		<line stroke="#99979A" stroke-width="0.5" stroke-miterlimit="10" fill="none" x1="15.2" y1="54.7" x2="37.5" y2="54.6"/>
		<line stroke="#99979A" stroke-width="0.5" stroke-miterlimit="10" fill="none" x1="59.8" y1="54.7" x2="37.5" y2="54.6"/>
	</g>
	<path stroke="#99979A" stroke-width="0.5" stroke-miterlimit="10" fill="none" d="M38.3,47.5c0,0,10.9-7.3,19.7-4.8"/>
	<path stroke="#99979A" stroke-width="0.5" stroke-miterlimit="10" fill="none" d="M53.7,30.2c-0.3-5.5-1.6-12.4-1.6-12.4h1.3c0,0,1.3,6.9,1.7,12.4H53.7"/>
	<line stroke="#99979A" stroke-width="0.5" stroke-miterlimit="10" fill="none" x1="37" y1="46.4" x2="38" y2="46.4"/>
</g>
</svg>
