<?xml version="1.0" encoding="utf-8"?>
<!-- Generator: Adobe Illustrator 16.0.0, SVG Export Plug-In . SVG Version: 6.00 Build 0)  -->
<!DOCTYPE svg PUBLIC "-//W3C//DTD SVG 1.1//EN" "http://www.w3.org/Graphics/SVG/1.1/DTD/svg11.dtd">
<svg version="1.1" xmlns="http://www.w3.org/2000/svg" xmlns:xlink="http://www.w3.org/1999/xlink" x="0px" y="0px" viewBox="0 0 75 75" enable-background="new 0 0 75 75" xml:space="preserve">
<g>
	<g>
		<g>
			<path d="M30.7,47.3c0-0.3,0-0.6,0-0.9c-0.1-2.5-0.1-4.8-3.4-6.7c-4.5-2.5-16.2-1.3-16.3-1.3l-0.1-0.5
				c0.5-0.1,11.9-1.2,16.6,1.4c3.6,2,3.6,4.6,3.7,7.1c0,0.3,0,0.6,0,0.9L30.7,47.3z"/>
		</g>
	</g>
	<g>
		<g>
			<path d="M40.4,47.3l-0.5,0c0-0.3,0-0.6,0-0.9c0.1-2.5,0.1-5.1,3.7-7.1c4.6-2.6,16.1-1.4,16.6-1.4l-0.1,0.5
				c-0.1,0-11.8-1.2-16.3,1.3c-3.3,1.9-3.4,4.2-3.4,6.7C40.4,46.6,40.4,47,40.4,47.3z"/>
		</g>
	</g>
	<g>
		<g>
			<path d="M35.5,17.7"/>
		</g>
	</g>
	<g>
		<g>
			<path d="M32.1,17.7"/>
		</g>
	</g>
	<g>
		<path d="M35.5,21.8c-11.4,0-22.8-3.8-23-3.8l0.1-0.4c0.1,0,11.5,3.8,22.8,3.8s22.7-3.7,22.8-3.8l0.1,0.4
			C58.4,18,47,21.8,35.5,21.8z"/>
	</g>
	<g>
		<path d="M35.5,24.7c-11.4,0-23-3.7-23.1-3.7l0.1-0.4c0.1,0,11.6,3.7,22.9,3.7c11.4,0,22.8-3.7,22.9-3.7l0.1,0.4
			C58.5,21,47,24.7,35.5,24.7z"/>
	</g>
	<g>
		<g>
			<path d="M35.5,17.7"/>
		</g>
	</g>
	<g>
		<g>
			<path d="M39,17.7"/>
		</g>
	</g>
	<g>
		<path d="M40.3,47.5h-4.7V47h4.5c6.3-5.7,18.2-8.7,19.8-9.1l-1.7-20H35.5v-0.5h23.1l1.8,20.8l-0.2,0
			C60.1,38.3,47,41.3,40.3,47.5L40.3,47.5z"/>
	</g>
	<g>
		<path d="M35.6,47.5h-4.7l-0.1-0.1c-6.7-6.1-19.8-9.1-19.9-9.1l-0.2,0l1.8-20.8h23.1v0.5H12.9l-1.7,20
			c1.7,0.4,13.5,3.4,19.8,9.1h4.5V47.5z"/>
	</g>
	<g>
		<g>
			<path d="M39.4,26.7"/>
		</g>
	</g>
	<g>
		<g>
			<path d="M36,26.7"/>
		</g>
	</g>
	<g>
		<g>
			<path fill="#E2E2E2" d="M39.4,27.7l-22.9,0l-1.7,20.4c0,0,13.2,3,20,9.2h4.6h4.6c6.8-6.2,20-9.2,20-9.2l-1.7-20.4L39.4,27.7"/>
			<path d="M44.2,57.6h-9.4l-0.1-0.1c-6.7-6.1-19.8-9.1-19.9-9.1l-0.2,0l1.8-20.8h46.2l1.8,20.8l-0.2,0
				C64,48.4,50.9,51.4,44.2,57.6L44.2,57.6z M34.9,57.1H44c6.3-5.7,18.2-8.7,19.8-9.1l-1.7-20H16.8l-1.7,20
				C16.8,48.4,28.6,51.4,34.9,57.1z"/>
		</g>
		<g>
			<g>
				<path d="M34.6,57.4c0-0.3,0-0.6,0-0.9c-0.1-2.5-0.1-4.8-3.4-6.7c-4.5-2.5-16.2-1.3-16.3-1.3l-0.1-0.5
					c0.5-0.1,11.9-1.2,16.6,1.4c3.6,2,3.6,4.6,3.7,7.1c0,0.3,0,0.6,0,0.9L34.6,57.4z"/>
			</g>
		</g>
		<g>
			<g>
				<path d="M44.3,57.4l-0.5,0c0-0.3,0-0.6,0-0.9c0.1-2.5,0.1-5.1,3.7-7.1c4.6-2.6,16.1-1.4,16.6-1.4L64,48.4
					c-0.1,0-11.8-1.2-16.3,1.3c-3.3,1.9-3.4,4.2-3.4,6.7C44.3,56.7,44.3,57,44.3,57.4z"/>
			</g>
		</g>
		<g>
			<path d="M39.4,31.9c-11.4,0-22.8-3.8-23-3.8l0.1-0.4c0.1,0,11.5,3.8,22.8,3.8s22.7-3.7,22.8-3.8l0.1,0.4
				C62.3,28.1,50.8,31.9,39.4,31.9z"/>
		</g>
		<g>
			<path d="M39.4,34.8c-11.4,0-23-3.7-23.1-3.7l0.1-0.4c0.1,0,11.6,3.7,22.9,3.7s22.8-3.7,22.9-3.7l0.1,0.4
				C62.4,31.1,50.9,34.8,39.4,34.8z"/>
		</g>
	</g>
	<g>
		<g>
			<path d="M39.4,26.7"/>
		</g>
	</g>
	<g>
		<g>
			<path d="M42.9,26.7"/>
		</g>
	</g>
</g>
</svg>
