<?xml version="1.0" encoding="utf-8"?>
<!-- Generator: Adobe Illustrator 16.0.0, SVG Export Plug-In . SVG Version: 6.00 Build 0)  -->
<!DOCTYPE svg PUBLIC "-//W3C//DTD SVG 1.1//EN" "http://www.w3.org/Graphics/SVG/1.1/DTD/svg11.dtd">
<svg version="1.1" xmlns="http://www.w3.org/2000/svg" xmlns:xlink="http://www.w3.org/1999/xlink" x="0px" y="0px" viewBox="0 0 75 75" enable-background="new 0 0 75 75" xml:space="preserve">
<g id="TENCEL_Women_x27_s">
	<g>
		<path fill="#99979A" d="M17.573,23.926l-0.102-0.49c0.087-0.018,8.798-1.791,20.373-1.806v0.5
			C26.324,22.146,17.659,23.907,17.573,23.926"/>
		<path fill="#99979A" d="M13.37,48.414l-0.491-0.082l4.188-24.926l0.236,0.028c0.085,0.009,8.482,0.966,20.096,0.966h0.446
			l0.002,0.5c-10.782-0.006-18.9-0.788-20.366-0.944L13.37,48.414z"/>
		<path fill="#99979A" d="M15.29,36.442v-0.5c1.718,0,6.012-6.25,7.521-8.658l0.423,0.265C22.663,28.46,17.596,36.442,15.29,36.442"
			/>
		<path fill="#99979A" d="M33.021,51.178c-5.143,0-14.461-0.634-19.678-4.845l0.315-0.388c7.15,5.772,22.803,4.629,22.961,4.619
			l0.039,0.498C36.471,51.076,35.082,51.178,33.021,51.178"/>
		<path fill="#99979A" d="M41.979,51.178c-2.061,0-3.45-0.102-3.637-0.116l0.039-0.498c0.158,0.01,15.811,1.153,22.962-4.619
			l0.315,0.388C56.441,50.544,47.123,51.178,41.979,51.178"/>
		<path fill="#99979A" d="M43.703,53.37c-1.57,0-3.255-0.075-5.053-0.245l-0.195-0.019l-0.957-6.553l-0.951,6.553l-0.196,0.019
			c-8.341,0.789-14.248-0.484-17.732-1.693c-3.793-1.316-5.581-2.805-5.655-2.868l-0.11-0.093l0.396-2.218l0.492,0.088l-0.344,1.928
			c0.444,0.338,2.218,1.595,5.417,2.702c3.405,1.176,9.161,2.417,17.295,1.674l1.148-7.907h0.432l0.081,0.214l1.123,7.693
			c14.592,1.329,21.753-3.648,22.711-4.376l-0.342-1.928l0.492-0.088l0.394,2.218l-0.11,0.093c-0.074,0.063-1.861,1.552-5.653,2.868
			C53.649,52.381,49.427,53.37,43.703,53.37"/>
		<path fill="#99979A" d="M61.63,48.414l-4.108-24.458c-1.445,0.154-9.358,0.944-19.918,0.944h-0.448l0.002-0.5h0.446
			c11.613,0,20.011-0.957,20.096-0.966l0.236-0.028l0.039,0.235l4.147,24.691L61.63,48.414z"/>
		<path fill="#99979A" d="M35.345,28.212c-11.7,0-18.546-1.084-18.616-1.095l0.079-0.494c0.074,0.012,7.568,1.196,20.348,1.08h0.689
			c12.763,0.122,20.274-1.067,20.35-1.08l0.08,0.494c-0.075,0.012-7.63,1.208-20.432,1.086h-0.686
			C36.541,28.209,35.936,28.212,35.345,28.212"/>
		<path fill="#99979A" d="M59.711,36.442c-2.305,0-7.373-7.982-7.942-8.893l0.423-0.265c1.509,2.408,5.802,8.658,7.52,8.658V36.442z
			"/>
		<path fill="#99979A" d="M57.428,23.926c-0.086-0.019-8.751-1.781-20.271-1.796v-0.5c11.575,0.015,20.286,1.788,20.373,1.806
			L57.428,23.926z"/>
		<rect x="37.251" y="27.962" fill="#99979A" width="0.5" height="18.461"/>
	</g>
</g>
</svg>
