<?xml version="1.0" encoding="utf-8"?>
<!-- Generator: Adobe Illustrator 16.0.0, SVG Export Plug-In . SVG Version: 6.00 Build 0)  -->
<!DOCTYPE svg PUBLIC "-//W3C//DTD SVG 1.1//EN" "http://www.w3.org/Graphics/SVG/1.1/DTD/svg11.dtd">
<svg version="1.1" xmlns="http://www.w3.org/2000/svg" xmlns:xlink="http://www.w3.org/1999/xlink" x="0px" y="0px"  viewBox="0 0 75 75" enable-background="new 0 0 75 75" xml:space="preserve">
<g id="Accessories">
</g>
<g id="TENCEL_Men_x27_s">
</g>
<g id="TENCEL_Women_x27_s">
</g>
<g id="STE">
</g>
<g id="Invisible">
</g>
<g id="Socks">
</g>
<g id="Cashmere">
</g>
<g id="Titles" display="none">
	<text transform="matrix(1 0 0 1 33.1035 0.7417)" display="inline"><tspan x="0" y="0" fill="#9B9694" font-family="'CircularAirPro-Bold'" font-size="4.4">T</tspan><tspan x="2.732" y="0" fill="#9B9694" font-family="'CircularAirPro-Bold'" font-size="4.4">hong</tspan></text>
</g>
<g id="OC_Womens">
	<g>
		<path fill="none" stroke="#99979A" stroke-width="0.5" stroke-miterlimit="10" d="M59.928,18.438c0,0-18.016,0.181-24.021,0.181
			c-6.007,0-24.021-0.181-24.021-0.181s-0.929,1.243-1.049,8.481c11.472,2.499,19.941,6.639,22.2,18.144h3.589h2.15
			c2.309-11.505,10.729-15.645,22.199-18.144C60.855,19.681,59.928,18.438,59.928,18.438z"/>
		<path fill="none" stroke="#99979A" stroke-width="0.5" stroke-miterlimit="10" d="M11.885,18.438c0,0,11.923,4.141,24.021,4.141"
			/>
		<path fill="none" stroke="#99979A" stroke-width="0.5" stroke-miterlimit="10" d="M59.928,18.438c0,0-11.923,4.141-24.021,4.141"
			/>
		<path fill="none" stroke="#99979A" stroke-width="0.5" stroke-miterlimit="10" d="M11.32,21.372c0,0,12.203,4.551,24.586,4.551"/>
		<path fill="none" stroke="#99979A" stroke-width="0.5" stroke-miterlimit="10" d="M60.492,21.372c0,0-12.203,4.551-24.586,4.551"
			/>
		<path fill="#FFFFFF" d="M63.117,29.938c0,0-18.016,0.181-24.021,0.181c-6.007,0-24.021-0.181-24.021-0.181
			s-0.929,1.243-1.049,8.481c11.472,2.499,19.941,6.639,22.2,18.143h3.589h2.15c2.309-11.504,10.728-15.644,22.199-18.143
			C64.044,31.182,63.117,29.938,63.117,29.938"/>
		<path fill="none" stroke="#99979A" stroke-width="0.5" stroke-miterlimit="10" d="M63.117,29.938c0,0-18.016,0.181-24.021,0.181
			c-6.007,0-24.021-0.181-24.021-0.181s-0.929,1.243-1.049,8.481c11.472,2.499,19.941,6.639,22.2,18.143h3.589h2.15
			c2.309-11.504,10.728-15.644,22.199-18.143C64.044,31.182,63.117,29.938,63.117,29.938z"/>
		<path fill="#FFFFFF" d="M15.074,29.938c0,0,11.923,4.141,24.021,4.141"/>
		<path fill="none" stroke="#99979A" stroke-width="0.5" stroke-miterlimit="10" d="M15.074,29.938c0,0,11.923,4.141,24.021,4.141"
			/>
		<path fill="#FFFFFF" d="M63.117,29.938c0,0-11.925,4.141-24.021,4.141"/>
		<path fill="none" stroke="#99979A" stroke-width="0.5" stroke-miterlimit="10" d="M63.117,29.938c0,0-11.925,4.141-24.021,4.141"
			/>
		<path fill="#FFFFFF" d="M14.509,32.873c0,0,12.203,4.551,24.587,4.551"/>
		<path fill="none" stroke="#99979A" stroke-width="0.5" stroke-miterlimit="10" d="M14.509,32.873c0,0,12.203,4.551,24.587,4.551"
			/>
		<path fill="#FFFFFF" d="M63.682,32.873c0,0-12.203,4.551-24.586,4.551"/>
		<path fill="none" stroke="#99979A" stroke-width="0.5" stroke-miterlimit="10" d="M63.682,32.873c0,0-12.203,4.551-24.586,4.551"
			/>
	</g>
</g>
<g id="OC_Mens">
</g>
<g id="STA_Womens">
</g>
<g id="STA_Mens">
</g>
</svg>
