<?xml version="1.0" encoding="utf-8"?>
<!-- Generator: Adobe Illustrator 16.0.0, SVG Export Plug-In . SVG Version: 6.00 Build 0)  -->
<!DOCTYPE svg PUBLIC "-//W3C//DTD SVG 1.1//EN" "http://www.w3.org/Graphics/SVG/1.1/DTD/svg11.dtd">
<svg version="1.1" xmlns="http://www.w3.org/2000/svg" xmlns:xlink="http://www.w3.org/1999/xlink" x="0px" y="0px"  viewBox="0 0 75 75" enable-background="new 0 0 75 75" xml:space="preserve"><g id="Invisible">
	<g>
		<path fill="#FFFFFF" d="M10.429,35.267c0.301-15.346,2.488-19.478,2.488-19.478S29.755,15.97,35.37,15.97
			c5.289,0,20.527-0.159,22.283-0.177c0.074,0.146,2.209,4.435,2.488,19.664C40.944,37.69,40.624,41.292,39.21,52.875h-3.885h-3.889
			C30.022,41.276,29.702,37.68,10.425,35.45C10.427,35.388,10.429,35.328,10.429,35.267"/>
		<path fill="none" stroke="#99979A" stroke-width="0.5" stroke-miterlimit="10" d="M10.429,35.267
			c0.301-15.346,2.488-19.478,2.488-19.478S29.755,15.97,35.37,15.97c5.289,0,20.527-0.159,22.283-0.177
			c0.074,0.146,2.209,4.435,2.488,19.664C40.944,37.69,40.624,41.292,39.21,52.875h-3.885h-3.889
			C30.022,41.276,29.702,37.68,10.425,35.45C10.427,35.388,10.429,35.328,10.429,35.267"/>
		<line fill="#FFFFFF" x1="10.425" y1="35.45" x2="31.438" y2="52.875"/>
		<line fill="none" stroke="#99979A" stroke-width="0.5" stroke-miterlimit="10" x1="10.425" y1="35.45" x2="31.438" y2="52.875"/>
		<line fill="#FFFFFF" x1="60.142" y1="35.458" x2="39.21" y2="52.875"/>
		<line fill="none" stroke="#99979A" stroke-width="0.5" stroke-miterlimit="10" x1="60.142" y1="35.458" x2="39.21" y2="52.875"/>
		<polyline fill="#FFFFFF" points="43.644,59.21 39.757,59.21 35.87,59.21 14.858,41.786 		"/>
		<path fill="#FFFFFF" d="M43.644,59.21l20.932-17.417c-0.281-15.229-2.414-19.52-2.49-19.664
			c-1.754,0.017-16.996,0.177-22.283,0.177c-5.613,0-22.453-0.181-22.453-0.181s-2.186,4.132-2.486,19.477
			c-0.002,0.061-0.004,0.122-0.004,0.184"/>
		<path fill="#FFFFFF" d="M14.862,41.602c0.301-15.346,2.486-19.478,2.486-19.478s16.84,0.182,22.453,0.182
			c5.289,0,20.527-0.16,22.285-0.178c0.072,0.146,2.207,4.436,2.488,19.664c-19.197,2.233-19.52,5.834-20.932,17.417h-3.887H35.87
			c-1.416-11.598-1.736-15.194-21.012-17.424C14.858,41.724,14.86,41.663,14.862,41.602"/>
		<path fill="none" stroke="#99979A" stroke-width="0.5" stroke-miterlimit="10" d="M14.862,41.602
			c0.301-15.346,2.486-19.478,2.486-19.478s16.84,0.182,22.453,0.182c5.289,0,20.527-0.16,22.285-0.178
			c0.072,0.146,2.207,4.436,2.488,19.664c-19.197,2.233-19.52,5.834-20.932,17.417h-3.887H35.87
			c-1.416-11.598-1.736-15.194-21.012-17.424C14.858,41.724,14.86,41.663,14.862,41.602"/>
		<line fill="#FFFFFF" x1="14.858" y1="41.786" x2="35.87" y2="59.21"/>
		<line fill="none" stroke="#99979A" stroke-width="0.5" stroke-miterlimit="10" x1="14.858" y1="41.786" x2="35.87" y2="59.21"/>
		<line fill="#FFFFFF" x1="64.575" y1="41.793" x2="43.644" y2="59.21"/>
		<line fill="none" stroke="#99979A" stroke-width="0.5" stroke-miterlimit="10" x1="64.575" y1="41.793" x2="43.644" y2="59.21"/>
	</g>
</g><g id="Titles" display="none">
	<text transform="matrix(1 0 0 1 -0.5957 2.5112)" display="inline"><tspan x="0" y="0" fill="#9B9694" font-family="'CircularAirPro-Bold'" font-size="4.4">I</tspan><tspan x="1.33" y="0" fill="#9B9694" font-family="'CircularAirPro-Bold'" font-size="4.4">n</tspan><tspan x="3.859" y="0" fill="#9B9694" font-family="'CircularAirPro-Bold'" font-size="4.4">visible </tspan><tspan x="18.129" y="0" fill="#9B9694" font-family="'CircularAirPro-Bold'" font-size="4.4">C</tspan><tspan x="21.449" y="0" fill="#9B9694" font-family="'CircularAirPro-Bold'" font-size="4.4">heeky Hig</tspan><tspan x="42.023" y="0" fill="#9B9694" font-family="'CircularAirPro-Bold'" font-size="4.4">hw</tspan><tspan x="48.232" y="0" fill="#9B9694" font-family="'CircularAirPro-Bold'" font-size="4.4">aisted </tspan><tspan x="61.701" y="0" fill="#9B9694" font-family="'CircularAirPro-Bold'" font-size="4.4">B</tspan><tspan x="64.375" y="0" fill="#9B9694" font-family="'CircularAirPro-Bold'" font-size="4.4">r</tspan><tspan x="66.105" y="0" fill="#9B9694" font-family="'CircularAirPro-Bold'" font-size="4.4">ie</tspan><tspan x="69.748" y="0" fill="#9B9694" font-family="'CircularAirPro-Bold'" font-size="4.4">f</tspan><tspan x="71.336" y="0" fill="#9B9694" font-family="'CircularAirPro-Bold'" font-size="4.4">s</tspan></text>
</g></svg>
