<?xml version="1.0" encoding="utf-8"?>
<!-- Generator: Adobe Illustrator 16.0.0, SVG Export Plug-In . SVG Version: 6.00 Build 0)  -->
<!DOCTYPE svg PUBLIC "-//W3C//DTD SVG 1.1//EN" "http://www.w3.org/Graphics/SVG/1.1/DTD/svg11.dtd">
<svg version="1.1" xmlns="http://www.w3.org/2000/svg" xmlns:xlink="http://www.w3.org/1999/xlink" x="0px" y="0px"  viewBox="0 0 75 75" enable-background="new 0 0 75 75" xml:space="preserve">
<g id="Invisible">
	<g>
		<path fill="none" stroke="#99979A" stroke-width="0.5" stroke-miterlimit="10" d="M152.948,41.23
			c-0.012-3.653,2.24-15.329,2.24-15.329s-7.123-1.4-3.109-16.635l-1.77-0.497c0,0-0.842,5.086-2.596,9.295
			c-1.283,3.074-3.982,4.999-6.879,4.999c-2.9,0-5.6-1.925-6.881-4.999c-1.756-4.209-2.598-9.295-2.598-9.295l-1.768,0.497
			c4.012,15.234-3.109,16.635-3.109,16.635s2.25,11.676,2.24,15.329c-0.014,4.057-2.518,15.321-2.518,15.321h14.631h0.002h14.629
			C155.464,56.551,152.962,45.287,152.948,41.23z"/>
	</g>
	<g>
		<path fill="none" stroke="#99979A" stroke-width="0.5" stroke-miterlimit="10" d="M242.747,112.878h-23.193H196.36
			c-0.828,1.479-3.148,15.44-3.148,15.44c11.764,3.779,22.365,11.663,22.365,11.663h3.977h3.977c0,0,10.604-7.884,22.363-11.663
			C245.894,128.318,243.575,114.356,242.747,112.878z"/>
		<path fill="none" stroke="#99979A" stroke-width="0.5" stroke-miterlimit="10" d="M196.36,112.96c0,0,7.402,3.613,23.193,3.613"/>
		<path fill="none" stroke="#99979A" stroke-width="0.5" stroke-miterlimit="10" d="M242.747,112.96c0,0-7.402,3.613-23.193,3.613"
			/>
		<path fill="none" stroke="#99979A" stroke-width="0.5" stroke-miterlimit="10" d="M223.446,139.9
			c5.965-7.394,12.592-9.856,22.365-11.663"/>
		<path fill="none" stroke="#99979A" stroke-width="0.5" stroke-miterlimit="10" d="M215.661,139.9
			c-5.965-7.394-12.592-9.856-22.365-11.663"/>
		<path fill="#FFFFFF" d="M246.64,122.529h-23.191h-23.195c-0.828,1.479-3.146,15.44-3.146,15.44
			c11.762,3.779,22.363,11.663,22.363,11.663h3.979h3.975c0,0,10.602-7.884,22.365-11.663
			C249.788,137.97,247.468,124.008,246.64,122.529"/>
		<path fill="none" stroke="#99979A" stroke-width="0.5" stroke-miterlimit="10" d="M246.64,122.529h-23.191h-23.195
			c-0.828,1.479-3.146,15.44-3.146,15.44c11.762,3.779,22.363,11.663,22.363,11.663h3.979h3.975c0,0,10.602-7.884,22.365-11.663
			C249.788,137.97,247.468,124.008,246.64,122.529z"/>
		<path fill="#FFFFFF" d="M200.253,122.611c0,0,7.402,3.613,23.193,3.613"/>
		<path fill="none" stroke="#99979A" stroke-width="0.5" stroke-miterlimit="10" d="M200.253,122.611c0,0,7.402,3.613,23.193,3.613"
			/>
		<path fill="#FFFFFF" d="M246.64,122.611c0,0-7.4,3.613-23.191,3.613"/>
		<path fill="none" stroke="#99979A" stroke-width="0.5" stroke-miterlimit="10" d="M246.64,122.611c0,0-7.4,3.613-23.191,3.613"/>
		<path fill="#FFFFFF" d="M227.339,149.552c5.965-7.394,12.592-9.856,22.365-11.663"/>
		<path fill="none" stroke="#99979A" stroke-width="0.5" stroke-miterlimit="10" d="M227.339,149.552
			c5.965-7.394,12.592-9.856,22.365-11.663"/>
		<path fill="#FFFFFF" d="M219.554,149.552c-5.965-7.394-12.592-9.856-22.365-11.663"/>
		<path fill="none" stroke="#99979A" stroke-width="0.5" stroke-miterlimit="10" d="M219.554,149.552
			c-5.965-7.394-12.592-9.856-22.365-11.663"/>
		<path fill="none" stroke="#99979A" stroke-width="0.5" stroke-miterlimit="10" d="M246.64,122.529h-23.191h-23.195
			c-0.828,1.479-3.146,15.44-3.146,15.44c11.762,3.779,22.363,11.663,22.363,11.663h3.979h3.975c0,0,10.602-7.884,22.365-11.663
			C249.788,137.97,247.468,124.008,246.64,122.529z"/>
		<path fill="none" stroke="#99979A" stroke-width="0.5" stroke-miterlimit="10" d="M200.253,122.611c0,0,7.402,3.613,23.193,3.613"
			/>
		<path fill="none" stroke="#99979A" stroke-width="0.5" stroke-miterlimit="10" d="M246.64,122.611c0,0-7.4,3.613-23.191,3.613"/>
		<path fill="none" stroke="#99979A" stroke-width="0.5" stroke-miterlimit="10" d="M227.339,149.552
			c5.965-7.394,12.592-9.856,22.365-11.663"/>
		<path fill="none" stroke="#99979A" stroke-width="0.5" stroke-miterlimit="10" d="M219.554,149.552
			c-5.965-7.394-12.592-9.856-22.365-11.663"/>
	</g>
	<g>
		<path fill="none" stroke="#99979A" stroke-width="0.5" stroke-miterlimit="10" d="M159.154,115.221c0,0-18.016,0.18-24.021,0.18
			s-24.021-0.18-24.021-0.18s-0.928,1.944-1.047,9.184c19.445,2.224,19.762,5.807,21.182,17.44h3.887h3.887
			c1.42-11.634,1.736-15.217,21.182-17.44C160.082,117.166,159.154,115.221,159.154,115.221z"/>
		<path fill="#FFFFFF" d="M165.221,120.665c0,0-18.016,0.18-24.021,0.18s-24.021-0.18-24.021-0.18s-0.928,1.944-1.049,9.184
			c19.445,2.225,19.764,5.809,21.184,17.441h3.887h3.887c1.418-11.633,1.736-15.217,21.182-17.441
			C166.148,122.609,165.221,120.665,165.221,120.665"/>
		<path fill="none" stroke="#99979A" stroke-width="0.5" stroke-miterlimit="10" d="M165.221,120.665c0,0-18.016,0.18-24.021,0.18
			s-24.021-0.18-24.021-0.18s-0.928,1.944-1.049,9.184c19.445,2.225,19.764,5.809,21.184,17.441h3.887h3.887
			c1.418-11.633,1.736-15.217,21.182-17.441C166.148,122.609,165.221,120.665,165.221,120.665z"/>
	</g>
	<g>
		<path fill="#FFFFFF" d="M37.341,57.253c-2.496-0.018-4.975-0.049-5.619-0.058c-0.123-0.002-0.236-0.045-0.332-0.121
			C31.05,56.798,14.665,25.06,14.28,24.777c-0.176-0.13,1.826-6.489,1.969-6.912c0.09-0.266,21.16,0,21.16,0h0.182
			c0,0,21.07-0.266,21.16,0c0.145,0.423,2.146,6.782,1.969,6.912C60.335,25.06,43.948,56.798,43.61,57.075
			c-0.096,0.076-0.209,0.119-0.332,0.121c-0.645,0.009-3.123,0.04-5.619,0.058H37.341z"/>
		<path fill="none" stroke="#99979A" stroke-width="0.5" stroke-miterlimit="10" d="M37.341,57.253
			c-2.496-0.018-4.975-0.049-5.619-0.058c-0.123-0.002-0.236-0.045-0.332-0.121C31.05,56.798,14.665,25.06,14.28,24.777
			c-0.176-0.13,1.826-6.489,1.969-6.912c0.09-0.266,21.16,0,21.16,0h0.182c0,0,21.07-0.266,21.16,0
			c0.145,0.423,2.146,6.782,1.969,6.912C60.335,25.06,43.948,56.798,43.61,57.075c-0.096,0.076-0.209,0.119-0.332,0.121
			c-0.645,0.009-3.123,0.04-5.619,0.058H37.341z"/>
		<path fill="none" stroke="#99979A" stroke-width="0.5" stroke-miterlimit="10" d="M14.28,24.785
			c6.072,4.66,13.861,18.158,15.23,22.493c1.09,3.448,2.209,7.845,1.621,9.419"/>
		<path fill="none" stroke="#99979A" stroke-width="0.5" stroke-miterlimit="10" d="M60.53,25.053
			c-6.07,4.66-13.859,18.158-15.23,22.493c-1.09,3.446-2.207,7.844-1.619,9.419"/>
	</g>
	<g>
		<path fill="#FFFFFF" d="M43.341,65.253c-2.496-0.018-4.975-0.049-5.619-0.058c-0.123-0.002-0.236-0.045-0.332-0.121
			C37.05,64.798,20.665,33.06,20.28,32.777c-0.176-0.13,1.826-6.489,1.969-6.912c0.09-0.266,21.16,0,21.16,0h0.182
			c0,0,21.07-0.266,21.16,0c0.145,0.423,2.146,6.782,1.969,6.912C66.335,33.06,49.948,64.798,49.61,65.075
			c-0.096,0.076-0.209,0.119-0.332,0.121c-0.645,0.009-3.123,0.04-5.619,0.058H43.341z"/>
		<path fill="none" stroke="#99979A" stroke-width="0.5" stroke-miterlimit="10" d="M43.341,65.253
			c-2.496-0.018-4.975-0.049-5.619-0.058c-0.123-0.002-0.236-0.045-0.332-0.121C37.05,64.798,20.665,33.06,20.28,32.777
			c-0.176-0.13,1.826-6.489,1.969-6.912c0.09-0.266,21.16,0,21.16,0h0.182c0,0,21.07-0.266,21.16,0
			c0.145,0.423,2.146,6.782,1.969,6.912C66.335,33.06,49.948,64.798,49.61,65.075c-0.096,0.076-0.209,0.119-0.332,0.121
			c-0.645,0.009-3.123,0.04-5.619,0.058H43.341z"/>
		<path fill="none" stroke="#99979A" stroke-width="0.5" stroke-miterlimit="10" d="M20.28,32.785
			c6.072,4.66,13.861,18.158,15.23,22.493c1.09,3.448,2.209,7.845,1.621,9.419"/>
		<path fill="none" stroke="#99979A" stroke-width="0.5" stroke-miterlimit="10" d="M66.53,33.053
			c-6.07,4.66-13.859,18.158-15.23,22.493c-1.09,3.446-2.207,7.844-1.619,9.419"/>
	</g>
	<g>
		<path fill="none" stroke="#99979A" stroke-width="0.5" stroke-miterlimit="10" d="M243.021,59.341c0,0-11.377,1.951-13.293,7.655"
			/>
		<path fill="none" stroke="#99979A" stroke-width="0.5" stroke-miterlimit="10" d="M242.818,59.076c0,0-11.174,1.833-13.279,7.423"
			/>
		<path fill="none" stroke="#99979A" stroke-width="0.5" stroke-miterlimit="10" d="M210.867,59.341c0,0,11.219,1.951,13.133,7.655"
			/>
		<path fill="none" stroke="#99979A" stroke-width="0.5" stroke-miterlimit="10" d="M211.01,58.883c0,0,11.076,2.025,13.182,7.615"
			/>
		<path fill="#FFFFFF" d="M226.951,25.256c2.396-0.354,8.438-7.704,8.438-7.704h1.176c1.506,5.82,4.965,6.449,4.965,6.449
			l0.002,0.132c0,0,0.654,3.459-0.717,9.548c0,0-0.918,4.082-1.051,4.565c-0.127,0.486-0.979,3.873-0.848,5.051
			c0.133,1.174,1.785,5.267,2.111,6.164c0.328,0.9,1.682,8.064,2.076,10.276c0,0-11.146,1.594-13.543,8.465h-5.455
			c0.004-0.177-0.043-0.248-0.043-0.248c-2.617-6.901-13.5-8.217-13.5-8.217c0.395-2.212,1.598-8.745,1.922-9.646
			c0.326-0.896,2.135-5.62,2.266-6.794c0.133-1.178-0.721-4.564-0.85-5.051c-0.131-0.483-1.049-4.565-1.049-4.565
			c-1.371-6.089-0.961-9.596-0.961-9.596l0.068-0.084c0,0,3.461-0.629,4.967-6.449h1.176c0,0,6.004,7.309,8.352,7.691
			L226.951,25.256z"/>
		<path fill="none" stroke="#99979A" stroke-width="0.5" stroke-miterlimit="10" d="M226.951,25.256
			c2.396-0.354,8.438-7.704,8.438-7.704h1.176c1.506,5.82,4.965,6.449,4.965,6.449l0.002,0.132c0,0,0.654,3.459-0.717,9.548
			c0,0-0.918,4.082-1.051,4.565c-0.127,0.486-0.979,3.873-0.848,5.051c0.133,1.174,1.785,5.267,2.111,6.164
			c0.328,0.9,1.682,8.064,2.076,10.276c0,0-11.146,1.594-13.543,8.465h-5.455c0.004-0.177-0.043-0.248-0.043-0.248
			c-2.617-6.901-13.5-8.217-13.5-8.217c0.395-2.212,1.598-8.745,1.922-9.646c0.326-0.896,2.135-5.62,2.266-6.794
			c0.133-1.178-0.721-4.564-0.85-5.051c-0.131-0.483-1.049-4.565-1.049-4.565c-1.371-6.089-0.961-9.596-0.961-9.596l0.068-0.084
			c0,0,3.461-0.629,4.967-6.449h1.176c0,0,6.004,7.309,8.352,7.691L226.951,25.256z"/>
		<path fill="#FFFFFF" d="M235.568,17.526c-0.043,0.042,2.211-10.729,2.211-10.729l0.936,0.021l-2.168,10.666L235.568,17.526z"/>
		<path fill="none" stroke="#99979A" stroke-width="0.5" stroke-miterlimit="10" d="M235.568,17.526
			c-0.043,0.042,2.211-10.729,2.211-10.729l0.936,0.021l-2.168,10.666L235.568,17.526z"/>
		<path fill="#FFFFFF" d="M217.973,17.526c0.043,0.042-2.211-10.729-2.211-10.729l-0.936,0.021l2.168,10.666L217.973,17.526z"/>
		<path fill="none" stroke="#99979A" stroke-width="0.5" stroke-miterlimit="10" d="M217.973,17.526
			c0.043,0.042-2.211-10.729-2.211-10.729l-0.936,0.021l2.168,10.666L217.973,17.526z"/>
	</g>
	<g>
		<path fill="#FFFFFF" d="M15.095,132.356c0.301-15.346,2.488-19.478,2.488-19.478s16.838,0.181,22.453,0.181
			c5.289,0,20.527-0.159,22.283-0.177c0.074,0.146,2.209,4.435,2.488,19.664c-19.197,2.232-19.518,5.834-20.932,17.417h-3.885
			h-3.889c-1.414-11.599-1.734-15.194-21.012-17.425C15.093,132.477,15.095,132.417,15.095,132.356"/>
		<path fill="none" stroke="#99979A" stroke-width="0.5" stroke-miterlimit="10" d="M15.095,132.356
			c0.301-15.346,2.488-19.478,2.488-19.478s16.838,0.181,22.453,0.181c5.289,0,20.527-0.159,22.283-0.177
			c0.074,0.146,2.209,4.435,2.488,19.664c-19.197,2.232-19.518,5.834-20.932,17.417h-3.885h-3.889
			c-1.414-11.599-1.734-15.194-21.012-17.425C15.093,132.477,15.095,132.417,15.095,132.356"/>
		<line fill="#FFFFFF" x1="15.091" y1="132.539" x2="36.104" y2="149.964"/>
		
			<line fill="none" stroke="#99979A" stroke-width="0.5" stroke-miterlimit="10" x1="15.091" y1="132.539" x2="36.104" y2="149.964"/>
		<line fill="#FFFFFF" x1="64.808" y1="132.547" x2="43.876" y2="149.964"/>
		
			<line fill="none" stroke="#99979A" stroke-width="0.5" stroke-miterlimit="10" x1="64.808" y1="132.547" x2="43.876" y2="149.964"/>
		<polyline fill="#FFFFFF" points="48.31,156.299 44.423,156.299 40.536,156.299 19.524,138.875 		"/>
		<path fill="#FFFFFF" d="M48.31,156.299l20.932-17.417c-0.281-15.229-2.414-19.52-2.49-19.664
			c-1.754,0.017-16.996,0.177-22.283,0.177c-5.613,0-22.453-0.181-22.453-0.181s-2.186,4.132-2.486,19.477
			c-0.002,0.061-0.004,0.122-0.004,0.184"/>
		<path fill="#FFFFFF" d="M19.528,138.691c0.301-15.346,2.486-19.478,2.486-19.478s16.84,0.182,22.453,0.182
			c5.289,0,20.527-0.16,22.285-0.178c0.072,0.146,2.207,4.436,2.488,19.664c-19.197,2.233-19.52,5.834-20.932,17.417h-3.887h-3.887
			c-1.416-11.598-1.736-15.194-21.012-17.424C19.524,138.813,19.526,138.751,19.528,138.691"/>
		<path fill="none" stroke="#99979A" stroke-width="0.5" stroke-miterlimit="10" d="M19.528,138.691
			c0.301-15.346,2.486-19.478,2.486-19.478s16.84,0.182,22.453,0.182c5.289,0,20.527-0.16,22.285-0.178
			c0.072,0.146,2.207,4.436,2.488,19.664c-19.197,2.233-19.52,5.834-20.932,17.417h-3.887h-3.887
			c-1.416-11.598-1.736-15.194-21.012-17.424C19.524,138.813,19.526,138.751,19.528,138.691"/>
		<line fill="#FFFFFF" x1="19.524" y1="138.875" x2="40.536" y2="156.299"/>
		
			<line fill="none" stroke="#99979A" stroke-width="0.5" stroke-miterlimit="10" x1="19.524" y1="138.875" x2="40.536" y2="156.299"/>
		<line fill="#FFFFFF" x1="69.241" y1="138.882" x2="48.31" y2="156.299"/>
		
			<line fill="none" stroke="#99979A" stroke-width="0.5" stroke-miterlimit="10" x1="69.241" y1="138.882" x2="48.31" y2="156.299"/>
	</g>
</g>
</svg>
