<?xml version="1.0" encoding="utf-8"?>
<!-- Generator: Adobe Illustrator 16.0.0, SVG Export Plug-In . SVG Version: 6.00 Build 0)  -->
<!DOCTYPE svg PUBLIC "-//W3C//DTD SVG 1.1//EN" "http://www.w3.org/Graphics/SVG/1.1/DTD/svg11.dtd">
<svg version="1.1" xmlns="http://www.w3.org/2000/svg" xmlns:xlink="http://www.w3.org/1999/xlink" x="0px" y="0px" viewBox="0 0 75 75" enable-background="new 0 0 75 75" xml:space="preserve">
<g id="Shirting">
	<g>
		<path fill="#99969A" d="M37.883,71.259c-8.329,0-14.448-4.275-14.539-4.341l0.262-0.365c0.134,0.095,13.654,9.529,27.8-0.003
			l0.251,0.373C46.831,70.174,42.076,71.259,37.883,71.259"/>
		<path fill="#99969A" d="M37.005,29.726c0.369,0,0.668-0.3,0.668-0.669s-0.299-0.668-0.668-0.668c-0.368,0-0.668,0.299-0.668,0.668
			S36.637,29.726,37.005,29.726 M37.005,28.838c0.122,0,0.219,0.099,0.219,0.219c0,0.121-0.097,0.219-0.219,0.219
			c-0.119,0-0.218-0.099-0.218-0.219C36.787,28.937,36.886,28.838,37.005,28.838"/>
		<path fill="#99969A" d="M37.005,23.603c0.369,0,0.668-0.3,0.668-0.669s-0.299-0.669-0.668-0.669c-0.368,0-0.668,0.3-0.668,0.669
			S36.637,23.603,37.005,23.603 M37.005,22.715c0.122,0,0.219,0.098,0.219,0.219c0,0.12-0.097,0.219-0.219,0.219
			c-0.119,0-0.218-0.099-0.218-0.219C36.787,22.813,36.886,22.715,37.005,22.715"/>
		<path fill="#99969A" d="M37.005,17.625c0.369,0,0.668-0.3,0.668-0.667c0-0.369-0.299-0.669-0.668-0.669
			c-0.368,0-0.668,0.3-0.668,0.669C36.337,17.326,36.637,17.625,37.005,17.625 M37.005,16.739c0.122,0,0.219,0.098,0.219,0.219
			c0,0.12-0.097,0.217-0.219,0.217c-0.119,0-0.218-0.097-0.218-0.217C36.787,16.837,36.886,16.739,37.005,16.739"/>
		<path fill="#99969A" d="M56.396,50.263c0.544-1.638-1.006-14.036-1.676-15.331c-0.514-0.994-0.999-8.558-1.142-11.363
			c0.514-8.104-1.125-11.824-1.23-12.055c-0.016-0.043-0.089-0.245-0.321-0.676c-0.132-0.241-0.938-1.597-1.341-1.785
			c-0.204-0.096-3.637-1.926-5.673-3.015V5.971L44.94,5.905c-0.015-0.013-1.421-1.271-2.009-2.076
			c-0.403-0.548-1.001-0.754-1.34-0.832c-0.114-0.046-0.215-0.055-0.264-0.046c-0.246-0.014-6.049-0.326-7.775,0.003
			c-0.016,0.003-0.024,0.013-0.038,0.017c-0.292,0.051-1.005,0.233-1.463,0.858c-0.588,0.805-1.995,2.063-2.009,2.076l-0.078,0.07
			l0.002,0.104c0,0.018,0.004,0.085,0.007,0.183c-1.872,0.958-5.26,2.691-5.482,2.789c-0.418,0.187-1.266,1.542-1.402,1.785
			c-0.264,0.46-0.336,0.668-0.345,0.689l-0.021,0.063l0.003,0.013c-0.024,0.021-0.055,0.032-0.068,0.062
			c-0.072,0.154-1.756,3.873-1.236,12.042c-0.144,2.831-0.627,10.395-1.142,11.39c-0.671,1.295-2.221,13.693-1.677,15.331
			l-0.47,3.979c0,0.003,0,0.005-0.002,0.008l-0.029,0.253l0.188-0.004c0.219,0.135,0.953,0.514,2.637,0.735
			c0.673,0.088,1.192,0.119,1.588,0.119c0.485,0,0.77-0.044,0.937-0.083c-0.056,2.175-0.1,4.372-0.124,6.494
			c0,0.01-0.001,0.02-0.001,0.029h0.001c-0.023,1.984-0.028,3.901-0.009,5.665l0.001,0.103l0.077,0.065
			c0.052,0.044,5.239,4.408,14.509,4.408c8.832,0,13.776-4.368,13.826-4.412l0.073-0.066V67.62c0.02-1.763,0.015-3.68-0.009-5.662
			h0.002c0-0.004-0.002-0.006-0.002-0.009c-0.022-2.188-0.066-4.458-0.122-6.699c0.172,0.047,0.451,0.097,0.93,0.097
			c0.368,0,0.851-0.03,1.47-0.111c1.689-0.223,2.423-0.604,2.64-0.738l0.185-0.001L56.396,50.263z M54.321,35.139
			c0.614,1.187,2.12,13.09,1.686,14.88c-0.644,0.003-2.965,0.067-4.461,0.709c-0.234-7.493-0.538-13.687-0.543-13.79
			c-0.097-6.288-0.271-18.273-0.25-18.625c0.025-0.23,0.812-3.456,1.428-5.948c0.451,1.4,1.337,5.037,0.949,11.201
			C53.15,23.985,53.658,33.855,54.321,35.139 M51.632,11.055c0.159,0.292,0.237,0.473,0.271,0.556
			c-0.049,0.196-0.151,0.611-0.28,1.133l-1.213-1.961c-0.066-0.176-0.425-0.886-2.02-1.581c-1.466-0.639-3.045-1.219-3.433-1.36
			c0.035-0.517,0.049-0.971,0.054-1.292c1.417,0.756,5.251,2.803,5.484,2.912C50.674,9.55,51.313,10.473,51.632,11.055
			 M42.567,4.095c0.537,0.734,1.662,1.773,1.985,2.065l-0.06,0.111c0.011,0.006,0.043,0.023,0.072,0.039
			c-0.007,0.8-0.075,3.448-0.701,4.752l-2.389-0.676l-0.689-1.241c1.127-2.682,1.564-4.505,1.321-5.461
			C42.273,3.785,42.437,3.915,42.567,4.095 M38.112,64.471c-0.712,0.019-1.38,0.031-2.02,0.042V31.181
			c0.323,0.001,0.936,0.003,1.44,0.003c0.231,0,0.432-0.001,0.579-0.001V64.471z M23.908,55.198
			c0.245-9.325,0.697-18.118,0.704-18.252c0.03-1.877,0.292-18.349,0.261-18.677c-0.022-0.22-0.679-2.784-1.171-4.697
			c0.011-0.011,0.024-0.018,0.033-0.032l1.496-2.433c0.003-0.006,0.241-0.664,1.78-1.335c1.241-0.541,2.563-1.038,3.163-1.26
			c0.146,1.059,0.387,2.214,0.793,2.927l0.089,0.158l2.346-0.724l-0.122,0.207l0.211,0.109c0.015,0.008,1.451,0.758,2.151,1.15
			v52.181c-7.412,0.104-10.082-0.283-10.711-0.401c-0.094-2.332-0.294-5.077-0.719-5.337c-0.1-0.06-0.212-0.064-0.311-0.011
			c-0.026,0.014-0.052,0.044-0.077,0.073c0.023-1.191,0.051-2.39,0.081-3.58l0.049-0.022L23.908,55.198z M40.344,9.037
			c-1.647,1.696-2.53,3.028-2.915,3.683c-0.624-1.403-1.578-3.082-2.71-3.547c-0.29-0.64-0.75-1.772-1.081-2.875h7.714
			C41.137,7.017,40.818,7.912,40.344,9.037 M34.652,9.628c1.009,0.496,1.896,2.173,2.466,3.504c-0.372-0.48-0.769-0.907-1.118-1.108
			c-0.514-0.293-1.626-0.88-2.092-1.124L34.652,9.628z M38.112,30.733c-0.458,0.005-1.556-0.001-2.02-0.002V12.657
			c0.823,0.744,1.837,2.492,2.02,2.812V30.733z M37.652,13.239c0.214-0.399,1.048-1.821,2.838-3.701l0.742,1.34
			c-0.565,0.318-1.894,1.078-2.131,1.362c-0.171,0.205-0.854,0.935-1.291,1.397C37.762,13.51,37.708,13.378,37.652,13.239
			 M41.296,3.396v0.003c0.002,0.001,0.059,0.007,0.146,0.025c0.036,0.018,0.079,0.044,0.119,0.096
			c0.144,0.188,0.329,0.747-0.084,2.328h-7.969c-0.252-0.946-0.374-1.81-0.154-2.234c0.056-0.109,0.137-0.169,0.242-0.202
			c0.051-0.008,0.09-0.014,0.092-0.014l-0.002-0.01C35.354,3.095,40.798,3.374,41.296,3.396 M32.416,4.095
			c0.124-0.171,0.278-0.298,0.435-0.395c-0.353,1.511,1.126,4.922,1.449,5.639l-0.562,0.959l-2.462,0.761
			c-0.339-0.698-0.548-1.777-0.673-2.754c0.042-0.058,0.067-0.128,0.04-0.202c-0.012-0.038-0.046-0.058-0.075-0.082
			c-0.099-0.855-0.138-1.589-0.147-1.852C30.733,5.886,31.874,4.835,32.416,4.095 M23.479,11.059
			c0.336-0.587,1.012-1.512,1.196-1.597c0.258-0.114,4.18-2.12,5.326-2.708c0.022,0.348,0.06,0.804,0.116,1.301
			c-0.54,0.197-1.951,0.723-3.284,1.305c-1.595,0.695-1.953,1.404-2.02,1.583l-1.264,2.04c-0.164-0.636-0.296-1.143-0.355-1.371
			C23.231,11.527,23.313,11.348,23.479,11.059 M20.679,35.301c0.664-1.286,1.173-11.153,1.191-11.599
			c-0.413-6.536,0.618-10.237,1.033-11.423c0.649,2.502,1.493,5.799,1.521,6.032c0.022,0.362-0.161,12.343-0.262,18.621
			c-0.006,0.108-0.331,6.423-0.579,14.016c-1.486-0.696-3.93-0.764-4.591-0.767C18.559,48.391,20.066,36.487,20.679,35.301
			 M20.984,54.95c-0.618-0.082-1.099-0.184-1.466-0.284c1.098,0.028,2.501,0.128,3.322,0.39
			C22.453,55.078,21.856,55.065,20.984,54.95 M18.609,54.206l0.422-3.574c0.707,0.009,3.204,0.086,4.528,0.795
			c0.004,0.001,0.006,0.001,0.009,0.001c-0.037,1.118-0.07,2.262-0.1,3.415C22.383,54.227,19.539,54.196,18.609,54.206
			 M51.357,67.512c-0.636,0.531-5.37,4.234-13.451,4.234c-8.484,0-13.469-3.706-14.138-4.237c-0.019-1.736-0.014-3.621,0.009-5.568
			c0.038-0.967,0.142-2.062,0.268-2.552c0.189,0.747,0.367,2.928,0.444,4.924l0.006,0.164l0.158,0.044
			c0.084,0.022,1.8,0.472,8.501,0.472c1.466,0,3.171-0.021,5.148-0.073h0.033c0.525,0.001,1.029,0.002,1.51,0.002
			c9.552,0,10.52-0.364,10.6-0.407l0.116-0.062l0.003-0.13c0.053-2.069,0.213-4.336,0.387-4.992
			c0.155,0.453,0.316,1.612,0.396,2.634C51.369,63.904,51.374,65.781,51.357,67.512 M51.089,58.769
			c-0.098-0.051-0.212-0.045-0.31,0.012c-0.428,0.262-0.596,3.018-0.661,5.358c-0.497,0.093-2.708,0.344-11.556,0.33V15.41
			l-0.028-0.11c-0.018-0.03-0.14-0.25-0.33-0.563c-0.027-0.084-0.102-0.313-0.216-0.632c0.407-0.431,1.258-1.335,1.459-1.577
			c0.159-0.192,1.384-0.913,2.2-1.364l0.198-0.109l-0.062-0.112l2.303,0.651l0.089-0.154c0.432-0.759,0.642-2.022,0.745-3.133
			c0.505,0.186,1.939,0.719,3.291,1.307c1.54,0.671,1.779,1.329,1.78,1.33l1.48,2.413c-0.474,1.929-1.145,4.685-1.167,4.913
			c-0.03,0.328,0.22,16.798,0.248,18.684c0.005,0.127,0.431,8.757,0.664,17.982l-0.066,0.042l0.068,0.042
			c0.034,1.345,0.063,2.703,0.087,4.048C51.24,58.923,51.17,58.811,51.089,58.769 M54.016,54.788
			c-0.71,0.094-1.213,0.112-1.579,0.104c0.804-0.197,1.96-0.301,2.914-0.353C55.003,54.629,54.563,54.716,54.016,54.788
			 M51.66,54.693c-0.03-1.179-0.063-2.345-0.099-3.486c1.351-0.653,3.72-0.73,4.407-0.737l0.423,3.581
			C55.537,54.067,52.795,54.165,51.66,54.693"/>
	</g>
</g>
</svg>
