<?xml version="1.0" encoding="utf-8"?>
<!-- Generator: Adobe Illustrator 16.0.0, SVG Export Plug-In . SVG Version: 6.00 Build 0)  -->
<!DOCTYPE svg PUBLIC "-//W3C//DTD SVG 1.1//EN" "http://www.w3.org/Graphics/SVG/1.1/DTD/svg11.dtd">
<svg version="1.1" xmlns="http://www.w3.org/2000/svg" xmlns:xlink="http://www.w3.org/1999/xlink" x="0px" y="0px" viewBox="0 0 75 75" enable-background="new 0 0 75 75" xml:space="preserve">
<g id="Cashmere">
	<g>
		<path fill="#99969A" d="M24.128,52.46l-3.188-0.646l-0.002-0.203l-0.26-31.223c0.271-1.608,0.627-5.854-0.946-6.707l0.238-0.439
			c2.209,1.197,1.245,6.943,1.203,7.188l0.263,30.975l2.793,0.566L24.128,52.46z"/>
		<path fill="#99969A" d="M37.58,16.469c-4.169,0-6.481-1.837-7.687-3.378c-1.309-1.671-1.622-3.321-1.634-3.392l0.491-0.09
			c0.049,0.26,1.264,6.359,8.829,6.359V16.469z"/>
		<path fill="#99969A" d="M50.803,52.46l-0.1-0.489l2.793-0.566l0.258-31.02c-0.038-0.199-1.003-5.945,1.207-7.143l0.238,0.439
			c-1.573,0.853-1.218,5.099-0.949,6.662l-0.258,31.471L50.803,52.46z"/>
		<path fill="#99969A" d="M37.58,16.469h-0.253l0.034-2.803l0.5,0.006l-0.028,2.295c7.344-0.139,8.337-6.286,8.347-6.35l0.494,0.074
			C46.663,9.759,45.579,16.469,37.58,16.469"/>
		<path fill="#99969A" d="M37.957,12.219c-3.466,0-6.208-0.785-6.249-0.797l0.142-0.48c0.059,0.017,6.089,1.742,11.497,0.002
			l0.151,0.477C41.638,12.02,39.705,12.219,37.957,12.219"/>
		<path fill="#99969A" d="M37.611,13.919c-6.658,0-7.103-5.147-7.104-5.198l0.498-0.037c0.014,0.193,0.425,4.735,6.606,4.735
			c6.187,0,6.312-4.526,6.314-4.72l0.5,0.006C44.425,8.758,44.286,13.919,37.611,13.919"/>
		<path fill="#99969A" d="M38.823,52.897c-7.824,0-14.561-0.427-14.661-0.435l0.032-0.498c0.151,0.009,15.273,0.966,26.537,0
			l0.043,0.498C46.987,52.789,42.767,52.897,38.823,52.897"/>
		<path fill="#99969A" d="M38.608,48.318c-9.667,0-17.601-1.624-17.719-1.648l0.103-0.49c0.178,0.039,17.929,3.669,32.656,0.003
			l0.121,0.485C48.796,47.905,43.481,48.318,38.608,48.318"/>
		
			<rect x="37.543" y="14.638" transform="matrix(0.0502 0.9987 -0.9987 0.0502 51.6993 -24.5886)" fill="#99969A" width="2.469" height="0.501"/>
		
			<rect x="39.816" y="14.09" transform="matrix(0.3455 0.9384 -0.9384 0.3455 40.3221 -29.1363)" fill="#99969A" width="2.467" height="0.499"/>
		
			<rect x="43.803" y="9.957" transform="matrix(0.9213 0.3887 -0.3887 0.9213 7.516 -16.7346)" fill="#99969A" width="2.62" height="0.5"/>
		
			<rect x="41.979" y="12.925" transform="matrix(0.6175 0.7866 -0.7866 0.6175 26.926 -29.0199)" fill="#99969A" width="2.646" height="0.501"/>
		
			<rect x="43.481" y="10.956" transform="matrix(0.8633 0.5046 -0.5046 0.8633 11.7625 -21.0249)" fill="#99969A" width="2.436" height="0.498"/>
		
			<rect x="42.917" y="12.016" transform="matrix(0.7547 0.6561 -0.6561 0.7547 18.8798 -25.959)" fill="#99969A" width="2.468" height="0.5"/>
		
			<rect x="41.012" y="13.556" transform="matrix(0.5157 0.8568 -0.8568 0.5157 32.2897 -29.5098)" fill="#99969A" width="2.468" height="0.499"/>
		
			<rect x="38.784" y="14.475" transform="matrix(0.2133 0.977 -0.977 0.2133 45.8683 -27.5127)" fill="#99969A" width="2.468" height="0.499"/>
		
			<rect x="35.98" y="13.616" transform="matrix(0.9988 0.0488 -0.0488 0.9988 0.7673 -1.7493)" fill="#99969A" width="0.501" height="2.468"/>
		
			<rect x="33.709" y="13.067" transform="matrix(0.9389 0.3443 -0.3443 0.9389 6.9986 -10.8163)" fill="#99969A" width="0.499" height="2.467"/>
		
			<rect x="29.645" y="8.859" transform="matrix(0.3852 0.9228 -0.9228 0.3852 27.7647 -21.3363)" fill="#99969A" width="0.499" height="2.62"/>
		
			<rect x="31.456" y="11.815" transform="matrix(0.7852 0.6192 -0.6192 0.7852 14.9446 -16.8108)" fill="#99969A" width="0.5" height="2.646"/>
		
			<rect x="30.058" y="9.948" transform="matrix(0.5041 0.8636 -0.8636 0.5041 24.6727 -20.6381)" fill="#99969A" width="0.5" height="2.437"/>
		
			<rect x="30.607" y="10.993" transform="matrix(0.6555 0.7552 -0.7552 0.6555 19.8657 -19.0917)" fill="#99969A" width="0.499" height="2.467"/>
		
			<rect x="32.512" y="12.533" transform="matrix(0.8565 0.5162 -0.5162 0.8565 11.8095 -14.9358)" fill="#99969A" width="0.499" height="2.469"/>
		
			<rect x="34.74" y="13.453" transform="matrix(0.977 0.2134 -0.2134 0.977 3.9403 -7.1285)" fill="#99969A" width="0.499" height="2.469"/>
		<rect x="37.152" y="9.891" fill="#99969A" width="0.5" height="2.003"/>
		<rect x="38.076" y="10.104" fill="#99969A" width="0.5" height="2.004"/>
		<rect x="39.001" y="10.023" fill="#99969A" width="0.5" height="2.003"/>
		<rect x="39.927" y="9.838" fill="#99969A" width="0.5" height="2.004"/>
		<rect x="40.853" y="9.756" fill="#99969A" width="0.5" height="2.004"/>
		<rect x="41.777" y="9.328" fill="#99969A" width="0.5" height="2.004"/>
		<rect x="42.701" y="9.144" fill="#99969A" width="0.5" height="2.004"/>
		<rect x="31.601" y="8.99" fill="#99969A" width="0.5" height="2.004"/>
		<rect x="32.527" y="9.42" fill="#99969A" width="0.5" height="2.004"/>
		<rect x="33.451" y="9.645" fill="#99969A" width="0.5" height="2.004"/>
		<rect x="34.376" y="9.871" fill="#99969A" width="0.5" height="2.002"/>
		<rect x="35.301" y="10.115" fill="#99969A" width="0.5" height="2.004"/>
		<rect x="36.228" y="9.931" fill="#99969A" width="0.5" height="2.004"/>
		<path fill="#99969A" d="M58.364,66.571l-0.316-0.063c-0.039-0.008-3.834-0.778-5.94-0.521l-0.286,0.034l0.095-4.647
			c-0.055-0.252-1.412-7.408-1.412-9.158h0.5c0,1.703,1.393,9.041,1.407,9.115l-0.078,4.133c1.875-0.142,4.597,0.324,5.51,0.494
			c0.031-1.613,0.854-3.947,0.891-4.054c1.709-2.662,1.817-5.649,1.818-5.681l-0.175-16.737c-0.021-0.118-2.361-15.349-3.136-18.789
			c-0.788-3.508-2.082-6.662-2.826-7.571c-0.534-0.654-6.756-2.884-10.625-4.162c-2.881,1.529-6.071,1.379-6.205,1.375l0.025-0.5
			c0.037,0.004,3.258,0.151,6.035-1.367l0.096-0.051l0.103,0.035c1.037,0.342,10.15,3.364,10.958,4.352
			c0.798,0.976,2.112,4.152,2.928,7.781c0.778,3.457,3.12,18.703,3.145,18.856l0.178,16.783c-0.004,0.138-0.111,3.163-1.873,5.896
			c0.008,0-0.916,2.631-0.832,4.125L58.364,66.571z"/>
		<path fill="#99969A" d="M58.852,62.208c-0.026-0.016-2.929-1.509-6.626-0.589l-0.121-0.484c3.885-0.973,6.857,0.565,6.981,0.633
			L58.852,62.208z"/>
		<path fill="#99969A" d="M55.666,66.777c-1.189,0-2.62-0.143-3.839-0.664l0.197-0.459c2.458,1.055,5.986,0.439,6.02,0.436
			l0.089,0.492C58.053,66.597,57.014,66.777,55.666,66.777"/>
		
			<rect x="56.163" y="61.363" transform="matrix(0.9952 0.0976 -0.0976 0.9952 6.4803 -5.2006)" fill="#99969A" width="0.5" height="4.589"/>
		
			<rect x="57.249" y="61.518" transform="matrix(0.9889 0.1488 -0.1488 0.9889 10.1317 -7.8466)" fill="#99969A" width="0.499" height="4.521"/>
		
			<rect x="53.84" y="61.039" transform="matrix(0.9979 0.0646 -0.0646 0.9979 4.2109 -3.3601)" fill="#99969A" width="0.499" height="4.853"/>
		
			<rect x="55.107" y="61.273" transform="matrix(0.9978 0.0665 -0.0665 0.9978 4.3485 -3.5415)" fill="#99969A" width="0.499" height="4.514"/>
		
			<rect x="52.879" y="61.107" transform="matrix(0.9993 0.0371 -0.0371 0.9993 2.3898 -1.9266)" fill="#99969A" width="0.5" height="4.705"/>
		<path fill="#99969A" d="M16.635,66.375l0.019-0.322c0.084-1.502-0.85-4.152-0.858-4.178c-1.735-2.68-1.843-5.706-1.847-5.834
			l0.175-16.758c0.027-0.188,2.369-15.436,3.147-18.893c0.814-3.625,2.129-6.803,2.928-7.781c0.808-0.986,9.921-4.01,10.958-4.353
			l0.102-0.034l0.097,0.051c2.777,1.517,6,1.375,6.035,1.367l0.025,0.5c-0.137,0.006-3.326,0.154-6.205-1.375
			c-3.87,1.278-10.091,3.51-10.625,4.162c-0.746,0.911-2.039,4.066-2.827,7.571c-0.773,3.44-3.113,18.672-3.138,18.825
			l-0.172,16.713c0.001,0.02,0.109,3.008,1.792,5.618c0.062,0.155,0.886,2.493,0.917,4.106c0.913-0.172,3.65-0.64,5.509-0.496
			l-0.082-4.08c0.02-0.125,1.412-7.465,1.412-9.166h0.5c0,1.748-1.358,8.904-1.417,9.209l0.099,4.596l-0.284-0.034
			c-2.119-0.254-5.902,0.513-5.941,0.521L16.635,66.375z"/>
		<path fill="#99969A" d="M16.147,62.012l-0.233-0.441c0.124-0.066,3.091-1.605,6.98-0.631l-0.121,0.483
			C19.083,60.503,16.176,61.996,16.147,62.012"/>
		<path fill="#99969A" d="M19.33,66.58c-1.345,0-2.383-0.18-2.463-0.193l0.088-0.494c0.034,0.006,3.562,0.617,6.021-0.436
			l0.197,0.459C21.952,66.439,20.521,66.58,19.33,66.58"/>
		
			<rect x="16.292" y="63.211" transform="matrix(0.096 0.9954 -0.9954 0.096 79.9709 38.8703)" fill="#99969A" width="4.59" height="0.5"/>
		
			<rect x="15.242" y="63.332" transform="matrix(0.1484 0.9889 -0.9889 0.1484 77.7808 36.8362)" fill="#99969A" width="4.52" height="0.5"/>
		
			<rect x="18.485" y="63.019" transform="matrix(0.0648 0.9979 -0.9979 0.0648 82.6907 38.3016)" fill="#99969A" width="4.851" height="0.499"/>
		
			<rect x="17.385" y="63.083" transform="matrix(0.0649 0.9979 -0.9979 0.0649 81.5669 39.6213)" fill="#99969A" width="4.514" height="0.499"/>
		
			<rect x="19.517" y="63.012" transform="matrix(0.0336 0.9994 -0.9994 0.0336 84.3615 39.2781)" fill="#99969A" width="4.707" height="0.5"/>
		<rect x="37.214" y="48.088" fill="#99969A" width="0.5" height="4.656"/>
		<rect x="40.571" y="48.282" fill="#99969A" width="0.5" height="4.351"/>
		<rect x="42.248" y="48.152" fill="#99969A" width="0.5" height="4.48"/>
		<rect x="43.927" y="47.924" fill="#99969A" width="0.5" height="4.899"/>
		<rect x="45.605" y="47.672" fill="#99969A" width="0.5" height="4.899"/>
		<rect x="47.284" y="47.573" fill="#99969A" width="0.5" height="4.898"/>
		<rect x="48.961" y="47.225" fill="#99969A" width="0.5" height="5.076"/>
		<rect x="50.639" y="47.057" fill="#99969A" width="0.5" height="5.021"/>
		<rect x="35.536" y="48.151" fill="#99969A" width="0.5" height="4.524"/>
		<rect x="33.858" y="48.008" fill="#99969A" width="0.5" height="4.668"/>
		<rect x="32.18" y="47.967" fill="#99969A" width="0.5" height="4.68"/>
		<rect x="30.501" y="47.715" fill="#99969A" width="0.5" height="4.899"/>
		<rect x="27.146" y="47.615" fill="#99969A" width="0.5" height="4.899"/>
		<rect x="25.467" y="47.268" fill="#99969A" width="0.5" height="5.076"/>
		<rect x="23.788" y="46.75" fill="#99969A" width="0.5" height="5.375"/>
		<rect x="22.111" y="46.75" fill="#99969A" width="0.5" height="5.105"/>
		<rect x="52.318" y="46.707" fill="#99969A" width="0.5" height="5.148"/>
		<rect x="38.892" y="48.088" fill="#99969A" width="0.5" height="4.656"/>
		<rect x="28.824" y="47.715" fill="#99969A" width="0.5" height="4.899"/>
	</g>
</g>
</svg>
