<?xml version="1.0" encoding="utf-8"?>
<!-- Generator: Adobe Illustrator 16.0.0, SVG Export Plug-In . SVG Version: 6.00 Build 0)  -->
<!DOCTYPE svg PUBLIC "-//W3C//DTD SVG 1.1//EN" "http://www.w3.org/Graphics/SVG/1.1/DTD/svg11.dtd">
<svg version="1.1" xmlns="http://www.w3.org/2000/svg" xmlns:xlink="http://www.w3.org/1999/xlink" x="0px" y="0px" width="75px"
	 height="75px" viewBox="0 0 75 75" enable-background="new 0 0 75 75" xml:space="preserve">
<g id="Accessories">
</g>
<g id="TENCEL_Men_x27_s">
</g>
<g id="TENCEL_Women_x27_s">
</g>
<g id="STE">
</g>
<g id="Invisible">
</g>
<g id="Socks">
</g>
<g id="Cashmere">
</g>
<g id="Titles" display="none">
</g>
<g id="OC_Womens">
</g>
<g id="OC_Mens">
</g>
<g id="STA_Womens">
	<g>
		<g opacity="0.15">
			<g>
				<defs>
					<rect id="SVGID_35_" x="25.28" y="4.948" width="7.171" height="65.104"/>
				</defs>
				<clipPath id="SVGID_2_">
					<use xlink:href="#SVGID_35_"  overflow="visible"/>
				</clipPath>
				<path clip-path="url(#SVGID_2_)" fill="#938B83" d="M31.915,69.053c0,0,0.28-2.776-0.723-7.082s-1.179-10.795-1.003-12.564
					c0.177-1.77,0.885-7.138-1.895-19.334c-2.45-10.75,0.464-21.571,1.188-23.986c0.099-0.324,0,0,0,0L28.087,5.59
					c0,0-4.125,12.286-1.346,24.483c2.78,12.196,2.072,17.564,1.896,19.334c-0.178,1.769,0,8.258,1.002,12.564
					c1.003,4.306,0.722,7.439,0.722,7.439L31.915,69.053z"/>
				<path clip-path="url(#SVGID_2_)" fill="none" stroke="#99979A" stroke-miterlimit="10" d="M31.915,69.053
					c0,0,0.28-2.776-0.723-7.082s-1.179-10.795-1.003-12.564c0.177-1.77,0.885-7.138-1.895-19.334
					c-2.45-10.75,0.464-21.571,1.188-23.986c0.099-0.324,0,0,0,0L28.087,5.59c0,0-4.125,12.286-1.346,24.483
					c2.78,12.196,2.072,17.564,1.896,19.334c-0.178,1.769,0,8.258,1.002,12.564c1.003,4.306,0.722,7.439,0.722,7.439L31.915,69.053z
					"/>
			</g>
		</g>
		<g opacity="0.15">
			<g>
				<defs>
					<rect id="SVGID_37_" x="42.55" y="4.955" width="7.17" height="65.098"/>
				</defs>
				<clipPath id="SVGID_4_">
					<use xlink:href="#SVGID_37_"  overflow="visible"/>
				</clipPath>
				<path clip-path="url(#SVGID_4_)" fill="#938B83" d="M43.087,69.053c0,0-0.281-2.776,0.722-7.082
					c1.002-4.306,1.179-10.795,1.002-12.564c-0.177-1.77-0.885-7.138,1.895-19.334c2.457-10.78-0.479-21.628-1.194-24.004
					c-0.095-0.313,0,0,0,0l1.401-0.479c0,0,4.125,12.286,1.346,24.483c-2.779,12.196-2.072,17.564-1.896,19.334
					c0.177,1.769,0,8.258-1.003,12.564c-1.002,4.306-0.722,7.439-0.722,7.439L43.087,69.053z"/>
				<path clip-path="url(#SVGID_4_)" fill="none" stroke="#99979A" stroke-miterlimit="10" d="M43.087,69.053
					c0,0-0.281-2.776,0.722-7.082c1.002-4.306,1.179-10.795,1.002-12.564c-0.177-1.77-0.885-7.138,1.895-19.334
					c2.457-10.78-0.479-21.628-1.194-24.004c-0.095-0.313,0,0,0,0l1.401-0.479c0,0,4.125,12.286,1.346,24.483
					c-2.779,12.196-2.072,17.564-1.896,19.334c0.177,1.769,0,8.258-1.003,12.564c-1.002,4.306-0.722,7.439-0.722,7.439
					L43.087,69.053z"/>
			</g>
		</g>
		<path fill="none" stroke="#99979A" stroke-width="0.5" stroke-miterlimit="10" d="M28.087,5.59c0,0,2.88,1.403,9.412,1.403"/>
		<path fill="none" stroke="#99979A" stroke-width="0.5" stroke-miterlimit="10" d="M46.914,5.59c0,0-2.881,1.403-9.413,1.403"/>
		<path fill="none" stroke="#99979A" stroke-width="0.5" stroke-miterlimit="10" d="M30.363,69.41c1.486-0.522,3.001-0.536,4.541,0"
			/>
		<path fill="none" stroke="#99979A" stroke-width="0.5" stroke-miterlimit="10" d="M30.363,68.357c1.486-0.523,3.001-0.537,4.541,0
			"/>
		<path fill="none" stroke="#99979A" stroke-width="0.5" stroke-miterlimit="10" d="M47.283,7.112c0,0-3.017,1.495-9.782,1.495
			c-6.768,0-9.781-1.495-9.781-1.495"/>
		<path fill="none" stroke="#99979A" stroke-width="0.5" stroke-miterlimit="10" d="M36.732,24.536c0,0-0.024,0.985,0,3.052
			c0.022,2.066-0.434,5.335-0.674,7.377c-0.239,2.043-0.169,3.581-0.049,6.128s0.073,3.821-0.168,5.142
			c-0.239,1.322-0.408,2.62-0.359,5.528c0.048,2.908-0.187,8.443-0.504,11.633c-0.319,3.192-0.074,6.014-0.074,6.014
			c-1.609,0.642-3.116,0.623-4.541,0c0,0,0.279-3.134-0.724-7.439c-1.002-4.306-1.179-10.795-1.002-12.565
			c0.178-1.769,0.886-7.138-1.895-19.334C23.961,17.876,28.086,5.59,28.086,5.59H37.5h9.413c0,0,4.125,12.286,1.344,24.482
			c-2.778,12.196-2.071,17.565-1.894,19.334c0.177,1.77,0,8.259-1.003,12.565c-1.003,4.305-0.724,7.439-0.724,7.439
			c-1.425,0.623-2.931,0.642-4.541,0c0,0,0.245-2.822-0.072-6.014c-0.319-3.19-0.554-8.725-0.505-11.633
			c0.048-2.908-0.12-4.206-0.36-5.528c-0.24-1.321-0.288-2.595-0.168-5.142s0.191-4.085-0.048-6.128
			c-0.24-2.042-0.697-5.311-0.673-7.377c0.023-2.067,0-3.052,0-3.052H36.732z"/>
		<path fill="none" stroke="#99979A" stroke-width="0.5" stroke-miterlimit="10" d="M44.638,69.41c-1.487-0.522-3-0.536-4.541,0"/>
		<path fill="none" stroke="#99979A" stroke-width="0.5" stroke-miterlimit="10" d="M44.638,68.357c-1.487-0.523-3-0.537-4.541,0"/>
	</g>
</g>
<g id="STA_Mens">
</g>
</svg>
