<?xml version="1.0" encoding="utf-8"?>
<!-- Generator: Adobe Illustrator 16.0.0, SVG Export Plug-In . SVG Version: 6.00 Build 0)  -->
<!DOCTYPE svg PUBLIC "-//W3C//DTD SVG 1.1//EN" "http://www.w3.org/Graphics/SVG/1.1/DTD/svg11.dtd">
<svg version="1.1" xmlns="http://www.w3.org/2000/svg" xmlns:xlink="http://www.w3.org/1999/xlink" x="0px" y="0px"  viewBox="0 0 75 75" enable-background="new 0 0 75 75" xml:space="preserve">
<g id="Re-swim">
	<g>
		<path fill="none" stroke="#04080F" stroke-width="0.5" stroke-miterlimit="10" d="M27.737,23.889c0,0-0.483-12.368,1.482-14.518
			c1.966-2.15-0.532,13.368-0.532,13.368"/>
		<path fill="none" stroke="#04080F" stroke-width="0.5" stroke-miterlimit="10" d="M37.646,23.792c3.146,0,8.744-1.054,8.744-1.054
			c1.238,1.905,4.125,3.007,4.125,3.007s-0.229,4.72-1.4,9.881c0,0-0.781,3.46-0.895,3.869c-0.11,0.412-0.838,3.283-0.725,4.281
			c0.111,0.996,1.655,5,1.934,5.762c0.277,0.763,0.877,3.689,0.877,3.689c-5.002,1.547-11.145,2.552-11.145,12.606"/>
		<path fill="none" stroke="#04080F" stroke-width="0.5" stroke-miterlimit="10" d="M35.917,65.834
			c0-10.055-6.145-11.06-11.146-12.606c0,0,0.599-2.927,0.877-3.69c0.278-0.761,1.821-4.765,1.935-5.761
			c0.111-0.998-0.615-3.869-0.726-4.281c-0.112-0.409-0.896-3.869-0.896-3.869c-1.17-5.161-1.399-9.881-1.399-9.881
			s2.886-1.102,4.125-3.007c0,0,5.812,1.054,8.958,1.054"/>
		<path fill="none" stroke="#04080F" stroke-width="0.5" stroke-miterlimit="10" d="M50.306,53.228
			C45.476,55.98,39.16,65.833,39.16,65.833h-3.244c0,0-6.315-9.853-11.144-12.605"/>
		<path fill="none" stroke="#04080F" stroke-width="0.5" stroke-miterlimit="10" d="M45.857,9.371
			c-1.966-2.15,0.532,13.368,0.532,13.368"/>
		<path fill="none" stroke="#04080F" stroke-width="0.5" stroke-miterlimit="10" d="M47.366,23.923c0,0,0.457-12.401-1.51-14.552"/>
		<path fill="none" stroke="#04080F" stroke-width="0.5" stroke-miterlimit="10" d="M50.575,26.688c0,0-3.22-0.802-5.187-3.825"/>
		<path fill="none" stroke="#04080F" stroke-width="0.5" stroke-miterlimit="10" d="M24.425,26.609c0,0,3.22-0.802,5.186-3.826"/>
		<path fill="none" stroke="#04080F" stroke-width="0.5" stroke-miterlimit="10" d="M29.009,23.722c0,0,8.217,2.469,16.936-0.157"/>
	</g>
</g>
</svg>
