<?xml version="1.0" encoding="utf-8"?>
<!-- Generator: Adobe Illustrator 16.0.0, SVG Export Plug-In . SVG Version: 6.00 Build 0)  -->
<!DOCTYPE svg PUBLIC "-//W3C//DTD SVG 1.1//EN" "http://www.w3.org/Graphics/SVG/1.1/DTD/svg11.dtd">
<svg version="1.1" xmlns="http://www.w3.org/2000/svg" xmlns:xlink="http://www.w3.org/1999/xlink" x="0px" y="0px"  viewBox="0 0 75 75" enable-background="new 0 0 75 75" xml:space="preserve">
<g id="Sweat">
	<g>
		<path fill="none" stroke="#04080F" stroke-width="0.5" stroke-miterlimit="10" d="M26.597,64.818v2.669c0,0,6.683,0.073,7.852,0
			l0.103-2.669"/>
		<path fill="none" stroke="#04080F" stroke-width="0.5" stroke-miterlimit="10" d="M25.35,10.688c0,0,4.442,1.446,12.15,1.446"/>
		<path fill="#FFFFFF" d="M35.174,19.418L35.174,19.418c-0.152-0.014-0.266-0.149-0.251-0.303l0.759-8.292
			c0.014-0.154,0.149-0.267,0.302-0.253c0.153,0.015,0.266,0.15,0.252,0.302l-0.758,8.294
			C35.462,19.319,35.326,19.433,35.174,19.418"/>
		<path fill="none" stroke="#04080F" stroke-width="0.5" stroke-miterlimit="10" d="M35.174,19.418L35.174,19.418
			c-0.152-0.014-0.266-0.149-0.251-0.303l0.759-8.292c0.014-0.154,0.149-0.267,0.302-0.253c0.153,0.015,0.266,0.15,0.252,0.302
			l-0.758,8.294C35.462,19.319,35.326,19.433,35.174,19.418z"/>
		<line fill="none" stroke="#04080F" stroke-width="0.5" stroke-miterlimit="10" x1="27.369" y1="64.934" x2="27.369" y2="67.494"/>
		<line fill="none" stroke="#04080F" stroke-width="0.5" stroke-miterlimit="10" x1="28.161" y1="64.934" x2="28.161" y2="67.494"/>
		<line fill="none" stroke="#04080F" stroke-width="0.5" stroke-miterlimit="10" x1="28.954" y1="64.934" x2="28.954" y2="67.494"/>
		<line fill="none" stroke="#04080F" stroke-width="0.5" stroke-miterlimit="10" x1="29.747" y1="64.934" x2="29.747" y2="67.494"/>
		<line fill="none" stroke="#04080F" stroke-width="0.5" stroke-miterlimit="10" x1="30.539" y1="64.934" x2="30.539" y2="67.494"/>
		<line fill="none" stroke="#04080F" stroke-width="0.5" stroke-miterlimit="10" x1="31.331" y1="64.934" x2="31.331" y2="67.494"/>
		<line fill="none" stroke="#04080F" stroke-width="0.5" stroke-miterlimit="10" x1="32.124" y1="64.934" x2="32.124" y2="67.494"/>
		<line fill="none" stroke="#04080F" stroke-width="0.5" stroke-miterlimit="10" x1="32.956" y1="64.895" x2="32.875" y2="67.455"/>
		<line fill="none" stroke="#04080F" stroke-width="0.5" stroke-miterlimit="10" x1="33.78" y1="64.836" x2="33.637" y2="67.513"/>
		<path fill="none" stroke="#04080F" stroke-width="0.5" stroke-miterlimit="10" d="M37.5,12.134v15.127l2.948,37.558
			c1.718,0.259,7.956,0,7.956,0c3.085-28.548,1.518-56.646,0.86-56.791C46.683,7.459,37.5,7.479,37.5,7.479
			s-9.184-0.021-11.763,0.548c-0.658,0.146-2.224,28.243,0.86,56.791c0,0,6.238,0.259,7.955,0L37.5,27.261V12.134"/>
		<path fill="none" stroke="#04080F" stroke-width="0.5" stroke-miterlimit="10" d="M48.402,64.818v2.669c0,0-6.683,0.073-7.852,0
			l-0.104-2.669"/>
		<path fill="none" stroke="#04080F" stroke-width="0.5" stroke-miterlimit="10" d="M49.263,8.027c0,0-4.301,1.402-11.763,1.402
			c-7.461,0-11.763-1.402-11.763-1.402"/>
		<path fill="none" stroke="#04080F" stroke-width="0.5" stroke-miterlimit="10" d="M49.65,10.688c0,0-4.443,1.446-12.151,1.446"/>
		<path fill="#FFFFFF" d="M39.834,19.418L39.834,19.418c0.152-0.014,0.265-0.149,0.251-0.303l-0.759-8.292
			c-0.014-0.154-0.149-0.267-0.303-0.253c-0.152,0.015-0.266,0.15-0.251,0.302l0.758,8.294
			C39.546,19.319,39.682,19.433,39.834,19.418"/>
		<path fill="none" stroke="#04080F" stroke-width="0.5" stroke-miterlimit="10" d="M39.834,19.418L39.834,19.418
			c0.152-0.014,0.265-0.149,0.251-0.303l-0.759-8.292c-0.014-0.154-0.149-0.267-0.303-0.253c-0.152,0.015-0.266,0.15-0.251,0.302
			l0.758,8.294C39.546,19.319,39.682,19.433,39.834,19.418z"/>
		<line fill="none" stroke="#04080F" stroke-width="0.5" stroke-miterlimit="10" x1="47.63" y1="64.934" x2="47.63" y2="67.494"/>
		<line fill="none" stroke="#04080F" stroke-width="0.5" stroke-miterlimit="10" x1="46.838" y1="64.934" x2="46.838" y2="67.494"/>
		<line fill="none" stroke="#04080F" stroke-width="0.5" stroke-miterlimit="10" x1="46.046" y1="64.934" x2="46.046" y2="67.494"/>
		<line fill="none" stroke="#04080F" stroke-width="0.5" stroke-miterlimit="10" x1="45.253" y1="64.934" x2="45.253" y2="67.494"/>
		<line fill="none" stroke="#04080F" stroke-width="0.5" stroke-miterlimit="10" x1="44.461" y1="64.934" x2="44.461" y2="67.494"/>
		<line fill="none" stroke="#04080F" stroke-width="0.5" stroke-miterlimit="10" x1="43.668" y1="64.934" x2="43.668" y2="67.494"/>
		<line fill="none" stroke="#04080F" stroke-width="0.5" stroke-miterlimit="10" x1="42.876" y1="64.934" x2="42.876" y2="67.494"/>
		<line fill="none" stroke="#04080F" stroke-width="0.5" stroke-miterlimit="10" x1="42.043" y1="64.895" x2="42.124" y2="67.455"/>
		<line fill="none" stroke="#04080F" stroke-width="0.5" stroke-miterlimit="10" x1="41.22" y1="64.836" x2="41.362" y2="67.513"/>
		<line fill="#FFFFFF" x1="26.312" y1="8.191" x2="26.038" y2="10.688"/>
		<line fill="none" stroke="#04080F" stroke-width="0.5" stroke-miterlimit="10" x1="26.312" y1="8.191" x2="26.038" y2="10.688"/>
		<line fill="#FFFFFF" x1="27.341" y1="8.58" x2="27.067" y2="11.076"/>
		<line fill="none" stroke="#04080F" stroke-width="0.5" stroke-miterlimit="10" x1="27.341" y1="8.58" x2="27.067" y2="11.076"/>
		<line fill="#FFFFFF" x1="28.371" y1="8.729" x2="28.097" y2="11.224"/>
		<line fill="none" stroke="#04080F" stroke-width="0.5" stroke-miterlimit="10" x1="28.371" y1="8.729" x2="28.097" y2="11.224"/>
		<line fill="#FFFFFF" x1="29.355" y1="8.856" x2="29.171" y2="11.41"/>
		<line fill="none" stroke="#04080F" stroke-width="0.5" stroke-miterlimit="10" x1="29.355" y1="8.856" x2="29.171" y2="11.41"/>
		<line fill="#FFFFFF" x1="30.385" y1="8.978" x2="30.201" y2="11.532"/>
		<line fill="none" stroke="#04080F" stroke-width="0.5" stroke-miterlimit="10" x1="30.385" y1="8.978" x2="30.201" y2="11.532"/>
		<line fill="#FFFFFF" x1="31.414" y1="9.123" x2="31.23" y2="11.677"/>
		<line fill="none" stroke="#04080F" stroke-width="0.5" stroke-miterlimit="10" x1="31.414" y1="9.123" x2="31.23" y2="11.677"/>
		<line fill="#FFFFFF" x1="32.398" y1="9.123" x2="32.306" y2="11.811"/>
		<line fill="none" stroke="#04080F" stroke-width="0.5" stroke-miterlimit="10" x1="32.398" y1="9.123" x2="32.306" y2="11.811"/>
		<line fill="#FFFFFF" x1="33.381" y1="9.123" x2="33.381" y2="11.924"/>
		<line fill="none" stroke="#04080F" stroke-width="0.5" stroke-miterlimit="10" x1="33.381" y1="9.123" x2="33.381" y2="11.924"/>
		<line fill="#FFFFFF" x1="34.411" y1="9.332" x2="34.411" y2="12.134"/>
		<line fill="none" stroke="#04080F" stroke-width="0.5" stroke-miterlimit="10" x1="34.411" y1="9.332" x2="34.411" y2="12.134"/>
		<line fill="#FFFFFF" x1="35.44" y1="9.332" x2="35.44" y2="12.134"/>
		<line fill="none" stroke="#04080F" stroke-width="0.5" stroke-miterlimit="10" x1="35.44" y1="9.332" x2="35.44" y2="12.134"/>
		<line fill="#FFFFFF" x1="36.47" y1="9.332" x2="36.47" y2="12.134"/>
		<line fill="none" stroke="#04080F" stroke-width="0.5" stroke-miterlimit="10" x1="36.47" y1="9.332" x2="36.47" y2="12.134"/>
		<line fill="#FFFFFF" x1="48.688" y1="8.191" x2="48.961" y2="10.688"/>
		<line fill="none" stroke="#04080F" stroke-width="0.5" stroke-miterlimit="10" x1="48.688" y1="8.191" x2="48.961" y2="10.688"/>
		<line fill="#FFFFFF" x1="47.658" y1="8.58" x2="47.932" y2="11.076"/>
		<line fill="none" stroke="#04080F" stroke-width="0.5" stroke-miterlimit="10" x1="47.658" y1="8.58" x2="47.932" y2="11.076"/>
		<line fill="#FFFFFF" x1="46.628" y1="8.729" x2="46.902" y2="11.224"/>
		<line fill="none" stroke="#04080F" stroke-width="0.5" stroke-miterlimit="10" x1="46.628" y1="8.729" x2="46.902" y2="11.224"/>
		<line fill="#FFFFFF" x1="45.644" y1="8.856" x2="45.828" y2="11.41"/>
		<line fill="none" stroke="#04080F" stroke-width="0.5" stroke-miterlimit="10" x1="45.644" y1="8.856" x2="45.828" y2="11.41"/>
		<line fill="#FFFFFF" x1="44.615" y1="8.978" x2="44.798" y2="11.532"/>
		<line fill="none" stroke="#04080F" stroke-width="0.5" stroke-miterlimit="10" x1="44.615" y1="8.978" x2="44.798" y2="11.532"/>
		<line fill="#FFFFFF" x1="43.585" y1="9.123" x2="43.769" y2="11.677"/>
		<line fill="none" stroke="#04080F" stroke-width="0.5" stroke-miterlimit="10" x1="43.585" y1="9.123" x2="43.769" y2="11.677"/>
		<line fill="#FFFFFF" x1="42.601" y1="9.123" x2="42.693" y2="11.811"/>
		<line fill="none" stroke="#04080F" stroke-width="0.5" stroke-miterlimit="10" x1="42.601" y1="9.123" x2="42.693" y2="11.811"/>
		<line fill="#FFFFFF" x1="41.618" y1="9.123" x2="41.618" y2="11.924"/>
		<line fill="none" stroke="#04080F" stroke-width="0.5" stroke-miterlimit="10" x1="41.618" y1="9.123" x2="41.618" y2="11.924"/>
		<line fill="#FFFFFF" x1="40.588" y1="9.332" x2="40.588" y2="12.134"/>
		<line fill="none" stroke="#04080F" stroke-width="0.5" stroke-miterlimit="10" x1="40.588" y1="9.332" x2="40.588" y2="12.134"/>
		<line fill="#FFFFFF" x1="39.559" y1="9.332" x2="39.559" y2="12.134"/>
		<line fill="none" stroke="#04080F" stroke-width="0.5" stroke-miterlimit="10" x1="39.559" y1="9.332" x2="39.559" y2="12.134"/>
		<line fill="#FFFFFF" x1="38.529" y1="9.332" x2="38.529" y2="12.134"/>
		<line fill="none" stroke="#04080F" stroke-width="0.5" stroke-miterlimit="10" x1="38.529" y1="9.332" x2="38.529" y2="12.134"/>
		<line fill="#FFFFFF" x1="37.5" y1="9.332" x2="37.5" y2="12.134"/>
		<line fill="none" stroke="#04080F" stroke-width="0.5" stroke-miterlimit="10" x1="37.5" y1="9.332" x2="37.5" y2="12.134"/>
	</g>
</g>
</svg>
