<?xml version="1.0" encoding="utf-8"?>
<!-- Generator: Adobe Illustrator 16.0.0, SVG Export Plug-In . SVG Version: 6.00 Build 0)  -->
<!DOCTYPE svg PUBLIC "-//W3C//DTD SVG 1.1//EN" "http://www.w3.org/Graphics/SVG/1.1/DTD/svg11.dtd">
<svg version="1.1" xmlns="http://www.w3.org/2000/svg" xmlns:xlink="http://www.w3.org/1999/xlink" x="0px" y="0px" viewBox="0 0 75 75" enable-background="new 0 0 75 75" xml:space="preserve">
<g>
	<g >
		<path fill="#c7c7c5" d="M23.9,47c-3.5-15.5,1.7-31.1,1.7-31.1l1.8,0.6c0,0,0.1-0.4,0,0c-0.9,3.1-3.6,19.6-1.5,30.5
			c2.1,11,2.1,10.9,2.1,10.9l-2.1-0.1L23.9,47"/>
	</g>
	<g >
		<path fill="#c7c7c5" d="M51.2,47c3.5-15.5-1.7-31.1-1.7-31.1l-1.8,0.6c0,0-0.1-0.4,0,0c0.9,3.1,3.6,19.6,1.5,30.5
			c-2.1,11-2.1,10.9-2.1,10.9l2.1-0.1L51.2,47"/>
	</g>
	<g>
		<g>
			<g>
				<path d="M37.5,18c-8.3,0-11.9-1.7-12.1-1.8l0.2-0.4c0,0,3.7,1.8,11.8,1.8V18z"/>
			</g>
		</g>
		<g>
			<g>
				<path d="M37.5,18v-0.5c8.1,0,11.8-1.7,11.8-1.8l0.2,0.4C49.4,16.2,45.8,18,37.5,18z"/>
			</g>
		</g>
	</g>
	<g>
		<path d="M37.5,24.9c-9.3,0-13.5-2-13.6-2.1l0.2-0.4c0,0,4.2,2,13.4,2s13.4-2,13.4-2l0.2,0.4
			C51,22.9,46.8,24.9,37.5,24.9z"/>
	</g>
	<g>
		<path d="M30.5,58.3c-1.6,0-3.2-0.1-4.7-0.3l0.1-0.5c3,0.4,6.2,0.4,9.5,0l0.1,0.5C33.7,58.2,32.1,58.3,30.5,58.3z"/>
	</g>
	<g>
		<path d="M30.7,59.3c-1.6,0-3.2-0.1-4.7-0.3l-0.2,0l0-0.2c-0.5-3.6-1.2-7.5-2.1-11.7c-3.5-15.4,1.7-31.1,1.7-31.2
			l0.1-0.2h24.3l0.1,0.2c0.1,0.2,5.2,15.8,1.7,31.2c-1,4.2-1.7,8.1-2.1,11.7l0,0.2l-0.2,0c-3.1,0.4-6.3,0.4-9.6,0l-0.2,0l0-0.2
			c0.1-1.9,0.1-3.5-0.2-5.5c-0.1-0.4-0.1-0.9-0.2-1.4c-0.3-2.6-0.7-5.8-0.7-8c0-2.3,0-6.4,0-7.4h-1.5c0,1.1,0,5.2,0,7.4
			c0,2.2-0.4,5.4-0.7,8c-0.1,0.5-0.1,1-0.2,1.4c-0.2,1.9-0.2,3.6-0.2,5.5l0,0.2l-0.2,0C33.9,59.2,32.3,59.3,30.7,59.3z M26.2,58.5
			c2.9,0.4,6,0.4,9.1,0c-0.1-1.8,0-3.4,0.2-5.3c0.1-0.4,0.1-0.9,0.2-1.4c0.3-2.6,0.7-5.8,0.7-7.9c0-2.6,0-7.6,0-7.7l0-0.2h2.5l0,0.2
			c0,0.1,0,5.1,0,7.7c0,2.2,0.4,5.4,0.7,7.9c0.1,0.5,0.1,1,0.2,1.4c0.2,1.9,0.2,3.5,0.2,5.3c3.1,0.4,6.1,0.4,9.1,0
			C49.3,55,50,51.1,50.9,47c3.3-14.4-1.1-29-1.6-30.8H25.7c-0.5,1.7-4.9,16.4-1.6,30.8C25,51.1,25.7,55,26.2,58.5z"/>
	</g>
	<g>
		<path d="M44.5,58.3c-1.6,0-3.2-0.1-4.9-0.3l0.1-0.5c3.2,0.4,6.4,0.4,9.5,0l0.1,0.5C47.7,58.2,46.1,58.3,44.5,58.3z"/>
	</g>
</g>
</svg>
