<?xml version="1.0" encoding="utf-8"?>
<!-- Generator: Adobe Illustrator 16.0.0, SVG Export Plug-In . SVG Version: 6.00 Build 0)  -->
<!DOCTYPE svg PUBLIC "-//W3C//DTD SVG 1.1//EN" "http://www.w3.org/Graphics/SVG/1.1/DTD/svg11.dtd">
<svg version="1.1" xmlns="http://www.w3.org/2000/svg" xmlns:xlink="http://www.w3.org/1999/xlink" x="0px" y="0px"  viewBox="0 0 75 75" enable-background="new 0 0 75 75" xml:space="preserve"><g id="STA_Womens">
	<g>
		<path fill="grey" stroke="#99979A" stroke-width="0.5" stroke-miterlimit="10" d="M52.151,27.837
			c1.577-8.979,1.577-9.076,1.577-9.076h-1.183c0,0-1.45,8.9-3.354,12.628c-2.286,4.471-8.021,4.734-11.643,4.734
			c-4.534,0-9.454-0.264-11.74-4.734c-1.904-3.728-3.353-12.628-3.353-12.628H21.27c0,0,0.1,0.098,1.579,9.076
			c0.145,0.874,0.208,1.694,0.204,2.467c-0.037,8.205-7.702,10.753-7.702,10.753l1.51,15.182h7.862H36.07h0.099h2.664h0.098h16.447
			h2.761l1.511-15.182C59.649,41.057,50.366,37.989,52.151,27.837z"/>
		<line fill="none" stroke="#99979A" stroke-width="0.5" stroke-miterlimit="10" x1="16.565" y1="51.859" x2="58.534" y2="51.859"/>
		<line fill="none" stroke="#99979A" stroke-width="0.5" stroke-miterlimit="10" x1="23.047" y1="30.206" x2="25.217" y2="30.206"/>
		<line fill="none" stroke="#99979A" stroke-width="0.5" stroke-miterlimit="10" x1="49.684" y1="30.206" x2="51.855" y2="30.206"/>
		<g opacity="0.15">
			<g>
				<defs>
					<rect id="SVGID_29_" x="24.501" y="46.519" width="25.996" height="5.841"/>
				</defs>
				<clipPath id="SVGID_2_">
					<use xlink:href="#SVGID_29_"  overflow="visible"/>
				</clipPath>
				<path clip-path="url(#SVGID_2_)" fill="#938B83" d="M24.502,51.859H37.5h12.997c-8.545,0-12.997-4.619-12.997-4.619
					S33.047,51.859,24.502,51.859"/>
				<path clip-path="url(#SVGID_2_)" fill="none" stroke="#99979A" stroke-miterlimit="10" d="M24.502,51.859H37.5h12.997
					c-8.545,0-12.997-4.619-12.997-4.619S33.047,51.859,24.502,51.859z"/>
			</g>
		</g>
	</g>
</g></svg>
