<?xml version="1.0" encoding="utf-8"?>
<!-- Generator: Adobe Illustrator 16.0.0, SVG Export Plug-In . SVG Version: 6.00 Build 0)  -->
<!DOCTYPE svg PUBLIC "-//W3C//DTD SVG 1.1//EN" "http://www.w3.org/Graphics/SVG/1.1/DTD/svg11.dtd">
<svg version="1.1" xmlns="http://www.w3.org/2000/svg" xmlns:xlink="http://www.w3.org/1999/xlink" x="0px" y="0px"  viewBox="0 0 75 75" enable-background="new 0 0 75 75" xml:space="preserve">
<g id="OC_Womens">
	<g>
		<path fill="none" stroke="#04080F" stroke-width="0.5" stroke-miterlimit="10" d="M55.087,13.759l0.35,1.935l3.046,16.873
			c0,0-12.163,11.881-19.818,18.888h-4.686h-4.686C21.637,44.448,9.475,32.567,9.475,32.567l3.046-16.873l0.35-1.935H55.087z"/>
		<path fill="none" stroke="#04080F" stroke-width="0.5" stroke-miterlimit="10" d="M9.475,32.566c0,0,10.305-0.704,15.278,5.129
			c3.973,4.658,4.757,10.689,4.54,13.761"/>
		<path fill="none" stroke="#04080F" stroke-width="0.492" stroke-miterlimit="10" d="M9.475,31.614c0,0,10.758-0.74,15.981,5.387
			c4.174,4.895,4.931,11.229,4.703,14.454"/>
		<path fill="none" stroke="#04080F" stroke-width="0.492" stroke-miterlimit="10" d="M58.483,31.614c0,0-10.758-0.74-15.982,5.387
			c-4.173,4.895-4.93,11.229-4.703,14.454"/>
		<path fill="none" stroke="#04080F" stroke-width="0.5" stroke-miterlimit="10" d="M58.483,32.566c0,0-10.305-0.704-15.278,5.129
			c-3.973,4.658-4.757,10.689-4.54,13.761"/>
		<path fill="none" stroke="#04080F" stroke-width="0.441" stroke-miterlimit="10" d="M55.437,15.921c0,0-10.669,3.55-21.48,3.55
			S12.5,15.921,12.5,15.921"/>
		<path fill="none" stroke="#04080F" stroke-width="0.432" stroke-miterlimit="10" d="M55.087,13.776c0,0-10.527,3.417-21.108,3.417
			s-21.108-3.417-21.108-3.417"/>
		<path fill="#FFFFFF" d="M62.129,23.545l0.35,1.934l3.046,16.872c0,0-12.163,11.883-19.818,18.889h-4.686h-4.686
			c-7.656-7.006-19.818-18.889-19.818-18.889l3.046-16.872l0.35-1.934H62.129z"/>
		<path fill="none" stroke="#04080F" stroke-width="0.5" stroke-miterlimit="10" d="M62.129,23.545l0.35,1.934l3.046,16.872
			c0,0-12.163,11.883-19.818,18.889h-4.686h-4.686c-7.656-7.006-19.818-18.889-19.818-18.889l3.046-16.872l0.35-1.934H62.129z"/>
		<path fill="none" stroke="#04080F" stroke-width="0.5" stroke-miterlimit="10" d="M16.517,42.351c0,0,10.305-0.704,15.278,5.129
			c3.973,4.659,4.757,10.69,4.54,13.761"/>
		<path fill="none" stroke="#04080F" stroke-width="0.492" stroke-miterlimit="10" d="M16.517,41.399c0,0,10.758-0.739,15.981,5.388
			c4.174,4.894,4.931,11.229,4.703,14.453"/>
		<path fill="none" stroke="#04080F" stroke-width="0.492" stroke-miterlimit="10" d="M65.525,41.399c0,0-10.758-0.739-15.982,5.388
			c-4.173,4.894-4.93,11.229-4.703,14.453"/>
		<path fill="none" stroke="#04080F" stroke-width="0.5" stroke-miterlimit="10" d="M65.525,42.351c0,0-10.305-0.704-15.278,5.129
			c-3.973,4.659-4.757,10.69-4.54,13.761"/>
		<path fill="none" stroke="#04080F" stroke-width="0.441" stroke-miterlimit="10" d="M62.479,25.707c0,0-10.669,3.55-21.48,3.55
			s-21.456-3.55-21.456-3.55"/>
		<path fill="none" stroke="#04080F" stroke-width="0.432" stroke-miterlimit="10" d="M62.129,23.562c0,0-10.527,3.416-21.108,3.416
			s-21.108-3.416-21.108-3.416"/>
	</g>
</g>
</svg>
