<?xml version="1.0" encoding="utf-8"?>
<!-- Generator: Adobe Illustrator 16.0.0, SVG Export Plug-In . SVG Version: 6.00 Build 0)  -->
<!DOCTYPE svg PUBLIC "-//W3C//DTD SVG 1.1//EN" "http://www.w3.org/Graphics/SVG/1.1/DTD/svg11.dtd">
<svg version="1.1" xmlns="http://www.w3.org/2000/svg" xmlns:xlink="http://www.w3.org/1999/xlink" x="0px" y="0px"  viewBox="0 0 75 75" enable-background="new 0 0 75 75" xml:space="preserve"><g id="Titles" display="none">
	<text transform="matrix(1 0 0 1 25.0278 5.5386)" display="inline"><tspan x="0" y="0" fill="#9B9694" font-family="'CircularAirPro-Bold'" font-size="4.4">S</tspan><tspan x="2.649" y="0" fill="#9B9694" font-family="'CircularAirPro-Bold'" font-size="4.4">T </tspan><tspan x="6.459" y="0" fill="#9B9694" font-family="'CircularAirPro-Bold'" font-size="4.4">A</tspan><tspan x="9.592" y="0" fill="#9B9694" font-family="'CircularAirPro-Bold'" font-size="4.4">c</tspan><tspan x="12.012" y="0" fill="#9B9694" font-family="'CircularAirPro-Bold'" font-size="4.4">t</tspan><tspan x="13.666" y="0" fill="#9B9694" font-family="'CircularAirPro-Bold'" font-size="4.4">i</tspan><tspan x="14.876" y="0" fill="#9B9694" font-family="'CircularAirPro-Bold'" font-size="4.4">v</tspan><tspan x="17.212" y="0" fill="#9B9694" font-family="'CircularAirPro-Bold'" font-size="4.4">e </tspan><tspan x="20.732" y="0" fill="#9B9694" font-family="'CircularAirPro-Bold'" font-size="4.4">T</tspan><tspan x="23.042" y="0" fill="#9B9694" font-family="'CircularAirPro-Bold'" font-size="4.4">ee </tspan></text>
</g><g id="STA_Womens">
	<g>
		<path fill="none" stroke="#99979A" stroke-width="0.5" stroke-miterlimit="10" d="M51.241,18.143l-8.22-4.126
			c0,0-1.757,0.902-5.521,0.906c-3.765-0.004-5.523-0.906-5.523-0.906l-8.218,4.126c-3.069,2.666-7.405,11.32-7.405,11.32
			s5.04,4.084,6.802,5.242c0.353-0.353,1.669-1.821,1.669-1.821s0,0.721-0.745,27.446c2.203,0.539,12.842,0.648,13.408,0.654h0.013
			h0.012c0.567-0.006,11.206-0.115,13.409-0.654c-0.746-26.725-0.746-27.446-0.746-27.446s2.063,1.468,2.415,1.821
			c1.761-1.158,6.055-5.242,6.055-5.242S54.31,20.809,51.241,18.143z"/>
		<path fill="none" stroke="#99979A" stroke-width="0.5" stroke-miterlimit="10" d="M50.176,32.884c0,0-0.946-11.56,1.064-14.741"/>
		<path fill="none" stroke="#99979A" stroke-width="0.5" stroke-miterlimit="10" d="M24.825,32.857c0,0,0.946-11.56-1.065-14.741"/>
		<path fill="none" stroke="#99979A" stroke-width="0.5" stroke-miterlimit="10" d="M31.979,14.017c0,0,0.051,4.126,5.521,4.126"/>
		<path fill="none" stroke="#99979A" stroke-width="0.5" stroke-miterlimit="10" d="M43.022,14.017c0,0-0.051,4.126-5.521,4.126"/>
		<path fill="none" stroke="#99979A" stroke-width="0.5" stroke-miterlimit="10" d="M31.124,14.318c0,0,0.058,4.679,6.377,4.679"/>
		<path fill="none" stroke="#99979A" stroke-width="0.5" stroke-miterlimit="10" d="M43.878,14.318c0,0-0.059,4.679-6.377,4.679"/>
		<path fill="none" stroke="#99979A" stroke-width="0.5" stroke-miterlimit="10" d="M24.08,59.349
			c2.202,0.538,12.842,0.648,13.407,0.653h0.014h0.013c0.566-0.005,11.205-0.115,13.408-0.653"/>
		<g opacity="0.15">
			<g>
				<defs>
					<rect id="SVGID_39_" x="24.145" y="25.727" width="3.398" height="34.229"/>
				</defs>
				<clipPath id="SVGID_2_">
					<use xlink:href="#SVGID_39_"  overflow="visible"/>
				</clipPath>
				<path clip-path="url(#SVGID_2_)" fill="#938B83" d="M25.559,26.946c2.111,2.229,1.566,8.177,0.816,32.423l-1.718-0.286
					L25.559,26.946z"/>
				<path clip-path="url(#SVGID_2_)" fill="none" stroke="#99979A" stroke-miterlimit="10" d="M25.559,26.946
					c2.111,2.229,1.566,8.177,0.816,32.423l-1.718-0.286L25.559,26.946z"/>
			</g>
		</g>
		<g opacity="0.15">
			<g>
				<defs>
					<rect id="SVGID_41_" x="23.067" y="25.066" width="2.19" height="9.844"/>
				</defs>
				<clipPath id="SVGID_4_">
					<use xlink:href="#SVGID_41_"  overflow="visible"/>
				</clipPath>
				<path clip-path="url(#SVGID_4_)" fill="#938B83" d="M23.609,33.11c0.085-3.728,1.048-5.914,1.048-5.914l0.099,1.951
					c0.016,1.29-0.099,3.203-0.94,3.636L23.609,33.11z"/>
				<path clip-path="url(#SVGID_4_)" fill="none" stroke="#99979A" stroke-miterlimit="10" d="M23.609,33.11
					c0.085-3.728,1.048-5.914,1.048-5.914l0.099,1.951c0.016,1.29-0.099,3.203-0.94,3.636L23.609,33.11z"/>
			</g>
		</g>
		<g opacity="0.15">
			<g>
				<defs>
					<rect id="SVGID_43_" x="47.72" y="24.975" width="3.414" height="34.983"/>
				</defs>
				<clipPath id="SVGID_6_">
					<use xlink:href="#SVGID_43_"  overflow="visible"/>
				</clipPath>
				<path clip-path="url(#SVGID_6_)" fill="#938B83" d="M49.698,26.213c-2.111,2.279-1.562,8.36-0.796,33.156l1.72-0.291
					L49.698,26.213z"/>
				<path clip-path="url(#SVGID_6_)" fill="none" stroke="#99979A" stroke-miterlimit="10" d="M49.698,26.213
					c-2.111,2.279-1.562,8.36-0.796,33.156l1.72-0.291L49.698,26.213z"/>
			</g>
		</g>
		<g opacity="0.15">
			<g>
				<defs>
					<rect id="SVGID_45_" x="49.52" y="25.201" width="2.922" height="9.48"/>
				</defs>
				<clipPath id="SVGID_8_">
					<use xlink:href="#SVGID_45_"  overflow="visible"/>
				</clipPath>
				<path clip-path="url(#SVGID_8_)" fill="#938B83" d="M51.897,33.349c-0.14-4.173-1.714-6.621-1.714-6.621l-0.161,2.184
					c-0.026,1.445,0.161,3.585,1.538,4.071L51.897,33.349z"/>
				<path clip-path="url(#SVGID_8_)" fill="none" stroke="#99979A" stroke-miterlimit="10" d="M51.897,33.349
					c-0.14-4.173-1.714-6.621-1.714-6.621l-0.161,2.184c-0.026,1.445,0.161,3.585,1.538,4.071L51.897,33.349z"/>
			</g>
		</g>
	</g>
</g></svg>
