<?xml version="1.0" encoding="utf-8"?>
<!-- Generator: Adobe Illustrator 16.0.0, SVG Export Plug-In . SVG Version: 6.00 Build 0)  -->
<!DOCTYPE svg PUBLIC "-//W3C//DTD SVG 1.1//EN" "http://www.w3.org/Graphics/SVG/1.1/DTD/svg11.dtd">
<svg version="1.1" xmlns="http://www.w3.org/2000/svg" xmlns:xlink="http://www.w3.org/1999/xlink" x="0px" y="0px" viewBox="0 0 75 75" enable-background="new 0 0 75 75" xml:space="preserve">
<g id="Shirting">
	<g>
		<path fill="#99969A" d="M38.277,35.235c0-0.429-0.35-0.777-0.777-0.777c-0.429,0-0.777,0.348-0.777,0.777
			c0,0.429,0.349,0.777,0.777,0.777C37.928,36.012,38.277,35.664,38.277,35.235 M37.223,35.235c0-0.153,0.123-0.277,0.277-0.277
			c0.153,0,0.277,0.124,0.277,0.277c0,0.153-0.124,0.277-0.277,0.277C37.346,35.512,37.223,35.388,37.223,35.235"/>
		<path fill="#99969A" d="M37.5,28.731c0.429,0,0.777-0.349,0.777-0.778c0-0.428-0.349-0.777-0.777-0.777
			c-0.43,0-0.777,0.349-0.777,0.777C36.723,28.382,37.07,28.731,37.5,28.731 M37.5,27.676c0.152,0,0.277,0.124,0.277,0.277
			c0,0.154-0.125,0.278-0.277,0.278c-0.153,0-0.277-0.124-0.277-0.278C37.223,27.8,37.347,27.676,37.5,27.676"/>
		<path fill="#99969A" d="M37.5,21.625c0.429,0,0.777-0.349,0.777-0.778c0-0.428-0.349-0.778-0.777-0.778
			c-0.43,0-0.777,0.35-0.777,0.778C36.723,21.276,37.07,21.625,37.5,21.625 M37.5,20.569c0.152,0,0.277,0.125,0.277,0.278
			c0,0.154-0.125,0.278-0.277,0.278c-0.153,0-0.277-0.124-0.277-0.278C37.223,20.694,37.347,20.569,37.5,20.569"/>
		<path fill="#99969A" d="M60.273,65.351c0-0.001,0-0.001-0.002-0.002c0.002-0.027,0.01-0.052,0.006-0.08l-0.604-4.638
			c-0.058-1.23-0.684-9.598-0.896-10.596c-0.205-0.975-1.863-11.904-1.879-12.009c-0.01-0.075-0.938-7.628-0.782-13.037
			c0.143-5.017-0.951-8.784-1.146-9.408l0.028-0.155l-0.03-0.071c-0.045-0.096-1.072-2.374-1.85-3.264
			c-0.755-0.866-6.561-3.34-7.539-3.752l-1.247-2.07L44.16,6.303c-0.032,0.007-3.305,0.661-6.643,0.661
			c-3.316,0-6.019-0.94-6.047-0.95L31.148,5.9l-0.008,0.262l-1.67,2.163c-0.934,0.394-6.795,2.889-7.553,3.758
			c-0.777,0.891-1.805,3.169-1.848,3.264l-0.032,0.072l0.003,0.014c-0.163,0.518-1.303,4.338-1.156,9.446
			c0.154,5.41-0.773,12.962-0.783,13.031c-0.016,0.11-1.674,11.04-1.879,12.015c-0.211,0.997-0.838,9.365-0.895,10.595l-0.6,4.593
			c-0.006,0.04,0.004,0.079,0.008,0.118c-0.002,0.005-0.008,0.005-0.012,0.01c-0.061,0.123-0.011,0.273,0.112,0.336
			c0.074,0.037,1.843,0.921,3.353,1.011c0.55,0.032,1.151,0.057,1.692,0.057c0.806,0,1.478-0.056,1.644-0.229
			c0.062-0.066,0.074-0.157,0.061-0.244c0.01-0.028,0.023-0.053,0.027-0.082l0.27-2.569c1.629,1.824,6.157,5.579,15.895,5.579
			c9.48,0,13.75-3.562,15.344-5.438l0.264,2.52c0.006,0.042,0.023,0.08,0.04,0.119c-0.018,0.079-0.012,0.161,0.048,0.224
			c0.166,0.174,0.84,0.231,1.647,0.231c0.54,0,1.14-0.026,1.688-0.058c1.51-0.091,3.28-0.974,3.354-1.011
			C60.286,65.625,60.336,65.474,60.273,65.351 M55.616,24.975c-0.156,5.448,0.776,13.037,0.786,13.119
			c0.068,0.452,1.678,11.055,1.887,12.044c0.189,0.9,0.766,8.512,0.871,10.291c-1.219,0.136-3.979,0.473-5.116,0.825
			c0.028-1.434-0.044-4.243-0.224-9.527c-0.104-3.047-0.201-5.925-0.164-6.756c0.095-2.12-0.452-18.816-0.48-19.472l1.395-7.709
			l0.035-0.021l-0.022-0.04l0.181-1.008C55.141,18.247,55.723,21.261,55.616,24.975 M21.561,62.296
			c-0.184-0.528,0.013-6.323,0.156-10.559c0.108-3.189,0.201-5.944,0.164-6.794c-0.095-2.102,0.469-19.314,0.471-19.541
			l-1.395-7.716l0.107-0.18c2.107-3.527,2.107-3.527,3.166-4.064c0.162-0.083,0.349-0.177,0.568-0.296
			c1.529-0.828,4.735-2.163,5.575-2.51c1.028,1.714,2.897,3.909,5.78,4.03v24.955l1.346,1.645l1.521-1.522V14.651
			c2.668-0.123,4.477-2.148,5.521-3.826c0.356,0.145,4.062,1.668,5.745,2.579c0.22,0.119,0.404,0.214,0.568,0.296
			c1.058,0.537,1.058,0.537,3.16,4.057l0.043,0.069l-1.379,7.636c0.006,0.173,0.571,17.386,0.477,19.488
			c-0.037,0.85,0.056,3.604,0.164,6.794c0.145,4.247,0.342,10.062,0.178,10.528c-0.393,0.426-7.814,3.984-15.609,3.984l-0.738-0.007
			c-7.78,0-15.184-3.541-15.584-3.943C21.566,62.304,21.561,62.297,21.561,62.296 M37.293,13.543c0-0.154,0.124-0.278,0.277-0.278
			c0.152,0,0.277,0.124,0.277,0.278c0,0.152-0.125,0.277-0.277,0.277C37.417,13.82,37.293,13.695,37.293,13.543 M37.234,12.245
			c-1.108,0-2.859-0.573-4.082-1.831c-0.489-0.504-0.86-1.076-1.114-1.713c0.989,0.32,3.387,0.979,6.326,0.979
			c1.456,0,3.046-0.176,4.659-0.623c-0.828,1.355-2.369,2.826-5.226,3.229C37.627,12.26,37.439,12.245,37.234,12.245 M44.328,7.228
			l0.803,1.332c-0.296,0.747-2.297,5.389-6.109,5.59v-0.531c0.037-0.182,0.031-0.524-0.194-0.817
			c-0.05-0.065-0.117-0.118-0.183-0.171C42.743,11.713,43.98,8.595,44.328,7.228 M36.654,14.671h1.876l-0.009,24.866l-0.984,0.985
			l-0.883-1.079V14.671z M54.479,15.49l-0.285,1.588c-1.885-3.151-1.975-3.246-3.111-3.823c-0.159-0.081-0.342-0.174-0.557-0.29
			c-1.646-0.892-5.08-2.311-5.725-2.575c0.377-0.661,0.624-1.217,0.747-1.522c2.699,1.142,6.679,2.96,7.194,3.552
			C53.398,13.172,54.3,15.098,54.479,15.49 M37.518,7.464c2.766,0,5.459-0.438,6.385-0.604c-0.07,0.346-0.229,0.927-0.553,1.593
			c-5.396,1.682-10.61-0.026-11.48-0.337c-0.131-0.48-0.223-0.98-0.232-1.522C32.469,6.848,34.759,7.464,37.518,7.464 M31.15,6.967
			c0.1,1.499,0.65,2.773,1.644,3.795c1.324,1.362,3.229,1.983,4.44,1.983c0.596,0,1.008,0.123,1.191,0.356
			c0.156,0.196,0.105,0.419,0.104,0.426v0.644h-0.527c0.203-0.14,0.345-0.364,0.345-0.628c0-0.429-0.349-0.778-0.777-0.778
			c-0.43,0-0.777,0.349-0.777,0.778c0,0.264,0.143,0.488,0.346,0.628h-0.484h-0.25c-4.107,0-6.162-4.761-6.492-5.599L31.15,6.967z
			 M22.295,12.412c0.516-0.591,4.493-2.407,7.191-3.551c0.113,0.279,0.322,0.765,0.637,1.338c-0.93,0.383-4.025,1.675-5.562,2.508
			c-0.215,0.116-0.397,0.209-0.557,0.29c-1.15,0.584-1.23,0.676-3.184,3.94l-0.264-1.454C20.736,15.091,21.639,13.165,22.295,12.412
			 M16.712,50.028c0.208-0.989,1.815-11.593,1.886-12.05c0.01-0.076,0.942-7.665,0.787-13.113c-0.109-3.753,0.487-6.788,0.862-8.298
			l1.608,8.872c-0.022,0.709-0.569,17.405-0.475,19.526c0.037,0.83-0.061,3.709-0.164,6.755c-0.176,5.18-0.248,7.975-0.225,9.434
			c-1.113-0.355-3.922-0.697-5.152-0.835C15.943,58.539,16.521,50.927,16.712,50.028 M16.826,65.814
			c0.924,0.108,1.816,0.219,2.564,0.322c-0.334-0.007-0.707-0.021-1.172-0.048C17.764,66.061,17.28,65.949,16.826,65.814
			 M21.129,65.915c-1.098-0.252-4.701-0.654-5.898-0.783l0.563-4.315c2.286,0.257,4.714,0.629,5.213,0.859
			c0.022,0.509,0.065,0.767,0.128,0.873l-0.005,0.003c0.022,0.037,0.126,0.198,0.306,0.433L21.129,65.915z M50.283,65.453
			c-2.164,1.435-6.092,3.147-12.506,3.147c-6.42,0-10.488-1.715-12.771-3.156c-1.236-0.779-2.095-1.563-2.646-2.154
			c2.516,1.225,8.566,3.459,14.789,3.459l0.738,0.007c6.332,0,12.494-2.315,14.926-3.525C52.314,63.829,51.509,64.64,50.283,65.453
			 M53.914,62.545l-0.004-0.002c0.055-0.107,0.093-0.341,0.115-0.77c0.572-0.233,2.943-0.595,5.182-0.846l0.562,4.315
			c-1.25,0.136-4.815,0.534-5.898,0.782l-0.307-2.933C53.775,62.794,53.893,62.587,53.914,62.545 M56.78,66.198
			c-0.474,0.028-0.868,0.044-1.206,0.052c0.812-0.113,1.766-0.229,2.601-0.326C57.721,66.059,57.234,66.171,56.78,66.198"/>
	</g>
</g>
</svg>
