<?xml version="1.0" encoding="utf-8"?>
<!-- Generator: Adobe Illustrator 16.0.0, SVG Export Plug-In . SVG Version: 6.00 Build 0)  -->
<!DOCTYPE svg PUBLIC "-//W3C//DTD SVG 1.1//EN" "http://www.w3.org/Graphics/SVG/1.1/DTD/svg11.dtd">
<svg version="1.1" xmlns="http://www.w3.org/2000/svg" xmlns:xlink="http://www.w3.org/1999/xlink" x="0px" y="0px"  viewBox="0 0 75 75" enable-background="new 0 0 75 75" xml:space="preserve">
<g id="TENCEL_Women_x27_s">
	<g>
		<path fill="#04080F" d="M37.5,55.969H15.84l-0.356-13.994l0.116-0.076c0.072-0.048,7.223-4.876,8.4-12.489
			c1.116-7.224,0.889-10.056,0.885-10.084l-0.022-0.27l3.601-0.025l0.002,0.251c0,0.163,0.203,16.513,12.527,31.083l-0.382,0.323
			c-11.608-13.724-12.563-29.021-12.64-31.154l-2.572,0.018c0.033,0.858,0.042,3.807-0.905,9.935
			c-1.127,7.292-7.558,12.081-8.503,12.749l0.337,13.233H37.5V55.969z"/>
		<path fill="#04080F" d="M59.16,55.969H37.5v-0.5h21.174l0.336-13.232c-0.961-0.665-7.496-5.441-8.504-12.754
			c-0.871-6.332-0.914-9.116-0.898-9.93l-2.587-0.014c-0.124,2.057-1.282,16.728-9.327,26.542l-0.387-0.316
			c8.516-10.39,9.221-26.327,9.227-26.486l0.01-0.242l3.59,0.019l-0.018,0.266c-0.001,0.024-0.15,2.556,0.887,10.093
			c1.051,7.628,8.324,12.437,8.397,12.484l0.117,0.076L59.16,55.969z"/>
		<rect x="15.951" y="50.276" fill="#04080F" width="43.098" height="0.5"/>
	</g>
</g>
</svg>
