

<?xml version="1.0" encoding="utf-8"?>
<!-- Generator: Adobe Illustrator 16.0.0, SVG Export Plug-In . SVG Version: 6.00 Build 0)  -->
<!DOCTYPE svg PUBLIC "-//W3C//DTD SVG 1.1//EN" "http://www.w3.org/Graphics/SVG/1.1/DTD/svg11.dtd">
<svg version="1.1" xmlns="http://www.w3.org/2000/svg" xmlns:xlink="http://www.w3.org/1999/xlink" x="0px" y="0px" viewBox="0 0 75 75" enable-background="new 0 0 75 75" xml:space="preserve">
<g>
	<g>
		<g>
			<path d="M37.5,28.6c-12,0-24-4.1-24.1-4.2l0.2-0.5c0.1,0,12,4.1,23.9,4.1V28.6z"/>
		</g>
		<g>
			<path d="M37.5,28.3"/>
		</g>
		<g>
			<path d="M37.5,32.3c-12.3,0-24.6-4.5-24.7-4.6l0.2-0.5c0.1,0,12.3,4.5,24.5,4.5V32.3z"/>
		</g>
		<g>
			<path d="M37.5,32"/>
		</g>
	</g>
	<g>
		<g>
			<path d="M40.6,51.1h-6.2v-0.2c0-11.4-8.1-15.2-22-17.9l-0.2,0l0-0.2c0.7-6.3,1-8.5,1-8.5l0-0.2l0.2,0
				c0.2,0,18.1,0.2,24,0.2s23.8-0.2,24-0.2l0.2,0l0,0.2c0,0,0.4,2.2,1,8.5l0,0.2l-0.2,0c-13.9,2.7-22,6.5-22,17.9V51.1z M34.9,50.6
				h5.2c0.1-11.5,8.2-15.4,22.2-18.1c-0.5-5.1-0.9-7.4-1-8c-2.1,0-18.2,0.2-23.8,0.2c-5.6,0-21.7-0.2-23.8-0.2c-0.1,0.7-0.4,3-1,8
				C26.7,35.2,34.8,39.1,34.9,50.6z"/>
		</g>
		<g>
			<path d="M37.5,28.6v-0.5c11.9,0,23.8-4.1,23.9-4.1l0.2,0.5C61.5,24.5,49.5,28.6,37.5,28.6z"/>
		</g>
		<g>
			<path d="M37.5,28.3"/>
		</g>
		<g>
			<path d="M37.5,32.3v-0.5c12.2,0,24.4-4.5,24.5-4.5l0.2,0.5C62.1,27.7,49.8,32.3,37.5,32.3z"/>
		</g>
		<g>
			<path d="M37.5,32"/>
		</g>
	</g>
</g>
</svg>
