<?xml version="1.0" encoding="utf-8"?>
<!-- Generator: Adobe Illustrator 16.0.0, SVG Export Plug-In . SVG Version: 6.00 Build 0)  -->
<!DOCTYPE svg PUBLIC "-//W3C//DTD SVG 1.1//EN" "http://www.w3.org/Graphics/SVG/1.1/DTD/svg11.dtd">
<svg version="1.1" xmlns="http://www.w3.org/2000/svg" xmlns:xlink="http://www.w3.org/1999/xlink" x="0px" y="0px"  viewBox="0 0 75 75" enable-background="new 0 0 75 75" xml:space="preserve"><g id="Invisible">
	<g>
		<path fill="none" stroke="#99979A" stroke-width="0.5" stroke-miterlimit="10" d="M53.688,59.341c0,0-11.377,1.951-13.293,7.655"
			/>
		<path fill="none" stroke="#99979A" stroke-width="0.5" stroke-miterlimit="10" d="M53.485,59.076c0,0-11.174,1.833-13.279,7.423"
			/>
		<path fill="none" stroke="#99979A" stroke-width="0.5" stroke-miterlimit="10" d="M21.534,59.341c0,0,11.219,1.951,13.133,7.655"
			/>
		<path fill="none" stroke="#99979A" stroke-width="0.5" stroke-miterlimit="10" d="M21.677,58.883c0,0,11.076,2.025,13.182,7.615"
			/>
		<path fill="#FFFFFF" d="M37.618,25.256c2.396-0.354,8.438-7.704,8.438-7.704h1.176c1.506,5.82,4.965,6.449,4.965,6.449
			l0.002,0.132c0,0,0.654,3.459-0.717,9.548c0,0-0.918,4.082-1.051,4.565c-0.127,0.486-0.979,3.873-0.848,5.051
			c0.133,1.174,1.785,5.267,2.111,6.164c0.328,0.9,1.682,8.064,2.076,10.276c0,0-11.146,1.594-13.543,8.465h-5.455
			c0.004-0.177-0.043-0.248-0.043-0.248c-2.617-6.901-13.5-8.217-13.5-8.217c0.395-2.212,1.598-8.745,1.922-9.646
			c0.326-0.896,2.135-5.62,2.266-6.794c0.133-1.178-0.721-4.564-0.85-5.051c-0.131-0.483-1.049-4.565-1.049-4.565
			c-1.371-6.089-0.961-9.596-0.961-9.596l0.068-0.084c0,0,3.461-0.629,4.967-6.449h1.176c0,0,6.004,7.309,8.352,7.691L37.618,25.256
			z"/>
		<path fill="none" stroke="#99979A" stroke-width="0.5" stroke-miterlimit="10" d="M37.618,25.256
			c2.396-0.354,8.438-7.704,8.438-7.704h1.176c1.506,5.82,4.965,6.449,4.965,6.449l0.002,0.132c0,0,0.654,3.459-0.717,9.548
			c0,0-0.918,4.082-1.051,4.565c-0.127,0.486-0.979,3.873-0.848,5.051c0.133,1.174,1.785,5.267,2.111,6.164
			c0.328,0.9,1.682,8.064,2.076,10.276c0,0-11.146,1.594-13.543,8.465h-5.455c0.004-0.177-0.043-0.248-0.043-0.248
			c-2.617-6.901-13.5-8.217-13.5-8.217c0.395-2.212,1.598-8.745,1.922-9.646c0.326-0.896,2.135-5.62,2.266-6.794
			c0.133-1.178-0.721-4.564-0.85-5.051c-0.131-0.483-1.049-4.565-1.049-4.565c-1.371-6.089-0.961-9.596-0.961-9.596l0.068-0.084
			c0,0,3.461-0.629,4.967-6.449h1.176c0,0,6.004,7.309,8.352,7.691L37.618,25.256z"/>
		<path fill="#FFFFFF" d="M46.235,17.526c-0.043,0.042,2.211-10.729,2.211-10.729l0.936,0.021l-2.168,10.666L46.235,17.526z"/>
		<path fill="none" stroke="#99979A" stroke-width="0.5" stroke-miterlimit="10" d="M46.235,17.526
			c-0.043,0.042,2.211-10.729,2.211-10.729l0.936,0.021l-2.168,10.666L46.235,17.526z"/>
		<path fill="#FFFFFF" d="M28.64,17.526c0.043,0.042-2.211-10.729-2.211-10.729l-0.936,0.021l2.168,10.666L28.64,17.526z"/>
		<path fill="none" stroke="#99979A" stroke-width="0.5" stroke-miterlimit="10" d="M28.64,17.526
			c0.043,0.042-2.211-10.729-2.211-10.729l-0.936,0.021l2.168,10.666L28.64,17.526z"/>
	</g>
</g></svg>
