<?xml version="1.0" encoding="utf-8"?>
<!-- Generator: Adobe Illustrator 16.0.0, SVG Export Plug-In . SVG Version: 6.00 Build 0)  -->
<!DOCTYPE svg PUBLIC "-//W3C//DTD SVG 1.1//EN" "http://www.w3.org/Graphics/SVG/1.1/DTD/svg11.dtd">
<svg version="1.1" xmlns="http://www.w3.org/2000/svg" xmlns:xlink="http://www.w3.org/1999/xlink" x="0px" y="0px"  viewBox="0 0 75 75" enable-background="new 0 0 75 75" xml:space="preserve">
<g id="STE">
	<g>
		<path fill="none" stroke="#99979A" stroke-width="0.5" stroke-miterlimit="10" d="M42.689,14.158
			c-0.672,0.254-2.365,0.763-5.188,0.766c-2.826-0.003-4.52-0.512-5.191-0.766"/>
		<path fill="none" stroke="#99979A" stroke-width="0.5" stroke-miterlimit="10" d="M32.311,14.158
			c-0.223-0.084-0.332-0.142-0.332-0.142l-8.219,4.126c-3.068,2.666-7.406,11.32-7.406,11.32s5.041,4.085,6.803,5.242
			c0.352-0.353,1.67-1.82,1.67-1.82s0,0.721-0.746,27.445c2.203,0.538,12.84,0.647,13.408,0.654H37.5h0.012
			c0.568-0.007,11.205-0.116,13.41-0.654c-0.746-26.725-0.746-27.445-0.746-27.445s2.062,1.468,2.414,1.82
			c1.762-1.157,6.057-5.242,6.057-5.242s-4.336-8.654-7.404-11.32l-8.219-4.126c0,0-0.111,0.058-0.334,0.142"/>
		<path fill="none" stroke="#99979A" stroke-width="0.5" stroke-miterlimit="10" d="M50.176,32.884c0,0-0.947-11.561,1.064-14.742"
			/>
		<path fill="none" stroke="#99979A" stroke-width="0.5" stroke-miterlimit="10" d="M24.824,32.858c0,0,0.947-11.561-1.064-14.742"
			/>
		<path fill="none" stroke="#99979A" stroke-width="0.5" stroke-miterlimit="10" d="M31.979,14.016c0,0,0.051,4.126,5.521,4.126"/>
		<path fill="none" stroke="#99979A" stroke-width="0.5" stroke-miterlimit="10" d="M43.021,14.016c0,0-0.051,4.126-5.52,4.126"/>
		<path fill="none" stroke="#99979A" stroke-width="0.5" stroke-miterlimit="10" d="M31.123,14.319c0,0,0.059,4.679,6.377,4.679"/>
		<path fill="none" stroke="#99979A" stroke-width="0.5" stroke-miterlimit="10" d="M43.877,14.319c0,0-0.059,4.679-6.377,4.679"/>
		<path fill="none" stroke="#99979A" stroke-width="0.5" stroke-miterlimit="10" d="M24.078,59.348
			c2.205,0.539,12.844,0.648,13.41,0.654h0.014h0.012c0.566-0.006,11.205-0.115,13.408-0.654"/>
	</g>
</g>
</svg>
