<?xml version="1.0" encoding="utf-8"?>
<!-- Generator: Adobe Illustrator 16.0.0, SVG Export Plug-In . SVG Version: 6.00 Build 0)  -->
<!DOCTYPE svg PUBLIC "-//W3C//DTD SVG 1.1//EN" "http://www.w3.org/Graphics/SVG/1.1/DTD/svg11.dtd">
<svg version="1.1" xmlns="http://www.w3.org/2000/svg" xmlns:xlink="http://www.w3.org/1999/xlink" x="0px" y="0px" width="75px"
	 height="75px" viewBox="0 0 75 75" enable-background="new 0 0 75 75" xml:space="preserve">
<g id="Accessories">
</g>
<g id="TENCEL_Men_x27_s">
</g>
<g id="TENCEL_Women_x27_s">
</g>
<g id="Shirting">
	<g>
		<path fill="#99969A" d="M63.005,51.277c-0.015-0.116-0.022-0.465-0.034-0.947c-0.057-2.456-0.21-8.983-1.845-16.146
			c-0.024-0.133-2.423-13.31-6.441-20.356L54.18,13.22l0.043-0.086l-0.16-0.126c-2.988-2.355-9.107-4.737-9.761-4.987
			C44.32,7.88,44.31,7.735,44.24,7.605c-0.627-1.166-1.516-2.572-2.187-2.648c-0.769-0.09-2.292-0.017-2.347-0.014l-2.09,0.025
			l-2.202-0.05c-0.066-0.002-1.636-0.053-2.4,0.038c-0.666,0.076-1.542,1.454-2.161,2.596c-0.082,0.151-0.095,0.313-0.078,0.465
			c-0.601,0.229-6.767,2.623-9.771,4.99l-0.158,0.126l0.017,0.036l-0.571,0.693c-3.995,7.011-6.396,20.188-6.416,20.309
			c-1.638,7.175-1.79,13.702-1.847,16.158c-0.012,0.482-0.02,0.831-0.035,0.947c-0.092,0.743,0.724,11.843,0.84,13.408
			c-0.016,0.055-0.02,0.119,0.004,0.188l0.001,4.012c0.046,0.432,0.308,1.162,1,1.162h5.055c0.013,0,0.027,0.001,0.041,0.001
			c0.398,0,1.111-0.287,1.207-1.403c0.021-0.24,0.04-0.493,0.06-0.743c1.617,0.09,11.096,0.603,17.19,0.603
			c6.499,0,16.888-0.583,17.45-0.615c0.006,0.248,0.012,0.496,0.016,0.74c0.022,1.046,0.805,1.384,1.229,1.418
			c0.108,0.003,1.829,0.05,3.29,0.05c0.764,0,1.456-0.012,1.811-0.051c0.723-0.08,0.953-0.803,0.975-1.188v-3.985
			c0.022-0.069,0.021-0.134,0.004-0.188C62.281,63.119,63.098,52.021,63.005,51.277 M44.207,8.521
			c0.941,0.367,6.557,2.602,9.398,4.766c-0.057,0.163-0.139,0.442-0.219,0.85l-9.322-4.898L44.207,8.521z M31.294,7.793
			c0.846-1.565,1.515-2.311,1.778-2.341c0.729-0.085,2.311-0.033,2.328-0.033l2.209,0.05l0.002-0.001
			c0.002,0,0.002,0.001,0.004,0.001h0.002l2.105-0.025c0.016-0.002,1.543-0.075,2.273,0.009c0.267,0.031,0.945,0.792,1.805,2.389
			c0.027,0.053,0.029,0.111-0.008,0.216l-1.409,7.123l-4.321-1.644c0.541-0.606,1.819-2.06,2.268-2.784
			c0.061-0.127,1.484-3.116,1.796-3.923c0.065-0.163,0.187-0.468-0.011-0.746c-0.211-0.303-0.722-0.427-1.582-0.402
			c-1.748,0.058-2.904,0.043-2.916,0.043h-0.004h-0.002c-0.014,0-1.33,0.015-3.078-0.043c-0.856-0.033-1.33,0.087-1.549,0.371
			c-0.195,0.253-0.107,0.546-0.061,0.704l0.02,0.074c0.24,1.051,1.418,3.239,1.775,3.889c0.021,0.038,0.038,0.067,0.062,0.104
			c0.49,0.759,1.699,2.129,2.224,2.713l-4.32,1.644l-1.403-7.121C31.244,7.971,31.249,7.875,31.294,7.793 M38.312,68.001
			c-0.313,0.002-0.623,0.004-0.921,0.004s-0.608-0.002-0.921-0.004V14.273l1.062-0.404l0.812,0.309
			c-0.01,0.026-0.032,0.046-0.032,0.077V68.001z M20.716,53.004h12.46v6.852c0,0.021,0.029,2.099-0.986,3.134
			c-0.377,0.385-0.839,0.57-1.412,0.57c-2.463,0-8.869-0.1-10.256-0.127C20.639,60.797,20.81,56.114,20.716,53.004 M33.176,52.504
			H20.748v-2.446h12.428V52.504z M20.423,65.427c0.001-0.005-0.001-0.01-0.001-0.017c0.001-0.003,0.004-0.005,0.004-0.008
			c0.006-0.097,0.035-0.653,0.074-1.498c0.543,0.043,1.66,0.06,3.992,0.092c1.691,0.023,4.758,0.063,6.285,0.063
			c0.705,0,1.299-0.242,1.77-0.721c1.16-1.184,1.131-3.399,1.129-3.488V49.557H20.48c-0.166-5.768,0.916-25.05,0.926-25.243
			c0.725-5.121,0.598-8.082,0.363-9.663c0.006-0.003,0.01-0.002,0.016-0.004l9.33-4.86l1.192,6.071l3.663-1.394v53.531
			c-6.021-0.065-14.203-0.507-15.729-0.592C20.307,66.572,20.367,65.789,20.423,65.427 M37.615,6.224
			c0.026,0.001,1.186,0.015,2.934-0.043c0.957-0.033,1.133,0.152,1.158,0.188c0.041,0.058-0.01,0.184-0.062,0.315
			c-0.078,0.206-0.246,0.586-0.447,1.028c-0.019,0.008-0.043,0.003-0.061,0.019c-0.244,0.122-2.013,0.139-3.513,0.084
			c-0.005,0-0.005,0.003-0.009,0.003s-0.006-0.003-0.01-0.003c-1.668,0.056-3.546,0.038-3.779-0.069
			c-0.01-0.009-0.022-0.005-0.033-0.012c-0.165-0.389-0.299-0.748-0.36-1.016c-0.008-0.032-0.019-0.067-0.03-0.106
			c-0.035-0.116-0.058-0.209-0.022-0.255c0.039-0.049,0.237-0.208,1.138-0.177C36.269,6.237,37.587,6.225,37.615,6.224 M35.814,8.35
			c0.588,0,1.217-0.014,1.801-0.034c0.539,0.021,1.121,0.034,1.666,0.034c0.653,0,1.252-0.021,1.66-0.078
			c-0.494,1.07-1.049,2.235-1.05,2.24c-0.462,0.745-1.983,2.448-2.358,2.865c-0.365-0.406-1.808-2.017-2.332-2.825l-0.047-0.077
			c-0.152-0.277-0.683-1.256-1.123-2.203C34.468,8.329,35.111,8.35,35.814,8.35 M30.867,8.518l0.148,0.757l-9.334,4.862
			c-0.081-0.407-0.163-0.688-0.221-0.851C24.31,11.118,29.939,8.88,30.867,8.518 M12.49,51.34c0.019-0.142,0.026-0.463,0.039-0.998
			c0.057-2.443,0.207-8.934,1.836-16.07c0.024-0.131,2.408-13.225,6.336-20.124l0.363-0.438c0.269,0.973,0.782,3.925-0.156,10.555
			c-0.053,0.951-1.309,23.338-0.842,26.61c0.344,2.396,0.103,9.181-0.048,12.551h-0.036v0.25c0,0.039,0.006,0.07,0.021,0.099
			c-0.021,0.475-0.04,0.861-0.055,1.136c-1.137,0.037-3.906,0.104-5.34-0.008c-0.846-0.066-1.162-0.161-1.273-0.21
			C12.959,59.608,12.425,51.872,12.49,51.34 M19.643,68.603c-0.08,0.93-0.634,0.941-0.736,0.945h-5.067
			c-0.412,0-0.499-0.688-0.501-0.688v-3.64c0.253,0.072,0.638,0.134,1.232,0.181c1.437,0.114,4.176,0.047,5.35,0.012
			c-0.057,0.401-0.115,1.16-0.178,1.962C19.711,67.782,19.678,68.207,19.643,68.603 M38.812,67.995v-53.64l3.946,1.502l1.205-6.106
			l9.317,4.896c0.006,0.003,0.011,0.001,0.017,0.004c-0.233,1.58-0.36,4.534,0.36,9.643c0.013,0.212,1.096,19.496,0.929,25.264
			H41.375v10.88c0,3.342,2.615,3.619,2.67,3.623c0.079-0.002,7.751-0.171,10.639-0.179c0.04,0.693,0.07,1.153,0.078,1.272v0.016
			c0,0,0.035,1.034,0.066,2.221C54.54,67.406,45.378,67.924,38.812,67.995 M54.302,52.504H41.875v-2.446h12.427V52.504z
			 M41.875,53.004h12.484c-0.076,3.131,0.151,7.823,0.295,10.377c-2.914,0.009-10.541,0.177-10.594,0.18
			c-0.088-0.008-2.186-0.233-2.186-3.124V53.004z M61.662,68.845c-0.002,0.026-0.047,0.651-0.528,0.704
			c-0.999,0.109-4.992,0.001-5.019,0c-0.075-0.006-0.74-0.095-0.758-0.93c-0.025-1.232-0.068-2.628-0.088-3.2
			c0.875,0.027,3.647,0.102,5.161-0.019c0.593-0.047,0.979-0.108,1.231-0.181V68.845z M61.664,64.692
			c-0.111,0.049-0.428,0.145-1.272,0.21c-1.498,0.118-4.336,0.04-5.146,0.016c-0.098-1.569-0.67-11.076-0.246-14.043
			c0.469-3.271-0.788-25.659-0.846-26.632c-0.916-6.486-0.438-9.447-0.168-10.476l0.289,0.344c3.95,6.936,6.334,20.029,6.36,20.172
			c1.627,7.125,1.778,13.615,1.835,16.059c0.012,0.535,0.02,0.856,0.038,0.998C62.574,51.872,62.041,59.609,61.664,64.692"/>
		<path fill="#99969A" d="M37.391,16.242c-0.344,0-0.625,0.28-0.625,0.625s0.281,0.625,0.625,0.625c0.346,0,0.625-0.28,0.625-0.625
			S37.736,16.242,37.391,16.242 M37.266,16.867c0-0.068,0.057-0.125,0.125-0.125c0.07,0,0.125,0.057,0.125,0.125
			C37.516,17.007,37.266,17.007,37.266,16.867"/>
		<path fill="#99969A" d="M37.391,27.458c-0.344,0-0.625,0.28-0.625,0.625s0.281,0.626,0.625,0.626c0.346,0,0.625-0.281,0.625-0.626
			S37.736,27.458,37.391,27.458 M37.266,28.083c0-0.069,0.057-0.125,0.125-0.125c0.07,0,0.125,0.056,0.125,0.125
			C37.516,28.222,37.266,28.222,37.266,28.083"/>
		<path fill="#99969A" d="M37.391,38.674c-0.344,0-0.625,0.281-0.625,0.626s0.281,0.625,0.625,0.625c0.346,0,0.625-0.28,0.625-0.625
			S37.736,38.674,37.391,38.674 M37.266,39.3c0-0.069,0.057-0.126,0.125-0.126c0.07,0,0.125,0.057,0.125,0.126
			C37.516,39.438,37.266,39.438,37.266,39.3"/>
		<path fill="#99969A" d="M37.391,49.89c-0.344,0-0.625,0.281-0.625,0.626s0.281,0.625,0.625,0.625c0.346,0,0.625-0.28,0.625-0.625
			S37.736,49.89,37.391,49.89 M37.266,50.516c0-0.069,0.057-0.126,0.125-0.126c0.07,0,0.125,0.057,0.125,0.126
			C37.516,50.654,37.266,50.654,37.266,50.516"/>
		<path fill="#99969A" d="M37.391,61.106c-0.344,0-0.625,0.28-0.625,0.625s0.281,0.625,0.625,0.625c0.346,0,0.625-0.28,0.625-0.625
			S37.736,61.106,37.391,61.106 M37.266,61.731c0-0.069,0.057-0.125,0.125-0.125c0.07,0,0.125,0.056,0.125,0.125
			C37.516,61.87,37.266,61.87,37.266,61.731"/>
	</g>
</g>
<g id="STE">
</g>
<g id="Invisible">
</g>
<g id="Socks">
</g>
<g id="Cashmere">
</g>
<g id="Titles">
</g>
<g id="OC_Womens">
</g>
<g id="OC_Mens">
</g>
<g id="STA_Womens">
</g>
<g id="STA_Mens">
</g>
</svg>
