<?xml version="1.0" encoding="utf-8"?>
<!-- Generator: Adobe Illustrator 16.0.0, SVG Export Plug-In . SVG Version: 6.00 Build 0)  -->
<!DOCTYPE svg PUBLIC "-//W3C//DTD SVG 1.1//EN" "http://www.w3.org/Graphics/SVG/1.1/DTD/svg11.dtd">
<svg version="1.1" xmlns="http://www.w3.org/2000/svg" xmlns:xlink="http://www.w3.org/1999/xlink" x="0px" y="0px"  viewBox="0 0 75 75" enable-background="new 0 0 75 75" xml:space="preserve">
<g id="TENCEL_Woven">
	<g>
		<path fill="none" stroke="#04080F" stroke-width="0.5" stroke-linecap="round" stroke-miterlimit="10" d="M37.59,7.243
			c0,0-3.6-0.086-5.057,0.6c-1.275,0.6-1.682,1.562-2.377,2.531c-0.141,0.198-0.193,0.785-0.17,1.028l1.787,9.237l5.365-4.229
			c0,0-4.254-3.373-4.447-5.008c-0.195-1.635-0.643-3.747,2.344-4.075"/>
		<path fill="none" stroke="#04080F" stroke-width="0.5" stroke-linecap="round" stroke-miterlimit="10" d="M37.514,7.243
			c0,0,3.602-0.086,5.059,0.6c1.273,0.6,1.682,1.562,2.377,2.531c0.141,0.198,0.189,0.785,0.17,1.028l-1.789,9.237l-5.365-4.229
			c0,0,4.254-3.373,4.449-5.008c0.195-1.635,0.641-3.747-2.344-4.075"/>
		<path fill="none" stroke="#04080F" stroke-width="0.5" stroke-linecap="round" stroke-miterlimit="10" d="M29.984,11.401
			c0,0-6.908,3.342-7.854,4.143c-0.949,0.801-2.332,1.966-2.332,1.966l1.531,10.852l-0.145,11.652l-0.295,24.252
			c0,0,11.363,0.729,16.971,0.656"/>
		<path fill="none" stroke="#04080F" stroke-width="0.5" stroke-linecap="round" stroke-miterlimit="10" d="M21.416,64.3v2.226
			c0,0.061-0.053,0.107-0.113,0.101c-3.857-0.438-7.031,0.586-7.656,0.805c-0.061,0.022-0.121-0.017-0.131-0.08
			c-0.098-0.57-0.506-2.98-0.635-3.302c-0.146-0.364-0.746-3.278-0.873-3.642c-0.236-0.667-1.543-14.754-1.332-16.773
			c0,0,0.154-1.289,0.385-2.525c0.15-0.817,3.057-11.071,4.879-15.296c0,0,2.762-7.376,3.859-8.303"/>
		<path fill="none" stroke="#04080F" stroke-width="0.5" stroke-linecap="round" stroke-miterlimit="10" d="M12.736,63.504
			c0,0,2.09-0.855,5.309-0.855h2.924"/>
		<path fill="none" stroke="#04080F" stroke-width="0.5" stroke-linecap="round" stroke-miterlimit="10" d="M21.416,66.564
			c0,0-1.176,0.881-3.559,1.128c-2.381,0.248-4.301-0.254-4.301-0.254"/>
		<path fill="none" stroke="#04080F" stroke-width="0.5" stroke-linecap="round" stroke-miterlimit="10" d="M37.861,11.053
			c0,0-5.051,0.089-5.172,0.348"/>
		<path fill="none" stroke="#04080F" stroke-width="0.5" stroke-linecap="round" stroke-miterlimit="10" d="M21.109,46.303H33.32
			v11.652c0,0,0.146,3.544-2.912,3.544h-8.012c0,0-1.465-0.002-1.465-0.731"/>
		
			<line fill="none" stroke="#04080F" stroke-width="0.5" stroke-linecap="round" stroke-miterlimit="10" x1="33.32" y1="48.808" x2="21.18" y2="48.808"/>
		
			<line fill="none" stroke="#04080F" stroke-width="0.5" stroke-linecap="round" stroke-miterlimit="10" x1="36.092" y1="64.923" x2="35.699" y2="17.682"/>
		<path fill="none" stroke="#04080F" stroke-width="0.5" stroke-linecap="round" stroke-miterlimit="10" d="M45.119,11.401
			c0,0,6.805,3.342,7.75,4.143c0.947,0.801,2.33,1.966,2.33,1.966l-1.527,10.852l0.141,11.652l0.295,24.252
			c0,0-11.361,0.729-16.969,0.656"/>
		<path fill="none" stroke="#04080F" stroke-width="0.5" stroke-linecap="round" stroke-miterlimit="10" d="M53.582,64.3v2.226
			c0,0.061,0.055,0.107,0.115,0.101c3.857-0.438,7.031,0.586,7.656,0.805c0.059,0.022,0.121-0.017,0.131-0.08
			c0.096-0.57,0.506-2.98,0.635-3.302c0.146-0.364,0.746-3.278,0.873-3.642c0.236-0.667,1.543-14.754,1.332-16.773
			c0,0-0.154-1.289-0.385-2.525c-0.152-0.817-3.059-11.071-4.879-15.296c0,0-2.762-7.376-3.861-8.303"/>
		<path fill="none" stroke="#04080F" stroke-width="0.5" stroke-linecap="round" stroke-miterlimit="10" d="M62.262,63.504
			c0,0-2.088-0.855-5.307-0.855h-2.924"/>
		<path fill="none" stroke="#04080F" stroke-width="0.5" stroke-linecap="round" stroke-miterlimit="10" d="M53.582,66.564
			c0,0,1.178,0.881,3.561,1.128c2.381,0.248,4.299-0.254,4.299-0.254"/>
		<path fill="none" stroke="#04080F" stroke-width="0.5" stroke-linecap="round" stroke-miterlimit="10" d="M37.139,11.053
			c0,0,5.051,0.089,5.172,0.348"/>
		<path fill="none" stroke="#04080F" stroke-width="0.5" stroke-linecap="round" stroke-miterlimit="10" d="M53.889,46.303H41.678
			v11.652c0,0-0.145,3.544,2.914,3.544h8.01c0,0,1.467-0.002,1.467-0.731"/>
		
			<line fill="none" stroke="#04080F" stroke-width="0.5" stroke-linecap="round" stroke-miterlimit="10" x1="41.678" y1="48.808" x2="53.818" y2="48.808"/>
		
			<circle fill="none" stroke="#04080F" stroke-width="0.5" stroke-linecap="round" stroke-miterlimit="10" cx="37.619" cy="57.54" r="0.617"/>
		
			<circle fill="none" stroke="#04080F" stroke-width="0.5" stroke-linecap="round" stroke-miterlimit="10" cx="37.619" cy="47.775" r="0.617"/>
		
			<circle fill="none" stroke="#04080F" stroke-width="0.5" stroke-linecap="round" stroke-miterlimit="10" cx="37.619" cy="38.01" r="0.618"/>
		
			<circle fill="none" stroke="#04080F" stroke-width="0.5" stroke-linecap="round" stroke-miterlimit="10" cx="37.619" cy="28.246" r="0.617"/>
		<path fill="none" stroke="#04080F" stroke-width="0.5" stroke-linecap="round" stroke-miterlimit="10" d="M38.131,18.48
			c0,0.341-0.275,0.618-0.615,0.618c-0.344,0-0.619-0.277-0.619-0.618c0-0.341,0.275-0.618,0.619-0.618
			C37.855,17.862,38.131,18.139,38.131,18.48z"/>
		
			<line fill="none" stroke="#04080F" stroke-width="0.5" stroke-linecap="round" stroke-miterlimit="10" x1="39.299" y1="17.682" x2="39.299" y2="64.929"/>
		<path fill="none" stroke="#04080F" stroke-width="0.5" stroke-linecap="round" stroke-miterlimit="10" d="M20.969,62.649
			c0,0,11.361,0.728,16.971,0.654"/>
		<path fill="none" stroke="#04080F" stroke-width="0.5" stroke-linecap="round" stroke-miterlimit="10" d="M54.107,62.649
			c0,0-11.359,0.728-16.969,0.654"/>
	</g>
</g>
</svg>
