<?xml version="1.0" encoding="utf-8"?>
<!-- Generator: Adobe Illustrator 16.0.0, SVG Export Plug-In . SVG Version: 6.00 Build 0)  -->
<!DOCTYPE svg PUBLIC "-//W3C//DTD SVG 1.1//EN" "http://www.w3.org/Graphics/SVG/1.1/DTD/svg11.dtd">
<svg version="1.1" xmlns="http://www.w3.org/2000/svg" xmlns:xlink="http://www.w3.org/1999/xlink" x="0px" y="0px"  viewBox="0 0 75 75" enable-background="new 0 0 75 75" xml:space="preserve">
<g id="Accessories">
</g>
<g id="TENCEL_Men_x27_s">
</g>
<g id="TENCEL_Women_x27_s">
</g>
<g id="STE">
</g>
<g id="Invisible">
	<g>
		<path fill="none" stroke="#99979A" stroke-width="0.5" stroke-miterlimit="10" d="M58.488,21.466c0,0-18.016,0.18-24.021,0.18
			s-24.021-0.18-24.021-0.18s-0.928,1.944-1.047,9.184c19.445,2.224,19.762,5.807,21.182,17.44h3.887h3.887
			c1.42-11.634,1.736-15.217,21.182-17.44C59.416,23.41,58.488,21.466,58.488,21.466z"/>
		<path fill="#FFFFFF" d="M64.555,26.909c0,0-18.016,0.18-24.021,0.18s-24.021-0.18-24.021-0.18s-0.928,1.944-1.049,9.184
			c19.445,2.225,19.764,5.809,21.184,17.441h3.887h3.887c1.418-11.633,1.736-15.217,21.182-17.441
			C65.482,28.854,64.555,26.909,64.555,26.909"/>
		<path fill="none" stroke="#99979A" stroke-width="0.5" stroke-miterlimit="10" d="M64.555,26.909c0,0-18.016,0.18-24.021,0.18
			s-24.021-0.18-24.021-0.18s-0.928,1.944-1.049,9.184c19.445,2.225,19.764,5.809,21.184,17.441h3.887h3.887
			c1.418-11.633,1.736-15.217,21.182-17.441C65.482,28.854,64.555,26.909,64.555,26.909z"/>
	</g>
</g>
<g id="Socks">
</g>
<g id="Cashmere">
</g>
<g id="Titles" display="none">
	<text transform="matrix(1 0 0 1 9.2656 5.8428)" display="inline"><tspan x="0" y="0" fill="#9B9694" font-family="'CircularAirPro-Bold'" font-size="4.4">I</tspan><tspan x="1.33" y="0" fill="#9B9694" font-family="'CircularAirPro-Bold'" font-size="4.4">n</tspan><tspan x="3.859" y="0" fill="#9B9694" font-family="'CircularAirPro-Bold'" font-size="4.4">visible </tspan><tspan x="18.129" y="0" fill="#9B9694" font-family="'CircularAirPro-Bold'" font-size="4.4">C</tspan><tspan x="21.449" y="0" fill="#9B9694" font-family="'CircularAirPro-Bold'" font-size="4.4">heeky </tspan><tspan x="34.896" y="0" fill="#9B9694" font-family="'CircularAirPro-Bold'" font-size="4.4">T</tspan><tspan x="37.633" y="0" fill="#9B9694" font-family="'CircularAirPro-Bold'" font-size="4.4">hong</tspan></text>
</g>
<g id="OC_Womens">
</g>
<g id="OC_Mens">
</g>
<g id="STA_Womens">
</g>
<g id="STA_Mens">
</g>
</svg>
