<?xml version="1.0" encoding="utf-8"?>
<!-- Generator: Adobe Illustrator 16.0.0, SVG Export Plug-In . SVG Version: 6.00 Build 0)  -->
<!DOCTYPE svg PUBLIC "-//W3C//DTD SVG 1.1//EN" "http://www.w3.org/Graphics/SVG/1.1/DTD/svg11.dtd">
<svg version="1.1" xmlns="http://www.w3.org/2000/svg" xmlns:xlink="http://www.w3.org/1999/xlink" x="0px" y="0px"  viewBox="0 0 75 75" enable-background="new 0 0 75 75" xml:space="preserve">
<g id="Accessories">
</g>
<g id="TENCEL_Men_x27_s">
</g>
<g id="TENCEL_Women_x27_s">
</g>
<g id="STE">
</g>
<g id="Invisible">
	<g>
		<path fill="none" stroke="#99979A" stroke-width="0.5" stroke-miterlimit="10" d="M58.747,19.123H35.554H12.36
			c-0.828,1.479-3.148,15.44-3.148,15.44c11.764,3.779,22.365,11.663,22.365,11.663h3.977h3.977c0,0,10.604-7.884,22.363-11.663
			C61.894,34.563,59.575,20.601,58.747,19.123z"/>
		<path fill="none" stroke="#99979A" stroke-width="0.5" stroke-miterlimit="10" d="M12.36,19.205c0,0,7.402,3.613,23.193,3.613"/>
		<path fill="none" stroke="#99979A" stroke-width="0.5" stroke-miterlimit="10" d="M58.747,19.205c0,0-7.402,3.613-23.193,3.613"/>
		<path fill="none" stroke="#99979A" stroke-width="0.5" stroke-miterlimit="10" d="M39.446,46.145
			c5.965-7.394,12.592-9.856,22.365-11.663"/>
		<path fill="none" stroke="#99979A" stroke-width="0.5" stroke-miterlimit="10" d="M31.661,46.145
			c-5.965-7.394-12.592-9.856-22.365-11.663"/>
		<path fill="#FFFFFF" d="M62.64,28.774H39.448H16.253c-0.828,1.479-3.146,15.44-3.146,15.44
			C24.868,47.994,35.47,55.877,35.47,55.877h3.979h3.975c0,0,10.602-7.884,22.365-11.663C65.788,44.214,63.468,30.252,62.64,28.774"
			/>
		<path fill="none" stroke="#99979A" stroke-width="0.5" stroke-miterlimit="10" d="M62.64,28.774H39.448H16.253
			c-0.828,1.479-3.146,15.44-3.146,15.44C24.868,47.994,35.47,55.877,35.47,55.877h3.979h3.975c0,0,10.602-7.884,22.365-11.663
			C65.788,44.214,63.468,30.252,62.64,28.774z"/>
		<path fill="#FFFFFF" d="M16.253,28.856c0,0,7.402,3.613,23.193,3.613"/>
		<path fill="none" stroke="#99979A" stroke-width="0.5" stroke-miterlimit="10" d="M16.253,28.856c0,0,7.402,3.613,23.193,3.613"/>
		<path fill="#FFFFFF" d="M62.64,28.856c0,0-7.4,3.613-23.191,3.613"/>
		<path fill="none" stroke="#99979A" stroke-width="0.5" stroke-miterlimit="10" d="M62.64,28.856c0,0-7.4,3.613-23.191,3.613"/>
		<path fill="#FFFFFF" d="M43.339,55.796c5.965-7.394,12.592-9.856,22.365-11.663"/>
		<path fill="none" stroke="#99979A" stroke-width="0.5" stroke-miterlimit="10" d="M43.339,55.796
			c5.965-7.394,12.592-9.856,22.365-11.663"/>
		<path fill="#FFFFFF" d="M35.554,55.796c-5.965-7.394-12.592-9.856-22.365-11.663"/>
		<path fill="none" stroke="#99979A" stroke-width="0.5" stroke-miterlimit="10" d="M35.554,55.796
			c-5.965-7.394-12.592-9.856-22.365-11.663"/>
		<path fill="none" stroke="#99979A" stroke-width="0.5" stroke-miterlimit="10" d="M62.64,28.774H39.448H16.253
			c-0.828,1.479-3.146,15.44-3.146,15.44C24.868,47.994,35.47,55.877,35.47,55.877h3.979h3.975c0,0,10.602-7.884,22.365-11.663
			C65.788,44.214,63.468,30.252,62.64,28.774z"/>
		<path fill="none" stroke="#99979A" stroke-width="0.5" stroke-miterlimit="10" d="M16.253,28.856c0,0,7.402,3.613,23.193,3.613"/>
		<path fill="none" stroke="#99979A" stroke-width="0.5" stroke-miterlimit="10" d="M62.64,28.856c0,0-7.4,3.613-23.191,3.613"/>
		<path fill="none" stroke="#99979A" stroke-width="0.5" stroke-miterlimit="10" d="M43.339,55.796
			c5.965-7.394,12.592-9.856,22.365-11.663"/>
		<path fill="none" stroke="#99979A" stroke-width="0.5" stroke-miterlimit="10" d="M35.554,55.796
			c-5.965-7.394-12.592-9.856-22.365-11.663"/>
	</g>
</g>
<g id="Socks">
</g>
<g id="Cashmere">
</g>
<g id="Titles" display="none">
	<text transform="matrix(1 0 0 1 14.666 5.8428)" display="inline"><tspan x="0" y="0" fill="#9B9694" font-family="'CircularAirPro-Bold'" font-size="4.4">I</tspan><tspan x="1.33" y="0" fill="#9B9694" font-family="'CircularAirPro-Bold'" font-size="4.4">n</tspan><tspan x="3.859" y="0" fill="#9B9694" font-family="'CircularAirPro-Bold'" font-size="4.4">visible </tspan><tspan x="18.129" y="0" fill="#9B9694" font-family="'CircularAirPro-Bold'" font-size="4.4">C</tspan><tspan x="21.449" y="0" fill="#9B9694" font-family="'CircularAirPro-Bold'" font-size="4.4">heeky B</tspan><tspan x="37.58" y="0" fill="#9B9694" font-family="'CircularAirPro-Bold'" font-size="4.4">r</tspan><tspan x="39.309" y="0" fill="#9B9694" font-family="'CircularAirPro-Bold'" font-size="4.4">ie</tspan><tspan x="42.953" y="0" fill="#9B9694" font-family="'CircularAirPro-Bold'" font-size="4.4">f</tspan><tspan x="44.545" y="0" fill="#9B9694" font-family="'CircularAirPro-Bold'" font-size="4.4">s</tspan></text>
</g>
<g id="OC_Womens">
</g>
<g id="OC_Mens">
</g>
<g id="STA_Womens">
</g>
<g id="STA_Mens">
</g>
</svg>
