<?xml version="1.0" encoding="utf-8"?>
<!-- Generator: Adobe Illustrator 16.0.0, SVG Export Plug-In . SVG Version: 6.00 Build 0)  -->
<!DOCTYPE svg PUBLIC "-//W3C//DTD SVG 1.1//EN" "http://www.w3.org/Graphics/SVG/1.1/DTD/svg11.dtd">
<svg version="1.1" xmlns="http://www.w3.org/2000/svg" xmlns:xlink="http://www.w3.org/1999/xlink" x="0px" y="0px"  viewBox="0 0 75 75" enable-background="new 0 0 75 75" xml:space="preserve">
<g id="Denim">
	<g>
		<path fill="#99979A" d="M42.669,70.06c-0.229,0-0.438-0.004-0.62-0.012l-0.225-0.01l-0.014-0.223
			c-0.021-0.297-1.656-24.48-4-36.99c-1.375,8.039-4.587,36.693-4.623,37l-0.023,0.213l-0.215,0.01
			c-2.318,0.086-8.732-0.445-9.005-0.469l-0.16-0.014l-0.054-0.152c-0.607-1.707-0.039-27.332-0.015-28.422l0.106-5.949
			c0.119-6.682,0.214-11.961,0.214-13.488c0-4.736,1.57-13.607,1.586-13.695l0.042-0.24l0.239,0.037
			c0.082,0.01,5.145,0.723,11.346,0.82V6.593h0.5v1.889c3.688,0.047,7.721-0.146,11.336-0.826l0.248-0.045l0.044,0.248
			c0.017,0.088,1.586,8.959,1.586,13.695c0,1.527,0.096,6.807,0.215,13.488l0.105,5.949c0.025,1.09,0.593,26.715-0.015,28.422
			l-0.054,0.152l-0.159,0.014C50.805,69.601,45.339,70.06,42.669,70.06 M42.293,69.556c2.223,0.041,7.51-0.375,8.542-0.459
			c0.423-2.256,0.11-20.896-0.052-28.096l-0.104-5.951c-0.12-6.684-0.216-11.963-0.216-13.496c0-4.25-1.28-11.891-1.534-13.359
			c-3.583,0.645-7.563,0.824-11.18,0.787v10.982c0.08,4.377-0.781,6.105-1.079,6.57C39.773,33.521,42.065,66.216,42.293,69.556
			 M24.164,69.097c1.035,0.084,6.332,0.494,8.551,0.459c0.319-2.842,3.679-32.588,4.837-38.055c-0.444-2.15-0.91-3.854-1.396-4.887
			l-0.068-0.148l0.105-0.121c0.01-0.014,1.146-1.439,1.056-6.377V8.976c-5.492-0.086-10.092-0.65-11.176-0.793
			c-0.249,1.439-1.537,9.111-1.537,13.371c0,1.533-0.095,6.812-0.215,13.496l-0.105,5.951C24.055,48.2,23.741,66.841,24.164,69.097"
			/>
		<path fill="#99979A" d="M37.438,6.843c-5.247,0-11.505-0.164-11.505-0.951S32.191,4.94,37.438,4.94
			c5.248,0,11.505,0.164,11.505,0.951S42.687,6.843,37.438,6.843 M26.928,5.892c1.366,0.221,5.069,0.451,10.511,0.451
			s9.145-0.23,10.511-0.451C46.582,5.671,42.88,5.44,37.438,5.44S28.294,5.671,26.928,5.892"/>
		
			<rect x="25.776" y="5.879" transform="matrix(0.9877 0.1562 -0.1562 0.9877 1.3963 -3.9797)" fill="#99979A" width="0.5" height="2.034"/>
		
			<rect x="47.882" y="6.647" transform="matrix(0.2125 0.9772 -0.9772 0.2125 45.2565 -42.3635)" fill="#99979A" width="2.059" height="0.499"/>
		<path fill="#99979A" d="M35.633,10.177h-1.229V6.343h1.229V10.177z M34.903,9.677h0.229V6.843h-0.229V9.677z"/>
		<path fill="#99979A" d="M41.634,10.177h-1.246V6.343h1.246V10.177z M40.888,9.677h0.246V6.843h-0.246V9.677z"/>
		<path fill="#99979A" d="M37.499,20.214v-0.5c1.88,0,1.956-2.029,1.958-2.115V8.733h0.5v8.871
			C39.938,18.511,39.396,20.214,37.499,20.214"/>
		<path fill="#99979A" d="M38.653,8.509c-0.419,0-0.76-0.342-0.76-0.762s0.341-0.762,0.76-0.762c0.418,0,0.759,0.342,0.759,0.762
			S39.071,8.509,38.653,8.509 M38.653,7.485c-0.144,0-0.26,0.117-0.26,0.262s0.116,0.262,0.26,0.262s0.259-0.117,0.259-0.262
			S38.797,7.485,38.653,7.485"/>
		
			<rect x="26.612" y="7.707" transform="matrix(0.8991 0.4378 -0.4378 0.8991 8.4934 -10.4275)" fill="#99979A" width="0.5" height="10.999"/>
		
			<rect x="42.599" y="13.016" transform="matrix(0.4371 0.8994 -0.8994 0.4371 39.0062 -35.7937)" fill="#99979A" width="11.001" height="0.5"/>
	</g>
</g>
</svg>
