<?xml version="1.0" encoding="utf-8"?>
<!-- Generator: Adobe Illustrator 16.0.0, SVG Export Plug-In . SVG Version: 6.00 Build 0)  -->
<!DOCTYPE svg PUBLIC "-//W3C//DTD SVG 1.1//EN" "http://www.w3.org/Graphics/SVG/1.1/DTD/svg11.dtd">
<svg version="1.1" xmlns="http://www.w3.org/2000/svg" xmlns:xlink="http://www.w3.org/1999/xlink" x="0px" y="0px"  viewBox="0 0 75 75" enable-background="new 0 0 75 75" xml:space="preserve"><g id="STA_Womens">
	<g>
		<path fill="#E2E2E2" stroke="#99979A" stroke-width="0.5" stroke-miterlimit="10" d="M60.694,23.588H37.5H14.306
			c-0.828,1.479-1.708,13.281-1.708,13.281c11.764,3.779,20.927,14.543,20.927,14.543H37.5h3.975c0,0,9.163-10.764,20.927-14.543
			C62.402,36.869,61.521,25.067,60.694,23.588z"/>
		<path fill="none" stroke="#99979A" stroke-width="0.5" stroke-miterlimit="10" d="M14.307,23.67c0,0,7.401,3.614,23.192,3.614"/>
		<path fill="none" stroke="#99979A" stroke-width="0.5" stroke-miterlimit="10" d="M60.694,23.67c0,0-7.402,3.614-23.193,3.614"/>
		<path fill="none" stroke="#99979A" stroke-width="0.5" stroke-miterlimit="10" d="M13.479,27.511c0,0,7.666,3.614,24.021,3.614"/>
		<path fill="none" stroke="#99979A" stroke-width="0.5" stroke-miterlimit="10" d="M61.522,27.511c0,0-7.666,3.614-24.021,3.614"/>
		<path fill="none" stroke="#99979A" stroke-width="0.5" stroke-miterlimit="10" d="M33.607,51.33
			c-1.4-6.912-11.15-12.736-20.926-14.543"/>
		<path fill="none" stroke="#99979A" stroke-width="0.5" stroke-miterlimit="10" d="M41.476,51.33
			c1.4-6.912,11.15-12.736,20.926-14.543"/>
	</g>
</g></svg>
