<?xml version="1.0" encoding="utf-8"?>
<!-- Generator: Adobe Illustrator 16.0.0, SVG Export Plug-In . SVG Version: 6.00 Build 0)  -->
<!DOCTYPE svg PUBLIC "-//W3C//DTD SVG 1.1//EN" "http://www.w3.org/Graphics/SVG/1.1/DTD/svg11.dtd">
<svg version="1.1" xmlns="http://www.w3.org/2000/svg" xmlns:xlink="http://www.w3.org/1999/xlink" x="0px" y="0px"  viewBox="0 0 75 75" enable-background="new 0 0 75 75" xml:space="preserve">
<g id="OC_Sweat">
	<g>
		<path fill="none" stroke="#04080F" stroke-width="0.5" stroke-miterlimit="10" d="M16.163,60.21c0,0,2.942-1.559,6.75-0.605"/>
		<path fill="none" stroke="#04080F" stroke-width="0.5" stroke-miterlimit="10" d="M28.539,11.282c0,0,1.199,6.565,9.075,6.565"/>
		<path fill="none" stroke="#04080F" stroke-width="0.5" stroke-miterlimit="10" d="M16.906,64.524c0,0,3.705,0.562,6.245-0.526"/>
		<path fill="none" stroke="#04080F" stroke-width="0.5" stroke-miterlimit="10" d="M55.115,15.091
			c-2.076,1.125-2.076,6.924-2.076,6.924l-0.261,28.221l-1.99,0.606c0,1.73,1.299,8.763,1.299,8.763L52,63.932
			c2.164-0.259,5.971,0.519,5.971,0.519c0.499-1.678,0.867-4.241,0.867-4.241c1.729-2.682,1.816-5.712,1.816-5.712L60.48,40.883
			c0,0-2.336-15.233-3.115-18.695c-0.778-3.462-2.076-6.664-2.855-7.616c-0.779-0.951-10.299-4.24-10.299-4.24
			c-2.857,1.558-6.578,1.385-6.578,1.385s-3.987,0.173-6.843-1.385c0,0-9.521,3.289-10.3,4.24c-0.778,0.952-2.076,4.154-2.855,7.616
			s-3.116,18.695-3.116,18.695l-0.173,13.614c0,0,0.086,3.03,1.818,5.712c0,0,0.404,2.681,0.864,4.241c0,0,3.809-0.777,5.973-0.519
			l-0.087-4.327c0,0,1.299-7.032,1.299-8.763l-1.992-0.606l-0.258-28.221c0,0,0-5.799-2.077-6.924"/>
		<path fill="none" stroke="#04080F" stroke-width="0.5" stroke-miterlimit="10" d="M58.837,60.21c0,0-2.942-1.559-6.751-0.605"/>
		<path fill="none" stroke="#04080F" stroke-width="0.5" stroke-miterlimit="10" d="M37.646,15.297l-0.031,2.551
			c7.876,0,8.845-6.565,8.845-6.565"/>
		<path fill="none" stroke="#04080F" stroke-width="0.5" stroke-miterlimit="10" d="M58.08,64.503c0,0-3.692,0.577-6.231-0.511"/>
		<path fill="none" stroke="#04080F" stroke-width="0.5" stroke-miterlimit="10" d="M31.812,12.811c0,0,6.1,1.785,11.645,0"/>
		<path fill="none" stroke="#04080F" stroke-width="0.5" stroke-miterlimit="10" d="M30.789,10.33c0,0,0.354,4.968,6.857,4.968
			s6.563-4.968,6.563-4.968"/>
		<path fill="none" stroke="#04080F" stroke-width="0.5" stroke-miterlimit="10" d="M24.212,50.842c0,0,15.162,0.979,26.575,0"/>
		<path fill="none" stroke="#04080F" stroke-width="0.5" stroke-miterlimit="10" d="M21.976,45.052c0,0,15.809,3.724,30.768,0"/>
		<line fill="none" stroke="#04080F" stroke-width="0.5" stroke-miterlimit="10" x1="35.056" y1="51.343" x2="35.056" y2="46.685"/>
		<line fill="none" stroke="#04080F" stroke-width="0.5" stroke-miterlimit="10" x1="36.708" y1="51.343" x2="36.708" y2="46.685"/>
		<line fill="none" stroke="#04080F" stroke-width="0.5" stroke-miterlimit="10" x1="38.36" y1="51.231" x2="38.36" y2="46.88"/>
		<line fill="none" stroke="#04080F" stroke-width="0.5" stroke-miterlimit="10" x1="40.013" y1="51.231" x2="40.013" y2="46.75"/>
		<line fill="none" stroke="#04080F" stroke-width="0.5" stroke-miterlimit="10" x1="41.664" y1="51.421" x2="41.664" y2="46.521"/>
		<line fill="none" stroke="#04080F" stroke-width="0.5" stroke-miterlimit="10" x1="43.316" y1="51.169" x2="43.316" y2="46.27"/>
		<line fill="none" stroke="#04080F" stroke-width="0.5" stroke-miterlimit="10" x1="44.969" y1="51.169" x2="44.969" y2="46.27"/>
		<line fill="none" stroke="#04080F" stroke-width="0.5" stroke-miterlimit="10" x1="46.621" y1="51.069" x2="46.621" y2="46.171"/>
		<line fill="none" stroke="#04080F" stroke-width="0.5" stroke-miterlimit="10" x1="48.273" y1="50.898" x2="48.273" y2="45.999"/>
		<line fill="none" stroke="#04080F" stroke-width="0.5" stroke-miterlimit="10" x1="49.926" y1="50.898" x2="49.926" y2="45.822"/>
		<line fill="none" stroke="#04080F" stroke-width="0.5" stroke-miterlimit="10" x1="51.578" y1="50.675" x2="51.578" y2="45.305"/>
		<line fill="none" stroke="#04080F" stroke-width="0.5" stroke-miterlimit="10" x1="33.403" y1="51.274" x2="33.403" y2="46.749"/>
		<line fill="none" stroke="#04080F" stroke-width="0.5" stroke-miterlimit="10" x1="31.751" y1="51.274" x2="31.751" y2="46.607"/>
		<line fill="none" stroke="#04080F" stroke-width="0.5" stroke-miterlimit="10" x1="30.099" y1="51.245" x2="30.099" y2="46.563"/>
		<line fill="none" stroke="#04080F" stroke-width="0.5" stroke-miterlimit="10" x1="28.447" y1="51.212" x2="28.447" y2="46.312"/>
		<line fill="none" stroke="#04080F" stroke-width="0.5" stroke-miterlimit="10" x1="26.795" y1="50.941" x2="26.795" y2="46.042"/>
		<line fill="none" stroke="#04080F" stroke-width="0.5" stroke-miterlimit="10" x1="25.143" y1="50.941" x2="25.143" y2="45.865"/>
		<line fill="none" stroke="#04080F" stroke-width="0.5" stroke-miterlimit="10" x1="23.49" y1="50.723" x2="23.49" y2="45.348"/>
		<line fill="none" stroke="#04080F" stroke-width="0.5" stroke-miterlimit="10" x1="38.75" y1="15.284" x2="38.874" y2="17.749"/>
		<line fill="none" stroke="#04080F" stroke-width="0.5" stroke-miterlimit="10" x1="40.658" y1="14.809" x2="41.511" y2="17.124"/>
		<line fill="none" stroke="#04080F" stroke-width="0.5" stroke-miterlimit="10" x1="43.94" y1="11.327" x2="46.354" y2="12.345"/>
		<line fill="none" stroke="#04080F" stroke-width="0.5" stroke-miterlimit="10" x1="42.519" y1="13.765" x2="44.153" y2="15.846"/>
		<line fill="none" stroke="#04080F" stroke-width="0.5" stroke-miterlimit="10" x1="43.683" y1="12.218" x2="45.786" y2="13.447"/>
		<line fill="none" stroke="#04080F" stroke-width="0.5" stroke-miterlimit="10" x1="43.254" y1="13.084" x2="45.116" y2="14.704"/>
		<line fill="none" stroke="#04080F" stroke-width="0.5" stroke-miterlimit="10" x1="41.644" y1="14.376" x2="42.917" y2="16.49"/>
		<line fill="none" stroke="#04080F" stroke-width="0.5" stroke-miterlimit="10" x1="39.789" y1="15.147" x2="40.316" y2="17.559"/>
		<line fill="none" stroke="#04080F" stroke-width="0.5" stroke-miterlimit="10" x1="36.326" y1="15.246" x2="36.202" y2="17.711"/>
		<line fill="none" stroke="#04080F" stroke-width="0.5" stroke-miterlimit="10" x1="34.418" y1="14.771" x2="33.566" y2="17.086"/>
		<line fill="none" stroke="#04080F" stroke-width="0.5" stroke-miterlimit="10" x1="31.136" y1="11.288" x2="28.722" y2="12.307"/>
		<line fill="none" stroke="#04080F" stroke-width="0.5" stroke-miterlimit="10" x1="32.558" y1="13.727" x2="30.923" y2="15.807"/>
		<line fill="none" stroke="#04080F" stroke-width="0.5" stroke-miterlimit="10" x1="31.394" y1="12.18" x2="29.29" y2="13.408"/>
		<line fill="none" stroke="#04080F" stroke-width="0.5" stroke-miterlimit="10" x1="31.822" y1="13.046" x2="29.961" y2="14.665"/>
		<line fill="none" stroke="#04080F" stroke-width="0.5" stroke-miterlimit="10" x1="33.433" y1="14.338" x2="32.159" y2="16.452"/>
		<line fill="none" stroke="#04080F" stroke-width="0.5" stroke-miterlimit="10" x1="35.287" y1="15.109" x2="34.761" y2="17.521"/>
		<line fill="none" stroke="#04080F" stroke-width="0.5" stroke-miterlimit="10" x1="37.436" y1="11.519" x2="37.436" y2="13.521"/>
		<line fill="none" stroke="#04080F" stroke-width="0.5" stroke-miterlimit="10" x1="38.36" y1="11.733" x2="38.36" y2="13.736"/>
		<line fill="none" stroke="#04080F" stroke-width="0.5" stroke-miterlimit="10" x1="39.286" y1="11.651" x2="39.286" y2="13.655"/>
		<line fill="none" stroke="#04080F" stroke-width="0.5" stroke-miterlimit="10" x1="40.211" y1="11.468" x2="40.211" y2="13.471"/>
		<line fill="none" stroke="#04080F" stroke-width="0.5" stroke-miterlimit="10" x1="41.136" y1="11.386" x2="41.136" y2="13.389"/>
		<line fill="none" stroke="#04080F" stroke-width="0.5" stroke-miterlimit="10" x1="42.061" y1="11.074" x2="42.061" y2="13.077"/>
		<line fill="none" stroke="#04080F" stroke-width="0.5" stroke-miterlimit="10" x1="42.986" y1="10.772" x2="42.986" y2="12.775"/>
		<line fill="none" stroke="#04080F" stroke-width="0.5" stroke-miterlimit="10" x1="31.886" y1="10.828" x2="31.886" y2="12.831"/>
		<line fill="none" stroke="#04080F" stroke-width="0.5" stroke-miterlimit="10" x1="32.811" y1="11.048" x2="32.811" y2="13.052"/>
		<line fill="none" stroke="#04080F" stroke-width="0.5" stroke-miterlimit="10" x1="33.735" y1="11.273" x2="33.735" y2="13.276"/>
		<line fill="none" stroke="#04080F" stroke-width="0.5" stroke-miterlimit="10" x1="34.66" y1="11.498" x2="34.66" y2="13.501"/>
		<line fill="none" stroke="#04080F" stroke-width="0.5" stroke-miterlimit="10" x1="35.586" y1="11.743" x2="35.586" y2="13.472"/>
		<line fill="none" stroke="#04080F" stroke-width="0.5" stroke-miterlimit="10" x1="36.511" y1="11.56" x2="36.511" y2="13.562"/>
	</g>
</g>
</svg>
