<?xml version="1.0" encoding="utf-8"?>
<!-- Generator: Adobe Illustrator 16.0.0, SVG Export Plug-In . SVG Version: 6.00 Build 0)  -->
<!DOCTYPE svg PUBLIC "-//W3C//DTD SVG 1.1//EN" "http://www.w3.org/Graphics/SVG/1.1/DTD/svg11.dtd">
<svg version="1.1" xmlns="http://www.w3.org/2000/svg" xmlns:xlink="http://www.w3.org/1999/xlink" x="0px" y="0px" viewBox="0 0 75 75" enable-background="new 0 0 75 75" xml:space="preserve">
<g id="Invisible">
	<path fill="#99979A" d="M37.046,68.604c-7.851,0-14.959-1.942-15.03-1.961l-0.172-0.048l0.02-0.178l4.066-36.956l-0.36-6.413
		c-0.005-0.185,0.169-0.273,0.322-0.353c2.149-1.246,1.993-12.027,1.754-16.077l-0.013-0.223h1.604v0.21
		c0,4.26,0.794,14.166,8.134,14.166c5.413,0,8.393-5.031,8.393-14.166v-0.21h1.604l-0.014,0.223
		c-0.238,4.05-0.395,14.831,1.724,16.061c0.009,0.003,0.036,0.014,0.065,0.026c0.219,0.084,0.405,0.157,0.4,0.346L49.07,29.5
		l4.086,37.097l-0.176,0.047C52.906,66.663,45.514,68.604,37.046,68.604 M22.302,66.283c1.13,0.295,7.63,1.901,14.744,1.901
		c7.69,0,14.487-1.611,15.652-1.902l-4.047-36.774l0.462-6.36c-0.043-0.02-0.096-0.039-0.123-0.049
		c-0.058-0.023-0.104-0.043-0.122-0.054c-1.187-0.688-1.869-3.679-2.03-8.889c-0.104-3.294,0.039-6.482,0.084-7.338h-0.738
		c-0.03,5.47-1.242,14.376-8.813,14.376c-7.6,0-8.525-9.883-8.554-14.376h-0.738c0.103,1.926,0.676,14.706-1.945,16.227
		l-0.049,0.025c-0.019,0.01-0.056,0.03-0.089,0.049l0.354,6.355L22.302,66.283z"/>
</g>
</svg>
