<?xml version="1.0" encoding="utf-8"?>
<!-- Generator: Adobe Illustrator 16.0.0, SVG Export Plug-In . SVG Version: 6.00 Build 0)  -->
<!DOCTYPE svg PUBLIC "-//W3C//DTD SVG 1.1//EN" "http://www.w3.org/Graphics/SVG/1.1/DTD/svg11.dtd">
<svg version="1.1" xmlns="http://www.w3.org/2000/svg" xmlns:xlink="http://www.w3.org/1999/xlink" x="0px" y="0px" viewBox="0 0 75 75" enable-background="new 0 0 75 75" xml:space="preserve">
<g id="TENCEL_Women_x27_s">
	<g>
		<path fill="#FFFFFF" d="M18.155,26.489c0,0,8.959-0.016,12.335,9.205c1.123,3.068,9.049-9.205,9.049-9.205v-7.915H18.155V26.489z"
			/>
		<path fill="#FFFFFF" d="M41.897,18.574H16.179l7.638,10.815c0,0,3.881,3.479,5.101,6.349c1.218,2.869,3.782-0.458,3.782-0.458
			L41.897,18.574z"/>
		<path fill="none" stroke="#99979A" stroke-width="0.5" stroke-miterlimit="10" d="M11.691,18.134
			c0.112,0.036,11.403,3.646,22.704,3.646"/>
		<path fill="none" stroke="#99979A" stroke-width="0.5" stroke-miterlimit="10" d="M34.396,21.78c11.3,0,22.593-3.609,22.704-3.646
			"/>
		<path fill="none" stroke="#99979A" stroke-width="0.5" stroke-miterlimit="10" d="M10.578,21.033
			c0.114,0.04,12.16,4.174,23.817,4.174s23.701-4.155,23.816-4.195"/>
		<path fill="none" stroke="#99979A" stroke-width="0.4989" stroke-linejoin="round" stroke-miterlimit="10" d="M10.825,25.208
			l-0.463-0.252l0.001-0.105c0.112-6.402,1.005-6.587,1.043-6.634l0.076-0.097l0.13,0.001c0.171,0.002,17.15,0.159,22.783,0.159
			c5.632,0,22.613-0.157,22.784-0.159l0.128-0.001l0.077,0.097c0.039,0.047,0.932,0.231,1.044,6.634l-0.479,0.357 M58.119,25.164
			c-1.912-0.062-4.925,0.717-7.785,1.771l-0.58,0.213c-2.369,0.859-6.362,4.188-7.653,5.632c-4.587,5.13-4.958,12.744-4.921,12.801
			l-0.001-0.001c-0.069,0.064-0.373,0.432-0.373,0.432s-1.094,0.302-2.3,0.302c-1.256,0-2.429-0.324-2.429-0.324l-0.435-0.409v0.001
			c0.037-0.057-1.216-7-4.921-12.801c-1.068-1.675-5.284-4.772-7.653-5.632l-0.581-0.213c-2.86-1.055-5.764-1.771-7.785-1.771"/>
	</g>
	<g>
		<path fill="none" stroke="#99979A" stroke-width="0.5" stroke-miterlimit="10" d="M-150.943,30.639
			c1.996-0.459,9.936,1.038,12.711,2.137c2.418,0.957,5.9,2.129,6.543,4.583c1.811,6.919-1.332,13.46-1.523,13.778"/>
		<path fill="none" stroke="#99979A" stroke-width="0.5" stroke-miterlimit="10" d="M-149.961,22.596c0,0,11.189,3.886,22.539,3.886
			"/>
		<path fill="none" stroke="#99979A" stroke-width="0.5" stroke-miterlimit="10" d="M-104.881,22.596c0,0-11.188,3.886-22.541,3.886
			"/>
		<path fill="none" stroke="#99979A" stroke-width="0.5" stroke-miterlimit="10" d="M-150.49,25.349c0,0,11.451,4.271,23.068,4.271"
			/>
		<path fill="none" stroke="#99979A" stroke-width="0.5" stroke-miterlimit="10" d="M-104.352,25.349c0,0-11.451,4.271-23.068,4.271
			"/>
		<path fill="none" stroke="#99979A" stroke-width="0.5" stroke-miterlimit="10" d="M-103.898,30.639
			c-1.996-0.459-9.936,1.038-12.711,2.137c-2.418,0.957-5.9,2.129-6.545,4.583c-1.809,6.919,1.334,13.46,1.527,13.778"/>
		<path fill="none" stroke="#99979A" stroke-width="0.5" stroke-miterlimit="10" d="M-127.312,52.022
			c-3.029,0-6.016-1.037-6.016-1.037c-1.67-1.92-17.615-20.431-17.615-20.431c0.113-6.792,0.984-7.958,0.984-7.958
			s16.902,0.169,22.539,0.169c5.635,0,22.539-0.169,22.539-0.169s0.869,1.166,0.982,7.958c0,0-16.617,19.29-17.678,20.522
			C-122.385,51.33-124.832,52.022-127.312,52.022"/>
		<path fill="#FFFFFF" d="M-121.883,62.582c-3.029,0-6.018-1.037-6.018-1.037c-1.67-1.92-17.615-20.431-17.615-20.431
			c0.113-6.792,0.984-7.958,0.984-7.958s16.902,0.169,22.539,0.169s22.541-0.169,22.541-0.169s0.869,1.166,0.98,7.958
			c0,0-16.617,19.29-17.676,20.521C-116.957,61.889-119.404,62.582-121.883,62.582"/>
		<path fill="none" stroke="#99979A" stroke-width="0.5" stroke-miterlimit="10" d="M-121.883,62.582
			c-3.029,0-6.018-1.037-6.018-1.037c-1.67-1.92-17.615-20.431-17.615-20.431c0.113-6.792,0.984-7.958,0.984-7.958
			s16.902,0.169,22.539,0.169s22.541-0.169,22.541-0.169s0.869,1.166,0.98,7.958c0,0-16.617,19.29-17.676,20.521
			C-116.957,61.889-119.404,62.582-121.883,62.582"/>
		<path fill="none" stroke="#99979A" stroke-width="0.5" stroke-miterlimit="10" d="M-145.516,41.199
			c1.998-0.459,9.938,1.038,12.711,2.137c2.418,0.957,5.902,2.129,6.545,4.583c1.811,6.919-1.334,13.46-1.525,13.777"/>
		<path fill="none" stroke="#99979A" stroke-width="0.5" stroke-miterlimit="10" d="M-144.533,33.156c0,0,11.189,3.886,22.541,3.886
			"/>
		<path fill="none" stroke="#99979A" stroke-width="0.5" stroke-miterlimit="10" d="M-99.453,33.156c0,0-11.188,3.886-22.539,3.886"
			/>
		<path fill="none" stroke="#99979A" stroke-width="0.5" stroke-miterlimit="10" d="M-145.062,35.909c0,0,11.451,4.271,23.07,4.271"
			/>
		<path fill="none" stroke="#99979A" stroke-width="0.5" stroke-miterlimit="10" d="M-98.924,35.909c0,0-11.449,4.271-23.068,4.271"
			/>
		<path fill="none" stroke="#99979A" stroke-width="0.5" stroke-miterlimit="10" d="M-98.471,41.199
			c-1.996-0.459-9.936,1.038-12.711,2.137c-2.418,0.957-5.9,2.129-6.543,4.583c-1.811,6.919,1.334,13.46,1.525,13.777"/>
	</g>
	<g>
		<path fill="#FFFFFF" d="M-47.375-42.953h-21.49l-0.479-7.095c0,0,6.346-6.686,7.711-10.097h1.604c0,0,2.967,3.615,8.631,9.21
			c0,0,1.908,2.183,3.273,2.251h1.502c1.398-0.17,3.273-2.251,3.273-2.251c5.641-5.572,8.709-9.246,8.717-9.253l1.518,0.043
			c1.363,3.411,7.711,10.097,7.711,10.097l-0.479,7.095H-47.375"/>
		<path fill="none" stroke="#99979A" stroke-width="0.5" stroke-miterlimit="10" d="M-47.375-42.953h-21.49l-0.479-7.095
			c0,0,6.346-6.686,7.711-10.097h1.604c0,0,2.967,3.615,8.631,9.21c0,0,1.908,2.183,3.273,2.251h1.502
			c1.398-0.17,3.273-2.251,3.273-2.251c5.641-5.572,8.709-9.246,8.717-9.253l1.518,0.043c1.363,3.411,7.711,10.097,7.711,10.097
			l-0.479,7.095H-47.375"/>
		<rect x="-68.883" y="-44.485" fill="#FFFFFF" width="43.018" height="3.548"/>
		
			<rect x="-68.883" y="-44.485" fill="none" stroke="#99979A" stroke-width="0.5" stroke-miterlimit="10" width="43.018" height="3.548"/>
		<path fill="none" stroke="#99979A" stroke-width="0.5" stroke-miterlimit="10" d="M-59.904-51.742c0,0,1.471,5.745,1.926,7.257"/>
		<path fill="#FFFFFF" d="M-34.633-60.188c-0.068,0.068,3.547-17.208,3.547-17.208l1.5,0.035l-3.479,17.105L-34.633-60.188z"/>
		<path fill="none" stroke="#99979A" stroke-width="0.5" stroke-miterlimit="10" d="M-34.633-60.188
			c-0.068,0.068,3.547-17.208,3.547-17.208l1.5,0.035l-3.479,17.105L-34.633-60.188z"/>
		<path fill="#FFFFFF" d="M-60.029-60.145c0.068,0.068-3.547-17.208-3.547-17.208l-1.502,0.034l3.48,17.106L-60.029-60.145z"/>
		<path fill="none" stroke="#99979A" stroke-width="0.5" stroke-miterlimit="10" d="M-60.029-60.145
			c0.068,0.068-3.547-17.208-3.547-17.208l-1.502,0.034l3.48,17.106L-60.029-60.145z"/>
		<path fill="#FFFFFF" d="M-57.979-44.485c0,0,1.883-3.041,9.971-3.122c8.086-0.08,9.576,3.122,9.576,3.122H-57.979z"/>
		<path fill="none" stroke="#99979A" stroke-width="0.5" stroke-miterlimit="10" d="M-57.979-44.485c0,0,1.883-3.041,9.971-3.122
			c8.086-0.08,9.576,3.122,9.576,3.122H-57.979z"/>
		<path fill="none" stroke="#99979A" stroke-width="0.5" stroke-miterlimit="10" d="M-36.508-51.742c0,0-1.469,5.745-1.924,7.257"/>
	</g>
	<g>
		<path fill="none" stroke="#99979A" stroke-width="0.5" stroke-miterlimit="10" d="M-211.2-82.569c0,0-0.711,4.697-2.19,8.583
			c-1.082,2.839-3.362,4.617-5.81,4.617c-2.446,0-4.726-1.778-5.808-4.617c-1.481-3.886-2.192-8.583-2.192-8.583"/>
		<path fill="none" stroke="#99979A" stroke-width="0.5" stroke-miterlimit="10" d="M-228.884-36.098c2.817,0.398,6,0.67,9.487,0.68
			c5.898,0.016,10.939-0.722,14.827-1.563c-2.294-6.276-2.627-11.315-2.517-14.729l2.24-14.736c0,0-7.122-1.347-3.108-15.992
			c0,0-1.189-0.321-1.617-0.437c-2.538,0.677-5.799,1.261-9.603,1.248c-3.766-0.014-6.992-0.609-9.502-1.289l-1.77,0.478
			c4.013,14.645-3.109,15.992-3.109,15.992s2.252,11.224,2.24,14.736c-0.012,3.901-2.516,14.729-2.516,14.729
			C-232.343-36.659-230.688-36.353-228.884-36.098z"/>
		<path fill="none" stroke="#99979A" stroke-width="0.5" stroke-miterlimit="10" d="M-210.245-82.675c0,0-0.796,5.048-2.452,9.225
			c-1.213,3.051-3.764,4.962-6.503,4.962c-2.738,0-5.29-1.911-6.502-4.962c-1.656-4.177-2.452-9.225-2.452-9.225"/>
		<path fill="none" stroke="#99979A" stroke-width="0.5" stroke-miterlimit="10" d="M-233.831-38.008
			c3.746,0.768,8.563,1.441,14.187,1.456c5.795,0.016,10.75-0.672,14.57-1.456"/>
	</g>
	<g>
		<path fill="none" stroke="#99979A" stroke-width="0.5" stroke-miterlimit="10" d="M-139.062-66.459c0,0,2.252,11.224,2.24,14.736
			c-0.012,3.9-2.516,14.729-2.516,14.729c1.488,0.322,3.143,0.628,4.947,0.883c2.816,0.398,6,0.67,9.486,0.679
			c5.898,0.017,10.941-0.721,14.828-1.562c-2.295-6.277-2.629-11.315-2.516-14.729l2.238-14.736"/>
		<path fill="none" stroke="#99979A" stroke-width="0.5" stroke-miterlimit="10" d="M-139.086-37.71
			c3.746,0.768,8.564,1.441,14.186,1.456c5.795,0.016,10.752-0.672,14.57-1.456"/>
		<path fill="none" stroke="#99979A" stroke-width="0.5" stroke-miterlimit="10" d="M-134.574-69.316
			c2.57,1.275,5.877,2.393,9.734,2.418c3.977,0.026,7.377-1.117,9.998-2.418"/>
		<path fill="#FFFFFF" d="M-138.904-65.656c0,0-0.305-0.952-0.402-1.258c0.299-0.086,4.643-1.394,4.787-4.432
			c0.137-2.886,0.008-11.551,0.008-11.551l0.725-0.004c0,0,0.176,8.699,0,11.591c-0.117,1.902-1.705,4.107-5.512,5.055"/>
		<path fill="none" stroke="#99979A" stroke-width="0.5" stroke-miterlimit="10" d="M-138.904-65.656c0,0-0.305-0.952-0.402-1.258
			c0.299-0.086,4.643-1.394,4.787-4.432c0.137-2.886,0.008-11.551,0.008-11.551l0.725-0.004c0,0,0.176,8.699,0,11.591
			c-0.117,1.902-1.705,4.107-5.512,5.055"/>
		<path fill="#FFFFFF" d="M-110.48-65.583c0,0,0.307-0.952,0.404-1.258c-0.299-0.086-4.643-1.394-4.789-4.432
			c-0.137-2.886-0.008-11.551-0.008-11.551l-0.725-0.004c0,0-0.178,8.699,0,11.591c0.117,1.902,1.705,4.107,5.512,5.055"/>
		<path fill="none" stroke="#99979A" stroke-width="0.5" stroke-miterlimit="10" d="M-110.48-65.583c0,0,0.307-0.952,0.404-1.258
			c-0.299-0.086-4.643-1.394-4.789-4.432c-0.137-2.886-0.008-11.551-0.008-11.551l-0.725-0.004c0,0-0.178,8.699,0,11.591
			c0.117,1.902,1.705,4.107,5.512,5.055"/>
		<path fill="none" stroke="#99979A" stroke-width="0.5" stroke-miterlimit="10" d="M-134.234-70.097
			c2.484,1.275,5.684,2.393,9.412,2.418c3.848,0.026,7.135-1.117,9.67-2.418"/>
	</g>
	<g>
		<polyline fill="none" stroke="#99979A" stroke-width="0.5" stroke-miterlimit="10" points="-208.707,67.198 -208.707,67.198 
			-208.693,67.198 -208.684,67.198 		"/>
		<path fill="none" stroke="#99979A" stroke-width="0.5" stroke-miterlimit="10" d="M-221.674,36.645c0,0,0.193-9.621-1.75-12.27"/>
		<path fill="none" stroke="#99979A" stroke-width="0.53" stroke-miterlimit="10" d="M-208.707,23.474c0,0-4.936,0.029-6.451-2.609"
			/>
		<polyline fill="none" stroke="#99979A" stroke-width="0.5" stroke-miterlimit="10" points="-208.707,67.198 -208.707,67.198 
			-208.719,67.198 -208.73,67.198 		"/>
		<path fill="none" stroke="#99979A" stroke-width="0.5" stroke-miterlimit="10" d="M-195.74,36.645c0,0-0.193-9.621,1.75-12.27"/>
		<path fill="none" stroke="#99979A" stroke-width="0.5" stroke-miterlimit="10" d="M-221.674,65.458
			c2.127,0.52,12.396,0.626,12.967,0.631"/>
		<path fill="none" stroke="#99979A" stroke-width="0.5" stroke-miterlimit="10" d="M-214.873,20.742
			c-1.863,0.793-8.551,3.634-8.551,3.634c-5.99,3.878-6.561,19.448-7.146,39.727l5.025,0.343c0.16-4.462,0.707-10.45,1.4-15.678
			c0.695-5.25,1.436-8.79,2.449-13.155c0.264,5.162,1.291,8.938,1.266,14.6c-0.02,4.586-1.033,10.992-1.244,15.245v1.108
			c2.127,0.521,12.396,0.626,12.943,0.632h0.012h0.012"/>
		<path fill="none" stroke="#99979A" stroke-width="0.53" stroke-miterlimit="10" d="M-203.318,18.426c0,0-1.916,1.535-5.389,1.535
			s-5.387-1.535-5.387-1.535"/>
		<path fill="none" stroke="#99979A" stroke-width="0.5" stroke-miterlimit="10" d="M-208.707,67.198L-208.707,67.198h0.014h0.01
			c0.547-0.006,10.818-0.111,12.945-0.632v-1.108c-0.211-4.253-1.227-10.659-1.244-15.245c-0.025-5.662,1.002-9.438,1.264-14.6
			c1.014,4.365,1.754,7.905,2.449,13.155c0.691,5.228,1.24,11.216,1.4,15.678l5.025-0.343c-0.586-20.279-1.156-35.849-7.146-39.727
			c0,0-6.688-2.841-8.551-3.634"/>
		<path fill="none" stroke="#99979A" stroke-width="0.5" stroke-miterlimit="10" d="M-208.707,66.088
			c0.57-0.005,10.842-0.111,12.969-0.631"/>
		<path fill="none" stroke="#99979A" stroke-width="0.53" stroke-miterlimit="10" d="M-208.707,23.474c0,0,4.938,0.029,6.451-2.609"
			/>
		<path fill="none" stroke="#99979A" stroke-width="0.53" stroke-miterlimit="10" d="M-202.256,20.865
			c-0.514-0.744-1.062-2.438-1.062-2.438s-1.916-0.447-5.389-0.447s-5.389,0.447-5.389,0.447s-0.549,1.694-1.062,2.438"/>
	</g>
	<g>
		<path fill="#FFFFFF" d="M24.055,37.06c0,0,8.959-0.016,12.335,9.205c1.123,3.068,9.049-9.205,9.049-9.205v-7.915H24.055V37.06z"/>
		<path fill="#FFFFFF" d="M47.797,29.145H22.078l7.638,10.815c0,0,3.881,3.479,5.101,6.349c1.218,2.869,3.782-0.458,3.782-0.458
			L47.797,29.145z"/>
		<path fill="none" stroke="#99979A" stroke-width="0.5" stroke-miterlimit="10" d="M17.591,28.706
			c0.112,0.036,11.403,3.646,22.704,3.646"/>
		<path fill="none" stroke="#99979A" stroke-width="0.5" stroke-miterlimit="10" d="M40.295,32.351
			c11.3,0,22.593-3.609,22.704-3.646"/>
		<path fill="none" stroke="#99979A" stroke-width="0.5" stroke-miterlimit="10" d="M16.478,31.604
			c0.114,0.04,12.16,4.174,23.817,4.174s23.701-4.155,23.816-4.195"/>
		<path fill="none" stroke="#99979A" stroke-width="0.4989" stroke-linejoin="round" stroke-miterlimit="10" d="M16.725,35.779
			l-0.463-0.252l0.001-0.105c0.112-6.402,1.005-6.587,1.043-6.634l0.076-0.097l0.13,0.001c0.171,0.002,17.15,0.159,22.783,0.159
			c5.632,0,22.613-0.157,22.784-0.159l0.128-0.001l0.077,0.097c0.039,0.047,0.932,0.231,1.044,6.634l-0.479,0.357 M64.019,35.735
			c-1.912-0.062-4.925,0.717-7.785,1.771l-0.58,0.213c-2.369,0.859-6.362,4.188-7.653,5.632c-4.587,5.13-4.958,12.744-4.921,12.801
			l-0.001-0.001c-0.069,0.064-0.373,0.432-0.373,0.432s-1.094,0.302-2.3,0.302c-1.256,0-2.429-0.324-2.429-0.324l-0.435-0.409v0.001
			c0.037-0.057-1.216-7-4.921-12.801c-1.068-1.675-5.284-4.772-7.653-5.632l-0.581-0.213c-2.86-1.055-5.764-1.771-7.785-1.771"/>
	</g>
</g>
</svg>
