<?xml version="1.0" encoding="utf-8"?>
<!-- Generator: Adobe Illustrator 16.0.0, SVG Export Plug-In . SVG Version: 6.00 Build 0)  -->
<!DOCTYPE svg PUBLIC "-//W3C//DTD SVG 1.1//EN" "http://www.w3.org/Graphics/SVG/1.1/DTD/svg11.dtd">
<svg version="1.1" xmlns="http://www.w3.org/2000/svg" xmlns:xlink="http://www.w3.org/1999/xlink" x="0px" y="0px"  viewBox="0 0 75 75" enable-background="new 0 0 75 75" xml:space="preserve"><g id="Titles" display="none">
	<text transform="matrix(1 0 0 1 8.5674 4.5723)" display="inline"><tspan x="0" y="0" fill="#9B9694" font-family="'CircularAirPro-Bold'" font-size="4.4">S</tspan><tspan x="2.649" y="0" fill="#9B9694" font-family="'CircularAirPro-Bold'" font-size="4.4">T </tspan><tspan x="6.459" y="0" fill="#9B9694" font-family="'CircularAirPro-Bold'" font-size="4.4">A</tspan><tspan x="9.592" y="0" fill="#9B9694" font-family="'CircularAirPro-Bold'" font-size="4.4">c</tspan><tspan x="12.012" y="0" fill="#9B9694" font-family="'CircularAirPro-Bold'" font-size="4.4">t</tspan><tspan x="13.666" y="0" fill="#9B9694" font-family="'CircularAirPro-Bold'" font-size="4.4">i</tspan><tspan x="14.876" y="0" fill="#9B9694" font-family="'CircularAirPro-Bold'" font-size="4.4">v</tspan><tspan x="17.212" y="0" fill="#9B9694" font-family="'CircularAirPro-Bold'" font-size="4.4">e </tspan><tspan x="20.732" y="0" fill="#9B9694" font-family="'CircularAirPro-Bold'" font-size="4.4">W</tspan><tspan x="25.088" y="0" fill="#9B9694" font-family="'CircularAirPro-Bold'" font-size="4.4">o</tspan><tspan x="27.658" y="0" fill="#9B9694" font-family="'CircularAirPro-Bold'" font-size="4.4">r</tspan><tspan x="29.387" y="0" fill="#9B9694" font-family="'CircularAirPro-Bold'" font-size="4.4">k</tspan><tspan x="31.754" y="0" fill="#9B9694" font-family="'CircularAirPro-Bold'" font-size="4.4">o</tspan><tspan x="34.315" y="0" fill="#9B9694" font-family="'CircularAirPro-Bold'" font-size="4.4">ut </tspan><tspan x="39.621" y="0" fill="#9B9694" font-family="'CircularAirPro-Bold'" font-size="4.4">B</tspan><tspan x="42.296" y="0" fill="#9B9694" font-family="'CircularAirPro-Bold'" font-size="4.4">r</tspan><tspan x="44.043" y="0" fill="#9B9694" font-family="'CircularAirPro-Bold'" font-size="4.4">a </tspan></text>
</g><g id="STA_Womens">
	<g>
		<line fill="none" stroke="#99979A" stroke-width="0.5" stroke-miterlimit="10" x1="16.566" y1="50.868" x2="58.535" y2="50.868"/>
		<path fill="#E2E2E2" stroke="#99979A" stroke-width="0.5" stroke-miterlimit="10" d="M54.855,18.761
			c-0.002,0.017-0.146,0.603-1.278,9.076c-0.118,0.874-0.169,1.694-0.166,2.467c0.03,8.206,6.238,10.753,6.238,10.753l-1.51,15.183
			h-2.763H38.93h-0.098h-2.664h-0.098H24.724h-7.862l-1.511-15.183c0,0,6.21-2.547,6.239-10.753
			c0.003-0.772-0.049-1.593-0.166-2.467c-1.132-8.474-1.275-9.06-1.277-9.076h4.45c0,0,1.243,8.9,2.877,12.628
			c1.96,4.472,6.181,5.455,10.068,5.455c3.106,0,8.023-0.983,9.984-5.455c1.634-3.728,2.876-12.628,2.876-12.628H54.855z"/>
		<g opacity="0.15">
			<g>
				<defs>
					<rect id="SVGID_47_" x="15.988" y="36.303" width="43.123" height="14.882"/>
				</defs>
				<clipPath id="SVGID_2_">
					<use xlink:href="#SVGID_47_"  overflow="visible"/>
				</clipPath>
				<path clip-path="url(#SVGID_2_)" fill="#938B83" d="M37.452,37.022l3.72-0.18c0,0-1.904,3.834-1.521,7.56
					c0.385,3.727,9.291,4.366,9.291,4.366l9.593,0.854l-0.163,1.043c-0.492-0.021-11.415-0.447-17.111-0.699
					c-1.811-0.08-3.556-0.021-3.813-0.074l0.204,0.003c-0.256,0.052-2.001-0.007-3.811,0.073
					c-5.698,0.252-16.619,0.679-17.112,0.699l-0.163-1.042l9.593-0.854c0,0,8.905-0.639,9.29-4.365
					c0.385-3.726-1.519-7.56-1.519-7.56l3.719,0.179"/>
				<path clip-path="url(#SVGID_2_)" fill="none" stroke="#99979A" stroke-miterlimit="10" d="M37.452,37.022l3.72-0.18
					c0,0-1.904,3.834-1.521,7.56c0.385,3.727,9.291,4.366,9.291,4.366l9.593,0.854l-0.163,1.043
					c-0.492-0.021-11.415-0.447-17.111-0.699c-1.811-0.08-3.556-0.021-3.813-0.074l0.204,0.003
					c-0.256,0.052-2.001-0.007-3.811,0.073c-5.698,0.252-16.619,0.679-17.112,0.699l-0.163-1.042l9.593-0.854
					c0,0,8.905-0.639,9.29-4.365c0.385-3.726-1.519-7.56-1.519-7.56l3.719,0.179"/>
			</g>
		</g>
		<g opacity="0.15">
			<g>
				<defs>
					<rect id="SVGID_49_" x="21.307" y="27.796" width="6.116" height="11.036"/>
				</defs>
				<clipPath id="SVGID_4_">
					<use xlink:href="#SVGID_49_"  overflow="visible"/>
				</clipPath>
				<path clip-path="url(#SVGID_4_)" fill="#938B83" d="M23.473,28.702l1.077-0.282c0,0,1.091,7.64,2.353,8.874
					c0.398,0.391-5.07,1.111-5.095,1.032C21.783,38.246,23.447,34.73,23.473,28.702"/>
				<path clip-path="url(#SVGID_4_)" fill="none" stroke="#99979A" stroke-miterlimit="10" d="M23.473,28.702l1.077-0.282
					c0,0,1.091,7.64,2.353,8.874c0.398,0.391-5.07,1.111-5.095,1.032C21.783,38.246,23.447,34.73,23.473,28.702z"/>
			</g>
		</g>
		<g opacity="0.15">
			<g>
				<defs>
					<rect id="SVGID_51_" x="47.465" y="27.796" width="6.116" height="11.036"/>
				</defs>
				<clipPath id="SVGID_6_">
					<use xlink:href="#SVGID_51_"  overflow="visible"/>
				</clipPath>
				<path clip-path="url(#SVGID_6_)" fill="#938B83" d="M51.416,28.702l-1.077-0.282c0,0-1.09,7.64-2.353,8.874
					c-0.399,0.391,5.069,1.111,5.096,1.032C53.106,38.246,51.442,34.73,51.416,28.702"/>
				<path clip-path="url(#SVGID_6_)" fill="none" stroke="#99979A" stroke-miterlimit="10" d="M51.416,28.702l-1.077-0.282
					c0,0-1.09,7.64-2.353,8.874c-0.399,0.391,5.069,1.111,5.096,1.032C53.106,38.246,51.442,34.73,51.416,28.702z"/>
			</g>
		</g>
	</g>
</g></svg>
