<?xml version="1.0" encoding="utf-8"?>
<!-- Generator: Adobe Illustrator 16.0.0, SVG Export Plug-In . SVG Version: 6.00 Build 0)  -->
<!DOCTYPE svg PUBLIC "-//W3C//DTD SVG 1.1//EN" "http://www.w3.org/Graphics/SVG/1.1/DTD/svg11.dtd">
<svg version="1.1" xmlns="http://www.w3.org/2000/svg" xmlns:xlink="http://www.w3.org/1999/xlink" x="0px" y="0px" width="75px"
	 height="75px" viewBox="0 0 75 75" enable-background="new 0 0 75 75" xml:space="preserve">
<g id="Accessories">
</g>
<g id="TENCEL_Men_x27_s">
</g>
<g id="TENCEL_Women_x27_s">
</g>
<g id="STE">
</g>
<g id="Invisible">
</g>
<g id="Socks">
</g>
<g id="Cashmere">
</g>
<g id="Titles" display="none">
	<text transform="matrix(1 0 0 1 11.8184 -0.7607)" display="inline"><tspan x="0" y="0" fill="#9B9694" font-family="'CircularAirPro-Bold'" font-size="4.4">S</tspan><tspan x="2.649" y="0" fill="#9B9694" font-family="'CircularAirPro-Bold'" font-size="4.4">T </tspan><tspan x="6.459" y="0" fill="#9B9694" font-family="'CircularAirPro-Bold'" font-size="4.4">A</tspan><tspan x="9.592" y="0" fill="#9B9694" font-family="'CircularAirPro-Bold'" font-size="4.4">c</tspan><tspan x="12.012" y="0" fill="#9B9694" font-family="'CircularAirPro-Bold'" font-size="4.4">t</tspan><tspan x="13.666" y="0" fill="#9B9694" font-family="'CircularAirPro-Bold'" font-size="4.4">i</tspan><tspan x="14.876" y="0" fill="#9B9694" font-family="'CircularAirPro-Bold'" font-size="4.4">v</tspan><tspan x="17.212" y="0" fill="#9B9694" font-family="'CircularAirPro-Bold'" font-size="4.4">e </tspan><tspan x="20.732" y="0" fill="#9B9694" font-family="'CircularAirPro-Bold'" font-size="4.4">Y</tspan><tspan x="23.183" y="0" fill="#9B9694" font-family="'CircularAirPro-Bold'" font-size="4.4">o</tspan><tspan x="25.752" y="0" fill="#9B9694" font-family="'CircularAirPro-Bold'" font-size="4.4">g</tspan><tspan x="28.357" y="0" fill="#9B9694" font-family="'CircularAirPro-Bold'" font-size="4.4">a </tspan><tspan x="31.815" y="0" fill="#9B9694" font-family="'CircularAirPro-Bold'" font-size="4.4">S</tspan><tspan x="34.451" y="0" fill="#9B9694" font-family="'CircularAirPro-Bold'" font-size="4.4">ho</tspan><tspan x="39.59" y="0" fill="#9B9694" font-family="'CircularAirPro-Bold'" font-size="4.4">r</tspan><tspan x="41.408" y="0" fill="#9B9694" font-family="'CircularAirPro-Bold'" font-size="4.4">t</tspan><tspan x="43.11" y="0" fill="#9B9694" font-family="'CircularAirPro-Bold'" font-size="4.4">s </tspan></text>
</g>
<g id="OC_Womens">
</g>
<g id="OC_Mens">
</g>
<g id="STA_Womens">
	<g>
		<path fill="none" stroke="#99979A" stroke-width="0.5" stroke-miterlimit="10" d="M25.639,21.985c0,0,3.628,1.769,11.859,1.769"/>
		<path fill="none" stroke="#99979A" stroke-width="0.5" stroke-miterlimit="10" d="M49.361,21.985c0,0-3.63,1.769-11.861,1.769"/>
		<path fill="none" stroke="#99979A" stroke-width="0.5" stroke-miterlimit="10" d="M25.639,21.985L25.61,19.28
			c0,0,3.629,1.417,11.86,1.417"/>
		<path fill="none" stroke="#99979A" stroke-width="0.5" stroke-miterlimit="10" d="M37.471,20.698
			c8.231,0,11.859-1.417,11.859-1.417l0.03,2.705"/>
		<line fill="none" stroke="#99979A" stroke-width="0.5" stroke-miterlimit="10" x1="25.422" y1="19.196" x2="49.543" y2="19.196"/>
		<path fill="none" stroke="#99979A" stroke-width="0.5" stroke-miterlimit="10" d="M49.361,21.985c0,0,5.197,15.481,1.694,30.85
			c-0.209,0.917-0.401,1.802-0.581,2.659c-1.749-0.008-11.316-0.008-11.316-0.008s-0.098,0-0.267,0
			c-0.232-2.026-0.44-4.188-0.423-5.782c0.031-2.604,0-3.845,0-3.845h-1.938c0,0-0.03,1.241,0,3.845
			c0.018,1.594-0.19,3.756-0.425,5.784c-1.824-0.002-11.286-0.002-11.286-0.002s-0.107,0-0.296,0.009
			c-0.179-0.857-0.371-1.743-0.58-2.66c-3.504-15.369,1.694-30.85,1.694-30.85"/>
		<g opacity="0.15">
			<g>
				<defs>
					<rect id="SVGID_53_" x="22.685" y="21.778" width="5.829" height="34.026"/>
				</defs>
				<clipPath id="SVGID_2_">
					<use xlink:href="#SVGID_53_"  overflow="visible"/>
				</clipPath>
				<path clip-path="url(#SVGID_2_)" fill="none" stroke="#99979A" stroke-width="3" stroke-miterlimit="10" d="M25.979,55.495
					c-0.18-0.85-0.372-1.729-0.581-2.638c-3.503-15.243,1.694-30.598,1.694-30.598"/>
			</g>
		</g>
		<g opacity="0.15">
			<g>
				<defs>
					<rect id="SVGID_55_" x="46.485" y="21.745" width="5.83" height="34.06"/>
				</defs>
				<clipPath id="SVGID_4_">
					<use xlink:href="#SVGID_55_"  overflow="visible"/>
				</clipPath>
				<path clip-path="url(#SVGID_4_)" fill="none" stroke="#99979A" stroke-width="3" stroke-miterlimit="10" d="M49.02,55.495
					c0.18-0.85,0.373-1.73,0.582-2.641c3.503-15.258-1.695-30.629-1.695-30.629"/>
			</g>
		</g>
	</g>
</g>
<g id="STA_Mens">
</g>
</svg>
