<?xml version="1.0" encoding="utf-8"?>
<!-- Generator: Adobe Illustrator 16.0.0, SVG Export Plug-In . SVG Version: 6.00 Build 0)  -->
<!DOCTYPE svg PUBLIC "-//W3C//DTD SVG 1.1//EN" "http://www.w3.org/Graphics/SVG/1.1/DTD/svg11.dtd">
<svg version="1.1" xmlns="http://www.w3.org/2000/svg" xmlns:xlink="http://www.w3.org/1999/xlink" x="0px" y="0px"  viewBox="0 0 75 75" enable-background="new 0 0 75 75" xml:space="preserve">
<g id="Accessories">
</g>
<g id="TENCEL_Men_x27_s">
</g>
<g id="TENCEL_Women_x27_s">
	<g>
		<polyline fill="none" stroke="#99979A" stroke-width="0.5" stroke-miterlimit="10" points="37.5,62.109 37.5,62.109 
			37.514,62.109 37.523,62.109 		"/>
		<path fill="none" stroke="#99979A" stroke-width="0.5" stroke-miterlimit="10" d="M24.533,31.556c0,0,0.193-9.621-1.75-12.27"/>
		<path fill="none" stroke="#99979A" stroke-width="0.53" stroke-miterlimit="10" d="M37.5,18.385c0,0-4.936,0.029-6.451-2.609"/>
		<polyline fill="none" stroke="#99979A" stroke-width="0.5" stroke-miterlimit="10" points="37.5,62.109 37.5,62.109 
			37.488,62.109 37.477,62.109 		"/>
		<path fill="none" stroke="#99979A" stroke-width="0.5" stroke-miterlimit="10" d="M50.467,31.556c0,0-0.193-9.621,1.75-12.27"/>
		<path fill="none" stroke="#99979A" stroke-width="0.5" stroke-miterlimit="10" d="M24.533,60.369
			C26.66,60.889,36.93,60.995,37.5,61"/>
		<path fill="none" stroke="#99979A" stroke-width="0.5" stroke-miterlimit="10" d="M31.334,15.653
			c-1.863,0.793-8.551,3.634-8.551,3.634c-5.99,3.878-6.561,19.448-7.146,39.727l5.025,0.343c0.16-4.462,0.707-10.45,1.4-15.678
			c0.695-5.25,1.436-8.79,2.449-13.155c0.264,5.162,1.291,8.938,1.266,14.6c-0.02,4.586-1.033,10.992-1.244,15.245v1.108
			c2.127,0.521,12.396,0.626,12.943,0.632h0.012H37.5"/>
		<path fill="none" stroke="#99979A" stroke-width="0.53" stroke-miterlimit="10" d="M42.889,13.337c0,0-1.916,1.535-5.389,1.535
			s-5.387-1.535-5.387-1.535"/>
		<path fill="none" stroke="#99979A" stroke-width="0.5" stroke-miterlimit="10" d="M37.5,62.109L37.5,62.109h0.014h0.01
			c0.547-0.006,10.818-0.111,12.945-0.632v-1.108c-0.211-4.253-1.227-10.659-1.244-15.245c-0.025-5.662,1.002-9.438,1.264-14.6
			c1.014,4.365,1.754,7.905,2.449,13.155c0.691,5.228,1.24,11.216,1.4,15.678l5.025-0.343c-0.586-20.279-1.156-35.849-7.146-39.727
			c0,0-6.688-2.841-8.551-3.634"/>
		<path fill="none" stroke="#99979A" stroke-width="0.5" stroke-miterlimit="10" d="M37.5,61c0.57-0.005,10.842-0.111,12.969-0.631"
			/>
		<path fill="none" stroke="#99979A" stroke-width="0.53" stroke-miterlimit="10" d="M37.5,18.385c0,0,4.938,0.029,6.451-2.609"/>
		<path fill="none" stroke="#99979A" stroke-width="0.53" stroke-miterlimit="10" d="M43.951,15.776
			c-0.514-0.744-1.062-2.438-1.062-2.438s-1.916-0.447-5.389-0.447s-5.389,0.447-5.389,0.447s-0.549,1.694-1.062,2.438"/>
	</g>
</g>
<g id="STE">
</g>
<g id="Invisible">
</g>
<g id="Socks">
</g>
<g id="Cashmere">
</g>
<g id="Titles" display="none">
	<text transform="matrix(1 0 0 1 20.2734 3.9224)" display="inline"><tspan x="0" y="0" fill="#9B9694" font-family="'CircularAirPro-Bold'" font-size="4.4">T</tspan><tspan x="2.31" y="0" fill="#9B9694" font-family="'CircularAirPro-Bold'" font-size="4.4">en</tspan><tspan x="7.312" y="0" fill="#9B9694" font-family="'CircularAirPro-Bold'" font-size="4.4">c</tspan><tspan x="9.715" y="0" fill="#9B9694" font-family="'CircularAirPro-Bold'" font-size="4.4">el </tspan><tspan x="14.445" y="0" fill="#9B9694" font-family="'CircularAirPro-Bold'" font-size="4.4">T</tspan><tspan x="16.808" y="0" fill="#9B9694" font-family="'CircularAirPro-Bold'" font-size="4.4">u</tspan><tspan x="19.386" y="0" fill="#9B9694" font-family="'CircularAirPro-Bold'" font-size="4.4">r</tspan><tspan x="21.203" y="0" fill="#9B9694" font-family="'CircularAirPro-Bold'" font-size="4.4">t</tspan><tspan x="22.752" y="0" fill="#9B9694" font-family="'CircularAirPro-Bold'" font-size="4.4">le </tspan><tspan x="27.481" y="0" fill="#9B9694" font-family="'CircularAirPro-Bold'" font-size="4.4">N</tspan><tspan x="30.848" y="0" fill="#9B9694" font-family="'CircularAirPro-Bold'" font-size="4.4">eck</tspan></text>
</g>
<g id="OC_Womens">
</g>
<g id="OC_Mens">
</g>
<g id="STA_Womens">
</g>
<g id="STA_Mens">
</g>
</svg>
