<?xml version="1.0" encoding="utf-8"?>
<!-- Generator: Adobe Illustrator 16.0.0, SVG Export Plug-In . SVG Version: 6.00 Build 0)  -->
<!DOCTYPE svg PUBLIC "-//W3C//DTD SVG 1.1//EN" "http://www.w3.org/Graphics/SVG/1.1/DTD/svg11.dtd">
<svg version="1.1" xmlns="http://www.w3.org/2000/svg" xmlns:xlink="http://www.w3.org/1999/xlink" x="0px" y="0px" viewBox="0 0 75 75" enable-background="new 0 0 75 75" xml:space="preserve">
	<g id="Titles" display="none">
	<text transform="matrix(1 0 0 1 19.5449 0.7417)" display="inline">
		<tspan x="0" y="0" fill="#9B9694" font-family="'CircularAirPro-Bold'" font-size="4.4">OC </tspan>
		<tspan x="7.999" y="0" fill="#9B9694" font-family="'CircularAirPro-Bold'" font-size="4.4">T</tspan>
		<tspan x="10.41" y="0" fill="#9B9694" font-family="'CircularAirPro-Bold'" font-size="4.4">r</tspan>
		<tspan x="12.139" y="0" fill="#9B9694" font-family="'CircularAirPro-Bold'" font-size="4.4">iangle</tspan>
	</text>
</g>
<g id="OC_Womens">
	<g>
		<path fill="#E2E2E2" stroke="#99979A" stroke-width="0.5" stroke-miterlimit="10" d="M52.151,28.917
			c1.577-8.978,1.577-9.076,1.577-9.076h-1.183c0,0-1.45,8.901-3.354,12.629c-2.286,4.471-9.638,10.05-10.555,16.87h-2.273
			c-0.917-6.82-8.269-12.399-10.555-16.87c-1.904-3.728-3.354-12.629-3.354-12.629h-1.185c0,0,0.1,0.099,1.578,9.076
			c0.146,0.874,0.208,1.695,0.205,2.467c-0.037,8.206-7.703,10.754-7.703,10.754l0.79,13.022h8.583H36.07h0.099h2.663h0.098h17.167
			h2.763l0.79-13.022C59.649,42.137,50.366,39.069,52.151,28.917z"/>
		<line fill="none" stroke="#99979A" stroke-width="0.5" stroke-miterlimit="10" x1="15.846" y1="49.338" x2="59.253" y2="49.338"/>
		<line fill="none" stroke="#99979A" stroke-width="0.5" stroke-miterlimit="10" x1="23.047" y1="31.285" x2="25.218" y2="31.285"/>
		<line fill="none" stroke="#99979A" stroke-width="0.5" stroke-miterlimit="10" x1="49.685" y1="31.285" x2="51.855" y2="31.285"/>
	</g>
</g>
</svg>
