<?xml version="1.0" encoding="utf-8"?>
<!-- Generator: Adobe Illustrator 16.0.0, SVG Export Plug-In . SVG Version: 6.00 Build 0)  -->
<!DOCTYPE svg PUBLIC "-//W3C//DTD SVG 1.1//EN" "http://www.w3.org/Graphics/SVG/1.1/DTD/svg11.dtd">
<svg version="1.1" xmlns="http://www.w3.org/2000/svg" xmlns:xlink="http://www.w3.org/1999/xlink" x="0px" y="0px" viewBox="0 0 75 75" enable-background="new 0 0 75 75" xml:space="preserve">
<g id="TENCEL_Women_x27_s">
	<g>
		<path fill="#99979A" d="M37.852,59.669c-8.387,0-14.463-1.166-14.553-1.185l-0.206-0.04l0.399-20.912l-0.518,1.501l-8.635-4.235
			l0.092-0.219c3.917-9.279,8.315-14.586,8.359-14.639l0.069-0.057l8.118-4.553l0.11,0.043c5.918,2.309,12.643,0.259,12.71,0.237
			l0.093-0.029l0.088,0.042c0.249,0.116,6.12,2.885,8.304,4.521c2.21,1.658,8.026,13.905,8.272,14.425l0.104,0.219l-8.73,4.493
			l-0.475-1.361l0.569,20.527l-0.213,0.038C46.886,59.372,42.076,59.669,37.852,59.669 M23.601,58.031
			c1.751,0.314,14.359,2.396,27.911-0.001l-0.646-23.316l1.347,3.859L60,34.565c-0.806-1.685-6.06-12.553-8.019-14.021
			c-2.001-1.5-7.384-4.074-8.129-4.429c-0.849,0.244-7.168,1.923-12.835-0.232l-7.872,4.413c-0.38,0.466-4.465,5.576-8.16,14.26
			l7.7,3.779l1.366-3.966L23.601,58.031z"/>
		<path fill="#99979A" d="M37.496,21.627c-4.434,0-6.64-5.688-6.73-5.932l0.466-0.177c0.021,0.057,2.178,5.608,6.265,5.608
			s6.123-5.312,6.144-5.364l0.468,0.175C44.021,16.17,41.932,21.627,37.496,21.627"/>
		<path fill="#99979A" d="M37.436,22.689c-5.277,0-7.584-6.411-7.606-6.476l0.472-0.165c0.022,0.061,2.213,6.141,7.135,6.141
			c4.919,0,6.978-5.977,6.996-6.037l0.476,0.158C44.885,16.375,42.717,22.689,37.436,22.689"/>
		<path fill="#99979A" d="M37.429,18.044c-4.365,0-5.928-0.967-5.992-1.009l0.269-0.423c0.015,0.011,1.535,0.932,5.724,0.932
			c2.88,0,5.77-0.69,5.799-0.697l0.116,0.486C43.315,17.34,40.37,18.044,37.429,18.044"/>
		<path fill="#99979A" d="M37.048,19.049c-3.312,0-4.79-0.751-4.854-0.785l0.23-0.442c0.017,0.007,1.562,0.772,5,0.725
			c3.467-0.059,5.103-0.61,5.118-0.617l0.164,0.474c-0.067,0.022-1.716,0.583-5.274,0.644
			C37.302,19.048,37.174,19.049,37.048,19.049"/>
		<path fill="#99979A" d="M50.91,36.448c-0.192-0.648-0.477-1.675-0.477-1.675c-0.722-4.244,1.365-14.065,1.455-14.481l0.487,0.105
			c-0.021,0.101-2.155,10.142-1.454,14.267c0.002,0,0.277,1.005,0.468,1.641L50.91,36.448z"/>
		<path fill="#99979A" d="M24.012,36.043L23.533,35.9c0.191-0.645,0.474-1.665,0.474-1.665c0.696-4.101-1.459-13.9-1.479-13.998
			l0.487-0.109c0.09,0.407,2.197,9.995,1.479,14.216C24.49,34.368,24.205,35.396,24.012,36.043"/>
		<path fill="#99979A" d="M38.115,57.902c-8.361,0-14.689-1.388-14.784-1.408l0.108-0.488c0.142,0.031,14.276,3.127,28.219,0
			l0.109,0.488C47.059,57.55,42.329,57.902,38.115,57.902"/>
	</g>
</g>
</svg>
