<?xml version="1.0" encoding="utf-8"?>
<!-- Generator: Adobe Illustrator 16.0.0, SVG Export Plug-In . SVG Version: 6.00 Build 0)  -->
<!DOCTYPE svg PUBLIC "-//W3C//DTD SVG 1.1//EN" "http://www.w3.org/Graphics/SVG/1.1/DTD/svg11.dtd">
<svg version="1.1" xmlns="http://www.w3.org/2000/svg" xmlns:xlink="http://www.w3.org/1999/xlink" x="0px" y="0px" viewBox="0 0 75 75" enable-background="new 0 0 75 75" xml:space="preserve">
<g id="TENCEL_Women_x27_s">
	<g>
		<path fill="#99979A" d="M37.4,65.045c-6.614,0-11.349-1.834-11.419-1.862l-0.118-0.046l0.011-0.125l2.652-31.905l-0.001-10.011
			l0.148-0.019c0.725-0.095,1.308-0.455,1.731-1.07c1.807-2.623,0.305-9.017,0.288-9.081l-0.036-0.151l1.872-0.621l0.03,0.199
			c0.014,0.081,1.273,8,5.089,8c3.923,0,4.719-8.117,4.726-8.199l0.019-0.197l1.922,0.467l-0.038,0.164
			c-0.015,0.066-1.506,6.583,0.327,9.227c0.425,0.611,1.004,0.969,1.723,1.062l0.147,0.02v10.024l2.663,32.019l-0.12,0.045
			C44.894,64.535,40.888,65.045,37.4,65.045 M26.223,62.911c1.207,0.44,11.445,3.928,22.553-0.201l-2.642-31.778v-9.744
			c-0.75-0.134-1.358-0.532-1.81-1.184c-1.773-2.557-0.647-8.265-0.416-9.332l-1.216-0.295c-0.147,1.303-1.122,8.313-5.044,8.313
			c-3.799,0-5.167-6.801-5.392-8.089L31.061,11c0.228,1.023,1.378,6.654-0.375,9.2c-0.452,0.655-1.064,1.056-1.82,1.191v9.73
			L26.223,62.911z"/>
		<path fill="#99979A" d="M37.668,64.15c-5.433,0-9.644-1.313-11.268-1.905c-0.069-0.026-0.113-0.042-0.134-0.048l0.007-0.019
			l-0.013,0.026l-0.112-0.241c0.066-0.149,0.186-0.103,0.369-0.038c2.589,0.946,11.829,3.741,22.054-0.031l0.118,0.318
			C44.769,63.659,40.989,64.15,37.668,64.15"/>
		<path fill="#99979A" d="M28.837,21.837v-0.34c0.818,0,1.476-0.307,1.954-0.912c2.04-2.584,0.369-9.728,0.353-9.799l0.33-0.078
			c0.071,0.299,1.725,7.376-0.416,10.088C30.512,21.486,29.766,21.837,28.837,21.837"/>
		<path fill="#99979A" d="M46.28,21.661c-0.894,0-1.625-0.341-2.172-1.013c-2.195-2.692-0.758-9.831-0.695-10.135l0.333,0.069
			c-0.017,0.072-1.468,7.283,0.626,9.851c0.479,0.59,1.121,0.888,1.908,0.888V21.661z"/>
		<path fill="#99979A" d="M37.528,19.274c-1.904,0-3.501-1.517-4.613-4.386c-0.827-2.134-1.105-4.297-1.108-4.319l0.337-0.042
			c0.011,0.084,1.111,8.407,5.385,8.407V19.274z"/>
		<path fill="#99979A" d="M37.499,16.05c-3.693,0-5.209-5.398-5.271-5.628l0.328-0.089c0.015,0.054,1.51,5.377,4.943,5.377
			c3.562,0,4.865-5.525,4.879-5.581l0.332,0.076C42.655,10.444,41.33,16.05,37.499,16.05"/>
		<path fill="#99979A" d="M37.499,19.274v-0.34c1.033,0,1.95-0.417,2.73-1.24c2.157-2.279,2.622-6.945,2.603-7.31l0.066-0.004
			l-0.077-0.008l0.195-0.179c0.166,0.018,0.158,0.185,0.152,0.284C43.165,10.564,42.482,19.274,37.499,19.274"/>
	</g>
</g>
</svg>
