<?xml version="1.0" encoding="utf-8"?>
<!-- Generator: Adobe Illustrator 16.0.0, SVG Export Plug-In . SVG Version: 6.00 Build 0)  -->
<!DOCTYPE svg PUBLIC "-//W3C//DTD SVG 1.1//EN" "http://www.w3.org/Graphics/SVG/1.1/DTD/svg11.dtd">
<svg version="1.1" xmlns="http://www.w3.org/2000/svg" xmlns:xlink="http://www.w3.org/1999/xlink" x="0px" y="0px"  viewBox="0 0 75 75" enable-background="new 0 0 75 75" xml:space="preserve">
<g id="Accessories">
</g>
<g id="TENCEL_Men_x27_s">
</g>
<g id="TENCEL_Women_x27_s">
</g>
<g id="STE">
</g>
<g id="Invisible">
</g>
<g id="Socks">
</g>
<g id="Cashmere">
</g>
<g id="Titles" display="none">
</g>
<g id="OC_Womens">
</g>
<g id="OC_Mens">
</g>
<g id="STA_Womens">
	<g>
		<path fill="none" stroke="#99979A" stroke-width="0.5" stroke-miterlimit="10" d="M37.469,14.9c-3.581,0-6.126-1.122-6.126-1.122
			l-5.822,1.935c1.05,5.396,0.853,7.018,0.316,9.502c-0.699,3.249-2.298,5.245-2.298,5.245l-1.394,30.254
			c0,0,5.881,0.022,15.247,0.022h0.259c9.366,0,15.202-0.022,15.202-0.022l-1.422-30.254c0,0-1.526-1.996-2.228-5.245
			c-0.536-2.484-0.731-4.106,0.319-9.502l-5.823-1.935c0,0-2.544,1.122-6.127,1.122H37.469z"/>
		<path fill="none" stroke="#99979A" stroke-width="0.5" stroke-miterlimit="10" d="M31.978,14.065c0,0,0.051,4.126,5.521,4.126"/>
		<path fill="none" stroke="#99979A" stroke-width="0.5" stroke-miterlimit="10" d="M43.022,14.065c0,0-0.052,4.126-5.522,4.126"/>
		<path fill="none" stroke="#99979A" stroke-width="0.5" stroke-miterlimit="10" d="M31.123,13.911c0,0,0.059,5.137,6.377,5.137"/>
		<path fill="none" stroke="#99979A" stroke-width="0.5" stroke-miterlimit="10" d="M43.877,13.911c0,0-0.06,5.137-6.379,5.137"/>
		<g opacity="0.15">
			<g>
				<defs>
					<rect id="SVGID_31_" x="49.846" y="26.815" width="3.531" height="34.407"/>
				</defs>
				<clipPath id="SVGID_2_">
					<use xlink:href="#SVGID_31_"  overflow="visible"/>
				</clipPath>
				<polygon clip-path="url(#SVGID_2_)" fill="#938B83" points="50.346,28.613 50.346,60.72 52.854,60.713 51.458,30.459 				"/>
				<polygon clip-path="url(#SVGID_2_)" fill="none" stroke="#99979A" stroke-miterlimit="10" points="50.346,28.613 50.346,60.72 
					52.854,60.713 51.458,30.459 				"/>
			</g>
		</g>
		<g opacity="0.15">
			<g>
				<defs>
					<rect id="SVGID_33_" x="21.623" y="26.815" width="3.53" height="34.407"/>
				</defs>
				<clipPath id="SVGID_4_">
					<use xlink:href="#SVGID_33_"  overflow="visible"/>
				</clipPath>
				<polygon clip-path="url(#SVGID_4_)" fill="#938B83" points="24.654,28.613 24.654,60.72 22.145,60.713 23.541,30.459 				"/>
				<polygon clip-path="url(#SVGID_4_)" fill="none" stroke="#99979A" stroke-miterlimit="10" points="24.654,28.613 24.654,60.72 
					22.145,60.713 23.541,30.459 				"/>
			</g>
		</g>
	</g>
</g>
<g id="STA_Mens">
</g>
</svg>
