<?xml version="1.0" encoding="utf-8"?>
<!-- Generator: Adobe Illustrator 16.0.0, SVG Export Plug-In . SVG Version: 6.00 Build 0)  -->
<!DOCTYPE svg PUBLIC "-//W3C//DTD SVG 1.1//EN" "http://www.w3.org/Graphics/SVG/1.1/DTD/svg11.dtd">
<svg version="1.1" xmlns="http://www.w3.org/2000/svg" xmlns:xlink="http://www.w3.org/1999/xlink" x="0px" y="0px"  viewBox="0 0 75 75" enable-background="new 0 0 75 75" xml:space="preserve"><g id="TENCEL_Women_x27_s">
	<g>
		<path fill="none" stroke="#99979A" stroke-width="0.5" stroke-miterlimit="10" d="M23.145,30.207c0,0,2.252,11.224,2.24,14.736
			c-0.012,3.9-2.516,14.729-2.516,14.729c1.488,0.322,3.143,0.628,4.947,0.883c2.816,0.398,6,0.67,9.486,0.679
			c5.898,0.017,10.941-0.721,14.828-1.562c-2.295-6.277-2.629-11.315-2.516-14.729l2.238-14.736"/>
		<path fill="none" stroke="#99979A" stroke-width="0.5" stroke-miterlimit="10" d="M23.121,58.957
			c3.746,0.768,8.564,1.441,14.186,1.456c5.795,0.016,10.752-0.672,14.57-1.456"/>
		<path fill="none" stroke="#99979A" stroke-width="0.5" stroke-miterlimit="10" d="M27.633,27.351
			c2.57,1.275,5.877,2.393,9.734,2.418c3.977,0.026,7.377-1.117,9.998-2.418"/>
		<path fill="#FFFFFF" d="M23.303,31.011c0,0-0.305-0.952-0.402-1.258c0.299-0.086,4.643-1.394,4.787-4.432
			c0.137-2.886,0.008-11.551,0.008-11.551l0.725-0.004c0,0,0.176,8.699,0,11.591c-0.117,1.902-1.705,4.107-5.512,5.055"/>
		<path fill="none" stroke="#99979A" stroke-width="0.5" stroke-miterlimit="10" d="M23.303,31.011c0,0-0.305-0.952-0.402-1.258
			c0.299-0.086,4.643-1.394,4.787-4.432c0.137-2.886,0.008-11.551,0.008-11.551l0.725-0.004c0,0,0.176,8.699,0,11.591
			c-0.117,1.902-1.705,4.107-5.512,5.055"/>
		<path fill="#FFFFFF" d="M51.727,31.083c0,0,0.307-0.952,0.404-1.258c-0.299-0.086-4.643-1.394-4.789-4.432
			c-0.137-2.886-0.008-11.551-0.008-11.551l-0.725-0.004c0,0-0.178,8.699,0,11.591c0.117,1.902,1.705,4.107,5.512,5.055"/>
		<path fill="none" stroke="#99979A" stroke-width="0.5" stroke-miterlimit="10" d="M51.727,31.083c0,0,0.307-0.952,0.404-1.258
			c-0.299-0.086-4.643-1.394-4.789-4.432c-0.137-2.886-0.008-11.551-0.008-11.551l-0.725-0.004c0,0-0.178,8.699,0,11.591
			c0.117,1.902,1.705,4.107,5.512,5.055"/>
		<path fill="none" stroke="#99979A" stroke-width="0.5" stroke-miterlimit="10" d="M27.973,26.57
			c2.484,1.275,5.684,2.393,9.412,2.418c3.848,0.026,7.135-1.117,9.67-2.418"/>
	</g>
</g><g id="Titles" display="none">
	<text transform="matrix(1 0 0 1 14.8965 2.8979)" display="inline"><tspan x="0" y="0" fill="#9B9694" font-family="'CircularAirPro-Bold'" font-size="4.4">T</tspan><tspan x="2.31" y="0" fill="#9B9694" font-family="'CircularAirPro-Bold'" font-size="4.4">en</tspan><tspan x="7.312" y="0" fill="#9B9694" font-family="'CircularAirPro-Bold'" font-size="4.4">c</tspan><tspan x="9.715" y="0" fill="#9B9694" font-family="'CircularAirPro-Bold'" font-size="4.4">el Singlet </tspan><tspan x="29.88" y="0" fill="#9B9694" font-family="'CircularAirPro-Bold'" font-size="4.4">T</tspan><tspan x="32.189" y="0" fill="#9B9694" font-family="'CircularAirPro-Bold'" font-size="4.4">op</tspan></text>
</g></svg>
