<?xml version="1.0" encoding="utf-8"?>
<!-- Generator: Adobe Illustrator 16.0.0, SVG Export Plug-In . SVG Version: 6.00 Build 0)  -->
<!DOCTYPE svg PUBLIC "-//W3C//DTD SVG 1.1//EN" "http://www.w3.org/Graphics/SVG/1.1/DTD/svg11.dtd">
<svg version="1.1" xmlns="http://www.w3.org/2000/svg" xmlns:xlink="http://www.w3.org/1999/xlink" x="0px" y="0px" width="75px"
	 height="75px" viewBox="0 0 75 75" enable-background="new 0 0 75 75" xml:space="preserve">
<g id="Accessories">
</g>
<g id="TENCEL_Men_x27_s">
</g>
<g id="TENCEL_Women_x27_s">
	<g>
		<path fill="none" stroke="#99979A" stroke-width="0.5" stroke-miterlimit="10" d="M11.264,25.55
			c1.996-0.459,9.936,1.038,12.711,2.137c2.418,0.957,5.9,2.129,6.543,4.583c1.811,6.919-1.332,13.46-1.523,13.778"/>
		<path fill="none" stroke="#99979A" stroke-width="0.5" stroke-miterlimit="10" d="M12.246,17.507c0,0,11.189,3.886,22.539,3.886"
			/>
		<path fill="none" stroke="#99979A" stroke-width="0.5" stroke-miterlimit="10" d="M57.326,17.507c0,0-11.188,3.886-22.541,3.886"
			/>
		<path fill="none" stroke="#99979A" stroke-width="0.5" stroke-miterlimit="10" d="M11.717,20.26c0,0,11.451,4.271,23.068,4.271"/>
		<path fill="none" stroke="#99979A" stroke-width="0.5" stroke-miterlimit="10" d="M57.855,20.26c0,0-11.451,4.271-23.068,4.271"/>
		<path fill="none" stroke="#99979A" stroke-width="0.5" stroke-miterlimit="10" d="M58.309,25.55
			c-1.996-0.459-9.936,1.038-12.711,2.137c-2.418,0.957-5.9,2.129-6.545,4.583c-1.809,6.919,1.334,13.46,1.527,13.778"/>
		<path fill="none" stroke="#99979A" stroke-width="0.5" stroke-miterlimit="10" d="M34.895,46.933
			c-3.029,0-6.016-1.037-6.016-1.037c-1.67-1.92-17.615-20.431-17.615-20.431c0.113-6.792,0.984-7.958,0.984-7.958
			s16.902,0.169,22.539,0.169c5.635,0,22.539-0.169,22.539-0.169s0.869,1.166,0.982,7.958c0,0-16.617,19.29-17.678,20.522
			C39.822,46.241,37.375,46.933,34.895,46.933"/>
		<path fill="#FFFFFF" d="M40.324,57.493c-3.029,0-6.018-1.037-6.018-1.037c-1.67-1.92-17.615-20.431-17.615-20.431
			c0.113-6.792,0.984-7.958,0.984-7.958s16.902,0.169,22.539,0.169s22.541-0.169,22.541-0.169s0.869,1.166,0.98,7.958
			c0,0-16.617,19.29-17.676,20.521C45.25,56.8,42.803,57.493,40.324,57.493"/>
		<path fill="none" stroke="#99979A" stroke-width="0.5" stroke-miterlimit="10" d="M40.324,57.493
			c-3.029,0-6.018-1.037-6.018-1.037c-1.67-1.92-17.615-20.431-17.615-20.431c0.113-6.792,0.984-7.958,0.984-7.958
			s16.902,0.169,22.539,0.169s22.541-0.169,22.541-0.169s0.869,1.166,0.98,7.958c0,0-16.617,19.29-17.676,20.521
			C45.25,56.8,42.803,57.493,40.324,57.493"/>
		<path fill="none" stroke="#99979A" stroke-width="0.5" stroke-miterlimit="10" d="M16.691,36.11
			c1.998-0.459,9.938,1.038,12.711,2.137c2.418,0.957,5.902,2.129,6.545,4.583c1.811,6.919-1.334,13.46-1.525,13.777"/>
		<path fill="none" stroke="#99979A" stroke-width="0.5" stroke-miterlimit="10" d="M17.674,28.067c0,0,11.189,3.886,22.541,3.886"
			/>
		<path fill="none" stroke="#99979A" stroke-width="0.5" stroke-miterlimit="10" d="M62.754,28.067c0,0-11.188,3.886-22.539,3.886"
			/>
		<path fill="none" stroke="#99979A" stroke-width="0.5" stroke-miterlimit="10" d="M17.145,30.82c0,0,11.451,4.271,23.07,4.271"/>
		<path fill="none" stroke="#99979A" stroke-width="0.5" stroke-miterlimit="10" d="M63.283,30.82c0,0-11.449,4.271-23.068,4.271"/>
		<path fill="none" stroke="#99979A" stroke-width="0.5" stroke-miterlimit="10" d="M63.736,36.11
			c-1.996-0.459-9.936,1.038-12.711,2.137c-2.418,0.957-5.9,2.129-6.543,4.583c-1.811,6.919,1.334,13.46,1.525,13.777"/>
	</g>
</g>
<g id="STE">
</g>
<g id="Invisible">
</g>
<g id="Socks">
</g>
<g id="Cashmere">
</g>
<g id="Titles" display="none">
	<text transform="matrix(1 0 0 1 15.2188 3.9224)" display="inline"><tspan x="0" y="0" fill="#9B9694" font-family="'CircularAirPro-Bold'" font-size="4.4">T</tspan><tspan x="2.31" y="0" fill="#9B9694" font-family="'CircularAirPro-Bold'" font-size="4.4">en</tspan><tspan x="7.312" y="0" fill="#9B9694" font-family="'CircularAirPro-Bold'" font-size="4.4">c</tspan><tspan x="9.715" y="0" fill="#9B9694" font-family="'CircularAirPro-Bold'" font-size="4.4">el Bikini </tspan><tspan x="26.875" y="0" fill="#9B9694" font-family="'CircularAirPro-Bold'" font-size="4.4">B</tspan><tspan x="29.55" y="0" fill="#9B9694" font-family="'CircularAirPro-Bold'" font-size="4.4">r</tspan><tspan x="31.279" y="0" fill="#9B9694" font-family="'CircularAirPro-Bold'" font-size="4.4">ie</tspan><tspan x="34.922" y="0" fill="#9B9694" font-family="'CircularAirPro-Bold'" font-size="4.4">f</tspan><tspan x="36.515" y="0" fill="#9B9694" font-family="'CircularAirPro-Bold'" font-size="4.4">s</tspan></text>
</g>
<g id="OC_Womens">
</g>
<g id="OC_Mens">
</g>
<g id="STA_Womens">
</g>
<g id="STA_Mens">
</g>
</svg>
