<?xml version="1.0" encoding="utf-8"?>
<!-- Generator: Adobe Illustrator 16.0.0, SVG Export Plug-In . SVG Version: 6.00 Build 0)  -->
<!DOCTYPE svg PUBLIC "-//W3C//DTD SVG 1.1//EN" "http://www.w3.org/Graphics/SVG/1.1/DTD/svg11.dtd">
<svg version="1.1" xmlns="http://www.w3.org/2000/svg" xmlns:xlink="http://www.w3.org/1999/xlink" x="0px" y="0px"  viewBox="0 0 75 75" enable-background="new 0 0 75 75" xml:space="preserve">
<g id="Re-swim">
	<g>
		<path fill="none" stroke="#04080F" stroke-width="0.5" stroke-miterlimit="10" d="M37.431,45.892c0,0-7.277-21.938-10.368-25.774
			h-1.6c0,0-9.911,16.944-14.92,17.903c0,0,1.066,8.526,0.321,13.747h26.641"/>
		<line fill="none" stroke="#04080F" stroke-width="0.5" stroke-miterlimit="10" x1="24.185" y1="36.315" x2="26.743" y2="46.227"/>
		<line fill="none" stroke="#04080F" stroke-width="0.5" stroke-miterlimit="10" x1="11.076" y1="46.014" x2="37.975" y2="46.014"/>
		<line fill="none" stroke="#04080F" stroke-width="0.5" stroke-miterlimit="10" x1="11.183" y1="47.293" x2="38.066" y2="47.293"/>
		<polygon fill="none" stroke="#04080F" stroke-width="0.5" stroke-miterlimit="10" points="24.61,9.779 26.423,9.779 
			27.062,20.117 25.464,20.117 		"/>
		<line fill="none" stroke="#04080F" stroke-width="0.5" stroke-miterlimit="10" x1="22.594" y1="24.722" x2="24.611" y2="9.779"/>
		<line fill="none" stroke="#04080F" stroke-width="0.5" stroke-miterlimit="10" x1="24.381" y1="21.895" x2="25.063" y2="15.461"/>
		<path fill="none" stroke="#04080F" stroke-width="0.5" stroke-miterlimit="10" d="M37.431,45.892c0,0,7.417-21.938,10.509-25.774
			h1.598c0,0,9.912,16.944,14.92,17.903c0,0-1.066,8.526-0.32,13.747H37.494"/>
		<line fill="none" stroke="#04080F" stroke-width="0.5" stroke-miterlimit="10" x1="50.815" y1="36.315" x2="48.258" y2="46.227"/>
		<line fill="none" stroke="#04080F" stroke-width="0.5" stroke-miterlimit="10" x1="63.924" y1="46.014" x2="37.708" y2="46.014"/>
		<line fill="none" stroke="#04080F" stroke-width="0.5" stroke-miterlimit="10" x1="63.817" y1="47.293" x2="37.814" y2="47.293"/>
		<polygon fill="none" stroke="#04080F" stroke-width="0.5" stroke-miterlimit="10" points="50.39,9.779 48.578,9.779 
			47.939,20.117 49.537,20.117 		"/>
		<line fill="none" stroke="#04080F" stroke-width="0.5" stroke-miterlimit="10" x1="52.406" y1="24.722" x2="50.39" y2="9.779"/>
		<line fill="none" stroke="#04080F" stroke-width="0.5" stroke-miterlimit="10" x1="50.619" y1="21.895" x2="49.937" y2="15.461"/>
		<path fill="none" stroke="#04080F" stroke-width="0.5" stroke-miterlimit="10" d="M35.579,51.767c0,0-1.771,1.21-1.858,3.099
			c-0.041,0.887,0.417,1.903,1.285,2.086c1.925,0.404,2.11-1.496,2.239-5.062"/>
		<path fill="none" stroke="#04080F" stroke-width="0.5" stroke-miterlimit="10" d="M35.976,53.118
			c-0.543-0.206-1.937,1.662-0.779,2.188C36.352,55.832,36.519,53.324,35.976,53.118z"/>
		<polyline fill="none" stroke="#04080F" stroke-width="0.5" stroke-miterlimit="10" points="35.005,56.951 33.84,65.221 
			35.763,65.101 36.944,55.378 		"/>
		<path fill="none" stroke="#04080F" stroke-width="0.5" stroke-miterlimit="10" d="M39.315,51.813c0,0,2.291,1.41,2.381,3.298
			c0.042,0.886-0.417,1.903-1.285,2.086c-1.924,0.405-2.11-1.712-2.239-5.276"/>
		<path fill="none" stroke="#04080F" stroke-width="0.5" stroke-miterlimit="10" d="M39.439,53.364
			c0.341-0.123,1.495,1.754,0.781,2.188C39.672,55.886,38.894,53.561,39.439,53.364z"/>
		<polyline fill="none" stroke="#04080F" stroke-width="0.5" stroke-miterlimit="10" points="40.065,57.277 40.422,63.241 
			38.709,63.063 38.502,55.619 		"/>
	</g>
</g>
</svg>
