<?xml version="1.0" encoding="utf-8"?>
<!-- Generator: Adobe Illustrator 16.0.0, SVG Export Plug-In . SVG Version: 6.00 Build 0)  -->
<!DOCTYPE svg PUBLIC "-//W3C//DTD SVG 1.1//EN" "http://www.w3.org/Graphics/SVG/1.1/DTD/svg11.dtd">
<svg version="1.1" xmlns="http://www.w3.org/2000/svg" xmlns:xlink="http://www.w3.org/1999/xlink" x="0px" y="0px"  viewBox="0 0 75 75" enable-background="new 0 0 75 75" xml:space="preserve">
<g id="Accessories">
</g>
<g id="TENCEL_Men_x27_s">
</g>
<g id="TENCEL_Women_x27_s">
	<g>
		<path fill="#FFFFFF" d="M24.055,37.06c0,0,8.959-0.016,12.335,9.205c1.123,3.068,9.049-9.205,9.049-9.205v-7.915H24.055V37.06z"/>
		<path fill="#99979A" d="M34.705,22.247c-11.389,0-22.757-3.635-22.87-3.672L12,18.13c0.113,0.036,11.404,3.646,22.705,3.646
			V22.247z"/>
		<path fill="#99979A" d="M34.705,22.247v-0.471c11.3,0,22.593-3.609,22.704-3.646l0.166,0.444
			C57.462,18.612,46.094,22.247,34.705,22.247"/>
		<path fill="#99979A" d="M34.705,25.204c-11.657,0-23.295-3.997-23.409-4.037l0.176-0.441c0.115,0.041,11.67,4.007,23.233,4.007
			V25.204z"/>
		<path fill="#99979A" d="M34.705,25.204v-0.472c11.563,0,23.118-3.966,23.234-4.007l0.176,0.441
			C57.999,21.207,46.362,25.204,34.705,25.204"/>
		<path fill="#99979A" d="M37.056,45.818c-0.038-0.057,0.198-7.857,4.863-13.162c1.453-1.651,5.485-5.054,7.959-5.951l0.58-0.21
			c2.724-1.007,5.89-1.863,8.083-1.795l-0.112,0.459c-1.912-0.061-4.925,0.718-7.785,1.772l-0.582,0.213
			c-2.367,0.859-6.36,4.188-7.651,5.632c-4.587,5.13-4.958,12.744-4.921,12.799L37.056,45.818z"/>
		<path fill="#99979A" d="M32.385,45.818c0.037-0.057-1.058-7.212-4.863-13.162c-1.232-1.926-5.484-5.054-7.96-5.951l-0.578-0.21
			c-2.726-1.007-5.896-1.795-8.084-1.795l0.111,0.459c2.022,0,4.926,0.718,7.786,1.772l0.581,0.213
			c2.368,0.859,6.584,3.957,7.653,5.632c3.705,5.801,4.957,12.744,4.921,12.799L32.385,45.818z"/>
		<path fill="#99979A" d="M10.673,24.846c0.112-6.402,1.005-6.587,1.043-6.634l0.076-0.097l0.13,0.001
			c0.17,0.002,17.15,0.159,22.783,0.159c5.632,0,22.613-0.157,22.784-0.159l0.128-0.001l0.077,0.097
			c0.038,0.047,0.93,0.231,1.044,6.634l-0.309,0.312l-0.199-0.396c-0.097-5.14-0.703-5.785-0.889-6.173
			c-1.722,0.015-17.289,0.156-22.637,0.156c-5.349,0-20.92-0.142-22.638-0.156c-0.182,0.38-0.791,1.021-0.888,6.173
			c-0.008,0.108-0.168,0.396-0.168,0.396l-0.34-0.207L10.673,24.846z M31.952,45.575c0,0,0.193-0.127,0.231-0.119
			c1.031,0.227,1.342,0.383,2.632,0.383c1.217,0,1.429-0.129,2.444-0.347c0.034-0.007,0.181-0.099,0.181-0.099l0.048,0.182
			c-0.071,0.065-0.373,0.433-0.373,0.433s-1.095,0.302-2.3,0.302c-1.257,0-2.429-0.324-2.429-0.324L31.952,45.575z"/>
		<path fill="#FFFFFF" d="M47.797,29.145H22.078l7.638,10.815c0,0,3.881,3.479,5.101,6.349c1.218,2.869,3.782-0.458,3.782-0.458
			L47.797,29.145z"/>
		<path fill="#99979A" d="M40.295,32.822c-11.389,0-22.757-3.635-22.87-3.672l0.166-0.444c0.112,0.036,11.403,3.646,22.704,3.646
			V32.822z"/>
		<path fill="#99979A" d="M40.295,32.822v-0.471c11.3,0,22.593-3.609,22.704-3.646l0.166,0.444
			C63.052,29.187,51.684,32.822,40.295,32.822"/>
		<path fill="#99979A" d="M40.295,35.779c-11.657,0-23.295-3.997-23.409-4.037l0.176-0.441c0.115,0.041,11.67,4.007,23.233,4.007
			V35.779z"/>
		<path fill="#99979A" d="M40.295,35.779v-0.472c11.563,0,23.119-3.966,23.234-4.007l0.176,0.441
			C63.59,31.782,51.952,35.779,40.295,35.779"/>
		<path fill="#99979A" d="M42.646,56.393c-0.037-0.057,0.198-7.857,4.863-13.162c1.454-1.651,5.485-5.054,7.96-5.951l0.579-0.21
			c2.724-1.007,5.89-1.863,8.084-1.794l-0.113,0.459c-1.912-0.062-4.925,0.717-7.785,1.771l-0.58,0.213
			c-2.369,0.859-6.362,4.188-7.653,5.632c-4.587,5.13-4.958,12.744-4.921,12.801L42.646,56.393z"/>
		<path fill="#99979A" d="M37.975,56.393c0.037-0.057-1.058-7.212-4.862-13.162c-1.233-1.926-5.485-5.054-7.961-5.951l-0.578-0.21
			c-2.725-1.007-5.896-1.794-8.084-1.794l0.112,0.459c2.021,0,4.925,0.717,7.785,1.771l0.581,0.213
			c2.369,0.859,6.585,3.957,7.653,5.632c3.705,5.801,4.958,12.744,4.921,12.801L37.975,56.393z"/>
		<path fill="#99979A" d="M16.263,35.421c0.112-6.402,1.005-6.587,1.043-6.634l0.076-0.097l0.13,0.001
			c0.171,0.002,17.15,0.159,22.783,0.159c5.632,0,22.613-0.157,22.784-0.159l0.128-0.001l0.077,0.097
			c0.039,0.047,0.932,0.231,1.044,6.634l-0.309,0.312l-0.199-0.395c-0.097-5.141-0.703-5.786-0.889-6.174
			c-1.722,0.015-17.289,0.156-22.637,0.156c-5.349,0-20.92-0.142-22.638-0.156c-0.182,0.38-0.79,1.021-0.887,6.174
			c-0.009,0.107-0.168,0.395-0.168,0.395l-0.341-0.207L16.263,35.421z M37.542,56.151c0,0,0.193-0.128,0.231-0.12
			c1.031,0.227,1.342,0.383,2.632,0.383c1.217,0,1.429-0.129,2.444-0.347c0.034-0.007,0.181-0.099,0.181-0.099l0.048,0.183
			c-0.069,0.064-0.373,0.432-0.373,0.432s-1.094,0.302-2.3,0.302c-1.256,0-2.429-0.324-2.429-0.324L37.542,56.151z"/>
	</g>
</g>
<g id="STE">
</g>
<g id="Invisible">
</g>
<g id="Socks">
</g>
<g id="Cashmere">
</g>
<g id="Titles" display="none">
	<text transform="matrix(1 0 0 1 23.1396 9.0112)" display="inline"><tspan x="0" y="0" fill="#9B9694" font-family="'CircularAirPro-Bold'" font-size="4.4">T</tspan><tspan x="2.31" y="0" fill="#9B9694" font-family="'CircularAirPro-Bold'" font-size="4.4">en</tspan><tspan x="7.312" y="0" fill="#9B9694" font-family="'CircularAirPro-Bold'" font-size="4.4">c</tspan><tspan x="9.715" y="0" fill="#9B9694" font-family="'CircularAirPro-Bold'" font-size="4.4">el </tspan><tspan x="14.445" y="0" fill="#9B9694" font-family="'CircularAirPro-Bold'" font-size="4.4">T</tspan><tspan x="16.799" y="0" fill="#9B9694" font-family="'CircularAirPro-Bold'" font-size="4.4">an</tspan><tspan x="21.74" y="0" fill="#9B9694" font-family="'CircularAirPro-Bold'" font-size="4.4">g</tspan><tspan x="24.345" y="0" fill="#9B9694" font-family="'CircularAirPro-Bold'" font-size="4.4">a</tspan></text>
</g>
<g id="OC_Womens">
</g>
<g id="OC_Mens">
</g>
<g id="STA_Womens">
</g>
<g id="STA_Mens">
</g>
</svg>
