<?xml version="1.0" encoding="utf-8"?>
<!-- Generator: Adobe Illustrator 16.0.0, SVG Export Plug-In . SVG Version: 6.00 Build 0)  -->
<!DOCTYPE svg PUBLIC "-//W3C//DTD SVG 1.1//EN" "http://www.w3.org/Graphics/SVG/1.1/DTD/svg11.dtd">
<svg version="1.1" xmlns="http://www.w3.org/2000/svg" xmlns:xlink="http://www.w3.org/1999/xlink" x="0px" y="0px" viewBox="0 0 75 75" enable-background="new 0 0 75 75" xml:space="preserve">
<g id="TENCEL_Women_x27_s">
	<g>
		<path fill="#99979A" d="M46.621,27.63l-0.078-0.361c0.011-0.003,0.366-0.096,2.37-0.937c1.779-0.75,2.803-2.229,3.015-2.561
			c-0.064-0.18-0.321-0.808-1.282-2.591c-1.156-2.139-3.365-5.466-3.613-5.838c-0.024-0.037-0.058-0.063-0.1-0.079l-4.197-1.543
			c-5.729,1.704-9.888,0.109-10.481-0.142l-4.187,1.539c-0.041,0.015-0.074,0.042-0.1,0.077c-0.407,0.616-2.505,3.788-3.612,5.839
			c-0.958,1.776-1.217,2.406-1.283,2.592c0.213,0.333,1.235,1.812,3.016,2.56c1.968,0.828,2.271,0.901,2.282,0.903l-0.065,0.365
			c-0.042-0.006-0.354-0.083-2.36-0.926c-2.12-0.891-3.19-2.707-3.234-2.783l-0.035-0.061l0.014-0.068
			c0.009-0.044,0.121-0.495,1.341-2.757c1.115-2.067,3.221-5.25,3.631-5.868c0.067-0.102,0.164-0.179,0.28-0.221l4.327-1.59
			l0.07,0.032c0.041,0.021,4.3,1.957,10.35,0.137l0.06-0.018l4.314,1.586c0.115,0.043,0.211,0.119,0.279,0.221
			c0.248,0.373,2.468,3.713,3.63,5.868c1.222,2.262,1.332,2.713,1.342,2.757l0.013,0.069l-0.035,0.061
			c-0.044,0.076-1.113,1.891-3.234,2.783C47.012,27.532,46.655,27.623,46.621,27.63"/>
		<path fill="#99979A" d="M36.473,61.821c-6.946,0-10.619-1.135-10.674-1.153l-0.141-0.044l0.013-0.146l2.321-28.691
			c0.004-0.158,0.11-4.123,0.184-4.943c0.071-0.809,0.325-9.104,0.328-9.188c0.009-0.791-0.095-2.171-0.41-2.483
			c-0.039-0.039-0.062-0.035-0.087-0.044l-0.006-0.37c0.124,0.009,0.251,0.05,0.353,0.151c0.53,0.525,0.522,2.528,0.521,2.755
			c-0.01,0.346-0.257,8.392-0.33,9.211c-0.071,0.809-0.182,4.889-0.182,4.931l-2.31,28.55c1.14,0.318,9.167,2.315,23.175-0.032
			l0.061,0.365C44.23,61.538,39.942,61.821,36.473,61.821"/>
		<path fill="#99979A" d="M37.63,19.814h-0.051c-5.81,0-6.229-6.067-6.231-6.129l0.37-0.021c0.001,0.014,0.095,1.476,0.868,2.911
			c1.026,1.905,2.707,2.87,4.993,2.87h0.11c2.239-0.018,3.882-0.966,4.888-2.821c0.757-1.397,0.85-2.815,0.85-2.83l0.371,0.021
			c-0.004,0.06-0.414,5.955-6.104,6H37.63z"/>
		<path fill="#99979A" d="M37.743,18.827c-5.057,0-5.662-5.375-5.668-5.429l0.369-0.038c0.021,0.208,0.579,5.097,5.298,5.097
			l0.114-0.001h0.001c4.435,0,4.689-4.737,4.698-4.938l0.37,0.016c-0.002,0.053-0.286,5.293-5.068,5.293h-0.001l-0.062-0.185
			l0.001,0.185H37.743z"/>
		<path fill="#99979A" d="M49.073,60.708l-2.321-28.877c-0.002-0.051-0.111-4.132-0.184-4.94c-0.072-0.82-0.318-8.866-0.329-9.208
			c-0.012-0.209-0.101-2.101,0.401-2.621c0.102-0.105,0.227-0.147,0.36-0.157l-0.008,0.371c-0.025,0-0.049,0.004-0.087,0.044
			c-0.293,0.304-0.338,1.601-0.296,2.347c0.001,0.088,0.256,8.382,0.327,9.191c0.073,0.82,0.18,4.785,0.184,4.953l2.321,28.867
			L49.073,60.708z"/>
		<path fill="#99979A" d="M36.473,60.523c-6.946,0-10.619-1.135-10.674-1.153l0.113-0.352c0.081,0.026,8.229,2.537,23.315,0.009
			l0.061,0.365C44.23,60.24,39.942,60.523,36.473,60.523"/>
	</g>
</g>
</svg>
