<?xml version="1.0" encoding="utf-8"?>
<!-- Generator: Adobe Illustrator 16.0.0, SVG Export Plug-In . SVG Version: 6.00 Build 0)  -->
<!DOCTYPE svg PUBLIC "-//W3C//DTD SVG 1.1//EN" "http://www.w3.org/Graphics/SVG/1.1/DTD/svg11.dtd">
<svg version="1.1" xmlns="http://www.w3.org/2000/svg" xmlns:xlink="http://www.w3.org/1999/xlink" x="0px" y="0px" viewBox="0 0 75 75" enable-background="new 0 0 75 75" xml:space="preserve">
<g>
	<g>
		<path d="M37.5,56H15.8l-0.4-14l0.1-0.1c0.1,0,7.2-4.9,8.4-12.5c1.1-7.2,0.9-10.1,0.9-10.1l0-0.3l3.6,0l0,0.3
			c0,0.2,0.2,16.5,12.5,31.1l-0.4,0.3C29,37,28,21.7,28,19.5l-2.6,0c0,0.9,0,3.8-0.9,9.9c-1.1,7.3-7.6,12.1-8.5,12.7l0.3,13.2h21.2
			V56z"/>
	</g>
	<g>
		<path d="M59.2,56H37.5v-0.5h21.2L59,42.2c-1-0.7-7.5-5.4-8.5-12.8c-0.9-6.3-0.9-9.1-0.9-9.9l-2.6,0
			c-0.1,2.1-1.3,16.7-9.3,26.5l-0.4-0.3c8.5-10.4,9.2-26.3,9.2-26.5l0-0.2l3.6,0l0,0.3c0,0-0.2,2.6,0.9,10.1
			c1.1,7.6,8.3,12.4,8.4,12.5l0.1,0.1L59.2,56z"/>
	</g>
	<g>
		<rect x="16" y="50.3" width="43.1" height="0.5"/>
	</g>
</g>
</svg>
