<?xml version="1.0" encoding="utf-8"?>
<!-- Generator: Adobe Illustrator 16.0.0, SVG Export Plug-In . SVG Version: 6.00 Build 0)  -->
<!DOCTYPE svg PUBLIC "-//W3C//DTD SVG 1.1//EN" "http://www.w3.org/Graphics/SVG/1.1/DTD/svg11.dtd">
<svg version="1.1" xmlns="http://www.w3.org/2000/svg" xmlns:xlink="http://www.w3.org/1999/xlink" x="0px" y="0px"  viewBox="0 0 75 75" enable-background="new 0 0 75 75" xml:space="preserve">
<g id="TENCEL_Woven">
	<g>
		<path fill="none" stroke="#04080F" stroke-width="0.5" stroke-miterlimit="10" d="M37.681,27.774
			c-4.656,0-12.135-1.172-12.135-1.172s-0.697,9.758-0.822,14.765c-0.064,2.511,0,6.67,0.047,10.376
			c4.014,0.283,8.003,0.318,11.96,0.018c0.345-4.035,0.602-7.227,0.602-7.227"/>
		<line fill="none" stroke="#04080F" stroke-width="0.5" stroke-miterlimit="10" x1="46.813" y1="26.977" x2="50.08" y2="36.678"/>
		<line fill="none" stroke="#04080F" stroke-width="0.5" stroke-miterlimit="10" x1="28.113" y1="26.969" x2="24.926" y2="36.54"/>
		<path fill="none" stroke="#04080F" stroke-width="0.5" stroke-miterlimit="10" d="M49.452,26.602V23.75
			c0,0-7.778,1.616-11.93,1.616"/>
		<path fill="none" stroke="#04080F" stroke-width="0.25" stroke-miterlimit="10" d="M25.729,33.934
			c0.224-3.778,0.462-7.124,0.462-7.124"/>
		<path fill="none" stroke="#04080F" stroke-width="0.25" stroke-miterlimit="10" d="M25.413,51.762
			c-0.048-3.655-0.108-7.719-0.045-10.187c0.038-1.546,0.135-3.427,0.246-5.453"/>
		<path fill="none" stroke="#04080F" stroke-width="0.25" stroke-miterlimit="10" d="M49.49,34.972
			c-0.24-4.238-0.531-8.319-0.531-8.319"/>
		<path fill="none" stroke="#04080F" stroke-width="0.25" stroke-miterlimit="10" d="M49.638,51.752
			c0.049-3.703,0.111-7.837,0.049-10.345c-0.039-1.573-0.137-2.339-0.249-4.4"/>
		<line fill="none" stroke="#04080F" stroke-width="0.5" stroke-miterlimit="10" x1="28.776" y1="27.034" x2="24.817" y2="38.773"/>
		<line fill="none" stroke="#04080F" stroke-width="0.5" stroke-miterlimit="10" x1="46.234" y1="27.159" x2="50.19" y2="38.985"/>
		<path fill="none" stroke="#04080F" stroke-width="0.505" stroke-miterlimit="10" d="M25.36,23.832
			c8.055-1.025,16.156-1.083,24.308-0.158"/>
		<path fill="none" stroke="#04080F" stroke-width="0.5" stroke-miterlimit="10" d="M36.622,26.409
			c-0.644,0-1.946,1.251-2.108,2.793c-0.178,1.698-1.452,2.314-1.452,2.314"/>
		<path fill="none" stroke="#04080F" stroke-width="0.5" stroke-miterlimit="10" d="M38.373,26.409c0.645,0,2.322,0.931,2.12,3.132
			c-0.209,2.283,1.545,3.133,1.545,3.133"/>
		<path fill="none" stroke="#04080F" stroke-width="0.5" stroke-miterlimit="10" d="M37.316,27.774
			c4.658,0,12.137-1.172,12.137-1.172s0.696,9.758,0.822,14.765c0.065,2.558,0.002,6.712-0.046,10.394
			c-4.014,0.283-8.235,0.301-12.192,0c-0.396-4.065-0.704-7.227-0.704-7.227l0.189-19.168c-6.242,0-11.945-1.458-11.945-1.458
			l-0.031,2.694"/>
		<path fill="none" stroke="#04080F" stroke-width="0.5" stroke-miterlimit="10" d="M24.836,49.785
			c4.014,0.282,8.003,0.316,11.959,0.017"/>
		<path fill="none" stroke="#04080F" stroke-width="0.5" stroke-miterlimit="10" d="M50.118,49.802c-4.014,0.283-8.236,0.3-12.192,0
			"/>
	</g>
</g>
</svg>
