<?xml version="1.0" encoding="utf-8"?>
<!-- Generator: Adobe Illustrator 16.0.0, SVG Export Plug-In . SVG Version: 6.00 Build 0)  -->
<!DOCTYPE svg PUBLIC "-//W3C//DTD SVG 1.1//EN" "http://www.w3.org/Graphics/SVG/1.1/DTD/svg11.dtd">
<svg version="1.1" xmlns="http://www.w3.org/2000/svg" xmlns:xlink="http://www.w3.org/1999/xlink" x="0px" y="0px" viewBox="0 0 75 75" enable-background="new 0 0 75 75" xml:space="preserve">
<g>
	<g>
		<path fill="#c7c7c5" d="M31.2,65.4c-1-4.3-1.2-10.8-1-12.6c0.2-1.8,0.9-7.1-1.9-19.3c-2.5-10.8,0.5-21.6,1.2-24c0.1-0.3,0,0,0,0
			L28.1,9c0,0-4.1,12.3-1.3,24.5s2.1,17.6,1.9,19.3c-0.2,1.8,0,8.3,1,12.6"/>
	</g>
	<g>
		<path fill="#c7c7c5" d="M43.8,65.4c1-4.3,1.2-10.8,1-12.6c-0.2-1.8-0.9-7.1,1.9-19.3c2.5-10.8-0.5-21.6-1.2-24c-0.1-0.3,0,0,0,0
			L46.9,9c0,0,4.1,12.3,1.3,24.5c-2.8,12.2-2.1,17.6-1.9,19.3c0.2,1.8,0,8.3-1,12.6"/>
	</g>
	<g>
		<g>
			<g>
				<path d="M37.5,10.7c-6.5,0-9.4-1.4-9.5-1.4l0.2-0.4c0,0,2.9,1.4,9.3,1.4V10.7z"/>
			</g>
		</g>
		<g>
			<g>
				<path d="M37.5,10.7v-0.5c6.4,0,9.3-1.4,9.3-1.4L47,9.2C46.9,9.3,44,10.7,37.5,10.7z"/>
			</g>
		</g>
	</g>
	<g>
		<path d="M37.5,13.7c-7,0-10.1-1.5-10.2-1.6l0.2-0.4c0,0,3.2,1.5,10,1.5c6.8,0,9.9-1.5,10-1.5l0.2,0.4
			C47.6,12.2,44.5,13.7,37.5,13.7z"/>
	</g>
	<g>
		<path d="M35,64.9c-1.8-0.3-3.6-0.3-5.4,0l-0.1-0.5c1.8-0.3,3.6-0.3,5.5,0L35,64.9z"/>
	</g>
	<g>
		<path d="M35.3,65.7l-0.3,0c-1.8-0.3-3.6-0.3-5.4,0l-0.1,0h-0.2l0-0.2c-1-4.4-1.2-11-1-12.6l0-0.2
			c0.2-2,0.8-7.3-1.9-19C23.7,21.4,27.8,9,27.9,8.9l0.1-0.2h19.2l0.1,0.2c0,0.1,4.1,12.5,1.4,24.6c-2.7,11.7-2.1,17-1.9,19l0,0.2
			c0.2,1.7,0,8.2-1,12.6l-0.1,0.2l-0.2,0c-1.7-0.3-3.5-0.3-5.3,0l-0.3,0l-0.1-0.3c-0.3-3.3-0.4-7.8-0.4-10.3c0-3-0.1-4.2-0.4-5.5
			c-0.2-1.4-0.3-2.7-0.2-5.2c0.1-2.5,0.2-4.1,0-6.1l-0.1-1.1c-0.3-2-0.6-4.6-0.5-6.3c0-1.7,0-4.9,0-5.8h-1c0,0.9,0,4.1,0,5.8
			c0,1.7-0.3,4.3-0.5,6.3l-0.1,1.1c-0.2,2-0.2,3.6,0,6.1c0.1,2.5,0.1,3.8-0.2,5.2c-0.2,1.2-0.4,2.5-0.4,5.5c0,2.5-0.1,7-0.4,10.3
			L35.3,65.7z M36.5,24.7h2l0,0.2c0,0,0,4,0,6.1c0,1.7,0.3,4.2,0.5,6.2l0.1,1.1c0.2,2.1,0.2,3.6,0,6.2c-0.1,2.5-0.1,3.8,0.2,5.1
			c0.2,1.3,0.4,2.6,0.4,5.6c0,2.4,0.1,6.7,0.4,9.9c1.8-0.3,3.4-0.3,5,0c1-4.4,1.1-10.6,0.9-12.3l0-0.2c-0.2-2-0.8-7.4,1.9-19.2
			c2.6-11.2-0.8-22.7-1.3-24.2H28.3c-0.5,1.5-3.8,13-1.3,24.2c2.7,11.8,2.1,17.2,1.9,19.2l0,0.2c-0.2,1.6,0,7.9,0.9,12.3
			c1.6-0.3,3.3-0.3,5,0c0.2-3.2,0.4-7.5,0.4-9.9c0-3,0.1-4.3,0.4-5.6c0.2-1.3,0.3-2.6,0.2-5.1c-0.1-2.6-0.2-4.1,0-6.2l0.1-1.1
			c0.2-2,0.6-4.5,0.5-6.3c0-2,0-6,0-6.1L36.5,24.7z"/>
	</g>
	<g>
		<path d="M40.1,64.9L40,64.4c1.9-0.3,3.8-0.3,5.5,0l-0.1,0.5C43.7,64.6,41.9,64.6,40.1,64.9z"/>
	</g>
	<g>
		<path d="M32.5,66.2c-1,0-2.1-0.2-3-0.6l0.2-0.5c1.7,0.7,3.8,0.8,5.5,0.1l0.2,0.5C34.4,66,33.4,66.2,32.5,66.2z"/>
	</g>
	<g>
		<path d="M42.6,66.2c-1,0-2-0.2-2.9-0.6l0.2-0.5c1.8,0.7,3.8,0.7,5.5,0l0.2,0.5C44.6,66.1,43.6,66.2,42.6,66.2z"/>
	</g>
</g>
</svg>
