<?xml version="1.0" encoding="utf-8"?>
<!-- Generator: Adobe Illustrator 16.0.0, SVG Export Plug-In . SVG Version: 6.00 Build 0)  -->
<!DOCTYPE svg PUBLIC "-//W3C//DTD SVG 1.1//EN" "http://www.w3.org/Graphics/SVG/1.1/DTD/svg11.dtd">
<svg version="1.1" xmlns="http://www.w3.org/2000/svg" xmlns:xlink="http://www.w3.org/1999/xlink" x="0px" y="0px"  viewBox="0 0 75 75" enable-background="new 0 0 75 75" xml:space="preserve">
<g id="Accessories">
</g>
<g id="TENCEL_Men_x27_s">
</g>
<g id="TENCEL_Women_x27_s">
</g>
<g id="STE">
</g>
<g id="Invisible">
</g>
<g id="Socks">
</g>
<g id="Cashmere">
</g>
<g id="Titles" display="none">
	<text transform="matrix(1 0 0 1 29.7432 0.7432)" display="inline"><tspan x="0" y="0" fill="#9B9694" font-family="'CircularAirPro-Bold'" font-size="4.4">OC </tspan><tspan x="7.999" y="0" fill="#9B9694" font-family="'CircularAirPro-Bold'" font-size="4.4">T</tspan><tspan x="10.309" y="0" fill="#9B9694" font-family="'CircularAirPro-Bold'" font-size="4.4">ee</tspan></text>
</g>
<g id="OC_Womens">
	<g>
		<path fill="none" stroke="#99979A" stroke-width="0.5" stroke-miterlimit="10" d="M42.688,14.158
			c-0.67,0.254-2.364,0.763-5.188,0.766c-2.824-0.003-4.518-0.512-5.189-0.766"/>
		<path fill="none" stroke="#99979A" stroke-width="0.5" stroke-miterlimit="10" d="M32.312,14.158
			c-0.224-0.084-0.333-0.142-0.333-0.142l-8.219,4.126c-3.069,2.666-7.405,11.32-7.405,11.32s5.04,4.085,6.802,5.242
			c0.351-0.353,1.669-1.82,1.669-1.82s0,0.721-0.746,27.445c2.204,0.538,12.841,0.647,13.408,0.654H37.5h0.013
			c0.567-0.007,11.205-0.116,13.409-0.654c-0.746-26.725-0.746-27.445-0.746-27.445s2.063,1.468,2.415,1.82
			c1.761-1.157,6.055-5.242,6.055-5.242s-4.335-8.654-7.404-11.32l-8.219-4.126c0,0-0.11,0.058-0.334,0.142"/>
		<path fill="none" stroke="#99979A" stroke-width="0.5" stroke-miterlimit="10" d="M50.176,32.884c0,0-0.947-11.561,1.065-14.742"
			/>
		<path fill="none" stroke="#99979A" stroke-width="0.5" stroke-miterlimit="10" d="M24.825,32.858c0,0,0.946-11.561-1.065-14.742"
			/>
		<path fill="none" stroke="#99979A" stroke-width="0.5" stroke-miterlimit="10" d="M31.979,14.016c0,0,0.05,4.126,5.521,4.126"/>
		<path fill="none" stroke="#99979A" stroke-width="0.5" stroke-miterlimit="10" d="M43.022,14.016c0,0-0.051,4.126-5.522,4.126"/>
		<path fill="none" stroke="#99979A" stroke-width="0.5" stroke-miterlimit="10" d="M31.123,14.319c0,0,0.059,4.679,6.377,4.679"/>
		<path fill="none" stroke="#99979A" stroke-width="0.5" stroke-miterlimit="10" d="M43.878,14.319c0,0-0.059,4.679-6.378,4.679"/>
		<path fill="none" stroke="#99979A" stroke-width="0.5" stroke-miterlimit="10" d="M24.079,59.348
			c2.204,0.539,12.842,0.648,13.408,0.654H37.5h0.013c0.566-0.006,11.205-0.115,13.409-0.654"/>
	</g>
</g>
<g id="OC_Mens">
</g>
<g id="STA_Womens">
</g>
<g id="STA_Mens">
</g>
</svg>
