<?xml version="1.0" encoding="utf-8"?>
<!-- Generator: Adobe Illustrator 16.0.0, SVG Export Plug-In . SVG Version: 6.00 Build 0)  -->
<!DOCTYPE svg PUBLIC "-//W3C//DTD SVG 1.1//EN" "http://www.w3.org/Graphics/SVG/1.1/DTD/svg11.dtd">
<svg version="1.1" xmlns="http://www.w3.org/2000/svg" xmlns:xlink="http://www.w3.org/1999/xlink" x="0px" y="0px"  viewBox="0 0 75 75" enable-background="new 0 0 75 75" xml:space="preserve">
<g id="Hosiery">
	<g>
		<rect x="37.275" y="8.743" fill="#99969A" width="0.449" height="9.892"/>
		<path fill="#99969A" d="M33.024,70.859c-0.691,0-1.433-0.259-2.077-0.748c-1.411-1.073-1.215-3.259-1.123-4.31
			c0.019-0.167,0.029-0.299,0.029-0.382c0-0.255,0.057-1.767,0.121-3.516c0.09-2.361,0.187-5.038,0.187-5.634
			c0-0.557-0.402-2.998-0.759-5.15c-0.307-1.835-0.596-3.568-0.631-4.109c-0.051-0.771,0.016-3.247,0.097-6.382
			c0.044-1.714,0.096-3.643,0.137-5.632c0.067-3.461-0.159-4.306-0.571-5.838c-0.265-0.981-0.594-2.204-0.975-4.506
			C25.638,13.58,28.438,7.979,28.774,7.362c0.03-0.667,0.371-2.72,0.386-2.809l0.031-0.188h16.617l0.031,0.188
			c0.016,0.089,0.355,2.142,0.386,2.809c0.336,0.616,3.136,6.217,1.315,17.288c-0.381,2.302-0.709,3.525-0.975,4.506
			c-0.412,1.532-0.639,2.377-0.571,5.838c0.041,1.989,0.093,3.917,0.137,5.632c0.081,3.135,0.146,5.611,0.097,6.382
			c-0.034,0.542-0.324,2.273-0.629,4.108c-0.358,2.153-0.762,4.593-0.762,5.151c0,0.597,0.1,3.273,0.188,5.634
			c0.064,1.749,0.121,3.261,0.121,3.516c0,0.083,0.011,0.215,0.027,0.382c0.094,1.051,0.29,3.237-1.121,4.31
			c-0.917,0.696-2.035,0.929-2.922,0.603c-0.626-0.228-1.045-0.699-1.184-1.32c-0.367-1.656-0.096-4.721,0.05-6.368
			c0.036-0.393,0.069-0.765,0.069-0.881c-0.033-0.087-0.01-0.275,0.13-1.289c0.218-1.585,0.623-4.536,0.596-6.842
			c-0.023-2.036-0.362-4.444-0.634-6.381c-0.174-1.229-0.323-2.291-0.354-2.981c-0.037-0.84,0.095-2.367,0.226-3.841
			c0.14-1.633,0.286-3.322,0.188-3.918c-0.19-1.163-1.42-9.749-1.431-9.836c-0.007-0.069-0.593-6.027-1.286-7.813
			c-0.69,1.752-1.279,7.742-1.283,7.805c-0.014,0.095-1.241,8.682-1.432,9.845c-0.101,0.596,0.046,2.285,0.188,3.917
			c0.129,1.474,0.26,3.001,0.226,3.841c-0.033,0.691-0.183,1.752-0.356,2.981c-0.271,1.938-0.61,4.346-0.634,6.383
			c-0.027,2.305,0.378,5.255,0.596,6.839c0.14,1.013,0.163,1.202,0.132,1.291c0,0.115,0.031,0.488,0.066,0.882
			c0.146,1.646,0.418,4.711,0.052,6.366c-0.14,0.622-0.559,1.093-1.185,1.321C33.603,70.811,33.32,70.859,33.024,70.859
			 M29.572,4.813c-0.09,0.549-0.345,2.148-0.35,2.614L29.22,7.485l-0.028,0.049c-0.031,0.057-3.152,5.709-1.287,17.043
			c0.376,2.282,0.701,3.49,0.964,4.462c0.423,1.572,0.657,2.438,0.585,5.965c-0.041,1.99-0.091,3.918-0.137,5.633
			c-0.08,3.124-0.144,5.59-0.097,6.341c0.035,0.519,0.322,2.242,0.626,4.065c0.377,2.275,0.766,4.629,0.766,5.224
			c0,0.605-0.098,3.286-0.187,5.652c-0.064,1.746-0.121,3.251-0.121,3.499c0,0.094-0.015,0.238-0.03,0.422
			c-0.086,0.97-0.268,2.99,0.945,3.912c0.797,0.604,1.754,0.813,2.495,0.541c0.478-0.176,0.796-0.528,0.899-0.999
			c0.354-1.586,0.076-4.721-0.057-6.229c-0.068-0.762-0.085-0.951-0.058-1.041c-0.004-0.128-0.073-0.605-0.14-1.109
			c-0.219-1.596-0.629-4.567-0.602-6.906c0.024-2.067,0.366-4.491,0.64-6.44c0.173-1.216,0.318-2.269,0.352-2.938
			c0.034-0.812-0.098-2.322-0.224-3.784c-0.148-1.739-0.293-3.377-0.184-4.029c0.19-1.161,1.418-9.741,1.429-9.827
			c0.024-0.25,0.626-6.386,1.367-8.045c0.093-0.209,0.166-0.345,0.166-0.345l0.188-0.351l0.201,0.347c0,0,0.101,0.171,0.209,0.44
			c0.724,1.799,1.305,7.713,1.327,7.964c0.014,0.075,1.238,8.655,1.431,9.814c0.107,0.653-0.035,2.292-0.184,4.031
			c-0.128,1.461-0.26,2.972-0.223,3.784c0.03,0.668,0.176,1.721,0.348,2.939c0.273,1.948,0.616,4.372,0.641,6.438
			c0.026,2.339-0.383,5.312-0.602,6.907c-0.066,0.505-0.136,0.982-0.14,1.109c0.026,0.092,0.014,0.284-0.058,1.041
			c-0.133,1.507-0.41,4.643-0.057,6.229c0.104,0.47,0.425,0.822,0.899,0.998c0.741,0.273,1.698,0.064,2.496-0.541
			c1.212-0.921,1.033-2.941,0.944-3.912c-0.017-0.184-0.03-0.328-0.03-0.422c0-0.248-0.057-1.753-0.121-3.499
			c-0.088-2.366-0.187-5.047-0.187-5.652c0-0.596,0.39-2.95,0.766-5.225c0.305-1.823,0.591-3.545,0.627-4.064
			c0.049-0.751-0.017-3.217-0.097-6.341c-0.044-1.715-0.099-3.644-0.138-5.633c-0.072-3.527,0.164-4.393,0.585-5.965
			c0.263-0.973,0.591-2.181,0.967-4.462c1.862-11.334-1.259-16.986-1.29-17.043l-0.03-0.106c-0.009-0.466-0.261-2.065-0.351-2.614
			H29.572z"/>
		<rect x="28.335" y="8.518" fill="#99969A" width="18.329" height="0.449"/>
		<g opacity="0.15">
			<g>
				<defs>
					<rect id="SVGID_77_" x="27.783" y="4.141" width="19.432" height="5.05"/>
				</defs>
				<clipPath id="SVGID_2_">
					<use xlink:href="#SVGID_77_"  overflow="visible"/>
				</clipPath>
				<path clip-path="url(#SVGID_2_)" fill="#99979A" d="M28.428,8.743h18.145c-0.309-0.846-0.567-1.319-0.567-1.319
					c-0.013-0.586-0.388-2.833-0.388-2.833h-8.002h-0.23h-8.002c0,0-0.375,2.248-0.387,2.833
					C28.996,7.423,28.733,7.913,28.428,8.743"/>
				<path clip-path="url(#SVGID_2_)" fill="#99969A" d="M47.215,9.191H27.783l0.223-0.605c0.238-0.646,0.453-1.095,0.547-1.282
					c0.041-0.708,0.351-2.568,0.387-2.788l0.062-0.375h16.993l0.065,0.374c0.033,0.22,0.344,2.078,0.388,2.788
					c0.093,0.185,0.308,0.628,0.546,1.284L47.215,9.191z M29.086,8.294h16.829c-0.177-0.422-0.304-0.652-0.305-0.654l-0.052-0.098
					l-0.004-0.11c-0.008-0.38-0.195-1.634-0.32-2.393H29.766c-0.125,0.76-0.314,2.012-0.322,2.394L29.441,7.54l-0.049,0.096
					C29.39,7.639,29.262,7.876,29.086,8.294"/>
			</g>
		</g>
	</g>
</g>
</svg>
