<?xml version="1.0" encoding="utf-8"?>
<!-- Generator: Adobe Illustrator 16.0.0, SVG Export Plug-In . SVG Version: 6.00 Build 0)  -->
<!DOCTYPE svg PUBLIC "-//W3C//DTD SVG 1.1//EN" "http://www.w3.org/Graphics/SVG/1.1/DTD/svg11.dtd">
<svg version="1.1" xmlns="http://www.w3.org/2000/svg" xmlns:xlink="http://www.w3.org/1999/xlink" x="0px" y="0px"  viewBox="0 0 75 75" enable-background="new 0 0 75 75" xml:space="preserve">
<g id="OC_Womens">
	<g>
		<path fill="none" stroke="#04080F" stroke-width="0.5" stroke-miterlimit="10" d="M9.7,18.662c0,0,12.069,4.024,24.329,4.024"/>
		<path fill="none" stroke="#04080F" stroke-width="0.5" stroke-miterlimit="10" d="M9.586,20.947c0,0,12.198,3.958,24.458,3.958"/>
		<path fill="none" stroke="#04080F" stroke-width="0.5" stroke-miterlimit="10" d="M58.387,18.662c0,0-12.098,4.024-24.358,4.024"
			/>
		<path fill="none" stroke="#04080F" stroke-width="0.5" stroke-miterlimit="10" d="M58.501,20.947c0,0-12.198,3.958-24.458,3.958"
			/>
		<path fill="none" stroke="#04080F" stroke-width="0.5" stroke-miterlimit="10" d="M29.675,46.459
			c0.673-5.06,0.218-6.5-0.455-8.001c-0.828-1.846-3.529-3.326-6.188-4.773c-2.556-1.393-13.924-4.287-13.924-4.287"/>
		<path fill="none" stroke="#04080F" stroke-width="0.5" stroke-miterlimit="10" d="M34.043,18.662H9.747
			c-0.264,1.13-0.573,6.783-0.639,10.735C23.995,39.512,28.31,44.887,29.675,46.459h8.736c1.366-1.572,5.681-6.947,20.568-17.062
			c-0.066-3.952-0.375-9.605-0.639-10.735H34.043"/>
		<path fill="none" stroke="#04080F" stroke-width="0.5" stroke-miterlimit="10" d="M58.979,29.397c0,0-11.369,2.896-13.924,4.286
			c-2.659,1.448-5.272,2.972-6.188,4.775c-0.774,1.522-1.128,2.94-0.455,8.001"/>
		<path fill="none" stroke="#04080F" stroke-width="0.5" stroke-miterlimit="10" d="M30.567,46.393
			c0.704-5.295,0.229-6.802-0.477-8.372c-0.866-1.931-3.692-3.48-6.475-4.996c-2.674-1.456-14.57-4.484-14.57-4.484"/>
		<path fill="none" stroke="#04080F" stroke-width="0.5" stroke-miterlimit="10" d="M37.52,46.393
			c-0.704-5.295-0.229-6.802,0.477-8.372c0.866-1.931,3.692-3.48,6.475-4.996c2.674-1.456,14.57-4.484,14.57-4.484"/>
		<path fill="#FFFFFF" d="M40.957,28.54H16.66c-0.264,1.13-0.573,6.784-0.639,10.735C30.908,49.39,35.223,54.765,36.588,56.337
			h8.736c1.366-1.572,5.681-6.947,20.568-17.062c-0.066-3.951-0.374-9.605-0.639-10.735H40.957"/>
		<path fill="none" stroke="#04080F" stroke-width="0.5" stroke-miterlimit="10" d="M40.957,28.54H16.66
			c-0.264,1.13-0.573,6.784-0.639,10.735C30.908,49.39,35.223,54.765,36.588,56.337h8.736c1.366-1.572,5.681-6.947,20.568-17.062
			c-0.066-3.951-0.374-9.605-0.639-10.735H40.957"/>
		<path fill="none" stroke="#04080F" stroke-width="0.5" stroke-miterlimit="10" d="M16.613,28.54c0,0,12.069,4.024,24.329,4.024"/>
		<path fill="none" stroke="#04080F" stroke-width="0.5" stroke-miterlimit="10" d="M16.5,30.825c0,0,12.197,3.958,24.457,3.958"/>
		<path fill="none" stroke="#04080F" stroke-width="0.5" stroke-miterlimit="10" d="M65.3,28.54c0,0-12.098,4.024-24.358,4.024"/>
		<path fill="none" stroke="#04080F" stroke-width="0.5" stroke-miterlimit="10" d="M65.414,30.825c0,0-12.198,3.958-24.458,3.958"
			/>
		<path fill="none" stroke="#04080F" stroke-width="0.5" stroke-miterlimit="10" d="M36.589,56.337
			c0.673-5.06,0.218-6.5-0.456-8.001c-0.828-1.846-3.529-3.326-6.188-4.773c-2.555-1.393-13.924-4.287-13.924-4.287"/>
		<path fill="none" stroke="#04080F" stroke-width="0.5" stroke-miterlimit="10" d="M65.892,39.275c0,0-11.369,2.896-13.924,4.286
			c-2.659,1.448-5.272,2.972-6.188,4.775c-0.774,1.522-1.128,2.94-0.455,8.001"/>
		<path fill="none" stroke="#04080F" stroke-width="0.5" stroke-miterlimit="10" d="M37.48,56.271
			c0.704-5.295,0.229-6.802-0.477-8.372c-0.866-1.931-3.692-3.48-6.475-4.996c-2.674-1.456-14.57-4.485-14.57-4.485"/>
		<path fill="none" stroke="#04080F" stroke-width="0.5" stroke-miterlimit="10" d="M44.433,56.271
			c-0.704-5.295-0.229-6.802,0.477-8.372c0.866-1.931,3.692-3.48,6.475-4.996c2.674-1.456,14.57-4.485,14.57-4.485"/>
	</g>
</g>
</svg>
