<?xml version="1.0" encoding="utf-8"?>
<!-- Generator: Adobe Illustrator 16.0.0, SVG Export Plug-In . SVG Version: 6.00 Build 0)  -->
<!DOCTYPE svg PUBLIC "-//W3C//DTD SVG 1.1//EN" "http://www.w3.org/Graphics/SVG/1.1/DTD/svg11.dtd">
<svg version="1.1" xmlns="http://www.w3.org/2000/svg" xmlns:xlink="http://www.w3.org/1999/xlink" x="0px" y="0px" width="75px"
	 height="75px" viewBox="0 0 75 75" enable-background="new 0 0 75 75" xml:space="preserve">
<g id="Accessories">
</g>
<g id="TENCEL_Men_x27_s">
</g>
<g id="TENCEL_Women_x27_s">
</g>
<g id="STE">
</g>
<g id="Invisible">
	<g>
		<path fill="none" stroke="#99979A" stroke-width="0.5" stroke-miterlimit="10" d="M49.615,46.07
			c-0.012-3.653,2.24-15.329,2.24-15.329s-7.123-1.4-3.109-16.635l-1.77-0.497c0,0-0.842,5.086-2.596,9.295
			c-1.283,3.074-3.982,4.999-6.879,4.999c-2.9,0-5.6-1.925-6.881-4.999c-1.756-4.209-2.598-9.295-2.598-9.295l-1.768,0.497
			c4.012,15.234-3.109,16.635-3.109,16.635s2.25,11.676,2.24,15.329c-0.014,4.057-2.518,15.321-2.518,15.321H37.5h0.002h14.629
			C52.131,61.391,49.629,50.126,49.615,46.07z"/>
	</g>
</g>
<g id="Socks">
</g>
<g id="Cashmere">
</g>
<g id="Titles" display="none">
	<text transform="matrix(1 0 0 1 15.1865 0.981)" display="inline"><tspan x="0" y="0" fill="#9B9694" font-family="'CircularAirPro-Bold'" font-size="4.4">I</tspan><tspan x="1.33" y="0" fill="#9B9694" font-family="'CircularAirPro-Bold'" font-size="4.4">n</tspan><tspan x="3.859" y="0" fill="#9B9694" font-family="'CircularAirPro-Bold'" font-size="4.4">visible </tspan><tspan x="18.129" y="0" fill="#9B9694" font-family="'CircularAirPro-Bold'" font-size="4.4">T</tspan><tspan x="20.479" y="0" fill="#9B9694" font-family="'CircularAirPro-Bold'" font-size="4.4">anktop</tspan></text>
</g>
<g id="OC_Womens">
</g>
<g id="OC_Mens">
</g>
<g id="STA_Womens">
</g>
<g id="STA_Mens">
</g>
</svg>
