<?xml version="1.0" encoding="utf-8"?>
<!-- Generator: Adobe Illustrator 16.0.0, SVG Export Plug-In . SVG Version: 6.00 Build 0)  -->
<!DOCTYPE svg PUBLIC "-//W3C//DTD SVG 1.1//EN" "http://www.w3.org/Graphics/SVG/1.1/DTD/svg11.dtd">
<svg version="1.1" xmlns="http://www.w3.org/2000/svg" xmlns:xlink="http://www.w3.org/1999/xlink" x="0px" y="0px"  viewBox="0 0 75 75" enable-background="new 0 0 75 75" xml:space="preserve"><g id="Titles" display="none">
	
		<text transform="matrix(1 0 0 1 30.2095 1.0195)" display="inline" fill="#9B9694" font-family="'CircularAirPro-Bold'" font-size="4.4">Bikini</text>
</g>
<g id="OC_Womens">
	<g>
		<path fill="none" stroke="#99979A" stroke-width="0.5" stroke-miterlimit="10" d="M58.747,17.65H35.554H12.36
			c-0.828,1.479-3.147,15.441-3.147,15.441c11.762,3.779,22.364,11.663,22.364,11.663h3.977h3.975c0,0,10.603-7.884,22.365-11.663
			C61.894,33.092,59.575,19.13,58.747,17.65z"/>
		<path fill="none" stroke="#99979A" stroke-width="0.5" stroke-miterlimit="10" d="M12.36,17.732c0,0,7.402,3.614,23.193,3.614"/>
		<path fill="none" stroke="#99979A" stroke-width="0.5" stroke-miterlimit="10" d="M58.747,17.732c0,0-7.402,3.614-23.193,3.614"/>
		<path fill="none" stroke="#99979A" stroke-width="0.5" stroke-miterlimit="10" d="M11.532,20.854c0,0,7.666,3.614,24.021,3.614"/>
		<path fill="none" stroke="#99979A" stroke-width="0.5" stroke-miterlimit="10" d="M59.575,20.854c0,0-7.667,3.614-24.021,3.614"/>
		<path fill="none" stroke="#99979A" stroke-width="0.5" stroke-miterlimit="10" d="M39.446,44.673
			c5.964-7.392,12.591-9.855,22.365-11.663"/>
		<path fill="none" stroke="#99979A" stroke-width="0.5" stroke-miterlimit="10" d="M31.66,44.673
			c-5.964-7.392-12.591-9.855-22.365-11.663"/>
		<path fill="#FFFFFF" d="M65.787,45.769c0,0-2.319-13.963-3.147-15.44H39.446H16.253c-0.828,1.478-3.148,15.44-3.148,15.44"/>
		<path fill="none" stroke="#99979A" stroke-width="0.5" stroke-miterlimit="10" d="M65.787,45.769c0,0-2.319-13.963-3.147-15.44
			H39.446H16.253c-0.828,1.478-3.148,15.44-3.148,15.44"/>
		<path fill="none" stroke="#99979A" stroke-width="0.5" stroke-miterlimit="10" d="M62.64,30.245H39.447H16.252
			c-0.828,1.479-3.147,15.441-3.147,15.441C24.869,49.466,35.471,57.35,35.471,57.35h3.976h3.976c0,0,10.603-7.884,22.364-11.663
			C65.787,45.687,63.468,31.725,62.64,30.245z"/>
		<path fill="none" stroke="#99979A" stroke-width="0.5" stroke-miterlimit="10" d="M16.253,30.327c0,0,7.402,3.614,23.193,3.614"/>
		<path fill="none" stroke="#99979A" stroke-width="0.5" stroke-miterlimit="10" d="M62.64,30.327c0,0-7.401,3.614-23.193,3.614"/>
		<path fill="none" stroke="#99979A" stroke-width="0.5" stroke-miterlimit="10" d="M15.425,33.448c0,0,7.667,3.614,24.021,3.614"/>
		<path fill="none" stroke="#99979A" stroke-width="0.5" stroke-miterlimit="10" d="M63.468,33.448c0,0-7.666,3.614-24.021,3.614"/>
		<path fill="none" stroke="#99979A" stroke-width="0.5" stroke-miterlimit="10" d="M43.34,57.268
			c5.964-7.392,12.591-9.855,22.365-11.663"/>
		<path fill="none" stroke="#99979A" stroke-width="0.5" stroke-miterlimit="10" d="M35.554,57.268
			c-5.964-7.392-12.591-9.855-22.365-11.663"/>
	</g>
</g>
</svg>
