<?xml version="1.0" encoding="utf-8"?>
<!-- Generator: Adobe Illustrator 16.0.0, SVG Export Plug-In . SVG Version: 6.00 Build 0)  -->
<!DOCTYPE svg PUBLIC "-//W3C//DTD SVG 1.1//EN" "http://www.w3.org/Graphics/SVG/1.1/DTD/svg11.dtd">
<svg version="1.1" xmlns="http://www.w3.org/2000/svg" xmlns:xlink="http://www.w3.org/1999/xlink" x="0px" y="0px" viewBox="0 0 75 75" enable-background="new 0 0 75 75" xml:space="preserve">
<g id="Invisible">
	<path fill="#99979A" d="M19.672,56.562l-0.008-0.244c-0.004-0.126-0.094-3.11-0.094-3.676c0-0.293-0.688-2.746-1.713-6.102
		c-0.072-0.238,0.037-0.488,0.266-0.61c2.728-1.437,4.268-10.019,4.674-12.614c0.107-0.677,0.161-1.368,0.161-2.053V18.438h2.418
		l0.046,0.191c0.019,0.077,1.887,7.796,3.19,11.063c1.604,4.018,7.514,17.203,8.208,18.751h1.364
		c0.688-1.556,6.521-14.758,8.206-18.755c1.361-3.235,3.169-10.979,3.187-11.058l0.045-0.193h2.426V31.95
		c0,0.181,0.012,0.359,0.037,0.539c0.763,5.441,2.474,12.226,4.794,13.443c0.227,0.119,0.335,0.367,0.264,0.604
		c-1.021,3.362-1.707,5.815-1.707,6.105c0,0.565-0.097,3.55-0.101,3.677l-0.008,0.243l-17.823-0.188L19.672,56.562z M37.496,55.874
		l17.348,0.185c0.022-0.743,0.092-2.951,0.092-3.416c0-0.485,1.083-4.125,1.729-6.251l0.1-0.237l-0.117,0.221
		c-3.208-1.683-4.775-11.805-5.058-13.816c-0.027-0.204-0.041-0.403-0.041-0.608V18.938h-1.529
		c-0.291,1.228-1.911,7.96-3.168,10.944c-1.783,4.233-8.209,18.767-8.274,18.912l-0.064,0.149h-2.016l-0.065-0.147
		c-0.066-0.146-6.583-14.66-8.283-18.918c-1.201-3.009-2.866-9.721-3.165-10.94h-1.524v12.325c0,0.711-0.057,1.428-0.167,2.131
		c-0.532,3.4-2.082,11.476-4.935,12.979c0.501,1.729,1.714,5.759,1.714,6.269c0,0.465,0.065,2.673,0.086,3.416L37.496,55.874z"/>
</g>
</svg>
