<?xml version="1.0" encoding="utf-8"?>
<!-- Generator: Adobe Illustrator 16.0.0, SVG Export Plug-In . SVG Version: 6.00 Build 0)  -->
<!DOCTYPE svg PUBLIC "-//W3C//DTD SVG 1.1//EN" "http://www.w3.org/Graphics/SVG/1.1/DTD/svg11.dtd">
<svg version="1.1" xmlns="http://www.w3.org/2000/svg" xmlns:xlink="http://www.w3.org/1999/xlink" x="0px" y="0px" viewBox="0 0 75 75" enable-background="new 0 0 75 75" xml:space="preserve">
<g id="Invisible">
	<path fill="#99979A" d="M40.037,67.574h-5.082l-0.971-3.082c-2.346-5.745-11.285-7.78-11.375-7.801l-0.238-0.053l0.047-0.238
		c0.074-0.397,0.174-0.934,0.285-1.539c0.439-2.37,1.037-5.618,1.285-6.256c0.051-0.13,0.141-0.355,0.256-0.645
		c0.518-1.303,1.73-4.351,1.826-5.161c0.102-0.854-0.535-3.422-0.779-4.261c-0.121-0.417-0.936-3.812-0.971-3.955
		c-1.273-5.234-1.098-9.609-1.098-9.652l0.012-0.228l0.227-0.011c0.115-0.006,2.797-0.195,2.797-4.656V7.426h2.58l0.592,8.764
		c0.184,1.62,1.174,3.032,2.586,3.672c1.115,0.504,3.336,0.856,5.4,0.856c2.131,0,4.469-0.36,5.559-0.856
		c1.412-0.64,2.404-2.052,2.588-3.684l0.668-8.752h2.502v12.61c0,4.486,2.775,4.655,2.805,4.656l0.229,0.009l0.01,0.23
		c0.002,0.044,0.17,4.418-1.096,9.652c-0.035,0.145-0.859,3.539-0.98,3.955c-0.244,0.839-0.881,3.405-0.779,4.261
		c0.102,0.846,1.408,4.104,1.9,5.331l0.188,0.474c0.236,0.607,0.779,3.536,1.217,5.89c0.139,0.756,0.264,1.429,0.357,1.905
		l0.045,0.239l-0.236,0.053c-0.092,0.021-9.037,2.056-11.391,7.82L40.037,67.574z M35.32,67.074h4.35l0.861-2.731
		c2.266-5.56,10.021-7.716,11.514-8.083c-0.086-0.454-0.193-1.035-0.312-1.674c-0.41-2.21-0.971-5.237-1.189-5.799l-0.188-0.471
		c-0.9-2.248-1.836-4.654-1.932-5.457c-0.137-1.15,0.785-4.428,0.795-4.46c0.119-0.406,0.967-3.897,0.975-3.933
		c1.094-4.527,1.104-8.392,1.088-9.309c-0.752-0.149-3.049-0.951-3.049-5.121V7.926h-1.539l-0.633,8.299
		c-0.205,1.815-1.307,3.38-2.879,4.092c-1.146,0.522-3.57,0.901-5.766,0.901c-2.162,0-4.416-0.362-5.605-0.9
		c-1.572-0.713-2.676-2.277-2.879-4.084l-0.561-8.308h-1.613v12.11c0,4.17-2.291,4.971-3.041,5.121
		c-0.016,0.917-0.012,4.785,1.09,9.309c0.008,0.036,0.848,3.526,0.965,3.933c0.01,0.032,0.934,3.311,0.795,4.46
		c-0.092,0.77-0.947,2.995-1.857,5.285c-0.115,0.287-0.203,0.511-0.254,0.64c-0.23,0.598-0.85,3.949-1.26,6.168
		c-0.09,0.494-0.174,0.942-0.242,1.307c1.49,0.367,9.24,2.522,11.5,8.064L35.32,67.074z"/>
</g>
</svg>
