<?xml version="1.0" encoding="utf-8"?>
<!-- Generator: Adobe Illustrator 16.0.0, SVG Export Plug-In . SVG Version: 6.00 Build 0)  -->
<!DOCTYPE svg PUBLIC "-//W3C//DTD SVG 1.1//EN" "http://www.w3.org/Graphics/SVG/1.1/DTD/svg11.dtd">
<svg version="1.1" xmlns="http://www.w3.org/2000/svg" xmlns:xlink="http://www.w3.org/1999/xlink" x="0px" y="0px" width="75px"
	 height="75px" viewBox="0 0 75 75" enable-background="new 0 0 75 75" xml:space="preserve">
<g id="Accessories">
</g>
<g id="TENCEL_Men_x27_s">
</g>
<g id="TENCEL_Women_x27_s">
	<g>
		<path fill="none" stroke="#99979A" stroke-width="0.5" stroke-miterlimit="10" d="M45.5,14.098c0,0-0.711,4.697-2.19,8.583
			c-1.082,2.839-3.362,4.617-5.81,4.617c-2.446,0-4.726-1.778-5.808-4.617c-1.481-3.886-2.192-8.583-2.192-8.583"/>
		<path fill="none" stroke="#99979A" stroke-width="0.5" stroke-miterlimit="10" d="M27.816,60.569c2.817,0.398,6,0.67,9.487,0.68
			c5.898,0.016,10.939-0.722,14.827-1.563c-2.294-6.276-2.627-11.315-2.517-14.729l2.24-14.736c0,0-7.122-1.347-3.108-15.992
			c0,0-1.189-0.321-1.617-0.437c-2.538,0.677-5.799,1.261-9.603,1.248c-3.766-0.014-6.992-0.609-9.502-1.289l-1.77,0.478
			c4.013,14.645-3.109,15.992-3.109,15.992s2.252,11.224,2.24,14.736c-0.012,3.901-2.516,14.729-2.516,14.729
			C24.357,60.008,26.012,60.314,27.816,60.569z"/>
		<path fill="none" stroke="#99979A" stroke-width="0.5" stroke-miterlimit="10" d="M46.455,13.991c0,0-0.796,5.048-2.452,9.225
			c-1.213,3.051-3.764,4.962-6.503,4.962c-2.738,0-5.29-1.911-6.502-4.962c-1.656-4.177-2.452-9.225-2.452-9.225"/>
		<path fill="none" stroke="#99979A" stroke-width="0.5" stroke-miterlimit="10" d="M22.869,58.659
			c3.746,0.768,8.563,1.441,14.187,1.456c5.795,0.016,10.75-0.672,14.57-1.456"/>
	</g>
</g>
<g id="STE">
</g>
<g id="Invisible">
</g>
<g id="Socks">
</g>
<g id="Cashmere">
</g>
<g id="Titles" display="none">
	<text transform="matrix(1 0 0 1 28.9453 2.8979)" display="inline"><tspan x="0" y="0" fill="#9B9694" font-family="'CircularAirPro-Bold'" font-size="4.4">T</tspan><tspan x="2.31" y="0" fill="#9B9694" font-family="'CircularAirPro-Bold'" font-size="4.4">en</tspan><tspan x="7.312" y="0" fill="#9B9694" font-family="'CircularAirPro-Bold'" font-size="4.4">c</tspan><tspan x="9.715" y="0" fill="#9B9694" font-family="'CircularAirPro-Bold'" font-size="4.4">el </tspan><tspan x="14.445" y="0" fill="#9B9694" font-family="'CircularAirPro-Bold'" font-size="4.4">T</tspan><tspan x="16.799" y="0" fill="#9B9694" font-family="'CircularAirPro-Bold'" font-size="4.4">anktop</tspan></text>
</g>
<g id="OC_Womens">
</g>
<g id="OC_Mens">
</g>
<g id="STA_Womens">
</g>
<g id="STA_Mens">
</g>
</svg>
