<?xml version="1.0" encoding="utf-8"?>
<!-- Generator: Adobe Illustrator 16.0.0, SVG Export Plug-In . SVG Version: 6.00 Build 0)  -->
<!DOCTYPE svg PUBLIC "-//W3C//DTD SVG 1.1//EN" "http://www.w3.org/Graphics/SVG/1.1/DTD/svg11.dtd">
<svg version="1.1" xmlns="http://www.w3.org/2000/svg" xmlns:xlink="http://www.w3.org/1999/xlink" x="0px" y="0px"  viewBox="0 0 75 75" enable-background="new 0 0 75 75" xml:space="preserve"><g id="Titles" display="none">
	<text transform="matrix(1 0 0 1 18.2144 0.7451)" display="inline"><tspan x="0" y="0" fill="#9B9694" font-family="'CircularAirPro-Bold'" font-size="4.4">OC Long </tspan><tspan x="19.316" y="0" fill="#9B9694" font-family="'CircularAirPro-Bold'" font-size="4.4">S</tspan><tspan x="21.956" y="0" fill="#9B9694" font-family="'CircularAirPro-Bold'" font-size="4.4">le</tspan><tspan x="25.599" y="0" fill="#9B9694" font-family="'CircularAirPro-Bold'" font-size="4.4">e</tspan><tspan x="27.992" y="0" fill="#9B9694" font-family="'CircularAirPro-Bold'" font-size="4.4">v</tspan><tspan x="30.324" y="0" fill="#9B9694" font-family="'CircularAirPro-Bold'" font-size="4.4">e</tspan></text>
</g>
<g id="OC_Womens">
	<g>
		<path fill="#E2E2E2" stroke="#99979A" stroke-width="0.5" stroke-miterlimit="10" d="M43.662,14.633c0,0-0.057,4.523-6.17,4.517
			c-5.705,0.004-6.132-3.937-6.164-4.46c-1.863,0.793-8.55,3.634-8.55,3.634c-5.992,3.878-6.561,19.449-7.148,39.729l5.026,0.528
			c0.16-4.463,0.531-9.345,1.223-14.572c0.695-5.25,1.613-10.081,2.626-14.447c0.263,5.163,0.404,10.586,0.38,16.248
			c-0.02,4.586-0.147,9.011-0.359,13.263c2.127,0.521,12.397,0.626,12.968,0.633"/>
		<path fill="none" stroke="#99979A" stroke-width="0.5" stroke-miterlimit="10" d="M37.494,60.812L37.494,60.812h0.012h0.012
			c0.547-0.005,10.816-0.11,12.944-0.631v-1.383"/>
		<path fill="none" stroke="#99979A" stroke-width="0.5" stroke-miterlimit="10" d="M37.494,60.812L37.494,60.812h-0.013H37.47
			c-0.547-0.005-10.817-0.11-12.944-0.631v-1.383"/>
		<path fill="none" stroke="#99979A" stroke-width="0.5" stroke-miterlimit="10" d="M24.526,30.593c0,0,0.194-9.621-1.748-12.27"/>
		<path fill="none" stroke="#99979A" stroke-width="0.5" stroke-miterlimit="10" d="M50.474,30.593c0,0-0.194-9.621,1.749-12.27"/>
		<path fill="none" stroke="#99979A" stroke-width="0.5" stroke-miterlimit="10" d="M31.328,14.69l0.823-0.349
			c0,0,0.049,3.988,5.341,3.982c5.296,0.008,5.345-3.982,5.345-3.982c0.012,0,9.386,3.982,9.386,3.982
			c5.991,3.879,6.561,19.449,7.147,39.729l-5.026,0.528c-0.161-4.462-0.531-9.346-1.223-14.572
			c-0.695-5.25-1.613-10.081-2.626-14.447c-0.264,5.163-0.404,10.586-0.38,16.248c0.021,4.586,0.148,9.011,0.359,13.263
			c-2.127,0.521-12.397,0.626-12.944,0.633"/>
		<path fill="none" stroke="#99979A" stroke-width="0.5" stroke-miterlimit="10" d="M42.67,14.188
			c-0.67,0.254-2.364,0.763-5.188,0.766"/>
		<path fill="none" stroke="#99979A" stroke-width="0.5" stroke-miterlimit="10" d="M32.293,14.188
			c0.671,0.254,2.365,0.763,5.188,0.766"/>
	</g>
</g>
</svg>
