<?xml version="1.0" encoding="utf-8"?>
<!-- Generator: Adobe Illustrator 16.0.0, SVG Export Plug-In . SVG Version: 6.00 Build 0)  -->
<!DOCTYPE svg PUBLIC "-//W3C//DTD SVG 1.1//EN" "http://www.w3.org/Graphics/SVG/1.1/DTD/svg11.dtd">
<svg version="1.1" xmlns="http://www.w3.org/2000/svg" xmlns:xlink="http://www.w3.org/1999/xlink" x="0px" y="0px"  viewBox="0 0 75 75" enable-background="new 0 0 75 75" xml:space="preserve">
<g id="TENCEL_Women_x27_s">
	<g>
		<path fill="#04080F" d="M30.686,47.262c-0.013-0.306-0.02-0.613-0.025-0.923c-0.055-2.486-0.105-4.835-3.426-6.702
			c-4.494-2.527-16.152-1.34-16.27-1.328l-0.053-0.497c0.486-0.051,11.936-1.216,16.566,1.39c3.569,2.006,3.626,4.61,3.682,7.127
			c0.006,0.306,0.012,0.61,0.025,0.913L30.686,47.262z"/>
		<path fill="#04080F" d="M40.42,47.262l-0.5-0.021c0.015-0.303,0.021-0.607,0.026-0.913c0.055-2.518,0.112-5.121,3.68-7.127
			c4.634-2.607,16.08-1.44,16.566-1.39l-0.052,0.497c-0.117-0.013-11.774-1.199-16.271,1.328c-3.319,1.867-3.37,4.216-3.424,6.702
			C40.44,46.649,40.434,46.957,40.42,47.262"/>
		<path fill="#04080F" d="M35.514,21.788c-11.439,0-22.849-3.761-22.962-3.799l0.149-0.447c0.113,0.038,11.453,3.775,22.812,3.775
			c11.36,0,22.728-3.737,22.84-3.775l0.148,0.447C58.388,18.026,46.953,21.788,35.514,21.788"/>
		<path fill="#04080F" d="M35.527,24.708c-11.438,0-22.965-3.698-23.08-3.736l0.145-0.447c0.115,0.037,11.574,3.712,22.936,3.712
			c11.364,0,22.821-3.675,22.937-3.712l0.144,0.447C58.492,21.01,46.966,24.708,35.527,24.708"/>
		<path fill="#04080F" d="M40.262,47.487h-4.709v-0.471h4.526c6.329-5.736,18.155-8.733,19.835-9.138L58.21,17.892H35.528v-0.47
			h23.113l1.776,20.823l-0.2,0.045c-0.132,0.028-13.212,3.025-19.889,9.135L40.262,47.487z"/>
		<path fill="#04080F" d="M35.553,47.487h-4.709l-0.066-0.062c-6.678-6.109-19.758-9.106-19.891-9.135l-0.199-0.045l1.775-20.823
			h23.074v0.47H12.895l-1.703,19.986c1.68,0.404,13.507,3.401,19.836,9.138h4.525V47.487z"/>
		<path fill="#FFFFFF" d="M39.43,27.747H16.573L14.832,48.15c0,0,13.195,2.968,19.996,9.192h4.618h4.618
			c6.801-6.225,19.995-9.192,19.995-9.192L62.32,27.747h-22.9"/>
		<path fill="#04080F" d="M44.155,57.578h-9.419l-0.067-0.062c-6.677-6.11-19.757-9.105-19.889-9.136l-0.2-0.044l1.777-20.824
			h46.178l1.777,20.824l-0.201,0.044c-0.131,0.03-13.213,3.027-19.888,9.136L44.155,57.578z M34.919,57.106h9.055
			c6.327-5.735,18.153-8.733,19.835-9.138l-1.704-19.986H16.788l-1.704,19.986C16.766,48.373,28.592,51.371,34.919,57.106"/>
		<path fill="#04080F" d="M34.578,57.352c-0.013-0.305-0.02-0.611-0.025-0.92c-0.054-2.487-0.104-4.838-3.425-6.705
			c-4.495-2.527-16.152-1.341-16.27-1.328l-0.052-0.497c0.486-0.051,11.934-1.217,16.565,1.39c3.57,2.007,3.626,4.611,3.681,7.13
			c0.006,0.305,0.012,0.608,0.025,0.91L34.578,57.352z"/>
		<path fill="#04080F" d="M44.313,57.352l-0.5-0.021c0.015-0.302,0.021-0.605,0.026-0.91c0.054-2.519,0.109-5.123,3.68-7.13
			c4.633-2.606,16.08-1.441,16.566-1.39l-0.052,0.497c-0.117-0.013-11.775-1.198-16.271,1.328c-3.32,1.867-3.371,4.218-3.424,6.705
			C44.334,56.741,44.327,57.047,44.313,57.352"/>
		<path fill="#04080F" d="M39.406,31.877c-11.439,0-22.848-3.761-22.961-3.799l0.149-0.447c0.112,0.038,11.452,3.775,22.812,3.775
			c11.36,0,22.729-3.737,22.841-3.775l0.148,0.447C62.281,28.116,50.846,31.877,39.406,31.877"/>
		<path fill="#04080F" d="M39.42,34.797c-11.438,0-22.965-3.697-23.08-3.735l0.145-0.447c0.115,0.037,11.574,3.712,22.936,3.712
			s22.821-3.675,22.938-3.712l0.144,0.447C62.386,31.1,50.858,34.797,39.42,34.797"/>
	</g>
</g>
</svg>
