<?xml version="1.0" encoding="utf-8"?>
<!-- Generator: Adobe Illustrator 16.0.0, SVG Export Plug-In . SVG Version: 6.00 Build 0)  -->
<!DOCTYPE svg PUBLIC "-//W3C//DTD SVG 1.1//EN" "http://www.w3.org/Graphics/SVG/1.1/DTD/svg11.dtd">
<svg version="1.1" xmlns="http://www.w3.org/2000/svg" xmlns:xlink="http://www.w3.org/1999/xlink" x="0px" y="0px"  viewBox="0 0 75 75" enable-background="new 0 0 75 75" xml:space="preserve">
<g id="Accessories">
</g>
<g id="TENCEL_Men_x27_s">
</g>
<g id="TENCEL_Women_x27_s">
	<g>
		<path fill="#FFFFFF" d="M37.499,53.714h-21.49l-0.479-7.095c0,0,6.346-6.686,7.711-10.097h1.604c0,0,2.967,3.615,8.631,9.21
			c0,0,1.908,2.183,3.273,2.251h1.502c1.398-0.17,3.273-2.251,3.273-2.251c5.641-5.572,8.709-9.246,8.717-9.253l1.518,0.043
			c1.363,3.411,7.711,10.097,7.711,10.097l-0.479,7.095H37.499"/>
		<path fill="none" stroke="#99979A" stroke-width="0.5" stroke-miterlimit="10" d="M37.499,53.714h-21.49l-0.479-7.095
			c0,0,6.346-6.686,7.711-10.097h1.604c0,0,2.967,3.615,8.631,9.21c0,0,1.908,2.183,3.273,2.251h1.502
			c1.398-0.17,3.273-2.251,3.273-2.251c5.641-5.572,8.709-9.246,8.717-9.253l1.518,0.043c1.363,3.411,7.711,10.097,7.711,10.097
			l-0.479,7.095H37.499"/>
		<rect x="15.991" y="52.182" fill="#FFFFFF" width="43.018" height="3.548"/>
		
			<rect x="15.991" y="52.182" fill="none" stroke="#99979A" stroke-width="0.5" stroke-miterlimit="10" width="43.018" height="3.548"/>
		<path fill="none" stroke="#99979A" stroke-width="0.5" stroke-miterlimit="10" d="M24.97,44.925c0,0,1.471,5.745,1.926,7.257"/>
		<path fill="#FFFFFF" d="M50.241,36.479c-0.068,0.068,3.547-17.208,3.547-17.208l1.5,0.035L51.81,36.411L50.241,36.479z"/>
		<path fill="none" stroke="#99979A" stroke-width="0.5" stroke-miterlimit="10" d="M50.241,36.479
			c-0.068,0.068,3.547-17.208,3.547-17.208l1.5,0.035L51.81,36.411L50.241,36.479z"/>
		<path fill="#FFFFFF" d="M24.845,36.521c0.068,0.068-3.547-17.208-3.547-17.208l-1.502,0.034l3.48,17.106L24.845,36.521z"/>
		<path fill="none" stroke="#99979A" stroke-width="0.5" stroke-miterlimit="10" d="M24.845,36.521
			c0.068,0.068-3.547-17.208-3.547-17.208l-1.502,0.034l3.48,17.106L24.845,36.521z"/>
		<path fill="#FFFFFF" d="M26.896,52.182c0,0,1.883-3.041,9.971-3.122c8.086-0.08,9.576,3.122,9.576,3.122H26.896z"/>
		<path fill="none" stroke="#99979A" stroke-width="0.5" stroke-miterlimit="10" d="M26.896,52.182c0,0,1.883-3.041,9.971-3.122
			c8.086-0.08,9.576,3.122,9.576,3.122H26.896z"/>
		<path fill="none" stroke="#99979A" stroke-width="0.5" stroke-miterlimit="10" d="M48.366,44.925c0,0-1.469,5.745-1.924,7.257"/>
	</g>
</g>
<g id="STE">
</g>
<g id="Invisible">
</g>
<g id="Socks">
</g>
<g id="Cashmere">
</g>
<g id="Titles" display="none">
	<text transform="matrix(1 0 0 1 26.708 2.8979)" display="inline"><tspan x="0" y="0" fill="#9B9694" font-family="'CircularAirPro-Bold'" font-size="4.4">T</tspan><tspan x="2.31" y="0" fill="#9B9694" font-family="'CircularAirPro-Bold'" font-size="4.4">en</tspan><tspan x="7.312" y="0" fill="#9B9694" font-family="'CircularAirPro-Bold'" font-size="4.4">c</tspan><tspan x="9.715" y="0" fill="#9B9694" font-family="'CircularAirPro-Bold'" font-size="4.4">el B</tspan><tspan x="17.129" y="0" fill="#9B9694" font-family="'CircularAirPro-Bold'" font-size="4.4">r</tspan><tspan x="18.871" y="0" fill="#9B9694" font-family="'CircularAirPro-Bold'" font-size="4.4">a</tspan></text>
</g>
<g id="OC_Womens">
</g>
<g id="OC_Mens">
</g>
<g id="STA_Womens">
</g>
<g id="STA_Mens">
</g>
</svg>
