<?xml version="1.0" encoding="utf-8"?>
<!-- Generator: Adobe Illustrator 16.0.0, SVG Export Plug-In . SVG Version: 6.00 Build 0)  -->
<!DOCTYPE svg PUBLIC "-//W3C//DTD SVG 1.1//EN" "http://www.w3.org/Graphics/SVG/1.1/DTD/svg11.dtd">
<svg version="1.1" xmlns="http://www.w3.org/2000/svg" xmlns:xlink="http://www.w3.org/1999/xlink" x="0px" y="0px"  viewBox="0 0 75 75" enable-background="new 0 0 75 75" xml:space="preserve">
<g id="STE">
	<g>
		<path fill="#E2E2E2" stroke="#99979A" stroke-width="0.5" stroke-miterlimit="10" d="M52.15,27.836
			c1.579-8.978,1.579-9.076,1.579-9.076h-1.184c0,0-1.449,8.901-3.354,12.629c-2.286,4.471-8.02,5.453-11.642,5.453
			c-4.534,0-9.455-0.982-11.74-5.453c-1.905-3.728-3.354-12.629-3.354-12.629h-1.185c0,0,0.1,0.099,1.578,9.076
			c0.145,0.874,0.208,1.695,0.204,2.468c-0.036,8.204-7.702,10.753-7.702,10.753l1.511,15.183h7.861h11.346h0.1h2.664h0.098h16.447
			h2.762l1.509-15.183C59.648,41.057,50.365,37.989,52.15,27.836z"/>
		<line fill="none" stroke="#99979A" stroke-width="0.5" stroke-miterlimit="10" x1="16.565" y1="50.418" x2="58.535" y2="50.418"/>
		<line fill="none" stroke="#99979A" stroke-width="0.5" stroke-miterlimit="10" x1="23.047" y1="30.205" x2="25.218" y2="30.205"/>
		<line fill="none" stroke="#99979A" stroke-width="0.5" stroke-miterlimit="10" x1="49.685" y1="30.205" x2="51.854" y2="30.205"/>
	</g>
</g>
<g id="Titles" display="none">
	<text transform="matrix(1 0 0 1 20.1641 2.9424)" display="inline"><tspan x="0" y="0" fill="#9B9694" font-family="'CircularAirPro-Bold'" font-size="4.4">S</tspan><tspan x="2.648" y="0" fill="#9B9694" font-family="'CircularAirPro-Bold'" font-size="4.4">T </tspan><tspan x="6.459" y="0" fill="#9B9694" font-family="'CircularAirPro-Bold'" font-size="4.4">E</tspan><tspan x="8.967" y="0" fill="#9B9694" font-family="'CircularAirPro-Bold'" font-size="4.4">v</tspan><tspan x="11.304" y="0" fill="#9B9694" font-family="'CircularAirPro-Bold'" font-size="4.4">e</tspan><tspan x="13.736" y="0" fill="#9B9694" font-family="'CircularAirPro-Bold'" font-size="4.4">r</tspan><tspan x="15.558" y="0" fill="#9B9694" font-family="'CircularAirPro-Bold'" font-size="4.4">y</tspan><tspan x="17.925" y="0" fill="#9B9694" font-family="'CircularAirPro-Bold'" font-size="4.4">d</tspan><tspan x="20.613" y="0" fill="#9B9694" font-family="'CircularAirPro-Bold'" font-size="4.4">a</tspan><tspan x="22.933" y="0" fill="#9B9694" font-family="'CircularAirPro-Bold'" font-size="4.4">y </tspan></text>
</g></svg>
